<?xml version="1.0" encoding="UTF-8" standalone="no"?>
<!DOCTYPE svg PUBLIC "-//W3C//DTD SVG 1.1//EN"
 "http://www.w3.org/Graphics/SVG/1.1/DTD/svg11.dtd">
<!-- Generated by graphviz version 2.38.0 (20140413.2041)
 -->
<!-- Title: G Pages: 1 -->
<svg width="3665pt" height="1396pt"
 viewBox="0.00 0.00 3664.76 1396.31" xmlns="http://www.w3.org/2000/svg" xmlns:xlink="http://www.w3.org/1999/xlink">
<g id="graph0" class="graph" transform="scale(1 1) rotate(0) translate(4 1392.31)">
<title>G</title>
<polygon fill="white" stroke="none" points="-4,4 -4,-1392.31 3660.76,-1392.31 3660.76,4 -4,4"/>
<!-- Vinayak Mathur -->
<g id="node1" class="node"><title>Vinayak Mathur</title>
<ellipse fill="black" stroke="black" cx="1756" cy="-1365.69" rx="128.845" ry="22.7556"/>
<text text-anchor="middle" x="1756" y="-1358.49" font-family="sans-serif" font-size="24.00" fill="white">Vinayak Mathur</text>
</g>
<!-- Adrian Price&#45;Whelan -->
<g id="node3" class="node"><title>Adrian Price&#45;Whelan</title>
<ellipse fill="black" stroke="black" cx="1062" cy="-150.627" rx="166.881" ry="22.7556"/>
<text text-anchor="middle" x="1062" y="-143.427" font-family="sans-serif" font-size="24.00" fill="white">Adrian Price&#45;Whelan</text>
</g>
<!-- Vinayak Mathur&#45;&gt;Adrian Price&#45;Whelan -->
<g id="edge2" class="edge"><title>Vinayak Mathur&#45;&gt;Adrian Price&#45;Whelan</title>
<path fill="none" stroke="black" stroke-dasharray="1,5" d="M1627.41,-1363.48C1386.46,-1360.6 888.759,-1351.48 862,-1325.06 820.477,-1284.07 847,-1121.27 847,-1062.92 847,-1062.92 847,-1062.92 847,-858.411 847,-802.978 809.814,-788.653 825.646,-735.529 880.221,-552.418 1006.43,-558.876 1061,-375.765 1066.74,-356.489 1073.93,-345.918 1061,-330.51 1031.41,-295.244 988.588,-347.776 959,-312.51 953.287,-305.7 953.476,-299.474 959,-292.51 980.84,-264.975 1011.41,-299.622 1036,-274.51 1059.4,-250.608 1064.09,-211.227 1064.1,-183.501"/>
<polygon fill="black" stroke="black" points="1067.59,-183.43 1063.9,-173.502 1060.6,-183.57 1067.59,-183.43"/>
<text text-anchor="middle" x="957.177" y="-752.156" font-family="sans-serif" font-size="20.00" fill="red">probabilistic graphical models</text>
</g>
<!-- Jonathan Whitmore -->
<g id="node7" class="node"><title>Jonathan Whitmore</title>
<ellipse fill="black" stroke="black" cx="716" cy="-251.882" rx="158.427" ry="22.7556"/>
<text text-anchor="middle" x="716" y="-244.682" font-family="sans-serif" font-size="24.00" fill="white">Jonathan Whitmore</text>
</g>
<!-- Vinayak Mathur&#45;&gt;Jonathan Whitmore -->
<g id="edge1" class="edge"><title>Vinayak Mathur&#45;&gt;Jonathan Whitmore</title>
<path fill="none" stroke="black" stroke-dasharray="1,5" d="M1627.38,-1363.48C1380.69,-1360.58 862.745,-1351.38 834,-1325.06 752.112,-1250.06 753.494,-440.164 736,-330.51 733.548,-315.138 729.42,-298.379 725.55,-284.381"/>
<polygon fill="black" stroke="black" points="728.908,-283.394 722.804,-274.734 722.175,-285.31 728.908,-283.394"/>
<text text-anchor="middle" x="792.793" y="-802.784" font-family="sans-serif" font-size="20.00" fill="red">Jupyter</text>
</g>
<!-- breakout -->
<g id="node14" class="node"><title>breakout</title>
<polygon fill="black" stroke="black" points="1857,-72 1569,-72 1569,-0 1857,-0 1857,-72"/>
<text text-anchor="middle" x="1713" y="-27" font-family="sans-serif" font-size="30.00" fill="white">breakout</text>
</g>
<!-- Vinayak Mathur&#45;&gt;breakout -->
<g id="edge5" class="edge"><title>Vinayak Mathur&#45;&gt;breakout</title>
<path fill="none" stroke="black" stroke-dasharray="1,5" d="M1883.71,-1362.23C2240.93,-1354.83 3227.85,-1330.54 3282,-1287.06 3528.15,-1089.39 3488,-922.968 3488,-607.274 3488,-607.274 3488,-607.274 3488,-149.627 3488,-45.316 3364.21,-105.129 3261,-90 2995.69,-51.1093 2204.27,-40.6476 1867.48,-37.9231"/>
<polygon fill="black" stroke="black" points="1867.19,-34.4207 1857.16,-37.8409 1867.13,-41.4205 1867.19,-34.4207"/>
<text text-anchor="middle" x="3573.38" y="-701.529" font-family="sans-serif" font-size="20.00" fill="red">stochastic gradient</text>
</g>
<!-- Casey Law -->
<g id="node16" class="node"><title>Casey Law</title>
<ellipse fill="black" stroke="black" cx="1285" cy="-1264.43" rx="95.0272" ry="22.7556"/>
<text text-anchor="middle" x="1285" y="-1257.23" font-family="sans-serif" font-size="24.00" fill="white">Casey Law</text>
</g>
<!-- Vinayak Mathur&#45;&gt;Casey Law -->
<g id="edge3" class="edge"><title>Vinayak Mathur&#45;&gt;Casey Law</title>
<path fill="none" stroke="black" stroke-dasharray="1,5" d="M1676.1,-1347.85C1589.04,-1329.5 1450.62,-1300.33 1363.94,-1282.07"/>
<polygon fill="black" stroke="black" points="1364.66,-1278.64 1354.16,-1280 1363.22,-1285.49 1364.66,-1278.64"/>
<text text-anchor="middle" x="1603.19" y="-1309.06" font-family="sans-serif" font-size="20.00" fill="red">Travis&#45;CI</text>
</g>
<!-- Madhura Killedar -->
<g id="node21" class="node"><title>Madhura Killedar</title>
<ellipse fill="black" stroke="black" cx="2622" cy="-656.902" rx="139.708" ry="22.7556"/>
<text text-anchor="middle" x="2622" y="-649.702" font-family="sans-serif" font-size="24.00" fill="white">Madhura Killedar</text>
</g>
<!-- Vinayak Mathur&#45;&gt;Madhura Killedar -->
<g id="edge6" class="edge"><title>Vinayak Mathur&#45;&gt;Madhura Killedar</title>
<path fill="none" stroke="black" stroke-dasharray="1,5" d="M1801.94,-1344.53C1865.95,-1317.24 1986.14,-1268.86 2093,-1241.8 2470.51,-1146.22 2723.83,-1344.54 2941,-1021.29 2960.55,-992.192 3030.26,-918.097 2743,-697.529 2733.55,-690.272 2722.71,-684.314 2711.49,-679.43"/>
<polygon fill="black" stroke="black" points="2712.58,-676.095 2702,-675.575 2709.95,-682.581 2712.58,-676.095"/>
<text text-anchor="middle" x="3030.16" y="-1005.29" font-family="sans-serif" font-size="20.00" fill="red">machine learning</text>
</g>
<!-- Dan F&#45;M -->
<g id="node25" class="node"><title>Dan F&#45;M</title>
<ellipse fill="black" stroke="black" cx="2271" cy="-150.627" rx="77.1303" ry="22.7556"/>
<text text-anchor="middle" x="2271" y="-143.427" font-family="sans-serif" font-size="24.00" fill="white">Dan F&#45;M</text>
</g>
<!-- Vinayak Mathur&#45;&gt;Dan F&#45;M -->
<g id="edge4" class="edge"><title>Vinayak Mathur&#45;&gt;Dan F&#45;M</title>
<path fill="none" stroke="black" stroke-dasharray="1,5" d="M1881.17,-1360.17C2237.14,-1347.09 3231.4,-1308.68 3258,-1287.06 3283.76,-1266.11 3277,-1248.01 3277,-1214.8 3277,-1214.8 3277,-1214.8 3277,-807.784 3277,-757 3277.7,-737.981 3247,-697.529 3213.83,-653.829 3192.06,-654.346 3141,-634.274 3105.47,-620.305 3087.96,-638.62 3057,-616.274 3049.53,-610.885 2893.95,-338.271 2889,-330.51 2859.56,-284.396 2860.12,-265.336 2819,-229.255 2791.21,-204.872 2780.54,-201.433 2745,-191.255 2674.58,-171.09 2474.15,-159.843 2357.7,-154.838"/>
<polygon fill="black" stroke="black" points="2357.54,-151.328 2347.4,-154.402 2357.24,-158.321 2357.54,-151.328"/>
<text text-anchor="middle" x="3363.16" y="-752.156" font-family="sans-serif" font-size="20.00" fill="red">packaging (Python)</text>
</g>
<!-- Dalya Baron -->
<g id="node2" class="node"><title>Dalya Baron</title>
<ellipse fill="black" stroke="black" cx="3026" cy="-1163.18" rx="104.903" ry="22.7556"/>
<text text-anchor="middle" x="3026" y="-1155.98" font-family="sans-serif" font-size="24.00" fill="white">Dalya Baron</text>
</g>
<!-- Phil Marshall -->
<g id="node6" class="node"><title>Phil Marshall</title>
<ellipse fill="black" stroke="black" cx="2505" cy="-859.411" rx="108.411" ry="22.7556"/>
<text text-anchor="middle" x="2505" y="-852.211" font-family="sans-serif" font-size="24.00" fill="white">Phil Marshall</text>
</g>
<!-- Dalya Baron&#45;&gt;Phil Marshall -->
<g id="edge10" class="edge"><title>Dalya Baron&#45;&gt;Phil Marshall</title>
<path fill="none" stroke="black" stroke-dasharray="1,5" d="M2955.16,-1146.46C2880.17,-1127.04 2761.45,-1088.11 2678.65,-1021.29 2627.89,-980.339 2646.23,-941.634 2596,-900.039 2588.34,-893.692 2579.5,-888.192 2570.41,-883.48"/>
<polygon fill="black" stroke="black" points="2571.79,-880.26 2561.27,-879.028 2568.72,-886.553 2571.79,-880.26"/>
<text text-anchor="middle" x="2810.18" y="-1005.29" font-family="sans-serif" font-size="20.00" fill="red">probabilistic graphical models</text>
</g>
<!-- Grigor Aslanyan -->
<g id="node10" class="node"><title>Grigor Aslanyan</title>
<ellipse fill="black" stroke="black" cx="1624" cy="-1061.92" rx="132.127" ry="22.7556"/>
<text text-anchor="middle" x="1624" y="-1054.72" font-family="sans-serif" font-size="24.00" fill="white">Grigor Aslanyan</text>
</g>
<!-- Dalya Baron&#45;&gt;Grigor Aslanyan -->
<g id="edge9" class="edge"><title>Dalya Baron&#45;&gt;Grigor Aslanyan</title>
<path fill="none" stroke="black" stroke-dasharray="1,5" d="M2926.87,-1155.74C2757.69,-1144.77 2402.39,-1121.76 2102,-1102.55 1975.78,-1094.48 1944,-1095.56 1818,-1084.55 1792.59,-1082.33 1765.36,-1079.54 1739.56,-1076.72"/>
<polygon fill="black" stroke="black" points="1739.7,-1073.21 1729.38,-1075.59 1738.93,-1080.17 1739.7,-1073.21"/>
<text text-anchor="middle" x="2495.38" y="-1106.55" font-family="sans-serif" font-size="20.00" fill="red">gaussian processes</text>
</g>
<!-- Dalya Baron&#45;&gt;breakout -->
<g id="edge8" class="edge"><title>Dalya Baron&#45;&gt;breakout</title>
<path fill="none" stroke="black" stroke-dasharray="1,5" d="M3081.46,-1143.88C3116.42,-1128.46 3155,-1102.48 3155,-1062.92 3155,-1062.92 3155,-1062.92 3155,-757.156 3155,-666.769 3189,-647.034 3189,-556.647 3189,-556.647 3189,-556.647 3189,-149.627 3189,-119.986 3133.1,-101.698 3086,-90 2970.54,-61.3201 2201.24,-45.1538 1867.26,-39.4146"/>
<polygon fill="black" stroke="black" points="1867.08,-35.9111 1857.03,-39.2396 1866.96,-42.9101 1867.08,-35.9111"/>
<text text-anchor="middle" x="3270.38" y="-600.274" font-family="sans-serif" font-size="20.00" fill="red">stochastic gradient</text>
</g>
<!-- Dalya Baron&#45;&gt;Dan F&#45;M -->
<g id="edge7" class="edge"><title>Dalya Baron&#45;&gt;Dan F&#45;M</title>
<path fill="none" stroke="black" stroke-dasharray="1,5" d="M3047.64,-1140.97C3074.89,-1111.69 3117.35,-1056.26 3110,-1001.29 3087.58,-833.721 3085.59,-785.501 3010,-634.274 3005.47,-625.209 3001.58,-624.735 2996,-616.274 2962.11,-564.871 2959.77,-548.351 2929,-495.019 2886.36,-421.104 2879.18,-400.248 2830,-330.51 2796.47,-282.955 2793.68,-263.999 2747,-229.255 2711.84,-203.085 2698.48,-202.059 2656,-191.255 2555.97,-165.813 2437.38,-156.636 2358.5,-153.364"/>
<polygon fill="black" stroke="black" points="2358.25,-149.852 2348.12,-152.958 2357.98,-156.847 2358.25,-149.852"/>
<text text-anchor="middle" x="3064.63" y="-650.902" font-family="sans-serif" font-size="20.00" fill="red">autodiff</text>
</g>
<!-- Adrian Price&#45;Whelan&#45;&gt;breakout -->
<g id="edge11" class="edge"><title>Adrian Price&#45;Whelan&#45;&gt;breakout</title>
<path fill="none" stroke="black" stroke-dasharray="1,5" d="M1161.58,-132.399C1267.35,-114.1 1435.92,-84.936 1558.87,-63.6659"/>
<polygon fill="black" stroke="black" points="1559.5,-67.1091 1568.75,-61.9555 1558.3,-60.2116 1559.5,-67.1091"/>
<text text-anchor="middle" x="1431.35" y="-94" font-family="sans-serif" font-size="20.00" fill="red">GAIA DRI</text>
</g>
<!-- Daniela Huppenkothen -->
<g id="node4" class="node"><title>Daniela Huppenkothen</title>
<ellipse fill="black" stroke="black" cx="2328" cy="-758.156" rx="183.955" ry="22.7556"/>
<text text-anchor="middle" x="2328" y="-750.956" font-family="sans-serif" font-size="24.00" fill="white">Daniela Huppenkothen</text>
</g>
<!-- Daniela Huppenkothen&#45;&gt;Phil Marshall -->
<g id="edge14" class="edge"><title>Daniela Huppenkothen&#45;&gt;Phil Marshall</title>
<path fill="none" stroke="black" stroke-dasharray="1,5" d="M2456.9,-774.328C2483.62,-780.156 2506.33,-788.083 2515,-798.784 2521.39,-806.674 2521.53,-817.117 2519.22,-827.056"/>
<polygon fill="black" stroke="black" points="2515.84,-826.127 2516.24,-836.714 2522.53,-828.192 2515.84,-826.127"/>
<text text-anchor="middle" x="2652.18" y="-802.784" font-family="sans-serif" font-size="20.00" fill="red">probabilistic graphical models</text>
</g>
<!-- Zach Pace -->
<g id="node11" class="node"><title>Zach Pace</title>
<ellipse fill="black" stroke="black" cx="2374" cy="-555.647" rx="92.3753" ry="22.7556"/>
<text text-anchor="middle" x="2374" y="-548.447" font-family="sans-serif" font-size="24.00" fill="white">Zach Pace</text>
</g>
<!-- Daniela Huppenkothen&#45;&gt;Zach Pace -->
<g id="edge16" class="edge"><title>Daniela Huppenkothen&#45;&gt;Zach Pace</title>
<path fill="none" stroke="black" stroke-dasharray="1,5" d="M2311.51,-735.334C2294.79,-710.359 2273.37,-668.492 2288.52,-634.274 2297.65,-613.638 2315.29,-596.139 2332.17,-583.009"/>
<polygon fill="black" stroke="black" points="2334.43,-585.695 2340.36,-576.92 2330.25,-580.078 2334.43,-585.695"/>
<text text-anchor="middle" x="2381.24" y="-650.902" font-family="sans-serif" font-size="20.00" fill="red">astronomy cirriculum</text>
</g>
<!-- Daniela Huppenkothen&#45;&gt;Madhura Killedar -->
<g id="edge13" class="edge"><title>Daniela Huppenkothen&#45;&gt;Madhura Killedar</title>
<path fill="none" stroke="black" stroke-dasharray="1,5" d="M2337.24,-735.55C2344.01,-722.417 2354.49,-706.501 2368.69,-697.529 2374.98,-693.551 2443.93,-682.901 2508.31,-673.642"/>
<polygon fill="black" stroke="black" points="2509.18,-677.052 2518.59,-672.17 2508.19,-670.123 2509.18,-677.052"/>
<text text-anchor="middle" x="2446.16" y="-701.529" font-family="sans-serif" font-size="20.00" fill="red">machine learning</text>
</g>
<!-- Daniela Huppenkothen&#45;&gt;Dan F&#45;M -->
<g id="edge15" class="edge"><title>Daniela Huppenkothen&#45;&gt;Dan F&#45;M</title>
<path fill="none" stroke="black" stroke-dasharray="1,5" d="M2509.4,-754.28C2601.97,-749.977 2703.29,-740.029 2743,-717.529 2761.25,-707.188 2764.45,-699.459 2771,-679.529 2805.51,-574.532 2689.63,-524.505 2749.75,-431.765 2760.41,-415.32 2779.34,-430.209 2790,-413.765 2794.84,-406.306 2793.9,-401.751 2790,-393.765 2773.92,-360.865 2563.63,-205.743 2530,-191.255 2475.76,-167.886 2409.91,-158.028 2358.18,-153.988"/>
<polygon fill="black" stroke="black" points="2358.26,-150.484 2348.03,-153.255 2357.76,-157.466 2358.26,-150.484"/>
<text text-anchor="middle" x="2783.63" y="-448.392" font-family="sans-serif" font-size="20.00" fill="red">autodiff</text>
</g>
<!-- Megan Shabram -->
<g id="node26" class="node"><title>Megan Shabram</title>
<ellipse fill="black" stroke="black" cx="1805" cy="-960.666" rx="136.557" ry="22.7556"/>
<text text-anchor="middle" x="1805" y="-953.466" font-family="sans-serif" font-size="24.00" fill="white">Megan Shabram</text>
</g>
<!-- Daniela Huppenkothen&#45;&gt;Megan Shabram -->
<g id="edge12" class="edge"><title>Daniela Huppenkothen&#45;&gt;Megan Shabram</title>
<path fill="none" stroke="black" stroke-dasharray="1,5" d="M2215.55,-776.147C2159.79,-787.768 2092.86,-806.694 2038.23,-836.784 1990.44,-863.11 1995.68,-893.507 1948,-920.039 1933.32,-928.206 1916.84,-934.784 1900.44,-940.052"/>
<polygon fill="black" stroke="black" points="1899.33,-936.729 1890.8,-943.004 1901.38,-943.422 1899.33,-936.729"/>
<text text-anchor="middle" x="2127.38" y="-853.411" font-family="sans-serif" font-size="20.00" fill="red">gaussian processes</text>
</g>
<!-- Kate Follette -->
<g id="node5" class="node"><title>Kate Follette</title>
<ellipse fill="black" stroke="black" cx="1276" cy="-555.647" rx="106.682" ry="22.7556"/>
<text text-anchor="middle" x="1276" y="-548.447" font-family="sans-serif" font-size="24.00" fill="white">Kate Follette</text>
</g>
<!-- Kate Follette&#45;&gt;Adrian Price&#45;Whelan -->
<g id="edge19" class="edge"><title>Kate Follette&#45;&gt;Adrian Price&#45;Whelan</title>
<path fill="none" stroke="black" stroke-dasharray="1,5" d="M1184.38,-543.985C1059.6,-525.989 833.142,-480.702 670.414,-375.765 611.363,-337.685 578.791,-338.146 549,-274.51 540.472,-256.294 535.516,-244.179 549,-229.255 575.504,-199.918 686.842,-216.713 726,-211.255 805.254,-200.208 894.409,-184.22 960.956,-171.579"/>
<polygon fill="black" stroke="black" points="961.854,-174.971 971.022,-169.66 960.543,-168.095 961.854,-174.971"/>
<text text-anchor="middle" x="703.793" y="-347.137" font-family="sans-serif" font-size="20.00" fill="red">Jupyter</text>
</g>
<!-- Kate Follette&#45;&gt;Kate Follette -->
<g id="edge18" class="edge"><title>Kate Follette&#45;&gt;Kate Follette</title>
<path fill="none" stroke="black" stroke-dasharray="1,5" d="M1374.7,-564.238C1390.1,-562.954 1400.59,-560.09 1400.59,-555.647 1400.59,-552.245 1394.44,-549.769 1384.65,-548.218"/>
<polygon fill="black" stroke="black" points="1385.04,-544.741 1374.7,-547.055 1384.23,-551.693 1385.04,-544.741"/>
<text text-anchor="middle" x="1492.83" y="-549.647" font-family="sans-serif" font-size="20.00" fill="red">astronomy cirriculum</text>
</g>
<!-- Oleg Burgueño -->
<g id="node15" class="node"><title>Oleg Burgueño</title>
<ellipse fill="black" stroke="black" cx="1717" cy="-454.392" rx="125.451" ry="22.7556"/>
<text text-anchor="middle" x="1717" y="-447.192" font-family="sans-serif" font-size="24.00" fill="white">Oleg Burgueño</text>
</g>
<!-- Kate Follette&#45;&gt;Oleg Burgueño -->
<g id="edge17" class="edge"><title>Kate Follette&#45;&gt;Oleg Burgueño</title>
<path fill="none" stroke="black" stroke-dasharray="1,5" d="M1371.21,-545.334C1419.14,-539.24 1477.8,-529.628 1529,-515.019 1550.92,-508.764 1554.72,-502.567 1576.23,-495.019 1595.79,-488.156 1617.19,-481.64 1637.27,-475.948"/>
<polygon fill="black" stroke="black" points="1638.32,-479.289 1647.01,-473.222 1636.43,-472.548 1638.32,-479.289"/>
<text text-anchor="middle" x="1665.38" y="-499.019" font-family="sans-serif" font-size="20.00" fill="red">gaussian processes</text>
</g>
<!-- Phil Marshall&#45;&gt;Daniela Huppenkothen -->
<g id="edge23" class="edge"><title>Phil Marshall&#45;&gt;Daniela Huppenkothen</title>
<path fill="none" stroke="black" stroke-dasharray="1,5" d="M2413.93,-846.943C2379.31,-840.658 2345.46,-831.501 2334.23,-818.784 2327.58,-811.257 2325.06,-800.934 2324.5,-790.991"/>
<polygon fill="black" stroke="black" points="2328,-790.913 2324.53,-780.901 2321,-790.889 2328,-790.913"/>
<text text-anchor="middle" x="2423.38" y="-802.784" font-family="sans-serif" font-size="20.00" fill="red">gaussian processes</text>
</g>
<!-- Phil Marshall&#45;&gt;breakout -->
<g id="edge22" class="edge"><title>Phil Marshall&#45;&gt;breakout</title>
<path fill="none" stroke="black" stroke-dasharray="1,5" d="M2609.38,-853.057C2683.78,-847.717 2776.35,-837.512 2810,-818.784 2871.11,-784.775 2887.82,-638.329 2890,-634.274 2974.1,-478.194 3113,-480.806 3113,-303.51 3113,-303.51 3113,-303.51 3113,-149.627 3113,-64.9302 3015.32,-105.234 2932,-90 2732.28,-53.4824 2148.16,-41.9364 1867.31,-38.44"/>
<polygon fill="black" stroke="black" points="1867.08,-34.937 1857.03,-38.314 1866.99,-41.9364 1867.08,-34.937"/>
<text text-anchor="middle" x="3104.91" y="-448.392" font-family="sans-serif" font-size="20.00" fill="red">sphinx</text>
</g>
<!-- Brigitta Sipocz -->
<g id="node17" class="node"><title>Brigitta Sipocz</title>
<ellipse fill="black" stroke="black" cx="2062" cy="-251.882" rx="119.566" ry="22.7556"/>
<text text-anchor="middle" x="2062" y="-244.682" font-family="sans-serif" font-size="24.00" fill="white">Brigitta Sipocz</text>
</g>
<!-- Phil Marshall&#45;&gt;Brigitta Sipocz -->
<g id="edge20" class="edge"><title>Phil Marshall&#45;&gt;Brigitta Sipocz</title>
<path fill="none" stroke="black" stroke-dasharray="1,5" d="M2421.42,-844.96C2319.28,-827.897 2157.24,-798.559 2135,-780.784 2079.07,-736.077 2114.34,-688.853 2068,-634.274 2039.12,-600.262 2014.57,-611.4 1984.68,-578.274 1963.34,-554.629 1958.71,-545.92 1951,-515.019 1943.34,-484.331 1936.24,-459.509 1961,-393.765 1977.22,-350.701 2010.1,-308.82 2033.94,-282.072"/>
<polygon fill="black" stroke="black" points="2036.59,-284.364 2040.72,-274.606 2031.41,-279.66 2036.59,-284.364"/>
<text text-anchor="middle" x="2071.16" y="-549.647" font-family="sans-serif" font-size="20.00" fill="red">packaging (Python)</text>
</g>
<!-- Phil Marshall&#45;&gt;Dan F&#45;M -->
<g id="edge21" class="edge"><title>Phil Marshall&#45;&gt;Dan F&#45;M</title>
<path fill="none" stroke="black" stroke-dasharray="1,5" d="M2613.09,-856.804C2682.31,-853.308 2763.42,-843.773 2787,-818.784 2891.6,-707.945 2808.77,-629.296 2815,-477.019 2816.52,-439.833 2820.81,-427.907 2806,-393.765 2749.77,-264.165 2695.75,-233.691 2561,-191.255 2494.47,-170.303 2415.92,-160.427 2357.36,-155.772"/>
<polygon fill="black" stroke="black" points="2357.27,-152.256 2347.03,-154.989 2356.74,-159.236 2357.27,-152.256"/>
<text text-anchor="middle" x="2862.15" y="-499.019" font-family="sans-serif" font-size="20.00" fill="red">databases</text>
</g>
<!-- Ben Nelson -->
<g id="node8" class="node"><title>Ben Nelson</title>
<ellipse fill="black" stroke="black" cx="1248" cy="-251.882" rx="99.1004" ry="22.7556"/>
<text text-anchor="middle" x="1248" y="-244.682" font-family="sans-serif" font-size="24.00" fill="white">Ben Nelson</text>
</g>
<!-- Ben Nelson&#45;&gt;Daniela Huppenkothen -->
<g id="edge26" class="edge"><title>Ben Nelson&#45;&gt;Daniela Huppenkothen</title>
<path fill="none" stroke="black" stroke-dasharray="1,5" d="M1248.93,-274.73C1252.42,-326.393 1269.06,-456.149 1348.23,-515.019 1370.21,-531.357 1566.89,-529.173 1594,-533.019 1809.01,-563.522 1866.43,-564.289 2072,-634.274 2148.45,-660.3 2231.87,-703.331 2282.05,-730.949"/>
<polygon fill="black" stroke="black" points="2280.58,-734.136 2291.02,-735.919 2283.97,-728.012 2280.58,-734.136"/>
<text text-anchor="middle" x="1437.38" y="-499.019" font-family="sans-serif" font-size="20.00" fill="red">gaussian processes</text>
</g>
<!-- Layne Price -->
<g id="node22" class="node"><title>Layne Price</title>
<ellipse fill="black" stroke="black" cx="732" cy="-150.627" rx="100.862" ry="22.7556"/>
<text text-anchor="middle" x="732" y="-143.427" font-family="sans-serif" font-size="24.00" fill="white">Layne Price</text>
</g>
<!-- Ben Nelson&#45;&gt;Layne Price -->
<g id="edge24" class="edge"><title>Ben Nelson&#45;&gt;Layne Price</title>
<path fill="none" stroke="black" stroke-dasharray="1,5" d="M1174.34,-236.714C1079.85,-218.538 916.301,-187.079 816.743,-167.928"/>
<polygon fill="black" stroke="black" points="817.198,-164.452 806.717,-166 815.876,-171.326 817.198,-164.452"/>
<text text-anchor="middle" x="1113.16" y="-195.255" font-family="sans-serif" font-size="20.00" fill="red">machine learning</text>
</g>
<!-- Ben Nelson&#45;&gt;Dan F&#45;M -->
<g id="edge25" class="edge"><title>Ben Nelson&#45;&gt;Dan F&#45;M</title>
<path fill="none" stroke="black" stroke-dasharray="1,5" d="M1265.69,-229.386C1278.32,-215.758 1296.57,-199.243 1316.68,-191.255 1395.84,-159.796 1962.8,-153.308 2183.45,-151.973"/>
<polygon fill="black" stroke="black" points="2183.71,-155.471 2193.69,-151.913 2183.67,-148.471 2183.71,-155.471"/>
<text text-anchor="middle" x="1403.16" y="-195.255" font-family="sans-serif" font-size="20.00" fill="red">packaging (Python)</text>
</g>
<!-- Usman Khan -->
<g id="node9" class="node"><title>Usman Khan</title>
<ellipse fill="black" stroke="black" cx="1482" cy="-353.137" rx="109.333" ry="22.7556"/>
<text text-anchor="middle" x="1482" y="-345.937" font-family="sans-serif" font-size="24.00" fill="white">Usman Khan</text>
</g>
<!-- Usman Khan&#45;&gt;Adrian Price&#45;Whelan -->
<g id="edge31" class="edge"><title>Usman Khan&#45;&gt;Adrian Price&#45;Whelan</title>
<path fill="none" stroke="black" stroke-dasharray="1,5" d="M1549.78,-335.345C1577.54,-325.305 1599.7,-310.901 1583,-292.51 1555.03,-261.706 1433.77,-293.27 1396.63,-274.51 1372.5,-262.323 1379.06,-243.352 1356,-229.255 1346.9,-223.693 1232.14,-194.22 1148.73,-173.24"/>
<polygon fill="black" stroke="black" points="1149.54,-169.832 1138.98,-170.79 1147.83,-176.621 1149.54,-169.832"/>
<text text-anchor="middle" x="1437.19" y="-245.882" font-family="sans-serif" font-size="20.00" fill="red">Travis&#45;CI</text>
</g>
<!-- Usman Khan&#45;&gt;Ben Nelson -->
<g id="edge27" class="edge"><title>Usman Khan&#45;&gt;Ben Nelson</title>
<path fill="none" stroke="black" stroke-dasharray="1,5" d="M1396.99,-338.711C1371.59,-332.754 1344.25,-324.323 1320.65,-312.51 1304.58,-304.466 1288.89,-292.307 1276.22,-281.062"/>
<polygon fill="black" stroke="black" points="1278.5,-278.395 1268.76,-274.223 1273.77,-283.558 1278.5,-278.395"/>
<text text-anchor="middle" x="1452.18" y="-296.51" font-family="sans-serif" font-size="20.00" fill="red">probabilistic graphical models</text>
</g>
<!-- Usman Khan&#45;&gt;breakout -->
<g id="edge30" class="edge"><title>Usman Khan&#45;&gt;breakout</title>
<path fill="none" stroke="black" stroke-dasharray="1,5" d="M1565.86,-338.585C1579.26,-332.706 1591.48,-324.353 1600,-312.51 1605.19,-305.293 1605.67,-299.355 1600,-292.51 1572.59,-259.415 1532.41,-307.604 1505,-274.51 1492.17,-259.02 1496.94,-247.682 1505,-229.255 1533.41,-164.308 1595.78,-111.541 1644.86,-77.8325"/>
<polygon fill="black" stroke="black" points="1646.91,-80.6732 1653.23,-72.1749 1642.99,-74.8728 1646.91,-80.6732"/>
<text text-anchor="middle" x="1568.35" y="-195.255" font-family="sans-serif" font-size="20.00" fill="red">GAIA DRI</text>
</g>
<!-- Usman Khan&#45;&gt;Brigitta Sipocz -->
<g id="edge28" class="edge"><title>Usman Khan&#45;&gt;Brigitta Sipocz</title>
<path fill="none" stroke="black" stroke-dasharray="1,5" d="M1554.34,-336.039C1628.59,-319.571 1735.97,-295.924 1755.68,-292.51 1819.73,-281.409 1891.82,-271.935 1949.96,-265.036"/>
<polygon fill="black" stroke="black" points="1950.39,-268.511 1959.91,-263.865 1949.57,-261.559 1950.39,-268.511"/>
<text text-anchor="middle" x="1842.16" y="-296.51" font-family="sans-serif" font-size="20.00" fill="red">packaging (Python)</text>
</g>
<!-- Usman Khan&#45;&gt;Dan F&#45;M -->
<g id="edge29" class="edge"><title>Usman Khan&#45;&gt;Dan F&#45;M</title>
<path fill="none" stroke="black" stroke-dasharray="1,5" d="M1560.33,-337.316C1584.29,-331.278 1610.3,-323.153 1633,-312.51 1646.85,-306.017 1648.09,-300.715 1661,-292.51 1674.77,-283.755 1679.97,-284.335 1693,-274.51 1715.83,-257.289 1716.04,-246.646 1738.75,-229.255 1765.39,-208.846 1772,-201.365 1804,-191.255 1872.54,-169.603 2068.89,-158.963 2184,-154.448"/>
<polygon fill="black" stroke="black" points="2184.34,-157.937 2194.19,-154.055 2184.07,-150.942 2184.34,-157.937"/>
<text text-anchor="middle" x="1771.63" y="-245.882" font-family="sans-serif" font-size="20.00" fill="red">autodiff</text>
</g>
<!-- Grigor Aslanyan&#45;&gt;Adrian Price&#45;Whelan -->
<g id="edge34" class="edge"><title>Grigor Aslanyan&#45;&gt;Adrian Price&#45;Whelan</title>
<path fill="none" stroke="black" stroke-dasharray="1,5" d="M1595.84,-1039.45C1457.47,-933.663 854.363,-469.276 807,-375.765 790.251,-342.695 778.805,-321.425 802,-292.51 825.076,-263.743 849.18,-289.214 883,-274.51 898.082,-267.952 975.791,-213.226 1023.73,-179.054"/>
<polygon fill="black" stroke="black" points="1025.91,-181.794 1032.02,-173.137 1021.85,-176.096 1025.91,-181.794"/>
<text text-anchor="middle" x="1146.16" y="-600.274" font-family="sans-serif" font-size="20.00" fill="red">packaging (Python)</text>
</g>
<!-- Grigor Aslanyan&#45;&gt;Dan F&#45;M -->
<g id="edge33" class="edge"><title>Grigor Aslanyan&#45;&gt;Dan F&#45;M</title>
<path fill="none" stroke="black" stroke-dasharray="1,5" d="M1625.09,-1039C1627.47,-1012.39 1635.03,-967.436 1659,-938.039 1731.52,-849.106 1786.86,-872.992 1888,-818.784 1955.55,-782.582 1966.49,-760.349 2039,-735.529 2142.01,-700.268 2173.11,-712.1 2281,-697.529 2316.24,-692.77 2414.66,-704.476 2440,-679.529 2466.59,-653.355 2431.87,-628.458 2450.75,-596.274 2457.54,-584.694 2467.48,-589.393 2475,-578.274 2493.6,-550.771 2494,-539.224 2494,-506.019 2494,-506.019 2494,-506.019 2494,-250.882 2494,-188.332 2419.87,-164.916 2357.09,-156.3"/>
<polygon fill="black" stroke="black" points="2357.48,-152.822 2347.12,-155.04 2356.6,-159.767 2357.48,-152.822"/>
<text text-anchor="middle" x="2483.63" y="-600.274" font-family="sans-serif" font-size="20.00" fill="red">autodiff</text>
</g>
<!-- Grigor Aslanyan&#45;&gt;Megan Shabram -->
<g id="edge32" class="edge"><title>Grigor Aslanyan&#45;&gt;Megan Shabram</title>
<path fill="none" stroke="black" stroke-dasharray="1,5" d="M1637.44,-1039.12C1646.3,-1026.42 1658.96,-1011.03 1673.69,-1001.29 1685.46,-993.499 1698.83,-987.189 1712.42,-982.094"/>
<polygon fill="black" stroke="black" points="1713.59,-985.394 1721.85,-978.758 1711.26,-978.795 1713.59,-985.394"/>
<text text-anchor="middle" x="1750.16" y="-1005.29" font-family="sans-serif" font-size="20.00" fill="red">machine learning</text>
</g>
<!-- Zach Pace&#45;&gt;breakout -->
<g id="edge38" class="edge"><title>Zach Pace&#45;&gt;breakout</title>
<path fill="none" stroke="black" stroke-dasharray="1,5" d="M2386.89,-533.154C2409.25,-497.916 2458.73,-428.325 2520,-393.765 2610.92,-342.477 2981,-407.899 2981,-303.51 2981,-303.51 2981,-303.51 2981,-149.627 2981,-94.3137 2205.33,-56.6277 1867.34,-42.832"/>
<polygon fill="black" stroke="black" points="1867.36,-39.3299 1857.22,-42.4209 1867.07,-46.3242 1867.36,-39.3299"/>
<text text-anchor="middle" x="3009.91" y="-296.51" font-family="sans-serif" font-size="20.00" fill="red">sphinx</text>
</g>
<!-- Zach Pace&#45;&gt;Oleg Burgueño -->
<g id="edge35" class="edge"><title>Zach Pace&#45;&gt;Oleg Burgueño</title>
<path fill="none" stroke="black" stroke-dasharray="1,5" d="M2307.43,-539.922C2294.09,-537.331 2280.14,-534.873 2267,-533.019 2169.08,-519.199 2143.28,-527.872 2045.23,-515.019 1963.71,-504.333 1871.67,-487.162 1805.84,-473.985"/>
<polygon fill="black" stroke="black" points="1806.41,-470.529 1795.91,-471.989 1805.03,-477.392 1806.41,-470.529"/>
<text text-anchor="middle" x="2134.38" y="-499.019" font-family="sans-serif" font-size="20.00" fill="red">gaussian processes</text>
</g>
<!-- Zach Pace&#45;&gt;Brigitta Sipocz -->
<g id="edge36" class="edge"><title>Zach Pace&#45;&gt;Brigitta Sipocz</title>
<path fill="none" stroke="black" stroke-dasharray="1,5" d="M2319.9,-537.018C2306.18,-531.192 2291.95,-523.88 2280,-515.019 2189.88,-448.2 2113.71,-336.633 2080.23,-283.204"/>
<polygon fill="black" stroke="black" points="2083.1,-281.189 2074.85,-274.535 2077.15,-284.878 2083.1,-281.189"/>
<text text-anchor="middle" x="2215.19" y="-397.765" font-family="sans-serif" font-size="20.00" fill="red">Travis&#45;CI</text>
</g>
<!-- Zach Pace&#45;&gt;Dan F&#45;M -->
<g id="edge37" class="edge"><title>Zach Pace&#45;&gt;Dan F&#45;M</title>
<path fill="none" stroke="black" stroke-dasharray="1,5" d="M2343.3,-534.046C2320.74,-516.203 2294,-488.148 2294,-455.392 2294,-455.392 2294,-455.392 2294,-250.882 2294,-227.792 2288.02,-202.442 2282.16,-183.141"/>
<polygon fill="black" stroke="black" points="2285.41,-181.834 2279.04,-173.369 2278.75,-183.959 2285.41,-181.834"/>
<text text-anchor="middle" x="2380.16" y="-347.137" font-family="sans-serif" font-size="20.00" fill="red">packaging (Python)</text>
</g>
<!-- Zaki Ali -->
<g id="node12" class="node"><title>Zaki Ali</title>
<ellipse fill="black" stroke="black" cx="1404" cy="-1163.18" rx="66.0411" ry="22.7556"/>
<text text-anchor="middle" x="1404" y="-1155.98" font-family="sans-serif" font-size="24.00" fill="white">Zaki Ali</text>
</g>
<!-- Zaki Ali&#45;&gt;Grigor Aslanyan -->
<g id="edge42" class="edge"><title>Zaki Ali&#45;&gt;Grigor Aslanyan</title>
<path fill="none" stroke="black" stroke-dasharray="1,5" d="M1465.82,-1155.08C1497.08,-1149.53 1534.7,-1139.73 1565,-1122.55 1578.45,-1114.92 1590.9,-1103.35 1600.86,-1092.43"/>
<polygon fill="black" stroke="black" points="1603.71,-1094.49 1607.65,-1084.66 1598.44,-1089.89 1603.71,-1094.49"/>
<text text-anchor="middle" x="1679.38" y="-1106.55" font-family="sans-serif" font-size="20.00" fill="red">gaussian processes</text>
</g>
<!-- Zaki Ali&#45;&gt;breakout -->
<g id="edge41" class="edge"><title>Zaki Ali&#45;&gt;breakout</title>
<path fill="none" stroke="black" stroke-dasharray="1,5" d="M1345.26,-1152.73C1316.34,-1148.39 1280.92,-1143.56 1249,-1140.55 1088.63,-1125.4 1047.66,-1134.34 887,-1122.55 843.468,-1119.35 532.945,-1107.79 496,-1084.55 483.129,-1076.45 216.597,-630.894 212.414,-616.274 198.933,-569.159 211,-555.026 211,-506.019 211,-506.019 211,-506.019 211,-149.627 211,-82.56 1175.86,-50.6502 1558.93,-40.6241"/>
<polygon fill="black" stroke="black" points="1559.08,-44.1215 1568.98,-40.3625 1558.89,-37.1239 1559.08,-44.1215"/>
<text text-anchor="middle" x="240.793" y="-600.274" font-family="sans-serif" font-size="20.00" fill="red">Bayes</text>
</g>
<!-- Zaki Ali&#45;&gt;Casey Law -->
<g id="edge39" class="edge"><title>Zaki Ali&#45;&gt;Casey Law</title>
<path fill="none" stroke="black" stroke-dasharray="1,5" d="M1348.16,-1175.48C1331.21,-1181.39 1313.86,-1190.32 1301.63,-1203.8 1294.72,-1211.42 1290.65,-1221.69 1288.26,-1231.55"/>
<polygon fill="black" stroke="black" points="1284.79,-1231.07 1286.34,-1241.55 1291.67,-1232.39 1284.79,-1231.07"/>
<text text-anchor="middle" x="1342.19" y="-1207.8" font-family="sans-serif" font-size="20.00" fill="red">Travis&#45;CI</text>
</g>
<!-- Zaki Ali&#45;&gt;Dan F&#45;M -->
<g id="edge40" class="edge"><title>Zaki Ali&#45;&gt;Dan F&#45;M</title>
<path fill="none" stroke="black" stroke-dasharray="1,5" d="M1373,-1142.72C1366.54,-1137.06 1360.6,-1130.29 1357,-1122.55 1353.25,-1114.49 1354.9,-1111.19 1357,-1102.55 1402.51,-915.377 1510.49,-904.7 1556,-717.529 1558.1,-708.892 1561.29,-704.669 1556,-697.529 1539.6,-675.406 1513.11,-701.652 1496.71,-679.529 1484.73,-663.373 1484.54,-650.289 1496.71,-634.274 1510.75,-615.789 1676.88,-587.909 1698,-578.274 1772.19,-544.431 1784.46,-524.149 1851,-477.019 1901.03,-441.582 1909.15,-426.494 1961,-393.765 2058.37,-332.298 2105.66,-351.812 2191,-274.51 2220.03,-248.215 2243.06,-209.14 2256.82,-182.145"/>
<polygon fill="black" stroke="black" points="2259.98,-183.654 2261.29,-173.141 2253.71,-180.539 2259.98,-183.654"/>
<text text-anchor="middle" x="1543.15" y="-650.902" font-family="sans-serif" font-size="20.00" fill="red">databases</text>
</g>
<!-- Jennifer Sobeck -->
<g id="node13" class="node"><title>Jennifer Sobeck</title>
<ellipse fill="black" stroke="black" cx="3116" cy="-1264.43" rx="133.016" ry="22.7556"/>
<text text-anchor="middle" x="3116" y="-1257.23" font-family="sans-serif" font-size="24.00" fill="white">Jennifer Sobeck</text>
</g>
<!-- Jennifer Sobeck&#45;&gt;Dalya Baron -->
<g id="edge46" class="edge"><title>Jennifer Sobeck&#45;&gt;Dalya Baron</title>
<path fill="none" stroke="black" stroke-dasharray="1,5" d="M3049.83,-1244.78C3040.69,-1239.44 3032.47,-1232.59 3026.69,-1223.8 3021.38,-1215.74 3019.84,-1205.64 3020.04,-1196.05"/>
<polygon fill="black" stroke="black" points="3023.54,-1196.22 3020.84,-1185.97 3016.56,-1195.67 3023.54,-1196.22"/>
<text text-anchor="middle" x="3103.16" y="-1207.8" font-family="sans-serif" font-size="20.00" fill="red">machine learning</text>
</g>
<!-- Jennifer Sobeck&#45;&gt;Phil Marshall -->
<g id="edge45" class="edge"><title>Jennifer Sobeck&#45;&gt;Phil Marshall</title>
<path fill="none" stroke="black" stroke-dasharray="1,5" d="M3008.83,-1250.97C2835.75,-1228.41 2507.01,-1174.58 2437.65,-1084.55 2361.55,-985.789 2540.47,-1052.89 2568,-1021.29 2601.48,-982.876 2562.78,-924.599 2532.96,-889.739"/>
<polygon fill="black" stroke="black" points="2535.23,-887.024 2526,-881.828 2529.98,-891.648 2535.23,-887.024"/>
<text text-anchor="middle" x="2569.18" y="-1055.92" font-family="sans-serif" font-size="20.00" fill="red">probabilistic graphical models</text>
</g>
<!-- Jennifer Sobeck&#45;&gt;breakout -->
<g id="edge44" class="edge"><title>Jennifer Sobeck&#45;&gt;breakout</title>
<path fill="none" stroke="black" stroke-dasharray="1,5" d="M3170.1,-1243.74C3180.48,-1238.35 3190.68,-1231.74 3199,-1223.8 3220.76,-1203.04 3231,-1194.25 3231,-1164.18 3231,-1164.18 3231,-1164.18 3231,-807.784 3231,-765.668 3276.48,-663.042 3307.24,-634.274 3324.42,-618.211 3341.37,-633.843 3357,-616.274 3375.1,-595.938 3371,-583.868 3371,-556.647 3371,-556.647 3371,-556.647 3371,-149.627 3371,-39.718 3239.83,-105.385 3131,-90 2891.05,-56.0787 2182.43,-42.9929 1867.21,-38.7522"/>
<polygon fill="black" stroke="black" points="1867.12,-35.2509 1857.08,-38.6172 1867.03,-42.2503 1867.12,-35.2509"/>
<text text-anchor="middle" x="3391.38" y="-650.902" font-family="sans-serif" font-size="20.00" fill="red">stochastic gradient</text>
</g>
<!-- Jennifer Sobeck&#45;&gt;Dan F&#45;M -->
<g id="edge43" class="edge"><title>Jennifer Sobeck&#45;&gt;Dan F&#45;M</title>
<path fill="none" stroke="black" stroke-dasharray="1,5" d="M3158.8,-1242.95C3166.45,-1237.64 3173.67,-1231.27 3179,-1223.8 3194.82,-1201.65 3193,-1191.4 3193,-1164.18 3193,-1164.18 3193,-1164.18 3193,-807.784 3193,-720.499 3169.73,-688.074 3101,-634.274 3075.03,-613.943 3055.44,-636.001 3029,-616.274 3019.46,-609.154 2926.06,-442.011 2920,-431.765 2893.36,-386.744 2889.08,-373.993 2860,-330.51 2828.72,-283.735 2827.74,-264.655 2784,-229.255 2752.78,-203.984 2740.79,-201.691 2702,-191.255 2586.14,-160.082 2447.13,-152.38 2358.93,-150.997"/>
<polygon fill="black" stroke="black" points="2358.74,-147.494 2348.69,-150.861 2358.64,-154.493 2358.74,-147.494"/>
<text text-anchor="middle" x="3210.63" y="-701.529" font-family="sans-serif" font-size="20.00" fill="red">autodiff</text>
</g>
<!-- Oleg Burgueño&#45;&gt;Phil Marshall -->
<g id="edge48" class="edge"><title>Oleg Burgueño&#45;&gt;Phil Marshall</title>
<path fill="none" stroke="black" stroke-dasharray="1,5" d="M1758.93,-475.752C1766.3,-481.073 1773.15,-487.479 1778,-495.019 1822.87,-564.753 1752.84,-615.597 1805.65,-679.529 1880.95,-770.702 2225.26,-824.662 2401.06,-846.729"/>
<polygon fill="black" stroke="black" points="2400.75,-850.217 2411.1,-847.978 2401.61,-843.271 2400.75,-850.217"/>
<text text-anchor="middle" x="1937.18" y="-650.902" font-family="sans-serif" font-size="20.00" fill="red">probabilistic graphical models</text>
</g>
<!-- Oleg Burgueño&#45;&gt;Usman Khan -->
<g id="edge49" class="edge"><title>Oleg Burgueño&#45;&gt;Usman Khan</title>
<path fill="none" stroke="black" stroke-dasharray="1,5" d="M1669.73,-433.426C1631.63,-417.336 1577.98,-394.677 1537.79,-377.7"/>
<polygon fill="black" stroke="black" points="1538.97,-374.4 1528.4,-373.733 1536.25,-380.848 1538.97,-374.4"/>
<text text-anchor="middle" x="1667.15" y="-397.765" font-family="sans-serif" font-size="20.00" fill="red">databases</text>
</g>
<!-- Oleg Burgueño&#45;&gt;Brigitta Sipocz -->
<g id="edge50" class="edge"><title>Oleg Burgueño&#45;&gt;Brigitta Sipocz</title>
<path fill="none" stroke="black" stroke-dasharray="1,5" d="M1716.82,-431.662C1717.88,-403.507 1724.36,-355.121 1754.68,-330.51 1789.03,-302.618 1911.51,-327.907 1953,-312.51 1967.34,-307.188 1967.86,-300.341 1981,-292.51 1989.67,-287.339 1999.12,-282.258 2008.39,-277.55"/>
<polygon fill="black" stroke="black" points="2010.19,-280.567 2017.58,-272.977 2007.07,-274.3 2010.19,-280.567"/>
<text text-anchor="middle" x="1841.16" y="-347.137" font-family="sans-serif" font-size="20.00" fill="red">packaging (Python)</text>
</g>
<!-- Oleg Burgueño&#45;&gt;Megan Shabram -->
<g id="edge47" class="edge"><title>Oleg Burgueño&#45;&gt;Megan Shabram</title>
<path fill="none" stroke="black" stroke-dasharray="1,5" d="M1742.38,-476.701C1752.8,-488.101 1760.81,-502.361 1753,-515.019 1720.1,-568.348 1685.41,-555.589 1627,-578.274 1605.69,-586.551 1445.83,-618.799 1429,-634.274 1415.23,-646.939 1390.85,-692.004 1405.23,-717.529 1425.02,-752.655 1655.05,-879.189 1756.93,-934.025"/>
<polygon fill="black" stroke="black" points="1755.34,-937.138 1765.8,-938.789 1758.65,-930.972 1755.34,-937.138"/>
<text text-anchor="middle" x="1494.38" y="-701.529" font-family="sans-serif" font-size="20.00" fill="red">gaussian processes</text>
</g>
<!-- Casey Law&#45;&gt;Zaki Ali -->
<g id="edge55" class="edge"><title>Casey Law&#45;&gt;Zaki Ali</title>
<path fill="none" stroke="black" stroke-dasharray="1,5" d="M1346.68,-1247.18C1359.61,-1241.48 1372.27,-1233.88 1382,-1223.8 1389.48,-1216.07 1394.45,-1205.57 1397.74,-1195.55"/>
<polygon fill="black" stroke="black" points="1401.14,-1196.37 1400.5,-1185.79 1394.41,-1194.46 1401.14,-1196.37"/>
<text text-anchor="middle" x="1481.16" y="-1207.8" font-family="sans-serif" font-size="20.00" fill="red">packaging (Python)</text>
</g>
<!-- Casey Law&#45;&gt;breakout -->
<g id="edge53" class="edge"><title>Casey Law&#45;&gt;breakout</title>
<path fill="none" stroke="black" stroke-dasharray="1,5" d="M1191.3,-1260.19C917.84,-1250.1 140,-1216.8 140,-1164.18 140,-1164.18 140,-1164.18 140,-807.784 140,-773.945 135.123,-763.446 116,-735.529 104.955,-719.406 56.783,-697.081 48.1875,-679.529 34.0572,-650.675 46,-639.402 46,-607.274 46,-607.274 46,-607.274 46,-149.627 46,-112.032 71.485,-104.904 106,-90 171.887,-61.5494 1169.2,-44.6036 1558.76,-39.0408"/>
<polygon fill="black" stroke="black" points="1559.03,-42.5374 1568.97,-38.8955 1558.93,-35.5381 1559.03,-42.5374"/>
<text text-anchor="middle" x="77.9062" y="-650.902" font-family="sans-serif" font-size="20.00" fill="red">sphinx</text>
</g>
<!-- Casey Law&#45;&gt;Brigitta Sipocz -->
<g id="edge51" class="edge"><title>Casey Law&#45;&gt;Brigitta Sipocz</title>
<path fill="none" stroke="black" stroke-dasharray="1,5" d="M1279.05,-1241.54C1274.15,-1221.55 1268,-1191.1 1268,-1164.18 1268,-1164.18 1268,-1164.18 1268,-909.039 1268,-773.56 1300.64,-726.367 1400,-634.274 1427.41,-608.873 1439.41,-607.657 1475,-596.274 1500.47,-588.127 1576.56,-598.551 1594,-578.274 1607.12,-563.025 1604.76,-550.015 1594,-533.019 1584.01,-517.228 1565.99,-530.811 1556,-515.019 1539.65,-489.177 1566.25,-447.198 1583,-431.765 1601.6,-414.621 1615.37,-426.89 1637,-413.765 1682.48,-386.164 1674.72,-352.861 1723,-330.51 1797.16,-296.172 1826.6,-331.879 1906,-312.51 1929.25,-306.837 1933.68,-301.145 1956,-292.51 1970.07,-287.067 1985.23,-281.324 1999.57,-275.951"/>
<polygon fill="black" stroke="black" points="2001.2,-279.079 2009.34,-272.299 1998.75,-272.522 2001.2,-279.079"/>
<text text-anchor="middle" x="1349.19" y="-752.156" font-family="sans-serif" font-size="20.00" fill="red">Travis&#45;CI</text>
</g>
<!-- Casey Law&#45;&gt;Madhura Killedar -->
<g id="edge52" class="edge"><title>Casey Law&#45;&gt;Madhura Killedar</title>
<path fill="none" stroke="black" stroke-dasharray="1,5" d="M1376.65,-1258.09C1503.42,-1246.2 1733.23,-1207.91 1880,-1084.55 1922.07,-1049.18 1927.48,-1032.97 1951,-983.294 1979.94,-922.18 1953.06,-892.06 1992,-836.784 2036.85,-773.122 2062.41,-763.738 2135,-735.529 2194.71,-712.325 2215.29,-730.609 2278,-717.529 2308.84,-711.097 2315.22,-704.229 2346,-697.529 2354.3,-695.722 2436.51,-683.978 2509.06,-673.741"/>
<polygon fill="black" stroke="black" points="2509.81,-677.169 2519.23,-672.307 2508.84,-670.238 2509.81,-677.169"/>
<text text-anchor="middle" x="2041.16" y="-954.666" font-family="sans-serif" font-size="20.00" fill="red">machine learning</text>
</g>
<!-- Adam Becker -->
<g id="node23" class="node"><title>Adam Becker</title>
<ellipse fill="black" stroke="black" cx="1127" cy="-1163.18" rx="113.357" ry="22.7556"/>
<text text-anchor="middle" x="1127" y="-1155.98" font-family="sans-serif" font-size="24.00" fill="white">Adam Becker</text>
</g>
<!-- Casey Law&#45;&gt;Adam Becker -->
<g id="edge54" class="edge"><title>Casey Law&#45;&gt;Adam Becker</title>
<path fill="none" stroke="black" stroke-dasharray="1,5" d="M1231.29,-1245.62C1216.81,-1239.7 1201.53,-1232.39 1188.41,-1223.8 1175.41,-1215.28 1162.78,-1203.77 1152.39,-1193.13"/>
<polygon fill="black" stroke="black" points="1154.66,-1190.45 1145.24,-1185.6 1149.58,-1195.26 1154.66,-1190.45"/>
<text text-anchor="middle" x="1221.79" y="-1207.8" font-family="sans-serif" font-size="20.00" fill="red">Jupyter</text>
</g>
<!-- Brigitta Sipocz&#45;&gt;Adrian Price&#45;Whelan -->
<g id="edge58" class="edge"><title>Brigitta Sipocz&#45;&gt;Adrian Price&#45;Whelan</title>
<path fill="none" stroke="black" stroke-dasharray="1,5" d="M1974.47,-236.431C1959,-233.969 1943.03,-231.488 1928,-229.255 1803.78,-210.804 1772.94,-203.943 1648,-191.255 1506.05,-176.84 1344.21,-166.344 1226.63,-159.79"/>
<polygon fill="black" stroke="black" points="1226.64,-156.285 1216.46,-159.227 1226.26,-163.275 1226.64,-156.285"/>
<text text-anchor="middle" x="1884.16" y="-195.255" font-family="sans-serif" font-size="20.00" fill="red">machine learning</text>
</g>
<!-- Brigitta Sipocz&#45;&gt;Grigor Aslanyan -->
<g id="edge57" class="edge"><title>Brigitta Sipocz&#45;&gt;Grigor Aslanyan</title>
<path fill="none" stroke="black" stroke-dasharray="1,5" d="M2030.94,-273.767C2022.68,-279.62 2013.86,-286.131 2006,-292.51 1986.71,-308.164 1982.13,-312.517 1965,-330.51 1946.89,-349.53 1946.57,-358.247 1927,-375.765 1916.25,-385.384 1909.91,-383.285 1900,-393.765 1870.5,-424.963 1880.1,-445.452 1851,-477.019 1831.11,-498.596 1821.37,-498.67 1797,-515.019 1753.64,-544.108 1742.35,-550.723 1698,-578.274 1657.09,-603.686 1628.9,-592.334 1605.23,-634.274 1567.27,-701.525 1603.52,-941.827 1618.34,-1029.02"/>
<polygon fill="black" stroke="black" points="1614.93,-1029.85 1620.07,-1039.11 1621.83,-1028.66 1614.93,-1029.85"/>
<text text-anchor="middle" x="1694.38" y="-650.902" font-family="sans-serif" font-size="20.00" fill="red">gaussian processes</text>
</g>
<!-- Brigitta Sipocz&#45;&gt;Dan F&#45;M -->
<g id="edge56" class="edge"><title>Brigitta Sipocz&#45;&gt;Dan F&#45;M</title>
<path fill="none" stroke="black" stroke-dasharray="1,5" d="M2081.84,-229.437C2094.69,-216.704 2112.39,-201.16 2130.75,-191.255 2151.21,-180.21 2175.06,-171.989 2197.22,-165.986"/>
<polygon fill="black" stroke="black" points="2198.13,-169.366 2206.93,-163.465 2196.37,-162.59 2198.13,-169.366"/>
<text text-anchor="middle" x="2163.63" y="-195.255" font-family="sans-serif" font-size="20.00" fill="red">autodiff</text>
</g>
<!-- Felipe Ardila -->
<g id="node18" class="node"><title>Felipe Ardila</title>
<ellipse fill="black" stroke="black" cx="3205" cy="-1365.69" rx="104.92" ry="22.7556"/>
<text text-anchor="middle" x="3205" y="-1358.49" font-family="sans-serif" font-size="24.00" fill="white">Felipe Ardila</text>
</g>
<!-- Felipe Ardila&#45;&gt;Daniela Huppenkothen -->
<g id="edge60" class="edge"><title>Felipe Ardila&#45;&gt;Daniela Huppenkothen</title>
<path fill="none" stroke="black" stroke-dasharray="1,5" d="M3139.99,-1347.8C3038.24,-1321.88 2834.89,-1272.11 2660,-1241.8 2457.51,-1206.71 2394.56,-1254.86 2201,-1185.8 2151.47,-1168.13 2126.37,-1168.61 2101,-1122.55 2091.43,-1105.18 2099.11,-1068.05 2112.69,-1039.29 2142.25,-976.66 2170.64,-974.833 2213,-920.039 2253.41,-867.769 2260.38,-852.39 2299,-798.784 2301.29,-795.606 2303.69,-792.293 2306.09,-788.995"/>
<polygon fill="black" stroke="black" points="2308.92,-791.057 2311.99,-780.916 2303.26,-786.93 2308.92,-791.057"/>
<text text-anchor="middle" x="2189.16" y="-1055.92" font-family="sans-serif" font-size="20.00" fill="red">machine learning</text>
</g>
<!-- Felipe Ardila&#45;&gt;Zaki Ali -->
<g id="edge61" class="edge"><title>Felipe Ardila&#45;&gt;Zaki Ali</title>
<path fill="none" stroke="black" stroke-dasharray="1,5" d="M3113.83,-1354.54C2798.81,-1319.46 1759.97,-1203.81 1476.19,-1172.21"/>
<polygon fill="black" stroke="black" points="1476.34,-1168.71 1466.01,-1171.08 1475.56,-1175.66 1476.34,-1168.71"/>
<text text-anchor="middle" x="2570.16" y="-1258.43" font-family="sans-serif" font-size="20.00" fill="red">packaging (Python)</text>
</g>
<!-- Felipe Ardila&#45;&gt;Jennifer Sobeck -->
<g id="edge59" class="edge"><title>Felipe Ardila&#45;&gt;Jennifer Sobeck</title>
<path fill="none" stroke="black" stroke-dasharray="1,5" d="M3216.29,-1342.95C3220.86,-1330.88 3223.51,-1316.12 3216,-1305.06 3211.67,-1298.69 3206.14,-1293.34 3199.91,-1288.85"/>
<polygon fill="black" stroke="black" points="3201.35,-1285.62 3191.02,-1283.25 3197.62,-1291.54 3201.35,-1285.62"/>
<text text-anchor="middle" x="3267.15" y="-1309.06" font-family="sans-serif" font-size="20.00" fill="red">databases</text>
</g>
<!-- Jessie Dotson -->
<g id="node19" class="node"><title>Jessie Dotson</title>
<ellipse fill="black" stroke="black" cx="934" cy="-353.137" rx="117.804" ry="22.7556"/>
<text text-anchor="middle" x="934" y="-345.937" font-family="sans-serif" font-size="24.00" fill="white">Jessie Dotson</text>
</g>
<!-- Jessie Dotson&#45;&gt;Jonathan Whitmore -->
<g id="edge65" class="edge"><title>Jessie Dotson&#45;&gt;Jonathan Whitmore</title>
<path fill="none" stroke="black" stroke-dasharray="1,5" d="M875.345,-333.403C858.056,-327.323 839.263,-320.155 822.414,-312.51 800.938,-302.764 778.009,-290.214 758.956,-279.143"/>
<polygon fill="black" stroke="black" points="760.612,-276.057 750.216,-274.012 757.067,-282.093 760.612,-276.057"/>
<text text-anchor="middle" x="855.793" y="-296.51" font-family="sans-serif" font-size="20.00" fill="red">Jupyter</text>
</g>
<!-- Jessie Dotson&#45;&gt;Ben Nelson -->
<g id="edge62" class="edge"><title>Jessie Dotson&#45;&gt;Ben Nelson</title>
<path fill="none" stroke="black" stroke-dasharray="1,5" d="M947.057,-330.451C956.175,-317.286 969.572,-301.364 985.646,-292.51 993.221,-288.338 1082.2,-275.422 1154.47,-265.458"/>
<polygon fill="black" stroke="black" points="1155.11,-268.902 1164.54,-264.073 1154.16,-261.967 1155.11,-268.902"/>
<text text-anchor="middle" x="1118.18" y="-296.51" font-family="sans-serif" font-size="20.00" fill="red">probabilistic graphical models</text>
</g>
<!-- Jessie Dotson&#45;&gt;breakout -->
<g id="edge64" class="edge"><title>Jessie Dotson&#45;&gt;breakout</title>
<path fill="none" stroke="black" stroke-dasharray="1,5" d="M923.904,-330.42C921.274,-324.626 918.483,-318.351 916,-312.51 900.431,-275.878 914.102,-254.093 883,-229.255 842.335,-196.78 818.251,-221.852 767.301,-211.255 701.949,-197.662 662.794,-226.089 622,-173.255 609.708,-157.335 608.554,-142.958 622,-128 683.336,-59.7682 1272.79,-42.6948 1558.82,-38.424"/>
<polygon fill="black" stroke="black" points="1558.92,-41.923 1568.86,-38.2774 1558.81,-34.9237 1558.92,-41.923"/>
<text text-anchor="middle" x="811.35" y="-195.255" font-family="sans-serif" font-size="20.00" fill="red">GAIA DRI</text>
</g>
<!-- Jessie Dotson&#45;&gt;Dan F&#45;M -->
<g id="edge63" class="edge"><title>Jessie Dotson&#45;&gt;Dan F&#45;M</title>
<path fill="none" stroke="black" stroke-dasharray="1,5" d="M1045.77,-345.705C1107.62,-340.295 1185.44,-330.425 1253,-312.51 1275.34,-306.586 1278.59,-298.165 1301,-292.51 1378.95,-272.835 1406.67,-305.154 1481,-274.51 1510.48,-262.354 1507.64,-242.429 1536.69,-229.255 1582.33,-208.55 1709.26,-197.417 1759,-191.255 1908.27,-172.761 2083.16,-161.433 2185.07,-155.857"/>
<polygon fill="black" stroke="black" points="2185.51,-159.338 2195.31,-155.303 2185.13,-152.349 2185.51,-159.338"/>
<text text-anchor="middle" x="1613.16" y="-245.882" font-family="sans-serif" font-size="20.00" fill="red">machine learning</text>
</g>
<!-- Lucas Secco -->
<g id="node20" class="node"><title>Lucas Secco</title>
<ellipse fill="black" stroke="black" cx="636" cy="-1061.92" rx="108.46" ry="22.7556"/>
<text text-anchor="middle" x="636" y="-1054.72" font-family="sans-serif" font-size="24.00" fill="white">Lucas Secco</text>
</g>
<!-- Lucas Secco&#45;&gt;Jonathan Whitmore -->
<g id="edge67" class="edge"><title>Lucas Secco&#45;&gt;Jonathan Whitmore</title>
<path fill="none" stroke="black" stroke-dasharray="1,5" d="M639.103,-1039.06C647.197,-980.783 668.82,-816.823 676,-679.529 683.153,-542.746 637.572,-512.061 624,-375.765 622.007,-355.75 615.525,-348.75 624,-330.51 633.535,-309.988 651.464,-292.938 668.979,-280.095"/>
<polygon fill="black" stroke="black" points="671.317,-282.731 677.506,-274.131 667.305,-276.995 671.317,-282.731"/>
<text text-anchor="middle" x="709.793" y="-650.902" font-family="sans-serif" font-size="20.00" fill="red">Jupyter</text>
</g>
<!-- Lucas Secco&#45;&gt;Layne Price -->
<g id="edge68" class="edge"><title>Lucas Secco&#45;&gt;Layne Price</title>
<path fill="none" stroke="black" stroke-dasharray="1,5" d="M596.422,-1040.75C569.224,-1023.77 538,-996.658 538,-961.666 538,-961.666 538,-961.666 538,-807.784 538,-774.772 287.598,-707.46 270,-679.529 254.641,-655.152 287,-558.666 287,-556.647 287,-556.647 287,-556.647 287,-250.882 287,-222.315 288.103,-208.338 311,-191.255 335.549,-172.939 507.004,-161.663 623.397,-156.032"/>
<polygon fill="black" stroke="black" points="623.607,-159.526 633.429,-155.554 623.274,-152.534 623.607,-159.526"/>
<text text-anchor="middle" x="352.157" y="-600.274" font-family="sans-serif" font-size="20.00" fill="red">machine learning</text>
</g>
<!-- Lucas Secco&#45;&gt;Megan Shabram -->
<g id="edge66" class="edge"><title>Lucas Secco&#45;&gt;Megan Shabram</title>
<path fill="none" stroke="black" stroke-dasharray="1,5" d="M734.912,-1052.52C945.896,-1034.61 1440.02,-992.655 1675.62,-972.651"/>
<polygon fill="black" stroke="black" points="1675.94,-976.137 1685.61,-971.803 1675.35,-969.162 1675.94,-976.137"/>
<text text-anchor="middle" x="1353.25" y="-1005.29" font-family="sans-serif" font-size="20.00" fill="red">github</text>
</g>
<!-- Madhura Killedar&#45;&gt;Adrian Price&#45;Whelan -->
<g id="edge73" class="edge"><title>Madhura Killedar&#45;&gt;Adrian Price&#45;Whelan</title>
<path fill="none" stroke="black" stroke-dasharray="1,5" d="M2525.95,-640.436C2396.86,-619.473 2182.65,-583.985 2176,-578.274 2146.38,-552.847 2173.68,-524.42 2148,-495.019 2094.4,-433.66 2044.23,-468.276 1983.68,-413.765 1935.57,-370.456 1949.85,-337.178 1903,-292.51 1866.29,-257.505 1855.65,-246.636 1808,-229.255 1740.77,-204.735 1715.57,-234.803 1648,-211.255 1632.16,-205.736 1631.95,-196.451 1616,-191.255 1547.86,-169.05 1372.05,-159.271 1236.59,-154.974"/>
<polygon fill="black" stroke="black" points="1236.6,-151.473 1226.5,-154.662 1236.38,-158.47 1236.6,-151.473"/>
<text text-anchor="middle" x="2070.16" y="-397.765" font-family="sans-serif" font-size="20.00" fill="red">packaging (Python)</text>
</g>
<!-- Madhura Killedar&#45;&gt;Daniela Huppenkothen -->
<g id="edge71" class="edge"><title>Madhura Killedar&#45;&gt;Daniela Huppenkothen</title>
<path fill="none" stroke="black" stroke-dasharray="1,5" d="M2591.96,-679.224C2572.54,-692.075 2546.27,-707.789 2521,-717.529 2499.08,-725.979 2475.02,-732.748 2451.56,-738.129"/>
<polygon fill="black" stroke="black" points="2450.56,-734.767 2441.55,-740.351 2452.07,-741.601 2450.56,-734.767"/>
<text text-anchor="middle" x="2650.38" y="-701.529" font-family="sans-serif" font-size="20.00" fill="red">gaussian processes</text>
</g>
<!-- Madhura Killedar&#45;&gt;Zach Pace -->
<g id="edge72" class="edge"><title>Madhura Killedar&#45;&gt;Zach Pace</title>
<path fill="none" stroke="black" stroke-dasharray="1,5" d="M2576.9,-635.484C2565.66,-629.773 2553.85,-623.214 2543.41,-616.274 2532.02,-608.694 2532.1,-602.666 2520,-596.274 2500.47,-585.955 2478,-578.139 2456.65,-572.295"/>
<polygon fill="black" stroke="black" points="2457.49,-568.898 2446.93,-569.747 2455.72,-575.669 2457.49,-568.898"/>
<text text-anchor="middle" x="2576.79" y="-600.274" font-family="sans-serif" font-size="20.00" fill="red">Jupyter</text>
</g>
<!-- Madhura Killedar&#45;&gt;breakout -->
<g id="edge70" class="edge"><title>Madhura Killedar&#45;&gt;breakout</title>
<path fill="none" stroke="black" stroke-dasharray="1,5" d="M2644.97,-634.541C2678.9,-603.208 2744.7,-543.274 2803,-495.019 2905.41,-410.248 2981.3,-431.797 3040,-312.51 3068.07,-255.471 3172,-287.491 2995,-128 2912.91,-54.0273 2190.2,-40.0472 1867.48,-37.5074"/>
<polygon fill="black" stroke="black" points="1867.14,-34.0047 1857.11,-37.4286 1867.08,-41.0045 1867.14,-34.0047"/>
<text text-anchor="middle" x="3059.91" y="-347.137" font-family="sans-serif" font-size="20.00" fill="red">sphinx</text>
</g>
<!-- Madhura Killedar&#45;&gt;Dan F&#45;M -->
<g id="edge69" class="edge"><title>Madhura Killedar&#45;&gt;Dan F&#45;M</title>
<path fill="none" stroke="black" stroke-dasharray="1,5" d="M2618.36,-634.089C2616.17,-622.674 2613.03,-608.556 2609,-596.274 2581.32,-511.89 2549.94,-499.731 2527.65,-413.765 2502.73,-317.664 2575.42,-264.125 2508,-191.255 2487.81,-169.437 2416.66,-159.63 2357.54,-155.223"/>
<polygon fill="black" stroke="black" points="2357.63,-151.721 2347.41,-154.511 2357.14,-158.703 2357.63,-151.721"/>
<text text-anchor="middle" x="2659.18" y="-397.765" font-family="sans-serif" font-size="20.00" fill="red">probabilistic graphical models</text>
</g>
<!-- Layne Price&#45;&gt;Usman Khan -->
<g id="edge74" class="edge"><title>Layne Price&#45;&gt;Usman Khan</title>
<path fill="none" stroke="black" stroke-dasharray="1,5" d="M797.101,-168.066C835.038,-180.162 881.954,-199.718 916,-229.255 948.603,-257.54 929.278,-289.828 966,-312.51 982.796,-322.884 1219.81,-337.695 1366.7,-345.958"/>
<polygon fill="black" stroke="black" points="1366.94,-349.477 1377.12,-346.542 1367.33,-342.488 1366.94,-349.477"/>
<text text-anchor="middle" x="986.147" y="-245.882" font-family="sans-serif" font-size="20.00" fill="red">databases</text>
</g>
<!-- Layne Price&#45;&gt;breakout -->
<g id="edge75" class="edge"><title>Layne Price&#45;&gt;breakout</title>
<path fill="none" stroke="black" stroke-dasharray="1,5" d="M810.084,-136.192C888.533,-123.042 1012.99,-103.126 1121.24,-90 1269.37,-72.0389 1439.04,-57.4532 1558.62,-48.1633"/>
<polygon fill="black" stroke="black" points="1559.24,-51.6254 1568.94,-47.3645 1558.7,-44.6463 1559.24,-51.6254"/>
<text text-anchor="middle" x="1205.38" y="-94" font-family="sans-serif" font-size="20.00" fill="red">stochastic gradient</text>
</g>
<!-- Adam Becker&#45;&gt;Adrian Price&#45;Whelan -->
<g id="edge80" class="edge"><title>Adam Becker&#45;&gt;Adrian Price&#45;Whelan</title>
<path fill="none" stroke="black" stroke-dasharray="1,5" d="M1019.39,-1156.1C839.19,-1145.02 491.71,-1119.42 448,-1084.55 406.982,-1051.83 271.29,-673.907 305.676,-634.274 342.841,-591.438 387.883,-651.909 432,-616.274 453.974,-598.525 454,-584.894 454,-556.647 454,-556.647 454,-556.647 454,-301.51 454,-267.671 451.485,-250.278 478,-229.255 512.62,-201.806 634.58,-226.631 676,-211.255 690.337,-205.933 689.716,-196.717 704,-191.255 714.436,-187.264 824.832,-175.375 920.306,-165.652"/>
<polygon fill="black" stroke="black" points="920.786,-169.122 930.381,-164.629 920.078,-162.158 920.786,-169.122"/>
<text text-anchor="middle" x="392.162" y="-650.902" font-family="sans-serif" font-size="20.00" fill="red">packaging (Python)</text>
</g>
<!-- Adam Becker&#45;&gt;Grigor Aslanyan -->
<g id="edge78" class="edge"><title>Adam Becker&#45;&gt;Grigor Aslanyan</title>
<path fill="none" stroke="black" stroke-dasharray="1,5" d="M1202.46,-1146.21C1234.72,-1139.21 1272.77,-1130.75 1307,-1122.55 1341.48,-1114.29 1349.54,-1109.89 1384.23,-1102.55 1427.04,-1093.49 1474.5,-1085.27 1515.84,-1078.69"/>
<polygon fill="black" stroke="black" points="1516.6,-1082.11 1525.93,-1077.1 1515.5,-1075.2 1516.6,-1082.11"/>
<text text-anchor="middle" x="1473.38" y="-1106.55" font-family="sans-serif" font-size="20.00" fill="red">gaussian processes</text>
</g>
<!-- Adam Becker&#45;&gt;Zach Pace -->
<g id="edge79" class="edge"><title>Adam Becker&#45;&gt;Zach Pace</title>
<path fill="none" stroke="black" stroke-dasharray="1,5" d="M1189.47,-1144.19C1207.44,-1138.18 1226.82,-1130.86 1244,-1122.55 1407.93,-1043.29 1431.6,-993.274 1588,-900.039 1638.28,-870.067 1651,-862.637 1703.52,-836.784 1803.9,-787.367 1830.93,-779.07 1934,-735.529 1994.97,-709.77 2010.68,-704.447 2072,-679.529 2158.12,-644.536 2258.02,-603.874 2318.58,-579.214"/>
<polygon fill="black" stroke="black" points="2320.02,-582.409 2327.96,-575.397 2317.38,-575.926 2320.02,-582.409"/>
<text text-anchor="middle" x="1797.24" y="-853.411" font-family="sans-serif" font-size="20.00" fill="red">astronomy cirriculum</text>
</g>
<!-- Adam Becker&#45;&gt;breakout -->
<g id="edge77" class="edge"><title>Adam Becker&#45;&gt;breakout</title>
<path fill="none" stroke="black" stroke-dasharray="1,5" d="M1013.94,-1161.92C762.303,-1159.86 178,-1146.11 178,-1062.92 178,-1062.92 178,-1062.92 178,-807.784 178,-772.577 103.188,-625.289 101.188,-616.274 95.4443,-590.398 100,-583.153 100,-556.647 100,-556.647 100,-556.647 100,-149.627 100,-41.4425 228.919,-105.415 336,-90 567.725,-56.6416 1249.96,-43.3117 1558.43,-38.8834"/>
<polygon fill="black" stroke="black" points="1558.85,-42.378 1568.79,-38.736 1558.75,-35.3787 1558.85,-42.378"/>
<text text-anchor="middle" x="130.906" y="-600.274" font-family="sans-serif" font-size="20.00" fill="red">sphinx</text>
</g>
<!-- Adam Becker&#45;&gt;Dan F&#45;M -->
<g id="edge76" class="edge"><title>Adam Becker&#45;&gt;Dan F&#45;M</title>
<path fill="none" stroke="black" stroke-dasharray="1,5" d="M1169.19,-1142.16C1197.64,-1125.43 1230,-1098.56 1230,-1062.92 1230,-1062.92 1230,-1062.92 1230,-807.784 1230,-729.342 1155.63,-700.491 1197.69,-634.274 1207.77,-618.392 1225.91,-632.156 1236,-616.274 1240.77,-608.771 1241.51,-603.246 1236,-596.274 1214.47,-569.047 1181.53,-605.501 1160,-578.274 1147.52,-562.498 1147.74,-548.963 1160,-533.019 1175.73,-512.561 1587.57,-428.152 1609,-413.765 1647.52,-387.898 1631.39,-352.963 1672,-330.51 1752.43,-286.039 1799.03,-359.53 1878,-312.51 1916.1,-289.82 1896.56,-254.528 1933,-229.255 1974.4,-200.54 2106.15,-176.191 2192.4,-162.773"/>
<polygon fill="black" stroke="black" points="2193.08,-166.21 2202.43,-161.231 2192.01,-159.292 2193.08,-166.21"/>
<text text-anchor="middle" x="1274.16" y="-650.902" font-family="sans-serif" font-size="20.00" fill="red">machine learning</text>
</g>
<!-- Arna Karick -->
<g id="node24" class="node"><title>Arna Karick</title>
<ellipse fill="black" stroke="black" cx="402" cy="-1365.69" rx="99.0507" ry="22.7556"/>
<text text-anchor="middle" x="402" y="-1358.49" font-family="sans-serif" font-size="24.00" fill="white">Arna Karick</text>
</g>
<!-- Arna Karick&#45;&gt;Adrian Price&#45;Whelan -->
<g id="edge84" class="edge"><title>Arna Karick&#45;&gt;Adrian Price&#45;Whelan</title>
<path fill="none" stroke="black" stroke-dasharray="1,5" d="M309.858,-1357.22C204.377,-1346.07 46,-1320.21 46,-1265.43 46,-1265.43 46,-1265.43 46,-807.784 46,-801.683 269.396,-436.686 273,-431.765 343.801,-335.087 347.377,-289.435 451,-229.255 602.807,-141.091 667.201,-189.483 842,-173.255 867.583,-170.88 894.832,-168.268 921.124,-165.705"/>
<polygon fill="black" stroke="black" points="921.536,-169.182 931.149,-164.726 920.856,-162.215 921.536,-169.182"/>
<text text-anchor="middle" x="121.793" y="-752.156" font-family="sans-serif" font-size="20.00" fill="red">Jupyter</text>
</g>
<!-- Arna Karick&#45;&gt;breakout -->
<g id="edge83" class="edge"><title>Arna Karick&#45;&gt;breakout</title>
<path fill="none" stroke="black" stroke-dasharray="1,5" d="M305.966,-1360C187.051,-1351.52 0,-1328.2 0,-1265.43 0,-1265.43 0,-1265.43 0,-149.627 0,-111.396 26.7719,-104.852 62,-90 130.18,-61.2548 1161.72,-44.4082 1558.81,-38.96"/>
<polygon fill="black" stroke="black" points="1558.99,-42.4581 1568.94,-38.8217 1558.89,-35.4587 1558.99,-42.4581"/>
<text text-anchor="middle" x="28.9062" y="-701.529" font-family="sans-serif" font-size="20.00" fill="red">sphinx</text>
</g>
<!-- Arna Karick&#45;&gt;Casey Law -->
<g id="edge81" class="edge"><title>Arna Karick&#45;&gt;Casey Law</title>
<path fill="none" stroke="black" stroke-dasharray="1,5" d="M490.479,-1355.47C565.66,-1347.59 676.436,-1335.84 773,-1325.06 919.106,-1308.75 1088.54,-1288.82 1191.19,-1276.63"/>
<polygon fill="black" stroke="black" points="1191.7,-1280.09 1201.22,-1275.44 1190.88,-1273.14 1191.7,-1280.09"/>
<text text-anchor="middle" x="1035.24" y="-1309.06" font-family="sans-serif" font-size="20.00" fill="red">astronomy cirriculum</text>
</g>
<!-- Arna Karick&#45;&gt;Dan F&#45;M -->
<g id="edge82" class="edge"><title>Arna Karick&#45;&gt;Dan F&#45;M</title>
<path fill="none" stroke="black" stroke-dasharray="1,5" d="M434.135,-1344.28C502.522,-1300.27 666.391,-1191.74 791,-1084.55 934.142,-961.417 1016.73,-955.629 1088,-780.784 1119.22,-704.207 1027.3,-670.381 1064,-596.274 1098.4,-526.812 1137.49,-531.282 1206,-495.019 1269.58,-461.363 1286.55,-453.923 1355,-431.765 1461.27,-397.362 1506.3,-436.564 1600,-375.765 1621.1,-362.071 1616.09,-348.18 1634,-330.51 1635.27,-329.253 1684.35,-293.192 1686,-292.51 1735.04,-272.28 1763.39,-308.64 1804,-274.51 1833.89,-249.394 1801.36,-215.442 1832,-191.255 1858.96,-169.976 2063.98,-159.054 2184.08,-154.427"/>
<polygon fill="black" stroke="black" points="2184.5,-157.914 2194.36,-154.039 2184.23,-150.919 2184.5,-157.914"/>
<text text-anchor="middle" x="1141.15" y="-752.156" font-family="sans-serif" font-size="20.00" fill="red">databases</text>
</g>
<!-- Dan F&#45;M&#45;&gt;breakout -->
<g id="edge85" class="edge"><title>Dan F&#45;M&#45;&gt;breakout</title>
<path fill="none" stroke="black" stroke-dasharray="1,5" d="M2208.88,-137.09C2126.99,-120.559 1980.09,-90.9102 1867.37,-68.1573"/>
<polygon fill="black" stroke="black" points="1867.75,-64.6644 1857.26,-66.1166 1866.36,-71.526 1867.75,-64.6644"/>
<text text-anchor="middle" x="2118.35" y="-94" font-family="sans-serif" font-size="20.00" fill="red">GAIA DRI</text>
</g>
<!-- Megan Shabram&#45;&gt;Phil Marshall -->
<g id="edge87" class="edge"><title>Megan Shabram&#45;&gt;Phil Marshall</title>
<path fill="none" stroke="black" stroke-dasharray="1,5" d="M1905.31,-945.274C1922.23,-942.853 1939.61,-940.371 1956,-938.039 2113.8,-915.582 2297.14,-889.7 2406.97,-874.218"/>
<polygon fill="black" stroke="black" points="2407.63,-877.661 2417.04,-872.799 2406.65,-870.729 2407.63,-877.661"/>
<text text-anchor="middle" x="2288.16" y="-904.039" font-family="sans-serif" font-size="20.00" fill="red">machine learning</text>
</g>
<!-- Megan Shabram&#45;&gt;Zaki Ali -->
<g id="edge88" class="edge"><title>Megan Shabram&#45;&gt;Zaki Ali</title>
<path fill="none" stroke="black" stroke-dasharray="1,5" d="M1819,-983.531C1821.88,-989.112 1824.5,-995.249 1826,-1001.29 1828.14,-1009.92 1828.16,-1012.67 1826,-1021.29 1813.63,-1070.77 1814.26,-1094 1772,-1122.55 1725.94,-1153.66 1574.05,-1160.82 1480.42,-1162.19"/>
<polygon fill="black" stroke="black" points="1480.1,-1158.7 1470.14,-1162.32 1480.19,-1165.69 1480.1,-1158.7"/>
<text text-anchor="middle" x="1849.25" y="-1055.92" font-family="sans-serif" font-size="20.00" fill="red">github</text>
</g>
<!-- Megan Shabram&#45;&gt;Dan F&#45;M -->
<g id="edge86" class="edge"><title>Megan Shabram&#45;&gt;Dan F&#45;M</title>
<path fill="none" stroke="black" stroke-dasharray="1,5" d="M1812.01,-938.031C1827.29,-894.021 1867.67,-793.357 1934,-735.529 1983.89,-692.032 2018.04,-717.859 2072,-679.529 2130.46,-638.005 2234.49,-482.475 2255,-413.765 2278.93,-333.578 2276.77,-233.633 2273.63,-183.475"/>
<polygon fill="black" stroke="black" points="2277.11,-183.004 2272.94,-173.265 2270.12,-183.481 2277.11,-183.004"/>
<text text-anchor="middle" x="2226.63" y="-549.647" font-family="sans-serif" font-size="20.00" fill="red">autodiff</text>
</g>
<!-- Sophia Milanov -->
<g id="node27" class="node"><title>Sophia Milanov</title>
<ellipse fill="black" stroke="black" cx="2337" cy="-1163.18" rx="127.197" ry="22.7556"/>
<text text-anchor="middle" x="2337" y="-1155.98" font-family="sans-serif" font-size="24.00" fill="white">Sophia Milanov</text>
</g>
<!-- Sophia Milanov&#45;&gt;Adrian Price&#45;Whelan -->
<g id="edge89" class="edge"><title>Sophia Milanov&#45;&gt;Adrian Price&#45;Whelan</title>
<path fill="none" stroke="black" stroke-dasharray="1,5" d="M2213.21,-1157.59C2023.52,-1150.49 1649.5,-1136.23 1332,-1122.55 1329.18,-1122.43 521.197,-1086.33 519,-1084.55 493.185,-1063.66 500,-1045.5 500,-1012.29 500,-1012.29 500,-1012.29 500,-706.529 500,-600.15 462.437,-305.129 537,-229.255 562.698,-203.105 666.749,-224.334 701,-211.255 715.287,-205.799 714.738,-196.776 729,-191.255 747.093,-184.251 836.63,-173.797 918.303,-165.384"/>
<polygon fill="black" stroke="black" points="919.141,-168.817 928.733,-164.317 918.428,-161.853 919.141,-168.817"/>
<text text-anchor="middle" x="586.162" y="-650.902" font-family="sans-serif" font-size="20.00" fill="red">packaging (Python)</text>
</g>
<!-- Sophia Milanov&#45;&gt;Daniela Huppenkothen -->
<g id="edge93" class="edge"><title>Sophia Milanov&#45;&gt;Daniela Huppenkothen</title>
<path fill="none" stroke="black" stroke-dasharray="1,5" d="M2335.85,-1140.41C2334.3,-1128.34 2330.79,-1113.58 2323,-1102.55 2314.46,-1090.47 2303.76,-1096.47 2295,-1084.55 2255.76,-1031.14 2256.43,-1003.43 2267.23,-938.039 2276.1,-884.352 2299,-825.123 2314.01,-790.082"/>
<polygon fill="black" stroke="black" points="2317.24,-791.431 2318.02,-780.865 2310.82,-788.64 2317.24,-791.431"/>
<text text-anchor="middle" x="2356.38" y="-954.666" font-family="sans-serif" font-size="20.00" fill="red">gaussian processes</text>
</g>
<!-- Sophia Milanov&#45;&gt;Phil Marshall -->
<g id="edge95" class="edge"><title>Sophia Milanov&#45;&gt;Phil Marshall</title>
<path fill="none" stroke="black" stroke-dasharray="1,5" d="M2346.87,-1140.53C2350.74,-1128.9 2353.16,-1114.54 2348,-1102.55 2343.4,-1091.86 2335.4,-1094.26 2329,-1084.55 2307.84,-1052.47 2280.23,-1030.12 2305.65,-1001.29 2347.82,-953.455 2396.51,-1020.92 2448,-983.294 2477.59,-961.666 2492.28,-920.825 2499.24,-892.182"/>
<polygon fill="black" stroke="black" points="2502.7,-892.763 2501.47,-882.239 2495.87,-891.231 2502.7,-892.763"/>
<text text-anchor="middle" x="2437.18" y="-1005.29" font-family="sans-serif" font-size="20.00" fill="red">probabilistic graphical models</text>
</g>
<!-- Sophia Milanov&#45;&gt;Grigor Aslanyan -->
<g id="edge90" class="edge"><title>Sophia Milanov&#45;&gt;Grigor Aslanyan</title>
<path fill="none" stroke="black" stroke-dasharray="1,5" d="M2222.83,-1153.11C2144.62,-1146.29 2038.63,-1135.85 1945.69,-1122.55 1867.5,-1111.36 1779.33,-1094.73 1715.1,-1081.88"/>
<polygon fill="black" stroke="black" points="1715.5,-1078.39 1705,-1079.85 1714.12,-1085.25 1715.5,-1078.39"/>
<text text-anchor="middle" x="2022.16" y="-1106.55" font-family="sans-serif" font-size="20.00" fill="red">machine learning</text>
</g>
<!-- Sophia Milanov&#45;&gt;breakout -->
<g id="edge92" class="edge"><title>Sophia Milanov&#45;&gt;breakout</title>
<path fill="none" stroke="black" stroke-dasharray="1,5" d="M2455.23,-1154.66C2499,-1149.07 2548.34,-1139.37 2591,-1122.55 2618.98,-1111.52 2631.05,-1110.05 2647,-1084.55 2666.82,-1052.85 2641.26,-1034.2 2659,-1001.29 2717.05,-893.625 2775.09,-901.722 2865,-818.784 2930.67,-758.2 2953.62,-748.844 3010,-679.529 3043.52,-638.321 3117.51,-526.433 3137,-477.019 3149,-446.591 3151,-437.475 3151,-404.765 3151,-404.765 3151,-404.765 3151,-149.627 3151,-112.206 3100.86,-104.783 3031,-90 2813.21,-43.9102 2166.06,-37.2576 1867.31,-36.724"/>
<polygon fill="black" stroke="black" points="1867.27,-33.2241 1857.26,-36.7082 1867.26,-40.2241 1867.27,-33.2241"/>
<text text-anchor="middle" x="3112.35" y="-600.274" font-family="sans-serif" font-size="20.00" fill="red">GAIA DRI</text>
</g>
<!-- Sophia Milanov&#45;&gt;Dan F&#45;M -->
<g id="edge91" class="edge"><title>Sophia Milanov&#45;&gt;Dan F&#45;M</title>
<path fill="none" stroke="black" stroke-dasharray="1,5" d="M2433.95,-1148.37C2508.25,-1135.67 2602.13,-1114.28 2627,-1084.55 2650.82,-1056.07 2629.54,-1038.16 2634,-1001.29 2637.42,-973.037 2628.26,-961.754 2644,-938.039 2711.66,-836.08 2810.17,-887.529 2870,-780.784 2901.38,-724.793 2938.82,-553.333 2912,-495.019 2906.86,-483.851 2898.98,-486.37 2891,-477.019 2841.39,-418.892 2845.74,-392.467 2801,-330.51 2788.07,-312.609 2783.58,-309.095 2769,-292.51 2743.82,-263.859 2742.77,-250.364 2711,-229.255 2669.32,-201.558 2653.72,-202.721 2605,-191.255 2521.88,-171.691 2424.73,-161.547 2356.7,-156.445"/>
<polygon fill="black" stroke="black" points="2356.69,-152.935 2346.46,-155.699 2356.18,-159.917 2356.69,-152.935"/>
<text text-anchor="middle" x="2960.15" y="-650.902" font-family="sans-serif" font-size="20.00" fill="red">databases</text>
</g>
<!-- Sophia Milanov&#45;&gt;Megan Shabram -->
<g id="edge94" class="edge"><title>Sophia Milanov&#45;&gt;Megan Shabram</title>
<path fill="none" stroke="black" stroke-dasharray="1,5" d="M2228.9,-1151.11C2195.04,-1145.23 2158.14,-1136.25 2126,-1122.55 2111.93,-1116.55 2112.02,-1108.67 2098,-1102.55 2061.62,-1086.67 2047.51,-1098.94 2010.51,-1084.55 1947.47,-1060.03 1881.56,-1017.05 1841.88,-988.969"/>
<polygon fill="black" stroke="black" points="1843.51,-985.833 1833.34,-982.868 1839.44,-991.529 1843.51,-985.833"/>
<text text-anchor="middle" x="2038.25" y="-1055.92" font-family="sans-serif" font-size="20.00" fill="red">github</text>
</g>
</g>
</svg>
