<?xml version="1.0" encoding="UTF-8" standalone="no"?>
<!DOCTYPE svg PUBLIC "-//W3C//DTD SVG 1.1//EN"
 "http://www.w3.org/Graphics/SVG/1.1/DTD/svg11.dtd">
<!-- Generated by graphviz version 2.38.0 (20140413.2041)
 -->
<!-- Title: G Pages: 1 -->
<svg width="5753pt" height="485pt"
 viewBox="0.00 0.00 5752.63 485.02" xmlns="http://www.w3.org/2000/svg" xmlns:xlink="http://www.w3.org/1999/xlink">
<g id="graph0" class="graph" transform="scale(1 1) rotate(0) translate(4 481.019)">
<title>G</title>
<polygon fill="white" stroke="none" points="-4,4 -4,-481.019 5748.63,-481.019 5748.63,4 -4,4"/>
<!-- Vinayak Mathur -->
<g id="node1" class="node"><title>Vinayak Mathur</title>
<ellipse fill="black" stroke="black" cx="4596.17" cy="-353.137" rx="128.845" ry="22.7556"/>
<text text-anchor="middle" x="4596.17" y="-345.937" font-family="sans-serif" font-size="24.00" fill="white">Vinayak Mathur</text>
</g>
<!-- breakout -->
<g id="node14" class="node"><title>breakout</title>
<polygon fill="black" stroke="black" points="4280.17,-72 3992.17,-72 3992.17,-0 4280.17,-0 4280.17,-72"/>
<text text-anchor="middle" x="4136.17" y="-27" font-family="sans-serif" font-size="30.00" fill="white">breakout</text>
</g>
<!-- Vinayak Mathur&#45;&gt;breakout -->
<g id="edge3" class="edge"><title>Vinayak Mathur&#45;&gt;breakout</title>
<path fill="none" stroke="black" stroke-dasharray="1,5" d="M4518.58,-335.057C4489.46,-325.238 4467.28,-311.116 4485.17,-292.51 4520.62,-255.641 4898.16,-294.685 4945.17,-274.51 4988.31,-255.993 5037.3,-229.561 5010.17,-191.255 4928.82,-76.4271 4518.6,-46.9303 4290.24,-39.4538"/>
<polygon fill="black" stroke="black" points="4290.28,-35.9535 4280.17,-39.1348 4290.06,-42.95 4290.28,-35.9535"/>
<text text-anchor="middle" x="5100.55" y="-195.255" font-family="sans-serif" font-size="20.00" fill="red">stochastic gradient</text>
</g>
<!-- Dan F&#45;M -->
<g id="node25" class="node"><title>Dan F&#45;M</title>
<ellipse fill="black" stroke="black" cx="2658.17" cy="-150.627" rx="77.1303" ry="22.7556"/>
<text text-anchor="middle" x="2658.17" y="-143.427" font-family="sans-serif" font-size="24.00" fill="white">Dan F&#45;M</text>
</g>
<!-- Vinayak Mathur&#45;&gt;Dan F&#45;M -->
<g id="edge2" class="edge"><title>Vinayak Mathur&#45;&gt;Dan F&#45;M</title>
<path fill="none" stroke="black" stroke-dasharray="1,5" d="M4504.18,-337.248C4382.13,-317.245 4180.27,-283.197 4165.81,-274.51 4143.87,-261.323 4152.72,-241.375 4130.17,-229.255 4008.47,-163.858 3044.73,-153.554 2746.09,-151.931"/>
<polygon fill="black" stroke="black" points="2745.76,-148.429 2735.74,-151.877 2745.73,-155.429 2745.76,-148.429"/>
<text text-anchor="middle" x="4297.34" y="-245.882" font-family="sans-serif" font-size="20.00" fill="red">probabilistic graphical models</text>
</g>
<!-- Megan Shabram -->
<g id="node26" class="node"><title>Megan Shabram</title>
<ellipse fill="black" stroke="black" cx="3023.17" cy="-251.882" rx="136.557" ry="22.7556"/>
<text text-anchor="middle" x="3023.17" y="-244.682" font-family="sans-serif" font-size="24.00" fill="white">Megan Shabram</text>
</g>
<!-- Vinayak Mathur&#45;&gt;Megan Shabram -->
<g id="edge1" class="edge"><title>Vinayak Mathur&#45;&gt;Megan Shabram</title>
<path fill="none" stroke="black" stroke-dasharray="1,5" d="M4506.51,-336.866C4490.44,-334.478 4473.84,-332.235 4458.17,-330.51 3987.47,-278.68 3867.16,-297.351 3394.17,-274.51 3316.31,-270.75 3229.32,-265.722 3159.15,-261.461"/>
<polygon fill="black" stroke="black" points="3159.11,-257.952 3148.92,-260.838 3158.69,-264.939 3159.11,-257.952"/>
<text text-anchor="middle" x="4333.33" y="-296.51" font-family="sans-serif" font-size="20.00" fill="red">machine learning</text>
</g>
<!-- Dalya Baron -->
<g id="node2" class="node"><title>Dalya Baron</title>
<ellipse fill="black" stroke="black" cx="435.168" cy="-353.137" rx="104.903" ry="22.7556"/>
<text text-anchor="middle" x="435.168" y="-345.937" font-family="sans-serif" font-size="24.00" fill="white">Dalya Baron</text>
</g>
<!-- Dalya Baron&#45;&gt;breakout -->
<g id="edge6" class="edge"><title>Dalya Baron&#45;&gt;breakout</title>
<path fill="none" stroke="black" stroke-dasharray="1,5" d="M331.47,-349.884C231.376,-341.504 84.6773,-311.512 12.41,-211.255 -24.0754,-160.638 27.9115,-118.982 83.1678,-90 171.039,-43.9112 3251.74,-37.894 3982.05,-37.1149"/>
<polygon fill="black" stroke="black" points="3982.11,-40.6149 3992.1,-37.1043 3982.1,-33.6149 3982.11,-40.6149"/>
<text text-anchor="middle" x="96.5467" y="-195.255" font-family="sans-serif" font-size="20.00" fill="red">stochastic gradient</text>
</g>
<!-- Dalya Baron&#45;&gt;Dan F&#45;M -->
<g id="edge5" class="edge"><title>Dalya Baron&#45;&gt;Dan F&#45;M</title>
<path fill="none" stroke="black" stroke-dasharray="1,5" d="M467.23,-331.368C489.361,-318.056 519.956,-301.619 549.168,-292.51 611.583,-273.045 637.201,-304.749 695.168,-274.51 719.137,-262.006 711.521,-241.118 735.814,-229.255 787.528,-204.001 940.006,-230.713 994.168,-211.255 1008.56,-206.084 1007.66,-196.098 1022.17,-191.255 1095.96,-166.618 2241.38,-155.129 2570.41,-152.326"/>
<polygon fill="black" stroke="black" points="2570.87,-155.822 2580.84,-152.237 2570.81,-148.822 2570.87,-155.822"/>
<text text-anchor="middle" x="867.345" y="-245.882" font-family="sans-serif" font-size="20.00" fill="red">probabilistic graphical models</text>
</g>
<!-- Dalya Baron&#45;&gt;Megan Shabram -->
<g id="edge4" class="edge"><title>Dalya Baron&#45;&gt;Megan Shabram</title>
<path fill="none" stroke="black" stroke-dasharray="1,5" d="M519.532,-339.717C541.532,-336.592 565.225,-333.328 587.168,-330.51 656.83,-321.562 674.494,-321.367 744.168,-312.51 807.931,-304.404 823.3,-297.261 887.4,-292.51 1318.85,-260.528 2402.35,-301.139 2834.17,-274.51 2858.5,-273.009 2884.52,-270.575 2909.23,-267.871"/>
<polygon fill="black" stroke="black" points="2909.81,-271.328 2919.36,-266.74 2909.03,-264.371 2909.81,-271.328"/>
<text text-anchor="middle" x="976.552" y="-296.51" font-family="sans-serif" font-size="20.00" fill="red">gaussian processes</text>
</g>
<!-- Adrian Price&#45;Whelan -->
<g id="node3" class="node"><title>Adrian Price&#45;Whelan</title>
<ellipse fill="black" stroke="black" cx="245.168" cy="-150.627" rx="166.881" ry="22.7556"/>
<text text-anchor="middle" x="245.168" y="-143.427" font-family="sans-serif" font-size="24.00" fill="white">Adrian Price&#45;Whelan</text>
</g>
<!-- Adrian Price&#45;Whelan&#45;&gt;breakout -->
<g id="edge7" class="edge"><title>Adrian Price&#45;Whelan&#45;&gt;breakout</title>
<path fill="none" stroke="black" stroke-dasharray="1,5" d="M270.472,-128.154C288.445,-114.348 313.846,-97.6154 339.469,-90 516.447,-37.3996 3292.05,-36.2747 3981.88,-36.8128"/>
<polygon fill="black" stroke="black" points="3982.13,-40.3129 3992.13,-36.821 3982.13,-33.3129 3982.13,-40.3129"/>
<text text-anchor="middle" x="383.517" y="-94" font-family="sans-serif" font-size="20.00" fill="red">GAIA DRI</text>
</g>
<!-- Daniela Huppenkothen -->
<g id="node4" class="node"><title>Daniela Huppenkothen</title>
<ellipse fill="black" stroke="black" cx="3216.17" cy="-454.392" rx="183.955" ry="22.7556"/>
<text text-anchor="middle" x="3216.17" y="-447.192" font-family="sans-serif" font-size="24.00" fill="white">Daniela Huppenkothen</text>
</g>
<!-- Casey Law -->
<g id="node16" class="node"><title>Casey Law</title>
<ellipse fill="black" stroke="black" cx="5224.17" cy="-353.137" rx="95.0272" ry="22.7556"/>
<text text-anchor="middle" x="5224.17" y="-345.937" font-family="sans-serif" font-size="24.00" fill="white">Casey Law</text>
</g>
<!-- Daniela Huppenkothen&#45;&gt;Casey Law -->
<g id="edge8" class="edge"><title>Daniela Huppenkothen&#45;&gt;Casey Law</title>
<path fill="none" stroke="black" stroke-dasharray="1,5" d="M3392.25,-447.754C3830.53,-433.5 4947.25,-395.734 5115.17,-375.765 5125.4,-374.547 5136.11,-372.896 5146.65,-371.045"/>
<polygon fill="black" stroke="black" points="5147.48,-374.453 5156.69,-369.217 5146.22,-367.566 5147.48,-374.453"/>
<text text-anchor="middle" x="4928.41" y="-397.765" font-family="sans-serif" font-size="20.00" fill="red">astronomy cirriculum</text>
</g>
<!-- Daniela Huppenkothen&#45;&gt;Dan F&#45;M -->
<g id="edge10" class="edge"><title>Daniela Huppenkothen&#45;&gt;Dan F&#45;M</title>
<path fill="none" stroke="black" stroke-dasharray="1,5" d="M3383.87,-445.001C3778.47,-425.234 4732.73,-377.282 4734.17,-375.765 4748.02,-361.184 4747.83,-345.269 4734.17,-330.51 4698.83,-292.345 4547.3,-335.84 4500.81,-312.51 4456.92,-290.481 4471.91,-251.573 4428.17,-229.255 4261.21,-144.073 4195.26,-202.454 4008.17,-191.255 3532.34,-162.772 2960.89,-154.537 2745.76,-152.353"/>
<polygon fill="black" stroke="black" points="2745.52,-148.85 2735.48,-152.25 2745.45,-155.85 2745.52,-148.85"/>
<text text-anchor="middle" x="4631.34" y="-296.51" font-family="sans-serif" font-size="20.00" fill="red">probabilistic graphical models</text>
</g>
<!-- Daniela Huppenkothen&#45;&gt;Megan Shabram -->
<g id="edge9" class="edge"><title>Daniela Huppenkothen&#45;&gt;Megan Shabram</title>
<path fill="none" stroke="black" stroke-dasharray="1,5" d="M3116.74,-435.331C3054.49,-421.772 2982.64,-401.202 2963.85,-375.765 2888.52,-273.767 3072.29,-343.205 3099.17,-312.51 3110.41,-299.671 3100.71,-287.618 3084.93,-277.754"/>
<polygon fill="black" stroke="black" points="3086.63,-274.694 3076.21,-272.802 3083.18,-280.782 3086.63,-274.694"/>
<text text-anchor="middle" x="3040.33" y="-347.137" font-family="sans-serif" font-size="20.00" fill="red">machine learning</text>
</g>
<!-- Kate Follette -->
<g id="node5" class="node"><title>Kate Follette</title>
<ellipse fill="black" stroke="black" cx="5303.17" cy="-454.392" rx="106.682" ry="22.7556"/>
<text text-anchor="middle" x="5303.17" y="-447.192" font-family="sans-serif" font-size="24.00" fill="white">Kate Follette</text>
</g>
<!-- Kate Follette&#45;&gt;Casey Law -->
<g id="edge11" class="edge"><title>Kate Follette&#45;&gt;Casey Law</title>
<path fill="none" stroke="black" stroke-dasharray="1,5" d="M5298.57,-431.673C5295.22,-419.61 5289.74,-404.849 5281.17,-393.765 5277.48,-389.001 5273.07,-384.587 5268.34,-380.568"/>
<polygon fill="black" stroke="black" points="5270.21,-377.586 5260.18,-374.185 5265.9,-383.101 5270.21,-377.586"/>
<text text-anchor="middle" x="5384.41" y="-397.765" font-family="sans-serif" font-size="20.00" fill="red">astronomy cirriculum</text>
</g>
<!-- Kate Follette&#45;&gt;Dan F&#45;M -->
<g id="edge13" class="edge"><title>Kate Follette&#45;&gt;Dan F&#45;M</title>
<path fill="none" stroke="black" stroke-dasharray="1,5" d="M5382.16,-439.12C5420.72,-431.471 5462.53,-421.96 5480.17,-413.765 5519.31,-395.573 5558.15,-363.376 5530.17,-330.51 5507.33,-303.683 4939.17,-233.235 4904.17,-229.255 4843.98,-222.411 4689.21,-231.637 4632.17,-211.255 4617.77,-206.109 4618.68,-196.07 4604.17,-191.255 4515.02,-161.683 3112.63,-153.586 2745.55,-151.969"/>
<polygon fill="black" stroke="black" points="2745.53,-148.469 2735.51,-151.925 2745.5,-155.468 2745.53,-148.469"/>
<text text-anchor="middle" x="5500.96" y="-296.51" font-family="sans-serif" font-size="20.00" fill="red">Jupyter</text>
</g>
<!-- Kate Follette&#45;&gt;Megan Shabram -->
<g id="edge12" class="edge"><title>Kate Follette&#45;&gt;Megan Shabram</title>
<path fill="none" stroke="black" stroke-dasharray="1,5" d="M5227.67,-438.374C5211.72,-435.72 5194.94,-433.314 5179.17,-431.765 5007.72,-414.918 4576.37,-418.663 4404.17,-413.765 4278.73,-410.196 3385.52,-435.948 3275.4,-375.765 3253.96,-364.044 3264.13,-344.601 3244.17,-330.51 3218.98,-312.73 3205.99,-323.46 3177.17,-312.51 3158.59,-305.451 3155.48,-300.233 3137.17,-292.51 3123.07,-286.565 3107.74,-280.788 3093.03,-275.567"/>
<polygon fill="black" stroke="black" points="3094.07,-272.222 3083.48,-272.22 3091.76,-278.828 3094.07,-272.222"/>
<text text-anchor="middle" x="3364.55" y="-347.137" font-family="sans-serif" font-size="20.00" fill="red">gaussian processes</text>
</g>
<!-- Phil Marshall -->
<g id="node6" class="node"><title>Phil Marshall</title>
<ellipse fill="black" stroke="black" cx="704.168" cy="-353.137" rx="108.411" ry="22.7556"/>
<text text-anchor="middle" x="704.168" y="-345.937" font-family="sans-serif" font-size="24.00" fill="white">Phil Marshall</text>
</g>
<!-- Phil Marshall&#45;&gt;breakout -->
<g id="edge16" class="edge"><title>Phil Marshall&#45;&gt;breakout</title>
<path fill="none" stroke="black" stroke-dasharray="1,5" d="M730.47,-331.059C742.549,-318.92 752.029,-303.868 741.168,-292.51 710.267,-260.195 382.289,-286.327 339.168,-274.51 263.373,-253.738 257.683,-216.231 183.168,-191.255 158.85,-183.104 85.8289,-192.753 69.1678,-173.255 56.1016,-157.964 56.1837,-143.361 69.1678,-128 134.637,-50.5467 193.167,-99.1709 294.168,-90 664.964,-56.3315 3311.04,-41.0782 3981.88,-37.727"/>
<polygon fill="black" stroke="black" points="3982.11,-41.226 3992.09,-37.6761 3982.07,-34.2261 3982.11,-41.226"/>
<text text-anchor="middle" x="256.074" y="-195.255" font-family="sans-serif" font-size="20.00" fill="red">sphinx</text>
</g>
<!-- Phil Marshall&#45;&gt;Dan F&#45;M -->
<g id="edge15" class="edge"><title>Phil Marshall&#45;&gt;Dan F&#45;M</title>
<path fill="none" stroke="black" stroke-dasharray="1,5" d="M737.194,-331.473C746.618,-325.456 756.855,-318.806 766.168,-312.51 778.837,-303.944 779.796,-297.737 794.168,-292.51 891.36,-257.16 930.295,-313.294 1026.17,-274.51 1055.41,-262.68 1052.29,-242.662 1080.84,-229.255 1163.27,-190.554 1191.64,-201.04 1282.17,-191.255 1533.35,-164.105 2308.18,-154.771 2570.39,-152.344"/>
<polygon fill="black" stroke="black" points="2570.65,-155.842 2580.62,-152.25 2570.59,-148.842 2570.65,-155.842"/>
<text text-anchor="middle" x="1167.33" y="-245.882" font-family="sans-serif" font-size="20.00" fill="red">packaging (Python)</text>
</g>
<!-- Phil Marshall&#45;&gt;Megan Shabram -->
<g id="edge14" class="edge"><title>Phil Marshall&#45;&gt;Megan Shabram</title>
<path fill="none" stroke="black" stroke-dasharray="1,5" d="M780.15,-336.962C794.085,-334.535 808.533,-332.253 822.168,-330.51 930.908,-316.608 959.021,-322.746 1068.17,-312.51 1145.98,-305.212 1164.87,-297.403 1242.87,-292.51 1948.77,-248.229 2128.27,-318.773 2834.17,-274.51 2858.5,-272.984 2884.52,-270.539 2909.23,-267.833"/>
<polygon fill="black" stroke="black" points="2909.81,-271.29 2919.36,-266.701 2909.03,-264.333 2909.81,-271.29"/>
<text text-anchor="middle" x="1289.32" y="-296.51" font-family="sans-serif" font-size="20.00" fill="red">databases</text>
</g>
<!-- Jonathan Whitmore -->
<g id="node7" class="node"><title>Jonathan Whitmore</title>
<ellipse fill="black" stroke="black" cx="5586.17" cy="-454.392" rx="158.427" ry="22.7556"/>
<text text-anchor="middle" x="5586.17" y="-447.192" font-family="sans-serif" font-size="24.00" fill="white">Jonathan Whitmore</text>
</g>
<!-- Ben Nelson -->
<g id="node8" class="node"><title>Ben Nelson</title>
<ellipse fill="black" stroke="black" cx="1566.17" cy="-353.137" rx="99.1004" ry="22.7556"/>
<text text-anchor="middle" x="1566.17" y="-345.937" font-family="sans-serif" font-size="24.00" fill="white">Ben Nelson</text>
</g>
<!-- Ben Nelson&#45;&gt;Dan F&#45;M -->
<g id="edge18" class="edge"><title>Ben Nelson&#45;&gt;Dan F&#45;M</title>
<path fill="none" stroke="black" stroke-dasharray="1,5" d="M1633.57,-336.361C1674.43,-324.352 1725.87,-304.656 1764.17,-274.51 1783.46,-259.324 1775.03,-242.271 1795.84,-229.255 1860.63,-188.749 2366.43,-163.618 2571.87,-154.991"/>
<polygon fill="black" stroke="black" points="2572.17,-158.481 2582.02,-154.568 2571.88,-151.487 2572.17,-158.481"/>
<text text-anchor="middle" x="1882.33" y="-245.882" font-family="sans-serif" font-size="20.00" fill="red">packaging (Python)</text>
</g>
<!-- Ben Nelson&#45;&gt;Megan Shabram -->
<g id="edge17" class="edge"><title>Ben Nelson&#45;&gt;Megan Shabram</title>
<path fill="none" stroke="black" stroke-dasharray="1,5" d="M1634.45,-336.656C1647.57,-334.195 1661.25,-331.98 1674.17,-330.51 1742.64,-322.716 2231.36,-340.875 2294.17,-312.51 2305.25,-307.503 2301.78,-297.547 2312.85,-292.51 2365.61,-268.51 2776.37,-278.808 2834.17,-274.51 2858.05,-272.734 2883.57,-270.229 2907.87,-267.55"/>
<polygon fill="black" stroke="black" points="2908.3,-271.025 2917.84,-266.435 2907.52,-264.068 2908.3,-271.025"/>
<text text-anchor="middle" x="2389.33" y="-296.51" font-family="sans-serif" font-size="20.00" fill="red">machine learning</text>
</g>
<!-- Usman Khan -->
<g id="node9" class="node"><title>Usman Khan</title>
<ellipse fill="black" stroke="black" cx="577.168" cy="-251.882" rx="109.333" ry="22.7556"/>
<text text-anchor="middle" x="577.168" y="-244.682" font-family="sans-serif" font-size="24.00" fill="white">Usman Khan</text>
</g>
<!-- Usman Khan&#45;&gt;breakout -->
<g id="edge20" class="edge"><title>Usman Khan&#45;&gt;breakout</title>
<path fill="none" stroke="black" stroke-dasharray="1,5" d="M635.031,-232.632C651.309,-226.654 668.766,-219.42 684.168,-211.255 697.679,-204.092 697.713,-196.249 712.168,-191.255 1023.31,-83.7652 3354.82,-46.8473 3981.49,-38.8108"/>
<polygon fill="black" stroke="black" points="3981.99,-42.3049 3991.94,-38.6774 3981.9,-35.3054 3981.99,-42.3049"/>
<text text-anchor="middle" x="1210.52" y="-144.627" font-family="sans-serif" font-size="20.00" fill="red">GAIA DRI</text>
</g>
<!-- Usman Khan&#45;&gt;Dan F&#45;M -->
<g id="edge19" class="edge"><title>Usman Khan&#45;&gt;Dan F&#45;M</title>
<path fill="none" stroke="black" stroke-dasharray="1,5" d="M650.352,-235C670.145,-229.1 691.08,-221.314 709.168,-211.255 720.903,-204.728 719.304,-196.136 731.814,-191.255 818.336,-157.498 2204.86,-152.487 2570.4,-151.752"/>
<polygon fill="black" stroke="black" points="2570.66,-155.252 2580.66,-151.732 2570.65,-148.252 2570.66,-155.252"/>
<text text-anchor="middle" x="863.345" y="-195.255" font-family="sans-serif" font-size="20.00" fill="red">probabilistic graphical models</text>
</g>
<!-- Grigor Aslanyan -->
<g id="node10" class="node"><title>Grigor Aslanyan</title>
<ellipse fill="black" stroke="black" cx="1815.17" cy="-353.137" rx="132.127" ry="22.7556"/>
<text text-anchor="middle" x="1815.17" y="-345.937" font-family="sans-serif" font-size="24.00" fill="white">Grigor Aslanyan</text>
</g>
<!-- Grigor Aslanyan&#45;&gt;Dan F&#45;M -->
<g id="edge22" class="edge"><title>Grigor Aslanyan&#45;&gt;Dan F&#45;M</title>
<path fill="none" stroke="black" stroke-dasharray="1,5" d="M1796.17,-330.551C1787.68,-318.238 1781.51,-303.18 1791.17,-292.51 1818.3,-262.547 1937.28,-294.93 1972.17,-274.51 1993.36,-262.107 1982.99,-242.218 2003.84,-229.255 2098.29,-170.532 2140.82,-205.093 2251.17,-191.255 2362.74,-177.262 2492.06,-165.415 2574.45,-158.414"/>
<polygon fill="black" stroke="black" points="2574.84,-161.894 2584.51,-157.564 2574.25,-154.919 2574.84,-161.894"/>
<text text-anchor="middle" x="2090.33" y="-245.882" font-family="sans-serif" font-size="20.00" fill="red">packaging (Python)</text>
</g>
<!-- Grigor Aslanyan&#45;&gt;Megan Shabram -->
<g id="edge21" class="edge"><title>Grigor Aslanyan&#45;&gt;Megan Shabram</title>
<path fill="none" stroke="black" stroke-dasharray="1,5" d="M1906.26,-336.665C1923.14,-334.252 1940.66,-332.052 1957.17,-330.51 2013.85,-325.215 2416.52,-334.155 2469.17,-312.51 2481.29,-307.524 2478.77,-297.6 2490.85,-292.51 2561.26,-262.852 2758.03,-280.855 2834.17,-274.51 2857.64,-272.553 2882.7,-270.009 2906.64,-267.355"/>
<polygon fill="black" stroke="black" points="2907.28,-270.806 2916.83,-266.213 2906.5,-263.849 2907.28,-270.806"/>
<text text-anchor="middle" x="2567.33" y="-296.51" font-family="sans-serif" font-size="20.00" fill="red">machine learning</text>
</g>
<!-- Zach Pace -->
<g id="node11" class="node"><title>Zach Pace</title>
<ellipse fill="black" stroke="black" cx="923.168" cy="-353.137" rx="92.3753" ry="22.7556"/>
<text text-anchor="middle" x="923.168" y="-345.937" font-family="sans-serif" font-size="24.00" fill="white">Zach Pace</text>
</g>
<!-- Zach Pace&#45;&gt;breakout -->
<g id="edge25" class="edge"><title>Zach Pace&#45;&gt;breakout</title>
<path fill="none" stroke="black" stroke-dasharray="1,5" d="M874.689,-333.855C857.17,-327.198 837.256,-319.573 819.168,-312.51 796.873,-303.804 792.546,-297.638 769.168,-292.51 588.016,-252.771 254.796,-340.894 364.355,-191.255 380.002,-169.884 399.453,-188.421 421.168,-173.255 442.014,-158.696 434.871,-141.891 456.168,-128 514.853,-89.7216 539.686,-99.0296 609.168,-90 945.866,-46.2437 3346.09,-38.5244 3981.93,-37.2424"/>
<polygon fill="black" stroke="black" points="3982.08,-40.7422 3992.07,-37.2222 3982.06,-33.7422 3982.08,-40.7422"/>
<text text-anchor="middle" x="394.074" y="-195.255" font-family="sans-serif" font-size="20.00" fill="red">sphinx</text>
</g>
<!-- Zach Pace&#45;&gt;Dan F&#45;M -->
<g id="edge24" class="edge"><title>Zach Pace&#45;&gt;Dan F&#45;M</title>
<path fill="none" stroke="black" stroke-dasharray="1,5" d="M987.865,-336.959C999.883,-334.518 1012.37,-332.231 1024.17,-330.51 1049.31,-326.841 1233.46,-329.713 1252.17,-312.51 1279.76,-287.126 1240.57,-256.998 1265.8,-229.255 1310.43,-180.161 1344.51,-200.813 1410.17,-191.255 1634.47,-158.603 2325.1,-152.853 2570.51,-151.842"/>
<polygon fill="black" stroke="black" points="2570.82,-155.341 2580.81,-151.802 2570.79,-148.341 2570.82,-155.341"/>
<text text-anchor="middle" x="1306.35" y="-245.882" font-family="sans-serif" font-size="20.00" fill="red">Travis&#45;CI</text>
</g>
<!-- Zach Pace&#45;&gt;Megan Shabram -->
<g id="edge23" class="edge"><title>Zach Pace&#45;&gt;Megan Shabram</title>
<path fill="none" stroke="black" stroke-dasharray="1,5" d="M987.281,-336.765C999.469,-334.31 1012.16,-332.07 1024.17,-330.51 1112.33,-319.053 1734.54,-295.413 1823.4,-292.51 2272.46,-277.839 2385.84,-304.084 2834.17,-274.51 2858.35,-272.914 2884.2,-270.456 2908.78,-267.761"/>
<polygon fill="black" stroke="black" points="2909.31,-271.224 2918.86,-266.635 2908.53,-264.267 2909.31,-271.224"/>
<text text-anchor="middle" x="1912.55" y="-296.51" font-family="sans-serif" font-size="20.00" fill="red">gaussian processes</text>
</g>
<!-- Zaki Ali -->
<g id="node12" class="node"><title>Zaki Ali</title>
<ellipse fill="black" stroke="black" cx="1099.17" cy="-353.137" rx="66.0411" ry="22.7556"/>
<text text-anchor="middle" x="1099.17" y="-345.937" font-family="sans-serif" font-size="24.00" fill="white">Zaki Ali</text>
</g>
<!-- Zaki Ali&#45;&gt;breakout -->
<g id="edge28" class="edge"><title>Zaki Ali&#45;&gt;breakout</title>
<path fill="none" stroke="black" stroke-dasharray="1,5" d="M1052.27,-337.206C1043.03,-334.664 1033.35,-332.278 1024.17,-330.51 945.219,-315.309 919.414,-340.829 844.168,-312.51 829.855,-307.123 830.614,-297.529 816.168,-292.51 777.288,-279 477.136,-301.623 446.168,-274.51 418.06,-249.9 415.775,-223.534 434.582,-191.255 441.756,-178.94 532.579,-132.296 546.168,-128 713.066,-75.2417 763.409,-99.9026 938.168,-90 1541.01,-55.8402 3427.54,-41.47 3981.66,-37.9187"/>
<polygon fill="black" stroke="black" points="3981.74,-41.4183 3991.72,-37.8545 3981.7,-34.4185 3981.74,-41.4183"/>
<text text-anchor="middle" x="462.961" y="-195.255" font-family="sans-serif" font-size="20.00" fill="red">Bayes</text>
</g>
<!-- Zaki Ali&#45;&gt;Dan F&#45;M -->
<g id="edge27" class="edge"><title>Zaki Ali&#45;&gt;Dan F&#45;M</title>
<path fill="none" stroke="black" stroke-dasharray="1,5" d="M1146.98,-337.518C1155.97,-335.007 1165.32,-332.552 1174.17,-330.51 1254.15,-312.045 1288.48,-328.659 1350.17,-274.51 1368.61,-258.322 1361.39,-242.885 1381.8,-229.255 1447.03,-185.681 1476.35,-201.147 1554.17,-191.255 1750.21,-166.336 2346.06,-155.857 2570.97,-152.718"/>
<polygon fill="black" stroke="black" points="2571.13,-156.216 2581.08,-152.578 2571.03,-149.216 2571.13,-156.216"/>
<text text-anchor="middle" x="1422.35" y="-245.882" font-family="sans-serif" font-size="20.00" fill="red">Travis&#45;CI</text>
</g>
<!-- Zaki Ali&#45;&gt;Megan Shabram -->
<g id="edge26" class="edge"><title>Zaki Ali&#45;&gt;Megan Shabram</title>
<path fill="none" stroke="black" stroke-dasharray="1,5" d="M1145.16,-336.848C1154.65,-334.268 1164.66,-331.959 1174.17,-330.51 1219.76,-323.562 1962.06,-331.327 2004.17,-312.51 2015.28,-307.544 2011.76,-297.478 2022.87,-292.51 2064.03,-274.105 2789.19,-277.576 2834.17,-274.51 2858.35,-272.861 2884.2,-270.381 2908.77,-267.68"/>
<polygon fill="black" stroke="black" points="2909.3,-271.143 2918.85,-266.553 2908.52,-264.187 2909.3,-271.143"/>
<text text-anchor="middle" x="2069.32" y="-296.51" font-family="sans-serif" font-size="20.00" fill="red">databases</text>
</g>
<!-- Jennifer Sobeck -->
<g id="node13" class="node"><title>Jennifer Sobeck</title>
<ellipse fill="black" stroke="black" cx="1316.17" cy="-353.137" rx="133.016" ry="22.7556"/>
<text text-anchor="middle" x="1316.17" y="-345.937" font-family="sans-serif" font-size="24.00" fill="white">Jennifer Sobeck</text>
</g>
<!-- Jennifer Sobeck&#45;&gt;breakout -->
<g id="edge31" class="edge"><title>Jennifer Sobeck&#45;&gt;breakout</title>
<path fill="none" stroke="black" stroke-dasharray="1,5" d="M1317.19,-330.234C1316.51,-317.157 1313.16,-301.411 1302.17,-292.51 1265.77,-263.027 491.936,-307.985 459.168,-274.51 445.098,-260.136 448.691,-246.424 459.168,-229.255 468.279,-214.323 480.136,-221.699 494.168,-211.255 504.063,-203.89 502.666,-197.315 513.41,-191.255 624.443,-128.631 666.898,-145.488 793.168,-128 1109.7,-84.1608 1191.82,-101.671 1511.17,-90 2449.37,-55.7108 3577.06,-42.2895 3982.05,-38.3529"/>
<polygon fill="black" stroke="black" points="3982.1,-41.8527 3992.07,-38.256 3982.03,-34.853 3982.1,-41.8527"/>
<text text-anchor="middle" x="597.547" y="-195.255" font-family="sans-serif" font-size="20.00" fill="red">stochastic gradient</text>
</g>
<!-- Jennifer Sobeck&#45;&gt;Dan F&#45;M -->
<g id="edge30" class="edge"><title>Jennifer Sobeck&#45;&gt;Dan F&#45;M</title>
<path fill="none" stroke="black" stroke-dasharray="1,5" d="M1368.92,-332.327C1399.55,-319.092 1437.6,-299.521 1466.17,-274.51 1484.63,-258.344 1476.67,-241.719 1497.81,-229.255 1589.43,-175.246 2316.3,-157.555 2570.65,-152.986"/>
<polygon fill="black" stroke="black" points="2571.01,-156.48 2580.95,-152.803 2570.89,-149.481 2571.01,-156.48"/>
<text text-anchor="middle" x="1629.34" y="-245.882" font-family="sans-serif" font-size="20.00" fill="red">probabilistic graphical models</text>
</g>
<!-- Jennifer Sobeck&#45;&gt;Megan Shabram -->
<g id="edge29" class="edge"><title>Jennifer Sobeck&#45;&gt;Megan Shabram</title>
<path fill="none" stroke="black" stroke-dasharray="1,5" d="M1407.25,-336.558C1424.13,-334.156 1441.65,-331.987 1458.17,-330.51 1531.35,-323.966 2052.18,-342.689 2119.17,-312.51 2130.26,-307.513 2126.76,-297.499 2137.85,-292.51 2173.15,-276.639 2795.57,-277.212 2834.17,-274.51 2858.2,-272.827 2883.89,-270.347 2908.33,-267.661"/>
<polygon fill="black" stroke="black" points="2908.8,-271.13 2918.35,-266.541 2908.02,-264.174 2908.8,-271.13"/>
<text text-anchor="middle" x="2214.33" y="-296.51" font-family="sans-serif" font-size="20.00" fill="red">machine learning</text>
</g>
<!-- Oleg Burgueño -->
<g id="node15" class="node"><title>Oleg Burgueño</title>
<ellipse fill="black" stroke="black" cx="2091.17" cy="-353.137" rx="125.451" ry="22.7556"/>
<text text-anchor="middle" x="2091.17" y="-345.937" font-family="sans-serif" font-size="24.00" fill="white">Oleg Burgueño</text>
</g>
<!-- Oleg Burgueño&#45;&gt;Dan F&#45;M -->
<g id="edge33" class="edge"><title>Oleg Burgueño&#45;&gt;Dan F&#45;M</title>
<path fill="none" stroke="black" stroke-dasharray="1,5" d="M2001.57,-337.208C1986.43,-334.851 1970.87,-332.528 1956.17,-330.51 1921.38,-325.731 1822.54,-338.718 1799.17,-312.51 1793.25,-305.876 1793.03,-298.942 1799.17,-292.51 1828.42,-261.843 2143.05,-294.964 2180.17,-274.51 2201.67,-262.661 2191.12,-242.424 2211.84,-229.255 2270.66,-191.873 2461.93,-169.046 2574.09,-158.537"/>
<polygon fill="black" stroke="black" points="2574.72,-161.994 2584.35,-157.589 2574.07,-155.023 2574.72,-161.994"/>
<text text-anchor="middle" x="2298.33" y="-245.882" font-family="sans-serif" font-size="20.00" fill="red">packaging (Python)</text>
</g>
<!-- Oleg Burgueño&#45;&gt;Megan Shabram -->
<g id="edge32" class="edge"><title>Oleg Burgueño&#45;&gt;Megan Shabram</title>
<path fill="none" stroke="black" stroke-dasharray="1,5" d="M2177.47,-336.681C2193.29,-334.282 2209.69,-332.083 2225.17,-330.51 2318.55,-321.015 2556.21,-335.701 2647.17,-312.51 2666.7,-307.529 2668.54,-298.219 2687.87,-292.51 2693.18,-290.943 2808.88,-277.438 2902.89,-266.623"/>
<polygon fill="black" stroke="black" points="2903.54,-270.071 2913.08,-265.452 2902.74,-263.117 2903.54,-270.071"/>
<text text-anchor="middle" x="2737.32" y="-296.51" font-family="sans-serif" font-size="20.00" fill="red">databases</text>
</g>
<!-- Casey Law&#45;&gt;breakout -->
<g id="edge37" class="edge"><title>Casey Law&#45;&gt;breakout</title>
<path fill="none" stroke="black" stroke-dasharray="1,5" d="M5297.67,-338.617C5332.34,-327.838 5369.67,-308.62 5386.17,-274.51 5414.28,-216.399 5359.11,-105.642 5338.17,-90 5296.91,-59.185 4605.74,-44.3926 4290.59,-39.225"/>
<polygon fill="black" stroke="black" points="4290.51,-35.7233 4280.46,-39.06 4290.4,-42.7224 4290.51,-35.7233"/>
<text text-anchor="middle" x="5420.07" y="-195.255" font-family="sans-serif" font-size="20.00" fill="red">sphinx</text>
</g>
<!-- Casey Law&#45;&gt;Casey Law -->
<g id="edge34" class="edge"><title>Casey Law&#45;&gt;Casey Law</title>
<path fill="none" stroke="black" stroke-dasharray="1,5" d="M5312.02,-361.889C5327.03,-360.693 5337.43,-357.776 5337.43,-353.137 5337.43,-349.622 5331.46,-347.095 5322.04,-345.557"/>
<polygon fill="black" stroke="black" points="5322.36,-342.072 5312.02,-344.385 5321.55,-349.024 5322.36,-342.072"/>
<text text-anchor="middle" x="5429.67" y="-347.137" font-family="sans-serif" font-size="20.00" fill="red">astronomy cirriculum</text>
</g>
<!-- Casey Law&#45;&gt;Dan F&#45;M -->
<g id="edge36" class="edge"><title>Casey Law&#45;&gt;Dan F&#45;M</title>
<path fill="none" stroke="black" stroke-dasharray="1,5" d="M5219.82,-330.236C5215.97,-316.986 5208.89,-301.049 5196.17,-292.51 5130.1,-248.175 4911.5,-306.336 4838.58,-274.51 4812.18,-262.985 4818.3,-241.393 4792.17,-229.255 4717.25,-194.451 4684.52,-240.25 4607.17,-211.255 4592.85,-205.887 4593.68,-196.072 4579.17,-191.255 4491.27,-162.083 3109.78,-153.701 2745.61,-151.993"/>
<polygon fill="black" stroke="black" points="2745.4,-148.492 2735.39,-151.946 2745.37,-155.492 2745.4,-148.492"/>
<text text-anchor="middle" x="4870.96" y="-245.882" font-family="sans-serif" font-size="20.00" fill="red">Jupyter</text>
</g>
<!-- Casey Law&#45;&gt;Megan Shabram -->
<g id="edge35" class="edge"><title>Casey Law&#45;&gt;Megan Shabram</title>
<path fill="none" stroke="black" stroke-dasharray="1,5" d="M5139.48,-342.596C5108.23,-336.777 5073.3,-327.445 5043.85,-312.51 5031.87,-306.429 5033.71,-297.33 5021.17,-292.51 4978.98,-276.3 3439.34,-276.075 3394.17,-274.51 3315.66,-271.788 3227.9,-266.763 3157.45,-262.241"/>
<polygon fill="black" stroke="black" points="3157.39,-258.73 3147.19,-261.578 3156.94,-265.716 3157.39,-258.73"/>
<text text-anchor="middle" x="5119.33" y="-296.51" font-family="sans-serif" font-size="20.00" fill="red">machine learning</text>
</g>
<!-- Brigitta Sipocz -->
<g id="node17" class="node"><title>Brigitta Sipocz</title>
<ellipse fill="black" stroke="black" cx="2354.17" cy="-353.137" rx="119.566" ry="22.7556"/>
<text text-anchor="middle" x="2354.17" y="-345.937" font-family="sans-serif" font-size="24.00" fill="white">Brigitta Sipocz</text>
</g>
<!-- Brigitta Sipocz&#45;&gt;Dan F&#45;M -->
<g id="edge39" class="edge"><title>Brigitta Sipocz&#45;&gt;Dan F&#45;M</title>
<path fill="none" stroke="black" stroke-dasharray="1,5" d="M2271.45,-336.721C2256.11,-334.303 2240.19,-332.086 2225.17,-330.51 2202.05,-328.083 1823.25,-329.295 1807.17,-312.51 1801.02,-306.09 1800.98,-298.892 1807.17,-292.51 1829.65,-269.324 2356.72,-281.842 2388.17,-274.51 2474.05,-254.489 2565.83,-206.28 2617.2,-176.545"/>
<polygon fill="black" stroke="black" points="2619.14,-179.466 2626.01,-171.399 2615.61,-173.422 2619.14,-179.466"/>
<text text-anchor="middle" x="2548.79" y="-245.882" font-family="sans-serif" font-size="20.00" fill="red">autodiff</text>
</g>
<!-- Brigitta Sipocz&#45;&gt;Megan Shabram -->
<g id="edge38" class="edge"><title>Brigitta Sipocz&#45;&gt;Megan Shabram</title>
<path fill="none" stroke="black" stroke-dasharray="1,5" d="M2437.3,-336.754C2452.2,-334.379 2467.61,-332.168 2482.17,-330.51 2548.97,-322.898 2723.33,-341.112 2784.17,-312.51 2795.18,-307.334 2792.17,-298.327 2802.85,-292.51 2828.84,-278.358 2858.86,-269.118 2888.21,-263.122"/>
<polygon fill="black" stroke="black" points="2888.98,-266.539 2898.13,-261.21 2887.65,-259.665 2888.98,-266.539"/>
<text text-anchor="middle" x="2879.33" y="-296.51" font-family="sans-serif" font-size="20.00" fill="red">machine learning</text>
</g>
<!-- Felipe Ardila -->
<g id="node18" class="node"><title>Felipe Ardila</title>
<ellipse fill="black" stroke="black" cx="2596.17" cy="-353.137" rx="104.92" ry="22.7556"/>
<text text-anchor="middle" x="2596.17" y="-345.937" font-family="sans-serif" font-size="24.00" fill="white">Felipe Ardila</text>
</g>
<!-- Felipe Ardila&#45;&gt;Dan F&#45;M -->
<g id="edge41" class="edge"><title>Felipe Ardila&#45;&gt;Dan F&#45;M</title>
<path fill="none" stroke="black" stroke-dasharray="1,5" d="M2628.81,-331.263C2634.87,-325.887 2640.45,-319.589 2644.17,-312.51 2665.46,-271.973 2665.29,-217.677 2662.36,-183.677"/>
<polygon fill="black" stroke="black" points="2665.81,-183 2661.34,-173.395 2658.85,-183.692 2665.81,-183"/>
<text text-anchor="middle" x="2750.33" y="-245.882" font-family="sans-serif" font-size="20.00" fill="red">packaging (Python)</text>
</g>
<!-- Felipe Ardila&#45;&gt;Megan Shabram -->
<g id="edge40" class="edge"><title>Felipe Ardila&#45;&gt;Megan Shabram</title>
<path fill="none" stroke="black" stroke-dasharray="1,5" d="M2671.2,-337.252C2685.75,-334.721 2700.9,-332.327 2715.17,-330.51 2769.1,-323.639 2909.34,-334.274 2959.17,-312.51 2961.41,-311.53 2977.62,-296.418 2993.17,-281.655"/>
<polygon fill="black" stroke="black" points="2995.85,-283.93 3000.68,-274.499 2991.02,-278.862 2995.85,-283.93"/>
<text text-anchor="middle" x="3028.32" y="-296.51" font-family="sans-serif" font-size="20.00" fill="red">databases</text>
</g>
<!-- Jessie Dotson -->
<g id="node19" class="node"><title>Jessie Dotson</title>
<ellipse fill="black" stroke="black" cx="3813.17" cy="-353.137" rx="117.804" ry="22.7556"/>
<text text-anchor="middle" x="3813.17" y="-345.937" font-family="sans-serif" font-size="24.00" fill="white">Jessie Dotson</text>
</g>
<!-- Jessie Dotson&#45;&gt;breakout -->
<g id="edge44" class="edge"><title>Jessie Dotson&#45;&gt;breakout</title>
<path fill="none" stroke="black" stroke-dasharray="1,5" d="M3898.53,-337.423C3912.44,-335.076 3926.7,-332.701 3940.17,-330.51 3991.66,-322.13 4009.97,-336.749 4056.17,-312.51 4136.34,-270.446 4142.99,-149.21 4140.11,-82.4436"/>
<polygon fill="black" stroke="black" points="4143.59,-82.0198 4139.58,-72.2162 4136.6,-82.3853 4143.59,-82.0198"/>
<text text-anchor="middle" x="4176.52" y="-195.255" font-family="sans-serif" font-size="20.00" fill="red">GAIA DRI</text>
</g>
<!-- Jessie Dotson&#45;&gt;Dan F&#45;M -->
<g id="edge43" class="edge"><title>Jessie Dotson&#45;&gt;Dan F&#45;M</title>
<path fill="none" stroke="black" stroke-dasharray="1,5" d="M3898.62,-337.472C3962.37,-326.483 4038.57,-313.219 4039.17,-312.51 4044.88,-305.703 4045.34,-298.906 4039.17,-292.51 3999.99,-251.922 3582.12,-300.033 3531.81,-274.51 3508.98,-262.925 3518.32,-242.086 3496.17,-229.255 3395.87,-171.17 3353.41,-203.659 3238.17,-191.255 3063.32,-172.434 2857.79,-160.876 2744.35,-155.412"/>
<polygon fill="black" stroke="black" points="2744.49,-151.915 2734.34,-154.934 2744.16,-158.907 2744.49,-151.915"/>
<text text-anchor="middle" x="3663.34" y="-245.882" font-family="sans-serif" font-size="20.00" fill="red">probabilistic graphical models</text>
</g>
<!-- Jessie Dotson&#45;&gt;Megan Shabram -->
<g id="edge42" class="edge"><title>Jessie Dotson&#45;&gt;Megan Shabram</title>
<path fill="none" stroke="black" stroke-dasharray="1,5" d="M3731.38,-336.83C3716.38,-334.417 3700.84,-332.173 3686.17,-330.51 3616.65,-322.625 3436.56,-339.101 3371.85,-312.51 3359.42,-307.401 3361.43,-298.012 3349.17,-292.51 3315.7,-277.491 3233.49,-267.558 3160.01,-261.392"/>
<polygon fill="black" stroke="black" points="3159.95,-257.876 3149.7,-260.547 3159.38,-264.853 3159.95,-257.876"/>
<text text-anchor="middle" x="3448.33" y="-296.51" font-family="sans-serif" font-size="20.00" fill="red">machine learning</text>
</g>
<!-- Lucas Secco -->
<g id="node20" class="node"><title>Lucas Secco</title>
<ellipse fill="black" stroke="black" cx="3569.17" cy="-353.137" rx="108.46" ry="22.7556"/>
<text text-anchor="middle" x="3569.17" y="-345.937" font-family="sans-serif" font-size="24.00" fill="white">Lucas Secco</text>
</g>
<!-- Lucas Secco&#45;&gt;Dan F&#45;M -->
<g id="edge46" class="edge"><title>Lucas Secco&#45;&gt;Dan F&#45;M</title>
<path fill="none" stroke="black" stroke-dasharray="1,5" d="M3646.14,-337.165C3659.46,-334.787 3673.2,-332.469 3686.17,-330.51 3720.02,-325.396 3816.42,-338.092 3839.17,-312.51 3845.07,-305.867 3845.31,-298.932 3839.17,-292.51 3807.75,-259.677 3474.59,-285.834 3430.58,-274.51 3386.68,-263.212 3382.65,-242.07 3339.17,-229.255 3132.26,-168.277 2876.91,-154.733 2745.47,-152.022"/>
<polygon fill="black" stroke="black" points="2745.52,-148.522 2735.45,-151.832 2745.38,-155.521 2745.52,-148.522"/>
<text text-anchor="middle" x="3463.96" y="-245.882" font-family="sans-serif" font-size="20.00" fill="red">Jupyter</text>
</g>
<!-- Lucas Secco&#45;&gt;Megan Shabram -->
<g id="edge45" class="edge"><title>Lucas Secco&#45;&gt;Megan Shabram</title>
<path fill="none" stroke="black" stroke-dasharray="1,5" d="M3491.9,-337.195C3477.1,-334.685 3461.68,-332.313 3447.17,-330.51 3391.82,-323.633 3248.28,-334.082 3196.85,-312.51 3184.46,-307.31 3186.03,-298.831 3174.17,-292.51 3158.22,-284.014 3140.35,-277.255 3122.62,-271.906"/>
<polygon fill="black" stroke="black" points="3123.38,-268.483 3112.8,-269.077 3121.44,-275.209 3123.38,-268.483"/>
<text text-anchor="middle" x="3273.33" y="-296.51" font-family="sans-serif" font-size="20.00" fill="red">machine learning</text>
</g>
<!-- Madhura Killedar -->
<g id="node21" class="node"><title>Madhura Killedar</title>
<ellipse fill="black" stroke="black" cx="4089.17" cy="-353.137" rx="139.708" ry="22.7556"/>
<text text-anchor="middle" x="4089.17" y="-345.937" font-family="sans-serif" font-size="24.00" fill="white">Madhura Killedar</text>
</g>
<!-- Madhura Killedar&#45;&gt;breakout -->
<g id="edge49" class="edge"><title>Madhura Killedar&#45;&gt;breakout</title>
<path fill="none" stroke="black" stroke-dasharray="1,5" d="M4167.18,-334.308C4231.89,-320.327 4326.5,-301.741 4410.17,-292.51 4437.69,-289.473 4888.95,-294.436 4908.17,-274.51 4922.13,-260.033 4921.49,-244.323 4908.17,-229.255 4886.54,-204.795 4790.87,-227.164 4762.36,-211.255 4732.2,-194.428 4695.51,-106.48 4665.17,-90 4602.57,-56.0052 4423.14,-43.7366 4290.53,-39.3534"/>
<polygon fill="black" stroke="black" points="4290.37,-35.8466 4280.26,-39.0266 4290.15,-42.8431 4290.37,-35.8466"/>
<text text-anchor="middle" x="4791.07" y="-195.255" font-family="sans-serif" font-size="20.00" fill="red">sphinx</text>
</g>
<!-- Madhura Killedar&#45;&gt;Dan F&#45;M -->
<g id="edge48" class="edge"><title>Madhura Killedar&#45;&gt;Dan F&#45;M</title>
<path fill="none" stroke="black" stroke-dasharray="1,5" d="M4082.86,-330.341C4077.85,-317.132 4069.43,-301.202 4056.17,-292.51 4021,-269.456 3907.69,-287.862 3867.81,-274.51 3831.39,-262.31 3830.64,-241.32 3794.17,-229.255 3599.88,-164.982 2976.78,-153.896 2745.59,-152.007"/>
<polygon fill="black" stroke="black" points="2745.56,-148.507 2735.54,-151.929 2745.51,-155.506 2745.56,-148.507"/>
<text text-anchor="middle" x="3999.34" y="-245.882" font-family="sans-serif" font-size="20.00" fill="red">probabilistic graphical models</text>
</g>
<!-- Madhura Killedar&#45;&gt;Megan Shabram -->
<g id="edge47" class="edge"><title>Madhura Killedar&#45;&gt;Megan Shabram</title>
<path fill="none" stroke="black" stroke-dasharray="1,5" d="M3992.75,-336.73C3975.29,-334.342 3957.21,-332.133 3940.17,-330.51 3896.68,-326.367 3588,-328.644 3547.4,-312.51 3534.74,-307.478 3536.74,-297.751 3524.17,-292.51 3491.59,-278.931 3300,-266.685 3163.46,-259.512"/>
<polygon fill="black" stroke="black" points="3163.48,-256.009 3153.31,-258.983 3163.12,-262.999 3163.48,-256.009"/>
<text text-anchor="middle" x="3636.55" y="-296.51" font-family="sans-serif" font-size="20.00" fill="red">gaussian processes</text>
</g>
<!-- Layne Price -->
<g id="node22" class="node"><title>Layne Price</title>
<ellipse fill="black" stroke="black" cx="4348.17" cy="-353.137" rx="100.862" ry="22.7556"/>
<text text-anchor="middle" x="4348.17" y="-345.937" font-family="sans-serif" font-size="24.00" fill="white">Layne Price</text>
</g>
<!-- Layne Price&#45;&gt;breakout -->
<g id="edge51" class="edge"><title>Layne Price&#45;&gt;breakout</title>
<path fill="none" stroke="black" stroke-dasharray="1,5" d="M4377.1,-331.455C4398.19,-317.627 4428.06,-300.548 4457.17,-292.51 4482.36,-285.554 4909.05,-293.337 4927.17,-274.51 4941.12,-260.018 4939.81,-244.9 4927.17,-229.255 4903.24,-199.638 4877.51,-228.197 4843.41,-211.255 4831.21,-205.191 4830.73,-199.869 4820.17,-191.255 4763.15,-144.739 4757.59,-117.075 4689.17,-90 4619.06,-62.2611 4428.35,-48.6359 4290.47,-42.2313"/>
<polygon fill="black" stroke="black" points="4290.37,-38.7232 4280.22,-41.764 4290.05,-45.716 4290.37,-38.7232"/>
<text text-anchor="middle" x="4926.55" y="-195.255" font-family="sans-serif" font-size="20.00" fill="red">stochastic gradient</text>
</g>
<!-- Layne Price&#45;&gt;Megan Shabram -->
<g id="edge50" class="edge"><title>Layne Price&#45;&gt;Megan Shabram</title>
<path fill="none" stroke="black" stroke-dasharray="1,5" d="M4278.3,-336.708C4265.03,-334.259 4251.22,-332.035 4238.17,-330.51 4135.17,-318.471 3873.12,-334.915 3771.87,-312.51 3749.43,-307.542 3746.57,-297.655 3724.17,-292.51 3652.59,-276.071 3467.49,-278.647 3394.17,-274.51 3316.81,-270.145 3230.38,-265.116 3160.42,-261.006"/>
<polygon fill="black" stroke="black" points="3160.41,-257.5 3150.22,-260.407 3160,-264.488 3160.41,-257.5"/>
<text text-anchor="middle" x="3818.32" y="-296.51" font-family="sans-serif" font-size="20.00" fill="red">databases</text>
</g>
<!-- Adam Becker -->
<g id="node23" class="node"><title>Adam Becker</title>
<ellipse fill="black" stroke="black" cx="2394.17" cy="-454.392" rx="113.357" ry="22.7556"/>
<text text-anchor="middle" x="2394.17" y="-447.192" font-family="sans-serif" font-size="24.00" fill="white">Adam Becker</text>
</g>
<!-- Adam Becker&#45;&gt;Ben Nelson -->
<g id="edge52" class="edge"><title>Adam Becker&#45;&gt;Ben Nelson</title>
<path fill="none" stroke="black" stroke-dasharray="1,5" d="M2290.65,-445.186C2150.44,-433.399 1892.56,-409.335 1674.17,-375.765 1665.15,-374.378 1655.73,-372.756 1646.39,-371.036"/>
<polygon fill="black" stroke="black" points="1646.77,-367.547 1636.3,-369.136 1645.48,-374.426 1646.77,-367.547"/>
<text text-anchor="middle" x="2043.41" y="-397.765" font-family="sans-serif" font-size="20.00" fill="red">astronomy cirriculum</text>
</g>
<!-- Adam Becker&#45;&gt;breakout -->
<g id="edge55" class="edge"><title>Adam Becker&#45;&gt;breakout</title>
<path fill="none" stroke="black" stroke-dasharray="1,5" d="M2504.66,-449.37C2630.27,-444.849 2841.46,-437.406 3023.17,-431.765 3024.92,-431.71 5042.48,-376.254 5044.17,-375.765 5081.92,-364.81 5082.8,-342.718 5120.17,-330.51 5160.48,-317.339 5281.63,-343.881 5310.17,-312.51 5321.11,-300.483 5330.83,-244.975 5289.17,-191.255 5250.03,-140.798 5220.65,-148.489 5160.17,-128 5078.6,-100.368 5055.55,-101.2 4970.17,-90 4734.22,-59.0493 4458.25,-46.0024 4290.4,-40.6226"/>
<polygon fill="black" stroke="black" points="4290.36,-37.1195 4280.25,-40.3024 4290.14,-44.116 4290.36,-37.1195"/>
<text text-anchor="middle" x="5348.07" y="-245.882" font-family="sans-serif" font-size="20.00" fill="red">sphinx</text>
</g>
<!-- Adam Becker&#45;&gt;Dan F&#45;M -->
<g id="edge54" class="edge"><title>Adam Becker&#45;&gt;Dan F&#45;M</title>
<path fill="none" stroke="black" stroke-dasharray="1,5" d="M2281.24,-452.792C1894.81,-450.191 645.884,-437.058 587.168,-375.765 561.558,-349.031 563.324,-318.342 589.844,-292.51 622.374,-260.822 958.994,-297.483 998.168,-274.51 1018.57,-262.545 1008,-244.402 1026.17,-229.255 1061.73,-199.602 1077.79,-200.435 1123.17,-191.255 1264.7,-162.625 2266.18,-154.072 2570.61,-152.119"/>
<polygon fill="black" stroke="black" points="2570.73,-155.618 2580.71,-152.055 2570.68,-148.618 2570.73,-155.618"/>
<text text-anchor="middle" x="676.33" y="-296.51" font-family="sans-serif" font-size="20.00" fill="red">packaging (Python)</text>
</g>
<!-- Adam Becker&#45;&gt;Megan Shabram -->
<g id="edge53" class="edge"><title>Adam Becker&#45;&gt;Megan Shabram</title>
<path fill="none" stroke="black" stroke-dasharray="1,5" d="M2487.84,-441.575C2552.81,-430.75 2639.93,-410.882 2710.17,-375.765 2738.55,-361.572 2735.84,-342.055 2765.4,-330.51 2797.41,-318.008 3050.59,-337.507 3074.17,-312.51 3083.75,-302.35 3077.48,-290.762 3066.51,-280.521"/>
<polygon fill="black" stroke="black" points="3068.66,-277.754 3058.74,-274.014 3064.16,-283.119 3068.66,-277.754"/>
<text text-anchor="middle" x="2855.55" y="-347.137" font-family="sans-serif" font-size="20.00" fill="red">gaussian processes</text>
</g>
<!-- Arna Karick -->
<g id="node24" class="node"><title>Arna Karick</title>
<ellipse fill="black" stroke="black" cx="5071.17" cy="-454.392" rx="99.0507" ry="22.7556"/>
<text text-anchor="middle" x="5071.17" y="-447.192" font-family="sans-serif" font-size="24.00" fill="white">Arna Karick</text>
</g>
<!-- Arna Karick&#45;&gt;breakout -->
<g id="edge59" class="edge"><title>Arna Karick&#45;&gt;breakout</title>
<path fill="none" stroke="black" stroke-dasharray="1,5" d="M5142.73,-438.625C5157.38,-436.004 5172.73,-433.547 5187.17,-431.765 5372.45,-408.888 5587.17,-490.202 5587.17,-303.51 5587.17,-303.51 5587.17,-303.51 5587.17,-149.627 5587.17,-44.8861 5462.74,-105.606 5359.17,-90 5157.68,-59.6401 4571.85,-45.0254 4290.51,-39.6022"/>
<polygon fill="black" stroke="black" points="4290.28,-36.0974 4280.22,-39.4054 4290.15,-43.0961 4290.28,-36.0974"/>
<text text-anchor="middle" x="5616.07" y="-245.882" font-family="sans-serif" font-size="20.00" fill="red">sphinx</text>
</g>
<!-- Arna Karick&#45;&gt;Casey Law -->
<g id="edge56" class="edge"><title>Arna Karick&#45;&gt;Casey Law</title>
<path fill="none" stroke="black" stroke-dasharray="1,5" d="M5074.06,-431.72C5076.83,-419.063 5082.22,-403.682 5092.69,-393.765 5104.44,-382.628 5119.2,-374.611 5134.56,-368.842"/>
<polygon fill="black" stroke="black" points="5135.86,-372.097 5144.18,-365.533 5133.58,-365.477 5135.86,-372.097"/>
<text text-anchor="middle" x="5184.41" y="-397.765" font-family="sans-serif" font-size="20.00" fill="red">astronomy cirriculum</text>
</g>
<!-- Arna Karick&#45;&gt;Dan F&#45;M -->
<g id="edge58" class="edge"><title>Arna Karick&#45;&gt;Dan F&#45;M</title>
<path fill="none" stroke="black" stroke-dasharray="1,5" d="M5073.02,-431.34C5074.03,-403.742 5071.21,-356.903 5044.17,-330.51 5014.17,-301.23 4991.73,-324.572 4951.58,-312.51 4929.29,-305.81 4925.57,-298.86 4903.17,-292.51 4855.09,-278.878 4833.73,-302.263 4792.17,-274.51 4772.5,-261.375 4784.24,-241.771 4764.17,-229.255 4729.68,-207.747 4622.39,-217.098 4582.17,-211.255 4535.59,-204.487 4524.97,-196.229 4478.17,-191.255 4136.35,-154.927 3061.34,-151.724 2745.96,-151.582"/>
<polygon fill="black" stroke="black" points="2745.51,-148.082 2735.51,-151.578 2745.51,-155.082 2745.51,-148.082"/>
<text text-anchor="middle" x="4983.96" y="-296.51" font-family="sans-serif" font-size="20.00" fill="red">Jupyter</text>
</g>
<!-- Arna Karick&#45;&gt;Megan Shabram -->
<g id="edge57" class="edge"><title>Arna Karick&#45;&gt;Megan Shabram</title>
<path fill="none" stroke="black" stroke-dasharray="1,5" d="M4972.04,-453.139C4617.38,-451.97 3423.69,-445.68 3255.17,-413.765 3207.11,-404.662 3187.36,-409.432 3151.87,-375.765 3122.66,-348.054 3144.67,-320.946 3116.17,-292.51 3110.1,-286.451 3102.95,-281.262 3095.37,-276.83"/>
<polygon fill="black" stroke="black" points="3096.77,-273.609 3086.3,-271.97 3093.46,-279.779 3096.77,-273.609"/>
<text text-anchor="middle" x="3198.32" y="-347.137" font-family="sans-serif" font-size="20.00" fill="red">databases</text>
</g>
<!-- Dan F&#45;M&#45;&gt;breakout -->
<g id="edge60" class="edge"><title>Dan F&#45;M&#45;&gt;breakout</title>
<path fill="none" stroke="black" stroke-dasharray="1,5" d="M2732.22,-143.984C2962.2,-126.46 3667.47,-72.7162 3981.98,-48.7492"/>
<polygon fill="black" stroke="black" points="3982.39,-52.2288 3992.09,-47.979 3981.85,-45.2491 3982.39,-52.2288"/>
<text text-anchor="middle" x="3440.52" y="-94" font-family="sans-serif" font-size="20.00" fill="red">GAIA DRI</text>
</g>
<!-- Megan Shabram&#45;&gt;Dan F&#45;M -->
<g id="edge62" class="edge"><title>Megan Shabram&#45;&gt;Dan F&#45;M</title>
<path fill="none" stroke="black" stroke-dasharray="1,5" d="M2954.51,-232.213C2888.02,-214.133 2787.97,-186.924 2722.86,-169.218"/>
<polygon fill="black" stroke="black" points="2723.68,-165.815 2713.11,-166.569 2721.84,-172.57 2723.68,-165.815"/>
<text text-anchor="middle" x="2906.79" y="-195.255" font-family="sans-serif" font-size="20.00" fill="red">autodiff</text>
</g>
<!-- Megan Shabram&#45;&gt;Megan Shabram -->
<g id="edge61" class="edge"><title>Megan Shabram&#45;&gt;Megan Shabram</title>
<path fill="none" stroke="black" stroke-dasharray="1,5" d="M3150.68,-260.099C3167.1,-258.674 3177.95,-255.935 3177.95,-251.882 3177.95,-248.748 3171.46,-246.399 3160.92,-244.837"/>
<polygon fill="black" stroke="black" points="3161.01,-241.325 3150.68,-243.666 3160.22,-248.279 3161.01,-241.325"/>
<text text-anchor="middle" x="3254.1" y="-245.882" font-family="sans-serif" font-size="20.00" fill="red">machine learning</text>
</g>
<!-- Sophia Milanov -->
<g id="node27" class="node"><title>Sophia Milanov</title>
<ellipse fill="black" stroke="black" cx="4908.17" cy="-353.137" rx="127.197" ry="22.7556"/>
<text text-anchor="middle" x="4908.17" y="-345.937" font-family="sans-serif" font-size="24.00" fill="white">Sophia Milanov</text>
</g>
<!-- Sophia Milanov&#45;&gt;breakout -->
<g id="edge65" class="edge"><title>Sophia Milanov&#45;&gt;breakout</title>
<path fill="none" stroke="black" stroke-dasharray="1,5" d="M4913.21,-330.418C4917.2,-317.745 4924.01,-302.362 4935.17,-292.51 4955.4,-274.646 4967.44,-282.674 4993.17,-274.51 5082.99,-246.005 5244.79,-266.581 5188.17,-191.255 5090.87,-61.8135 4997.53,-118.749 4838.17,-90 4651.7,-56.3603 4433.63,-44.0271 4290.62,-39.5315"/>
<polygon fill="black" stroke="black" points="4290.55,-36.028 4280.45,-39.2211 4290.34,-43.0247 4290.55,-36.028"/>
<text text-anchor="middle" x="5241.52" y="-195.255" font-family="sans-serif" font-size="20.00" fill="red">GAIA DRI</text>
</g>
<!-- Sophia Milanov&#45;&gt;Dan F&#45;M -->
<g id="edge64" class="edge"><title>Sophia Milanov&#45;&gt;Dan F&#45;M</title>
<path fill="none" stroke="black" stroke-dasharray="1,5" d="M4904.57,-330.269C4901.17,-317.032 4894.63,-301.097 4882.17,-292.51 4812.5,-244.49 4573.58,-319.334 4501.81,-274.51 4466.02,-252.156 4492.24,-213.155 4456.17,-191.255 4419.23,-168.828 3100.87,-155.549 2745.6,-152.373"/>
<polygon fill="black" stroke="black" points="2745.4,-148.871 2735.37,-152.282 2745.34,-155.871 2745.4,-148.871"/>
<text text-anchor="middle" x="4632.34" y="-245.882" font-family="sans-serif" font-size="20.00" fill="red">probabilistic graphical models</text>
</g>
<!-- Sophia Milanov&#45;&gt;Megan Shabram -->
<g id="edge63" class="edge"><title>Sophia Milanov&#45;&gt;Megan Shabram</title>
<path fill="none" stroke="black" stroke-dasharray="1,5" d="M4838.91,-334.073C4822.28,-328.362 4804.98,-321.214 4789.87,-312.51 4778.22,-305.796 4779.72,-297.343 4767.17,-292.51 4731.57,-278.801 3432.29,-275.87 3394.17,-274.51 3315.66,-271.708 3227.9,-266.679 3157.46,-262.175"/>
<polygon fill="black" stroke="black" points="3157.4,-258.664 3147.19,-261.515 3156.95,-265.649 3157.4,-258.664"/>
<text text-anchor="middle" x="4835.32" y="-296.51" font-family="sans-serif" font-size="20.00" fill="red">databases</text>
</g>
</g>
</svg>
