<?xml version="1.0" encoding="UTF-8" standalone="no"?>
<!DOCTYPE svg PUBLIC "-//W3C//DTD SVG 1.1//EN"
 "http://www.w3.org/Graphics/SVG/1.1/DTD/svg11.dtd">
<!-- Generated by graphviz version 2.38.0 (20140413.2041)
 -->
<!-- Title: G Pages: 1 -->
<svg width="839pt" height="147pt"
 viewBox="0.00 0.00 838.62 146.51" xmlns="http://www.w3.org/2000/svg" xmlns:xlink="http://www.w3.org/1999/xlink">
<g id="graph0" class="graph" transform="scale(1 1) rotate(0) translate(4 142.51)">
<title>G</title>
<polygon fill="white" stroke="none" points="-4,4 -4,-142.51 834.62,-142.51 834.62,4 -4,4"/>
<!-- Casey Law -->
<g id="node1" class="node"><title>Casey Law</title>
<ellipse fill="black" stroke="black" cx="95.2633" cy="-22.6274" rx="95.0272" ry="22.7556"/>
<text text-anchor="middle" x="95.2633" y="-15.4274" font-family="sans-serif" font-size="24.00" fill="white">Casey Law</text>
</g>
<!-- Megan Shabram -->
<g id="node2" class="node"><title>Megan Shabram</title>
<ellipse fill="black" stroke="black" cx="345.263" cy="-22.6274" rx="136.557" ry="22.7556"/>
<text text-anchor="middle" x="345.263" y="-15.4274" font-family="sans-serif" font-size="24.00" fill="white">Megan Shabram</text>
</g>
<!-- Dan F&#45;M -->
<g id="node3" class="node"><title>Dan F&#45;M</title>
<ellipse fill="black" stroke="black" cx="577.263" cy="-22.6274" rx="77.1303" ry="22.7556"/>
<text text-anchor="middle" x="577.263" y="-15.4274" font-family="sans-serif" font-size="24.00" fill="white">Dan F&#45;M</text>
</g>
<!-- breakout -->
<g id="node4" class="node"><title>breakout</title>
<ellipse fill="black" stroke="black" cx="753.263" cy="-22.6274" rx="77.213" ry="22.7556"/>
<text text-anchor="middle" x="753.263" y="-15.4274" font-family="sans-serif" font-size="24.00" fill="white">breakout</text>
</g>
<!-- Vinayak Mathur -->
<g id="node5" class="node"><title>Vinayak Mathur</title>
<ellipse fill="black" stroke="black" cx="459.263" cy="-115.882" rx="128.845" ry="22.7556"/>
<text text-anchor="middle" x="459.263" y="-108.682" font-family="sans-serif" font-size="24.00" fill="white">Vinayak Mathur</text>
</g>
<!-- Vinayak Mathur&#45;&gt;Casey Law -->
<g id="edge1" class="edge"><title>Vinayak Mathur&#45;&gt;Casey Law</title>
<path fill="none" stroke="black" stroke-dasharray="1,5" d="M387.783,-96.9621C324.5,-81.0971 232.527,-58.0395 168.671,-42.0306"/>
<polygon fill="black" stroke="black" points="169.223,-38.5609 158.672,-39.524 167.521,-45.3508 169.223,-38.5609"/>
<text text-anchor="middle" x="323.375" y="-65.6548" font-family="sans-serif" font-size="12.00" fill="red">Travis&#45;CI</text>
</g>
<!-- Vinayak Mathur&#45;&gt;Megan Shabram -->
<g id="edge2" class="edge"><title>Vinayak Mathur&#45;&gt;Megan Shabram</title>
<path fill="none" stroke="black" stroke-dasharray="1,5" d="M432.823,-93.7172C417.109,-81.1384 396.995,-65.0379 380.01,-51.4411"/>
<polygon fill="black" stroke="black" points="381.949,-48.5107 371.955,-44.9938 377.575,-53.9755 381.949,-48.5107"/>
<text text-anchor="middle" x="454.958" y="-65.6548" font-family="sans-serif" font-size="12.00" fill="red">machine learning</text>
</g>
<!-- Vinayak Mathur&#45;&gt;Dan F&#45;M -->
<g id="edge3" class="edge"><title>Vinayak Mathur&#45;&gt;Dan F&#45;M</title>
<path fill="none" stroke="black" stroke-dasharray="1,5" d="M486.631,-93.7172C503.399,-80.7501 525.006,-64.0406 542.917,-50.1892"/>
<polygon fill="black" stroke="black" points="545.086,-52.9362 550.855,-44.05 540.804,-47.3989 545.086,-52.9362"/>
<text text-anchor="middle" x="604.969" y="-65.6548" font-family="sans-serif" font-size="12.00" fill="red">probabilistic graphical models</text>
</g>
<!-- Vinayak Mathur&#45;&gt;breakout -->
<g id="edge4" class="edge"><title>Vinayak Mathur&#45;&gt;breakout</title>
<path fill="none" stroke="black" stroke-dasharray="1,5" d="M575.274,-105.913C612.202,-100.148 652.473,-90.7059 687.263,-75.2548 700.507,-69.3732 713.436,-60.2524 724.291,-51.3036"/>
<polygon fill="black" stroke="black" points="726.851,-53.7195 732.159,-44.5503 722.291,-48.4079 726.851,-53.7195"/>
<text text-anchor="middle" x="757.291" y="-65.6548" font-family="sans-serif" font-size="12.00" fill="red">stochastic gradient</text>
</g>
</g>
</svg>
