<?xml version="1.0" encoding="UTF-8" standalone="no"?>
<!DOCTYPE svg PUBLIC "-//W3C//DTD SVG 1.1//EN"
 "http://www.w3.org/Graphics/SVG/1.1/DTD/svg11.dtd">
<!-- Generated by graphviz version 2.38.0 (20140413.2041)
 -->
<!-- Title: G Pages: 1 -->
<svg width="1528pt" height="147pt"
 viewBox="0.00 0.00 1528.07 146.51" xmlns="http://www.w3.org/2000/svg" xmlns:xlink="http://www.w3.org/1999/xlink">
<g id="graph0" class="graph" transform="scale(1 1) rotate(0) translate(4 142.51)">
<title>G</title>
<polygon fill="white" stroke="none" points="-4,4 -4,-142.51 1524.07,-142.51 1524.07,4 -4,4"/>
<!-- Jonathan Whitmore -->
<g id="node1" class="node"><title>Jonathan Whitmore</title>
<ellipse fill="black" stroke="black" cx="158.464" cy="-22.6274" rx="158.427" ry="22.7556"/>
<text text-anchor="middle" x="158.464" y="-15.4274" font-family="sans-serif" font-size="24.00" fill="white">Jonathan Whitmore</text>
</g>
<!-- Adrian Price&#45;Whelan -->
<g id="node2" class="node"><title>Adrian Price&#45;Whelan</title>
<ellipse fill="black" stroke="black" cx="501.464" cy="-22.6274" rx="166.881" ry="22.7556"/>
<text text-anchor="middle" x="501.464" y="-15.4274" font-family="sans-serif" font-size="24.00" fill="white">Adrian Price&#45;Whelan</text>
</g>
<!-- Casey Law -->
<g id="node3" class="node"><title>Casey Law</title>
<ellipse fill="black" stroke="black" cx="781.464" cy="-22.6274" rx="95.0272" ry="22.7556"/>
<text text-anchor="middle" x="781.464" y="-15.4274" font-family="sans-serif" font-size="24.00" fill="white">Casey Law</text>
</g>
<!-- Dan F&#45;M -->
<g id="node4" class="node"><title>Dan F&#45;M</title>
<ellipse fill="black" stroke="black" cx="972.464" cy="-22.6274" rx="77.1303" ry="22.7556"/>
<text text-anchor="middle" x="972.464" y="-15.4274" font-family="sans-serif" font-size="24.00" fill="white">Dan F&#45;M</text>
</g>
<!-- breakout -->
<g id="node5" class="node"><title>breakout</title>
<ellipse fill="black" stroke="black" cx="1145.46" cy="-22.6274" rx="77.213" ry="22.7556"/>
<text text-anchor="middle" x="1145.46" y="-15.4274" font-family="sans-serif" font-size="24.00" fill="white">breakout</text>
</g>
<!-- Vinayak Mathur -->
<g id="node6" class="node"><title>Vinayak Mathur</title>
<ellipse fill="black" stroke="black" cx="876.464" cy="-115.882" rx="128.845" ry="22.7556"/>
<text text-anchor="middle" x="876.464" y="-108.682" font-family="sans-serif" font-size="24.00" fill="white">Vinayak Mathur</text>
</g>
<!-- Vinayak Mathur&#45;&gt;Jonathan Whitmore -->
<g id="edge1" class="edge"><title>Vinayak Mathur&#45;&gt;Jonathan Whitmore</title>
<path fill="none" stroke="black" stroke-dasharray="1,5" d="M774.138,-102.048C663.499,-88.1481 481.956,-65.2757 325.464,-45.2548 311.562,-43.4764 297.012,-41.6056 282.542,-39.7395"/>
<polygon fill="black" stroke="black" points="282.912,-36.2583 272.546,-38.4494 282.016,-43.2007 282.912,-36.2583"/>
<text text-anchor="middle" x="572.14" y="-65.6548" font-family="sans-serif" font-size="12.00" fill="red">Jupyter</text>
</g>
<!-- Vinayak Mathur&#45;&gt;Adrian Price&#45;Whelan -->
<g id="edge2" class="edge"><title>Vinayak Mathur&#45;&gt;Adrian Price&#45;Whelan</title>
<path fill="none" stroke="black" stroke-dasharray="1,5" d="M782.762,-100.251C745.024,-93.6613 701.236,-85.1312 662.052,-75.2548 630.798,-67.3775 596.736,-56.7311 568.057,-47.1526"/>
<polygon fill="black" stroke="black" points="569.144,-43.8254 558.55,-43.9507 566.91,-50.4593 569.144,-43.8254"/>
<text text-anchor="middle" x="741.17" y="-65.6548" font-family="sans-serif" font-size="12.00" fill="red">probabilistic graphical models</text>
</g>
<!-- Vinayak Mathur&#45;&gt;Casey Law -->
<g id="edge3" class="edge"><title>Vinayak Mathur&#45;&gt;Casey Law</title>
<path fill="none" stroke="black" stroke-dasharray="1,5" d="M853.95,-93.2561C841.08,-80.8934 824.789,-65.2442 810.912,-51.9146"/>
<polygon fill="black" stroke="black" points="813.125,-49.1869 803.488,-44.7835 808.275,-54.2352 813.125,-49.1869"/>
<text text-anchor="middle" x="859.575" y="-65.6548" font-family="sans-serif" font-size="12.00" fill="red">Travis&#45;CI</text>
</g>
<!-- Vinayak Mathur&#45;&gt;Dan F&#45;M -->
<g id="edge4" class="edge"><title>Vinayak Mathur&#45;&gt;Dan F&#45;M</title>
<path fill="none" stroke="black" stroke-dasharray="1,5" d="M899.214,-93.2561C912.314,-80.8044 928.92,-65.0189 943.008,-51.6273"/>
<polygon fill="black" stroke="black" points="945.701,-53.8967 950.537,-44.4702 940.878,-48.8231 945.701,-53.8967"/>
<text text-anchor="middle" x="982.161" y="-65.6548" font-family="sans-serif" font-size="12.00" fill="red">packaging (Python)</text>
</g>
<!-- Vinayak Mathur&#45;&gt;breakout -->
<g id="edge5" class="edge"><title>Vinayak Mathur&#45;&gt;breakout</title>
<path fill="none" stroke="black" stroke-dasharray="1,5" d="M958.09,-98.2127C983.816,-92.0526 1012.12,-84.3225 1037.46,-75.2548 1058.82,-67.6132 1081.6,-57.1036 1100.7,-47.5604"/>
<polygon fill="black" stroke="black" points="1102.42,-50.6115 1109.76,-42.97 1099.26,-44.3671 1102.42,-50.6115"/>
<text text-anchor="middle" x="1118.49" y="-65.6548" font-family="sans-serif" font-size="12.00" fill="red">stochastic gradient</text>
</g>
<!-- Madhura Killedar -->
<g id="node7" class="node"><title>Madhura Killedar</title>
<ellipse fill="black" stroke="black" cx="1380.46" cy="-22.6274" rx="139.708" ry="22.7556"/>
<text text-anchor="middle" x="1380.46" y="-15.4274" font-family="sans-serif" font-size="24.00" fill="white">Madhura Killedar</text>
</g>
<!-- Vinayak Mathur&#45;&gt;Madhura Killedar -->
<g id="edge6" class="edge"><title>Vinayak Mathur&#45;&gt;Madhura Killedar</title>
<path fill="none" stroke="black" stroke-dasharray="1,5" d="M984.135,-103.361C1040.48,-96.6037 1110.45,-87.0641 1172.46,-75.2548 1215.93,-66.9771 1263.9,-55.249 1302.81,-45.0625"/>
<polygon fill="black" stroke="black" points="1303.72,-48.4421 1312.49,-42.509 1301.93,-41.6733 1303.72,-48.4421"/>
<text text-anchor="middle" x="1276.16" y="-65.6548" font-family="sans-serif" font-size="12.00" fill="red">machine learning</text>
</g>
</g>
</svg>
