<?xml version="1.0" encoding="UTF-8" standalone="no"?>
<!DOCTYPE svg PUBLIC "-//W3C//DTD SVG 1.1//EN"
 "http://www.w3.org/Graphics/SVG/1.1/DTD/svg11.dtd">
<!-- Generated by graphviz version 2.38.0 (20140413.2041)
 -->
<!-- Title: G Pages: 1 -->
<svg width="806pt" height="147pt"
 viewBox="0.00 0.00 805.72 146.51" xmlns="http://www.w3.org/2000/svg" xmlns:xlink="http://www.w3.org/1999/xlink">
<g id="graph0" class="graph" transform="scale(1 1) rotate(0) translate(4 142.51)">
<title>G</title>
<polygon fill="white" stroke="none" points="-4,4 -4,-142.51 801.719,-142.51 801.719,4 -4,4"/>
<!-- Megan Shabram -->
<g id="node1" class="node"><title>Megan Shabram</title>
<ellipse fill="black" stroke="black" cx="136.778" cy="-22.6274" rx="136.557" ry="22.7556"/>
<text text-anchor="middle" x="136.778" y="-15.4274" font-family="sans-serif" font-size="24.00" fill="white">Megan Shabram</text>
</g>
<!-- Dan F&#45;M -->
<g id="node2" class="node"><title>Dan F&#45;M</title>
<ellipse fill="black" stroke="black" cx="368.778" cy="-22.6274" rx="77.1303" ry="22.7556"/>
<text text-anchor="middle" x="368.778" y="-15.4274" font-family="sans-serif" font-size="24.00" fill="white">Dan F&#45;M</text>
</g>
<!-- Grigor Aslanyan -->
<g id="node3" class="node"><title>Grigor Aslanyan</title>
<ellipse fill="black" stroke="black" cx="368.778" cy="-115.882" rx="132.127" ry="22.7556"/>
<text text-anchor="middle" x="368.778" y="-108.682" font-family="sans-serif" font-size="24.00" fill="white">Grigor Aslanyan</text>
</g>
<!-- Grigor Aslanyan&#45;&gt;Megan Shabram -->
<g id="edge1" class="edge"><title>Grigor Aslanyan&#45;&gt;Megan Shabram</title>
<path fill="none" stroke="black" stroke-dasharray="1,5" d="M318.152,-94.9688C282.507,-80.9485 234.636,-62.1188 197.025,-47.3247"/>
<polygon fill="black" stroke="black" points="198.284,-44.0593 187.697,-43.6559 195.722,-50.5735 198.284,-44.0593"/>
<text text-anchor="middle" x="312.473" y="-65.6548" font-family="sans-serif" font-size="12.00" fill="red">machine learning</text>
</g>
<!-- Grigor Aslanyan&#45;&gt;Dan F&#45;M -->
<g id="edge2" class="edge"><title>Grigor Aslanyan&#45;&gt;Dan F&#45;M</title>
<path fill="none" stroke="black" stroke-dasharray="1,5" d="M368.778,-92.792C368.778,-81.6951 368.778,-68.0403 368.778,-55.8032"/>
<polygon fill="black" stroke="black" points="372.278,-55.5142 368.778,-45.5142 365.278,-55.5143 372.278,-55.5142"/>
<text text-anchor="middle" x="388.354" y="-65.6548" font-family="sans-serif" font-size="12.00" fill="red">autodiff</text>
</g>
<!-- Adrian Price&#45;Whelan -->
<g id="node4" class="node"><title>Adrian Price&#45;Whelan</title>
<ellipse fill="black" stroke="black" cx="630.778" cy="-22.6274" rx="166.881" ry="22.7556"/>
<text text-anchor="middle" x="630.778" y="-15.4274" font-family="sans-serif" font-size="24.00" fill="white">Adrian Price&#45;Whelan</text>
</g>
<!-- Grigor Aslanyan&#45;&gt;Adrian Price&#45;Whelan -->
<g id="edge3" class="edge"><title>Grigor Aslanyan&#45;&gt;Adrian Price&#45;Whelan</title>
<path fill="none" stroke="black" stroke-dasharray="1,5" d="M424.984,-95.3058C465.382,-81.2349 520.053,-62.1932 562.891,-47.2725"/>
<polygon fill="black" stroke="black" points="564.104,-50.5563 572.397,-43.9617 561.802,-43.9458 564.104,-50.5563"/>
<text text-anchor="middle" x="566.475" y="-65.6548" font-family="sans-serif" font-size="12.00" fill="red">packaging (Python)</text>
</g>
</g>
</svg>
