<?xml version="1.0" encoding="UTF-8" standalone="no"?>
<!DOCTYPE svg PUBLIC "-//W3C//DTD SVG 1.1//EN"
 "http://www.w3.org/Graphics/SVG/1.1/DTD/svg11.dtd">
<!-- Generated by graphviz version 2.38.0 (20140413.2041)
 -->
<!-- Title: G Pages: 1 -->
<svg width="514pt" height="147pt"
 viewBox="0.00 0.00 514.30 146.51" xmlns="http://www.w3.org/2000/svg" xmlns:xlink="http://www.w3.org/1999/xlink">
<g id="graph0" class="graph" transform="scale(1 1) rotate(0) translate(4 142.51)">
<title>G</title>
<polygon fill="white" stroke="none" points="-4,4 -4,-142.51 510.297,-142.51 510.297,4 -4,4"/>
<!-- breakout -->
<g id="node1" class="node"><title>breakout</title>
<ellipse fill="black" stroke="black" cx="77.3564" cy="-22.6274" rx="77.213" ry="22.7556"/>
<text text-anchor="middle" x="77.3564" y="-15.4274" font-family="sans-serif" font-size="24.00" fill="white">breakout</text>
</g>
<!-- Grigor Aslanyan -->
<g id="node2" class="node"><title>Grigor Aslanyan</title>
<ellipse fill="black" stroke="black" cx="208.356" cy="-115.882" rx="132.127" ry="22.7556"/>
<text text-anchor="middle" x="208.356" y="-108.682" font-family="sans-serif" font-size="24.00" fill="white">Grigor Aslanyan</text>
</g>
<!-- Grigor Aslanyan&#45;&gt;breakout -->
<g id="edge1" class="edge"><title>Grigor Aslanyan&#45;&gt;breakout</title>
<path fill="none" stroke="black" stroke-dasharray="1,5" d="M177.973,-93.7172C159.058,-80.5411 134.597,-63.501 114.529,-49.5219"/>
<polygon fill="black" stroke="black" points="116.432,-46.5824 106.226,-43.7384 112.431,-52.3262 116.432,-46.5824"/>
<text text-anchor="middle" x="203.054" y="-65.6548" font-family="sans-serif" font-size="12.00" fill="red">packaging (Python)</text>
</g>
<!-- Adrian Price&#45;Whelan -->
<g id="node3" class="node"><title>Adrian Price&#45;Whelan</title>
<ellipse fill="black" stroke="black" cx="339.356" cy="-22.6274" rx="166.881" ry="22.7556"/>
<text text-anchor="middle" x="339.356" y="-15.4274" font-family="sans-serif" font-size="24.00" fill="white">Adrian Price&#45;Whelan</text>
</g>
<!-- Grigor Aslanyan&#45;&gt;Adrian Price&#45;Whelan -->
<g id="edge2" class="edge"><title>Grigor Aslanyan&#45;&gt;Adrian Price&#45;Whelan</title>
<path fill="none" stroke="black" stroke-dasharray="1,5" d="M238.74,-93.7172C257.043,-80.9669 280.541,-64.5982 300.225,-50.8863"/>
<polygon fill="black" stroke="black" points="302.479,-53.5816 308.684,-44.9938 298.478,-47.8379 302.479,-53.5816"/>
<text text-anchor="middle" x="327.051" y="-65.6548" font-family="sans-serif" font-size="12.00" fill="red">machine learning</text>
</g>
</g>
</svg>
