<?xml version="1.0" encoding="UTF-8" standalone="no"?>
<!DOCTYPE svg PUBLIC "-//W3C//DTD SVG 1.1//EN"
 "http://www.w3.org/Graphics/SVG/1.1/DTD/svg11.dtd">
<!-- Generated by graphviz version 2.38.0 (20140413.2041)
 -->
<!-- Title: G Pages: 1 -->
<svg width="571pt" height="147pt"
 viewBox="0.00 0.00 570.77 146.51" xmlns="http://www.w3.org/2000/svg" xmlns:xlink="http://www.w3.org/1999/xlink">
<g id="graph0" class="graph" transform="scale(1 1) rotate(0) translate(4 142.51)">
<title>G</title>
<polygon fill="white" stroke="none" points="-4,4 -4,-142.51 566.77,-142.51 566.77,4 -4,4"/>
<!-- Dan F&#45;M -->
<g id="node1" class="node"><title>Dan F&#45;M</title>
<ellipse fill="black" stroke="black" cx="77.3149" cy="-22.6274" rx="77.1303" ry="22.7556"/>
<text text-anchor="middle" x="77.3149" y="-15.4274" font-family="sans-serif" font-size="24.00" fill="white">Dan F&#45;M</text>
</g>
<!-- breakout -->
<g id="node2" class="node"><title>breakout</title>
<ellipse fill="black" stroke="black" cx="250.315" cy="-22.6274" rx="77.213" ry="22.7556"/>
<text text-anchor="middle" x="250.315" y="-15.4274" font-family="sans-serif" font-size="24.00" fill="white">breakout</text>
</g>
<!-- Phil Marshall -->
<g id="node3" class="node"><title>Phil Marshall</title>
<ellipse fill="black" stroke="black" cx="454.315" cy="-22.6274" rx="108.411" ry="22.7556"/>
<text text-anchor="middle" x="454.315" y="-15.4274" font-family="sans-serif" font-size="24.00" fill="white">Phil Marshall</text>
</g>
<!-- Zach Pace -->
<g id="node4" class="node"><title>Zach Pace</title>
<ellipse fill="black" stroke="black" cx="250.315" cy="-115.882" rx="92.3753" ry="22.7556"/>
<text text-anchor="middle" x="250.315" y="-108.682" font-family="sans-serif" font-size="24.00" fill="white">Zach Pace</text>
</g>
<!-- Zach Pace&#45;&gt;Dan F&#45;M -->
<g id="edge1" class="edge"><title>Zach Pace&#45;&gt;Dan F&#45;M</title>
<path fill="none" stroke="black" stroke-dasharray="1,5" d="M212.777,-95.0813C186.349,-81.141 150.829,-62.4049 122.792,-47.6158"/>
<polygon fill="black" stroke="black" points="124.072,-44.3343 113.595,-42.7644 120.807,-50.5257 124.072,-44.3343"/>
<text text-anchor="middle" x="191.659" y="-65.6548" font-family="sans-serif" font-size="12.00" fill="red">sphinx</text>
</g>
<!-- Zach Pace&#45;&gt;breakout -->
<g id="edge2" class="edge"><title>Zach Pace&#45;&gt;breakout</title>
<path fill="none" stroke="black" stroke-dasharray="1,5" d="M250.315,-92.792C250.315,-81.6951 250.315,-68.0403 250.315,-55.8032"/>
<polygon fill="black" stroke="black" points="253.815,-55.5142 250.315,-45.5142 246.815,-55.5143 253.815,-55.5142"/>
<text text-anchor="middle" x="302.012" y="-65.6548" font-family="sans-serif" font-size="12.00" fill="red">packaging (Python)</text>
</g>
<!-- Zach Pace&#45;&gt;Phil Marshall -->
<g id="edge3" class="edge"><title>Zach Pace&#45;&gt;Phil Marshall</title>
<path fill="none" stroke="black" stroke-dasharray="1,5" d="M302.583,-97.1173C320.177,-90.7182 339.785,-83.1233 357.315,-75.2548 374.628,-67.4838 393.133,-57.9567 409.288,-49.2116"/>
<polygon fill="black" stroke="black" points="411.408,-52.0414 418.503,-44.1722 408.05,-45.8999 411.408,-52.0414"/>
<text text-anchor="middle" x="406.426" y="-65.6548" font-family="sans-serif" font-size="12.00" fill="red">Travis&#45;CI</text>
</g>
</g>
</svg>
