<?xml version="1.0" encoding="UTF-8" standalone="no"?>
<!DOCTYPE svg PUBLIC "-//W3C//DTD SVG 1.1//EN"
 "http://www.w3.org/Graphics/SVG/1.1/DTD/svg11.dtd">
<!-- Generated by graphviz version 2.38.0 (20140413.2041)
 -->
<!-- Title: G Pages: 1 -->
<svg width="627pt" height="147pt"
 viewBox="0.00 0.00 627.13 146.51" xmlns="http://www.w3.org/2000/svg" xmlns:xlink="http://www.w3.org/1999/xlink">
<g id="graph0" class="graph" transform="scale(1 1) rotate(0) translate(4 142.51)">
<title>G</title>
<polygon fill="white" stroke="none" points="-4,4 -4,-142.51 623.135,-142.51 623.135,4 -4,4"/>
<!-- Megan Shabram -->
<g id="node1" class="node"><title>Megan Shabram</title>
<ellipse fill="black" stroke="black" cx="136.778" cy="-22.6274" rx="136.557" ry="22.7556"/>
<text text-anchor="middle" x="136.778" y="-15.4274" font-family="sans-serif" font-size="24.00" fill="white">Megan Shabram</text>
</g>
<!-- Dan F&#45;M -->
<g id="node2" class="node"><title>Dan F&#45;M</title>
<ellipse fill="black" stroke="black" cx="368.778" cy="-22.6274" rx="77.1303" ry="22.7556"/>
<text text-anchor="middle" x="368.778" y="-15.4274" font-family="sans-serif" font-size="24.00" fill="white">Dan F&#45;M</text>
</g>
<!-- breakout -->
<g id="node3" class="node"><title>breakout</title>
<ellipse fill="black" stroke="black" cx="541.778" cy="-22.6274" rx="77.213" ry="22.7556"/>
<text text-anchor="middle" x="541.778" y="-15.4274" font-family="sans-serif" font-size="24.00" fill="white">breakout</text>
</g>
<!-- Zach Pace -->
<g id="node4" class="node"><title>Zach Pace</title>
<ellipse fill="black" stroke="black" cx="368.778" cy="-115.882" rx="92.3753" ry="22.7556"/>
<text text-anchor="middle" x="368.778" y="-108.682" font-family="sans-serif" font-size="24.00" fill="white">Zach Pace</text>
</g>
<!-- Zach Pace&#45;&gt;Megan Shabram -->
<g id="edge1" class="edge"><title>Zach Pace&#45;&gt;Megan Shabram</title>
<path fill="none" stroke="black" stroke-dasharray="1,5" d="M317.324,-97.0152C298.77,-90.3989 277.724,-82.6935 258.718,-75.2548 236.904,-66.7174 213.137,-56.7972 192.427,-47.9475"/>
<polygon fill="black" stroke="black" points="193.715,-44.6915 183.145,-43.9655 190.955,-51.1246 193.715,-44.6915"/>
<text text-anchor="middle" x="311.808" y="-65.6548" font-family="sans-serif" font-size="12.00" fill="red">gaussian processes</text>
</g>
<!-- Zach Pace&#45;&gt;Dan F&#45;M -->
<g id="edge2" class="edge"><title>Zach Pace&#45;&gt;Dan F&#45;M</title>
<path fill="none" stroke="black" stroke-dasharray="1,5" d="M368.778,-92.792C368.778,-81.6951 368.778,-68.0403 368.778,-55.8032"/>
<polygon fill="black" stroke="black" points="372.278,-55.5142 368.778,-45.5142 365.278,-55.5143 372.278,-55.5142"/>
<text text-anchor="middle" x="392.89" y="-65.6548" font-family="sans-serif" font-size="12.00" fill="red">Travis&#45;CI</text>
</g>
<!-- Zach Pace&#45;&gt;breakout -->
<g id="edge3" class="edge"><title>Zach Pace&#45;&gt;breakout</title>
<path fill="none" stroke="black" stroke-dasharray="1,5" d="M406.317,-95.0813C432.745,-81.141 468.264,-62.4049 496.301,-47.6158"/>
<polygon fill="black" stroke="black" points="498.287,-50.5257 505.499,-42.7644 495.021,-44.3343 498.287,-50.5257"/>
<text text-anchor="middle" x="483.122" y="-65.6548" font-family="sans-serif" font-size="12.00" fill="red">sphinx</text>
</g>
</g>
</svg>
