<?xml version="1.0" encoding="UTF-8" standalone="no"?>
<!DOCTYPE svg PUBLIC "-//W3C//DTD SVG 1.1//EN"
 "http://www.w3.org/Graphics/SVG/1.1/DTD/svg11.dtd">
<!-- Generated by graphviz version 2.38.0 (20140413.2041)
 -->
<!-- Title: G Pages: 1 -->
<svg width="862pt" height="147pt"
 viewBox="0.00 0.00 861.83 146.51" xmlns="http://www.w3.org/2000/svg" xmlns:xlink="http://www.w3.org/1999/xlink">
<g id="graph0" class="graph" transform="scale(1 1) rotate(0) translate(4 142.51)">
<title>G</title>
<polygon fill="white" stroke="none" points="-4,4 -4,-142.51 857.832,-142.51 857.832,4 -4,4"/>
<!-- Oleg Burgueño -->
<g id="node1" class="node"><title>Oleg Burgueño</title>
<ellipse fill="black" stroke="black" cx="125.476" cy="-22.6274" rx="125.451" ry="22.7556"/>
<text text-anchor="middle" x="125.476" y="-15.4274" font-family="sans-serif" font-size="24.00" fill="white">Oleg Burgueño</text>
</g>
<!-- Brigitta Sipocz -->
<g id="node2" class="node"><title>Brigitta Sipocz</title>
<ellipse fill="black" stroke="black" cx="388.476" cy="-22.6274" rx="119.566" ry="22.7556"/>
<text text-anchor="middle" x="388.476" y="-15.4274" font-family="sans-serif" font-size="24.00" fill="white">Brigitta Sipocz</text>
</g>
<!-- Dan F&#45;M -->
<g id="node3" class="node"><title>Dan F&#45;M</title>
<ellipse fill="black" stroke="black" cx="603.476" cy="-22.6274" rx="77.1303" ry="22.7556"/>
<text text-anchor="middle" x="603.476" y="-15.4274" font-family="sans-serif" font-size="24.00" fill="white">Dan F&#45;M</text>
</g>
<!-- breakout -->
<g id="node4" class="node"><title>breakout</title>
<ellipse fill="black" stroke="black" cx="776.476" cy="-22.6274" rx="77.213" ry="22.7556"/>
<text text-anchor="middle" x="776.476" y="-15.4274" font-family="sans-serif" font-size="24.00" fill="white">breakout</text>
</g>
<!-- Zach Pace -->
<g id="node5" class="node"><title>Zach Pace</title>
<ellipse fill="black" stroke="black" cx="495.476" cy="-115.882" rx="92.3753" ry="22.7556"/>
<text text-anchor="middle" x="495.476" y="-108.682" font-family="sans-serif" font-size="24.00" fill="white">Zach Pace</text>
</g>
<!-- Zach Pace&#45;&gt;Oleg Burgueño -->
<g id="edge1" class="edge"><title>Zach Pace&#45;&gt;Oleg Burgueño</title>
<path fill="none" stroke="black" stroke-dasharray="1,5" d="M429.967,-99.8686C398.598,-92.592 360.522,-83.6326 326.415,-75.2548 285.957,-65.317 241.04,-53.8203 203.951,-44.202"/>
<polygon fill="black" stroke="black" points="204.763,-40.7969 194.204,-41.671 203.003,-47.5722 204.763,-40.7969"/>
<text text-anchor="middle" x="379.506" y="-65.6548" font-family="sans-serif" font-size="12.00" fill="red">gaussian processes</text>
</g>
<!-- Zach Pace&#45;&gt;Brigitta Sipocz -->
<g id="edge2" class="edge"><title>Zach Pace&#45;&gt;Brigitta Sipocz</title>
<path fill="none" stroke="black" stroke-dasharray="1,5" d="M470.928,-93.9465C456.081,-81.2848 436.978,-64.9928 420.899,-51.2794"/>
<polygon fill="black" stroke="black" points="423.16,-48.6078 413.28,-44.7817 418.617,-53.9339 423.16,-48.6078"/>
<text text-anchor="middle" x="472.587" y="-65.6548" font-family="sans-serif" font-size="12.00" fill="red">Travis&#45;CI</text>
</g>
<!-- Zach Pace&#45;&gt;Dan F&#45;M -->
<g id="edge3" class="edge"><title>Zach Pace&#45;&gt;Dan F&#45;M</title>
<path fill="none" stroke="black" stroke-dasharray="1,5" d="M520.253,-93.9465C535.452,-81.1039 555.071,-64.5266 571.443,-50.6933"/>
<polygon fill="black" stroke="black" points="573.806,-53.2788 579.186,-44.1512 569.288,-47.9319 573.806,-53.2788"/>
<text text-anchor="middle" x="608.173" y="-65.6548" font-family="sans-serif" font-size="12.00" fill="red">packaging (Python)</text>
</g>
<!-- Zach Pace&#45;&gt;breakout -->
<g id="edge4" class="edge"><title>Zach Pace&#45;&gt;breakout</title>
<path fill="none" stroke="black" stroke-dasharray="1,5" d="M566.649,-101.343C596.888,-94.7587 632.292,-85.9397 663.476,-75.2548 686.213,-67.4642 710.566,-56.6738 730.821,-46.9713"/>
<polygon fill="black" stroke="black" points="732.35,-50.1197 739.818,-42.6046 729.293,-43.8222 732.35,-50.1197"/>
<text text-anchor="middle" x="712.819" y="-65.6548" font-family="sans-serif" font-size="12.00" fill="red">sphinx</text>
</g>
</g>
</svg>
