<?xml version="1.0" encoding="UTF-8" standalone="no"?>
<!DOCTYPE svg PUBLIC "-//W3C//DTD SVG 1.1//EN"
 "http://www.w3.org/Graphics/SVG/1.1/DTD/svg11.dtd">
<!-- Generated by graphviz version 2.38.0 (20140413.2041)
 -->
<!-- Title: G Pages: 1 -->
<svg width="627pt" height="147pt"
 viewBox="0.00 0.00 627.13 146.51" xmlns="http://www.w3.org/2000/svg" xmlns:xlink="http://www.w3.org/1999/xlink">
<g id="graph0" class="graph" transform="scale(1 1) rotate(0) translate(4 142.51)">
<title>G</title>
<polygon fill="white" stroke="none" points="-4,4 -4,-142.51 623.135,-142.51 623.135,4 -4,4"/>
<!-- Megan Shabram -->
<g id="node1" class="node"><title>Megan Shabram</title>
<ellipse fill="black" stroke="black" cx="136.778" cy="-22.6274" rx="136.557" ry="22.7556"/>
<text text-anchor="middle" x="136.778" y="-15.4274" font-family="sans-serif" font-size="24.00" fill="white">Megan Shabram</text>
</g>
<!-- Dan F&#45;M -->
<g id="node2" class="node"><title>Dan F&#45;M</title>
<ellipse fill="black" stroke="black" cx="368.778" cy="-22.6274" rx="77.1303" ry="22.7556"/>
<text text-anchor="middle" x="368.778" y="-15.4274" font-family="sans-serif" font-size="24.00" fill="white">Dan F&#45;M</text>
</g>
<!-- breakout -->
<g id="node3" class="node"><title>breakout</title>
<ellipse fill="black" stroke="black" cx="541.778" cy="-22.6274" rx="77.213" ry="22.7556"/>
<text text-anchor="middle" x="541.778" y="-15.4274" font-family="sans-serif" font-size="24.00" fill="white">breakout</text>
</g>
<!-- Zaki Ali -->
<g id="node4" class="node"><title>Zaki Ali</title>
<ellipse fill="black" stroke="black" cx="368.778" cy="-115.882" rx="66.0411" ry="22.7556"/>
<text text-anchor="middle" x="368.778" y="-108.682" font-family="sans-serif" font-size="24.00" fill="white">Zaki Ali</text>
</g>
<!-- Zaki Ali&#45;&gt;Megan Shabram -->
<g id="edge1" class="edge"><title>Zaki Ali&#45;&gt;Megan Shabram</title>
<path fill="none" stroke="black" stroke-dasharray="1,5" d="M326.765,-98.3567C290.62,-84.1394 238.026,-63.4521 197.334,-47.4464"/>
<polygon fill="black" stroke="black" points="198.379,-44.0963 187.791,-43.6929 195.816,-50.6105 198.379,-44.0963"/>
<text text-anchor="middle" x="294.467" y="-65.6548" font-family="sans-serif" font-size="12.00" fill="red">databases</text>
</g>
<!-- Zaki Ali&#45;&gt;Dan F&#45;M -->
<g id="edge2" class="edge"><title>Zaki Ali&#45;&gt;Dan F&#45;M</title>
<path fill="none" stroke="black" stroke-dasharray="1,5" d="M368.778,-92.792C368.778,-81.6951 368.778,-68.0403 368.778,-55.8032"/>
<polygon fill="black" stroke="black" points="372.278,-55.5142 368.778,-45.5142 365.278,-55.5143 372.278,-55.5142"/>
<text text-anchor="middle" x="392.89" y="-65.6548" font-family="sans-serif" font-size="12.00" fill="red">Travis&#45;CI</text>
</g>
<!-- Zaki Ali&#45;&gt;breakout -->
<g id="edge3" class="edge"><title>Zaki Ali&#45;&gt;breakout</title>
<path fill="none" stroke="black" stroke-dasharray="1,5" d="M403.787,-96.4155C430.515,-82.3173 467.554,-62.7797 496.529,-47.4956"/>
<polygon fill="black" stroke="black" points="498.418,-50.4562 505.63,-42.6949 495.152,-44.2648 498.418,-50.4562"/>
<text text-anchor="middle" x="482.454" y="-65.6548" font-family="sans-serif" font-size="12.00" fill="red">Bayes</text>
</g>
</g>
</svg>
