<?xml version="1.0" encoding="UTF-8" standalone="no"?>
<!DOCTYPE svg PUBLIC "-//W3C//DTD SVG 1.1//EN"
 "http://www.w3.org/Graphics/SVG/1.1/DTD/svg11.dtd">
<!-- Generated by graphviz version 2.38.0 (20140413.2041)
 -->
<!-- Title: G Pages: 1 -->
<svg width="826pt" height="147pt"
 viewBox="0.00 0.00 826.33 146.51" xmlns="http://www.w3.org/2000/svg" xmlns:xlink="http://www.w3.org/1999/xlink">
<g id="graph0" class="graph" transform="scale(1 1) rotate(0) translate(4 142.51)">
<title>G</title>
<polygon fill="white" stroke="none" points="-4,4 -4,-142.51 822.327,-142.51 822.327,4 -4,4"/>
<!-- Casey Law -->
<g id="node1" class="node"><title>Casey Law</title>
<ellipse fill="black" stroke="black" cx="95.2633" cy="-22.6274" rx="95.0272" ry="22.7556"/>
<text text-anchor="middle" x="95.2633" y="-15.4274" font-family="sans-serif" font-size="24.00" fill="white">Casey Law</text>
</g>
<!-- Dan F&#45;M -->
<g id="node2" class="node"><title>Dan F&#45;M</title>
<ellipse fill="black" stroke="black" cx="286.263" cy="-22.6274" rx="77.1303" ry="22.7556"/>
<text text-anchor="middle" x="286.263" y="-15.4274" font-family="sans-serif" font-size="24.00" fill="white">Dan F&#45;M</text>
</g>
<!-- breakout -->
<g id="node3" class="node"><title>breakout</title>
<ellipse fill="black" stroke="black" cx="459.263" cy="-22.6274" rx="77.213" ry="22.7556"/>
<text text-anchor="middle" x="459.263" y="-15.4274" font-family="sans-serif" font-size="24.00" fill="white">breakout</text>
</g>
<!-- Grigor Aslanyan -->
<g id="node4" class="node"><title>Grigor Aslanyan</title>
<ellipse fill="black" stroke="black" cx="686.263" cy="-22.6274" rx="132.127" ry="22.7556"/>
<text text-anchor="middle" x="686.263" y="-15.4274" font-family="sans-serif" font-size="24.00" fill="white">Grigor Aslanyan</text>
</g>
<!-- Zaki Ali -->
<g id="node5" class="node"><title>Zaki Ali</title>
<ellipse fill="black" stroke="black" cx="372.263" cy="-115.882" rx="66.0411" ry="22.7556"/>
<text text-anchor="middle" x="372.263" y="-108.682" font-family="sans-serif" font-size="24.00" fill="white">Zaki Ali</text>
</g>
<!-- Zaki Ali&#45;&gt;Casey Law -->
<g id="edge1" class="edge"><title>Zaki Ali&#45;&gt;Casey Law</title>
<path fill="none" stroke="black" stroke-dasharray="1,5" d="M325.9,-99.6082C280.178,-84.5457 209.939,-61.4063 158.986,-44.6201"/>
<polygon fill="black" stroke="black" points="159.979,-41.2623 149.386,-41.4576 157.789,-47.9109 159.979,-41.2623"/>
<text text-anchor="middle" x="275.375" y="-65.6548" font-family="sans-serif" font-size="12.00" fill="red">Travis&#45;CI</text>
</g>
<!-- Zaki Ali&#45;&gt;Dan F&#45;M -->
<g id="edge2" class="edge"><title>Zaki Ali&#45;&gt;Dan F&#45;M</title>
<path fill="none" stroke="black" stroke-dasharray="1,5" d="M352.749,-94.1751C340.957,-81.6629 325.766,-65.5442 312.883,-51.8732"/>
<polygon fill="black" stroke="black" points="315.404,-49.4455 305.998,-44.5685 310.31,-54.2465 315.404,-49.4455"/>
<text text-anchor="middle" x="362.952" y="-65.6548" font-family="sans-serif" font-size="12.00" fill="red">databases</text>
</g>
<!-- Zaki Ali&#45;&gt;breakout -->
<g id="edge3" class="edge"><title>Zaki Ali&#45;&gt;breakout</title>
<path fill="none" stroke="black" stroke-dasharray="1,5" d="M392.005,-94.1751C403.934,-81.6629 419.301,-65.5442 432.334,-51.8732"/>
<polygon fill="black" stroke="black" points="434.932,-54.2214 439.299,-44.5685 429.865,-49.3912 434.932,-54.2214"/>
<text text-anchor="middle" x="437.939" y="-65.6548" font-family="sans-serif" font-size="12.00" fill="red">Bayes</text>
</g>
<!-- Zaki Ali&#45;&gt;Grigor Aslanyan -->
<g id="edge4" class="edge"><title>Zaki Ali&#45;&gt;Grigor Aslanyan</title>
<path fill="none" stroke="black" stroke-dasharray="1,5" d="M421.326,-100.624C472.385,-85.7848 552.965,-62.3667 611.862,-45.25"/>
<polygon fill="black" stroke="black" points="612.862,-48.6042 621.488,-42.4525 610.908,-41.8823 612.862,-48.6042"/>
<text text-anchor="middle" x="601.294" y="-65.6548" font-family="sans-serif" font-size="12.00" fill="red">gaussian processes</text>
</g>
</g>
</svg>
