<?xml version="1.0" encoding="UTF-8" standalone="no"?>
<!DOCTYPE svg PUBLIC "-//W3C//DTD SVG 1.1//EN"
 "http://www.w3.org/Graphics/SVG/1.1/DTD/svg11.dtd">
<!-- Generated by graphviz version 2.38.0 (20140413.2041)
 -->
<!-- Title: G Pages: 1 -->
<svg width="1267pt" height="147pt"
 viewBox="0.00 0.00 1267.40 146.51" xmlns="http://www.w3.org/2000/svg" xmlns:xlink="http://www.w3.org/1999/xlink">
<g id="graph0" class="graph" transform="scale(1 1) rotate(0) translate(4 142.51)">
<title>G</title>
<polygon fill="white" stroke="none" points="-4,4 -4,-142.51 1263.4,-142.51 1263.4,4 -4,4"/>
<!-- Adrian Price&#45;Whelan -->
<g id="node1" class="node"><title>Adrian Price&#45;Whelan</title>
<ellipse fill="black" stroke="black" cx="166.941" cy="-22.6274" rx="166.881" ry="22.7556"/>
<text text-anchor="middle" x="166.941" y="-15.4274" font-family="sans-serif" font-size="24.00" fill="white">Adrian Price&#45;Whelan</text>
</g>
<!-- Usman Khan -->
<g id="node2" class="node"><title>Usman Khan</title>
<ellipse fill="black" stroke="black" cx="460.941" cy="-22.6274" rx="109.333" ry="22.7556"/>
<text text-anchor="middle" x="460.941" y="-15.4274" font-family="sans-serif" font-size="24.00" fill="white">Usman Khan</text>
</g>
<!-- Grigor Aslanyan -->
<g id="node3" class="node"><title>Grigor Aslanyan</title>
<ellipse fill="black" stroke="black" cx="719.941" cy="-22.6274" rx="132.127" ry="22.7556"/>
<text text-anchor="middle" x="719.941" y="-15.4274" font-family="sans-serif" font-size="24.00" fill="white">Grigor Aslanyan</text>
</g>
<!-- Zaki Ali -->
<g id="node4" class="node"><title>Zaki Ali</title>
<ellipse fill="black" stroke="black" cx="719.941" cy="-115.882" rx="66.0411" ry="22.7556"/>
<text text-anchor="middle" x="719.941" y="-108.682" font-family="sans-serif" font-size="24.00" fill="white">Zaki Ali</text>
</g>
<!-- Zaki Ali&#45;&gt;Adrian Price&#45;Whelan -->
<g id="edge5" class="edge"><title>Zaki Ali&#45;&gt;Adrian Price&#45;Whelan</title>
<path fill="none" stroke="black" stroke-dasharray="1,5" d="M661.545,-105.246C570.967,-90.299 395.005,-61.2621 279.246,-42.1598"/>
<polygon fill="black" stroke="black" points="279.718,-38.6904 269.282,-40.5155 278.578,-45.597 279.718,-38.6904"/>
<text text-anchor="middle" x="501.052" y="-65.6548" font-family="sans-serif" font-size="12.00" fill="red">Travis&#45;CI</text>
</g>
<!-- Zaki Ali&#45;&gt;Usman Khan -->
<g id="edge4" class="edge"><title>Zaki Ali&#45;&gt;Usman Khan</title>
<path fill="none" stroke="black" stroke-dasharray="1,5" d="M675.122,-99.0911C633.49,-84.4226 571.065,-62.4281 524.334,-45.963"/>
<polygon fill="black" stroke="black" points="525.208,-42.5602 514.613,-42.5381 522.882,-49.1624 525.208,-42.5602"/>
<text text-anchor="middle" x="634.629" y="-65.6548" font-family="sans-serif" font-size="12.00" fill="red">databases</text>
</g>
<!-- Zaki Ali&#45;&gt;Grigor Aslanyan -->
<g id="edge3" class="edge"><title>Zaki Ali&#45;&gt;Grigor Aslanyan</title>
<path fill="none" stroke="black" stroke-dasharray="1,5" d="M719.941,-92.792C719.941,-81.6951 719.941,-68.0403 719.941,-55.8032"/>
<polygon fill="black" stroke="black" points="723.441,-55.5142 719.941,-45.5142 716.441,-55.5143 723.441,-55.5142"/>
<text text-anchor="middle" x="765.635" y="-65.6548" font-family="sans-serif" font-size="12.00" fill="red">machine learning</text>
</g>
<!-- breakout -->
<g id="node5" class="node"><title>breakout</title>
<ellipse fill="black" stroke="black" cx="946.941" cy="-22.6274" rx="77.213" ry="22.7556"/>
<text text-anchor="middle" x="946.941" y="-15.4274" font-family="sans-serif" font-size="24.00" fill="white">breakout</text>
</g>
<!-- Zaki Ali&#45;&gt;breakout -->
<g id="edge2" class="edge"><title>Zaki Ali&#45;&gt;breakout</title>
<path fill="none" stroke="black" stroke-dasharray="1,5" d="M761.576,-98.1447C798.665,-83.2349 853.146,-61.3333 893.453,-45.1297"/>
<polygon fill="black" stroke="black" points="894.885,-48.3265 902.857,-41.3491 892.274,-41.8317 894.885,-48.3265"/>
<text text-anchor="middle" x="900.971" y="-65.6548" font-family="sans-serif" font-size="12.00" fill="red">gaussian processes</text>
</g>
<!-- Phil Marshall -->
<g id="node6" class="node"><title>Phil Marshall</title>
<ellipse fill="black" stroke="black" cx="1150.94" cy="-22.6274" rx="108.411" ry="22.7556"/>
<text text-anchor="middle" x="1150.94" y="-15.4274" font-family="sans-serif" font-size="24.00" fill="white">Phil Marshall</text>
</g>
<!-- Zaki Ali&#45;&gt;Phil Marshall -->
<g id="edge1" class="edge"><title>Zaki Ali&#45;&gt;Phil Marshall</title>
<path fill="none" stroke="black" stroke-dasharray="1,5" d="M780.402,-106.46C828.69,-99.3393 897.964,-88.2383 957.941,-75.2548 998.843,-66.4006 1044.06,-54.4243 1080.44,-44.2357"/>
<polygon fill="black" stroke="black" points="1081.78,-47.4944 1090.46,-41.4134 1079.88,-40.7568 1081.78,-47.4944"/>
<text text-anchor="middle" x="1023.62" y="-65.6548" font-family="sans-serif" font-size="12.00" fill="red">Bayes</text>
</g>
</g>
</svg>
