<?xml version="1.0" encoding="UTF-8" standalone="no"?>
<!DOCTYPE svg PUBLIC "-//W3C//DTD SVG 1.1//EN"
 "http://www.w3.org/Graphics/SVG/1.1/DTD/svg11.dtd">
<!-- Generated by graphviz version 2.38.0 (20140413.2041)
 -->
<!-- Title: G Pages: 1 -->
<svg width="798pt" height="147pt"
 viewBox="0.00 0.00 798.02 146.51" xmlns="http://www.w3.org/2000/svg" xmlns:xlink="http://www.w3.org/1999/xlink">
<g id="graph0" class="graph" transform="scale(1 1) rotate(0) translate(4 142.51)">
<title>G</title>
<polygon fill="white" stroke="none" points="-4,4 -4,-142.51 794.016,-142.51 794.016,4 -4,4"/>
<!-- Jennifer Sobeck -->
<g id="node1" class="node"><title>Jennifer Sobeck</title>
<ellipse fill="black" stroke="black" cx="352.315" cy="-115.882" rx="133.016" ry="22.7556"/>
<text text-anchor="middle" x="352.315" y="-108.682" font-family="sans-serif" font-size="24.00" fill="white">Jennifer Sobeck</text>
</g>
<!-- Dan F&#45;M -->
<g id="node2" class="node"><title>Dan F&#45;M</title>
<ellipse fill="black" stroke="black" cx="77.3149" cy="-22.6274" rx="77.1303" ry="22.7556"/>
<text text-anchor="middle" x="77.3149" y="-15.4274" font-family="sans-serif" font-size="24.00" fill="white">Dan F&#45;M</text>
</g>
<!-- Jennifer Sobeck&#45;&gt;Dan F&#45;M -->
<g id="edge1" class="edge"><title>Jennifer Sobeck&#45;&gt;Dan F&#45;M</title>
<path fill="none" stroke="black" stroke-dasharray="1,5" d="M293.995,-95.5294C247.628,-80.1435 183.041,-58.711 136.46,-43.254"/>
<polygon fill="black" stroke="black" points="137.4,-39.8783 126.807,-40.0506 135.196,-46.5221 137.4,-39.8783"/>
<text text-anchor="middle" x="250.891" y="-65.6548" font-family="sans-serif" font-size="12.00" fill="red">autodiff</text>
</g>
<!-- breakout -->
<g id="node3" class="node"><title>breakout</title>
<ellipse fill="black" stroke="black" cx="250.315" cy="-22.6274" rx="77.213" ry="22.7556"/>
<text text-anchor="middle" x="250.315" y="-15.4274" font-family="sans-serif" font-size="24.00" fill="white">breakout</text>
</g>
<!-- Jennifer Sobeck&#45;&gt;breakout -->
<g id="edge2" class="edge"><title>Jennifer Sobeck&#45;&gt;breakout</title>
<path fill="none" stroke="black" stroke-dasharray="1,5" d="M328.4,-93.487C314.26,-80.8364 296.207,-64.6847 281.021,-51.099"/>
<polygon fill="black" stroke="black" points="283.164,-48.3198 273.378,-44.2606 278.497,-53.5367 283.164,-48.3198"/>
<text text-anchor="middle" x="358.342" y="-65.6548" font-family="sans-serif" font-size="12.00" fill="red">stochastic gradient</text>
</g>
<!-- Phil Marshall -->
<g id="node4" class="node"><title>Phil Marshall</title>
<ellipse fill="black" stroke="black" cx="454.315" cy="-22.6274" rx="108.411" ry="22.7556"/>
<text text-anchor="middle" x="454.315" y="-15.4274" font-family="sans-serif" font-size="24.00" fill="white">Phil Marshall</text>
</g>
<!-- Jennifer Sobeck&#45;&gt;Phil Marshall -->
<g id="edge3" class="edge"><title>Jennifer Sobeck&#45;&gt;Phil Marshall</title>
<path fill="none" stroke="black" stroke-dasharray="1,5" d="M387.901,-93.9501C396.276,-88.341 404.912,-81.9576 412.315,-75.2548 419.549,-68.7055 426.581,-60.8588 432.757,-53.2833"/>
<polygon fill="black" stroke="black" points="435.651,-55.2648 439.091,-45.2439 430.153,-50.9324 435.651,-55.2648"/>
<text text-anchor="middle" x="503.021" y="-65.6548" font-family="sans-serif" font-size="12.00" fill="red">probabilistic graphical models</text>
</g>
<!-- Dalya Baron -->
<g id="node5" class="node"><title>Dalya Baron</title>
<ellipse fill="black" stroke="black" cx="685.315" cy="-22.6274" rx="104.903" ry="22.7556"/>
<text text-anchor="middle" x="685.315" y="-15.4274" font-family="sans-serif" font-size="24.00" fill="white">Dalya Baron</text>
</g>
<!-- Jennifer Sobeck&#45;&gt;Dalya Baron -->
<g id="edge4" class="edge"><title>Jennifer Sobeck&#45;&gt;Dalya Baron</title>
<path fill="none" stroke="black" stroke-dasharray="1,5" d="M462.784,-103.204C502.112,-97.1965 546.301,-88.2929 585.315,-75.2548 605.04,-68.6628 625.651,-58.6268 643.001,-49.1506"/>
<polygon fill="black" stroke="black" points="644.726,-52.1958 651.754,-44.2673 641.316,-46.0826 644.726,-52.1958"/>
<text text-anchor="middle" x="660.009" y="-65.6548" font-family="sans-serif" font-size="12.00" fill="red">machine learning</text>
</g>
</g>
</svg>
