<?xml version="1.0" encoding="UTF-8" standalone="no"?>
<!DOCTYPE svg PUBLIC "-//W3C//DTD SVG 1.1//EN"
 "http://www.w3.org/Graphics/SVG/1.1/DTD/svg11.dtd">
<!-- Generated by graphviz version 2.38.0 (20140413.2041)
 -->
<!-- Title: G Pages: 1 -->
<svg width="382pt" height="147pt"
 viewBox="0.00 0.00 382.29 146.51" xmlns="http://www.w3.org/2000/svg" xmlns:xlink="http://www.w3.org/1999/xlink">
<g id="graph0" class="graph" transform="scale(1 1) rotate(0) translate(4 142.51)">
<title>G</title>
<polygon fill="white" stroke="none" points="-4,4 -4,-142.51 378.288,-142.51 378.288,4 -4,4"/>
<!-- Layne Price -->
<g id="node1" class="node"><title>Layne Price</title>
<ellipse fill="black" stroke="black" cx="100.931" cy="-22.6274" rx="100.862" ry="22.7556"/>
<text text-anchor="middle" x="100.931" y="-15.4274" font-family="sans-serif" font-size="24.00" fill="white">Layne Price</text>
</g>
<!-- breakout -->
<g id="node2" class="node"><title>breakout</title>
<ellipse fill="black" stroke="black" cx="296.931" cy="-22.6274" rx="77.213" ry="22.7556"/>
<text text-anchor="middle" x="296.931" y="-15.4274" font-family="sans-serif" font-size="24.00" fill="white">breakout</text>
</g>
<!-- Jennifer Sobeck -->
<g id="node3" class="node"><title>Jennifer Sobeck</title>
<ellipse fill="black" stroke="black" cx="198.931" cy="-115.882" rx="133.016" ry="22.7556"/>
<text text-anchor="middle" x="198.931" y="-108.682" font-family="sans-serif" font-size="24.00" fill="white">Jennifer Sobeck</text>
</g>
<!-- Jennifer Sobeck&#45;&gt;Layne Price -->
<g id="edge1" class="edge"><title>Jennifer Sobeck&#45;&gt;Layne Price</title>
<path fill="none" stroke="black" stroke-dasharray="1,5" d="M143.03,-95.2237C133.549,-89.9124 124.522,-83.3308 117.519,-75.2548 112.558,-69.5335 109.077,-62.3105 106.636,-55.0944"/>
<polygon fill="black" stroke="black" points="109.986,-54.0793 103.909,-45.4002 103.247,-55.9743 109.986,-54.0793"/>
<text text-anchor="middle" x="195.637" y="-65.6548" font-family="sans-serif" font-size="12.00" fill="red">probabilistic graphical models</text>
</g>
<!-- Jennifer Sobeck&#45;&gt;breakout -->
<g id="edge2" class="edge"><title>Jennifer Sobeck&#45;&gt;breakout</title>
<path fill="none" stroke="black" stroke-dasharray="1,5" d="M249.396,-94.859C258.716,-89.5121 267.757,-83.0103 274.931,-75.2548 280.253,-69.5019 284.403,-62.2672 287.591,-55.0498"/>
<polygon fill="black" stroke="black" points="290.997,-55.9481 291.363,-45.3595 284.474,-53.4088 290.997,-55.9481"/>
<text text-anchor="middle" x="302.507" y="-65.6548" font-family="sans-serif" font-size="12.00" fill="red">autodiff</text>
</g>
</g>
</svg>
