<?xml version="1.0" encoding="UTF-8" standalone="no"?>
<!DOCTYPE svg PUBLIC "-//W3C//DTD SVG 1.1//EN"
 "http://www.w3.org/Graphics/SVG/1.1/DTD/svg11.dtd">
<!-- Generated by graphviz version 2.38.0 (20140413.2041)
 -->
<!-- Title: G Pages: 1 -->
<svg width="806pt" height="147pt"
 viewBox="0.00 0.00 805.72 146.51" xmlns="http://www.w3.org/2000/svg" xmlns:xlink="http://www.w3.org/1999/xlink">
<g id="graph0" class="graph" transform="scale(1 1) rotate(0) translate(4 142.51)">
<title>G</title>
<polygon fill="white" stroke="none" points="-4,4 -4,-142.51 801.719,-142.51 801.719,4 -4,4"/>
<!-- Oleg Burgueño -->
<g id="node1" class="node"><title>Oleg Burgueño</title>
<ellipse fill="black" stroke="black" cx="368.778" cy="-115.882" rx="125.451" ry="22.7556"/>
<text text-anchor="middle" x="368.778" y="-108.682" font-family="sans-serif" font-size="24.00" fill="white">Oleg Burgueño</text>
</g>
<!-- Megan Shabram -->
<g id="node2" class="node"><title>Megan Shabram</title>
<ellipse fill="black" stroke="black" cx="136.778" cy="-22.6274" rx="136.557" ry="22.7556"/>
<text text-anchor="middle" x="136.778" y="-15.4274" font-family="sans-serif" font-size="24.00" fill="white">Megan Shabram</text>
</g>
<!-- Oleg Burgueño&#45;&gt;Megan Shabram -->
<g id="edge1" class="edge"><title>Oleg Burgueño&#45;&gt;Megan Shabram</title>
<path fill="none" stroke="black" stroke-dasharray="1,5" d="M318.438,-95.0813C282.809,-81.0673 234.859,-62.2066 197.169,-47.3816"/>
<polygon fill="black" stroke="black" points="198.409,-44.1082 187.822,-43.7048 195.846,-50.6224 198.409,-44.1082"/>
<text text-anchor="middle" x="294.467" y="-65.6548" font-family="sans-serif" font-size="12.00" fill="red">databases</text>
</g>
<!-- breakout -->
<g id="node3" class="node"><title>breakout</title>
<ellipse fill="black" stroke="black" cx="368.778" cy="-22.6274" rx="77.213" ry="22.7556"/>
<text text-anchor="middle" x="368.778" y="-15.4274" font-family="sans-serif" font-size="24.00" fill="white">breakout</text>
</g>
<!-- Oleg Burgueño&#45;&gt;breakout -->
<g id="edge2" class="edge"><title>Oleg Burgueño&#45;&gt;breakout</title>
<path fill="none" stroke="black" stroke-dasharray="1,5" d="M368.778,-92.792C368.778,-81.6951 368.778,-68.0403 368.778,-55.8032"/>
<polygon fill="black" stroke="black" points="372.278,-55.5142 368.778,-45.5142 365.278,-55.5143 372.278,-55.5142"/>
<text text-anchor="middle" x="420.475" y="-65.6548" font-family="sans-serif" font-size="12.00" fill="red">packaging (Python)</text>
</g>
<!-- Adrian Price&#45;Whelan -->
<g id="node4" class="node"><title>Adrian Price&#45;Whelan</title>
<ellipse fill="black" stroke="black" cx="630.778" cy="-22.6274" rx="166.881" ry="22.7556"/>
<text text-anchor="middle" x="630.778" y="-15.4274" font-family="sans-serif" font-size="24.00" fill="white">Adrian Price&#45;Whelan</text>
</g>
<!-- Oleg Burgueño&#45;&gt;Adrian Price&#45;Whelan -->
<g id="edge3" class="edge"><title>Oleg Burgueño&#45;&gt;Adrian Price&#45;Whelan</title>
<path fill="none" stroke="black" stroke-dasharray="1,5" d="M424.342,-95.5294C464.84,-81.4239 519.929,-62.2363 563.013,-47.2301"/>
<polygon fill="black" stroke="black" points="564.279,-50.4956 572.571,-43.9011 561.976,-43.8851 564.279,-50.4956"/>
<text text-anchor="middle" x="593.484" y="-65.6548" font-family="sans-serif" font-size="12.00" fill="red">probabilistic graphical models</text>
</g>
</g>
</svg>
