<?xml version="1.0" encoding="UTF-8" standalone="no"?>
<!DOCTYPE svg PUBLIC "-//W3C//DTD SVG 1.1//EN"
 "http://www.w3.org/Graphics/SVG/1.1/DTD/svg11.dtd">
<!-- Generated by graphviz version 2.38.0 (20140413.2041)
 -->
<!-- Title: G Pages: 1 -->
<svg width="454pt" height="147pt"
 viewBox="0.00 0.00 454.09 146.51" xmlns="http://www.w3.org/2000/svg" xmlns:xlink="http://www.w3.org/1999/xlink">
<g id="graph0" class="graph" transform="scale(1 1) rotate(0) translate(4 142.51)">
<title>G</title>
<polygon fill="white" stroke="none" points="-4,4 -4,-142.51 450.093,-142.51 450.093,4 -4,4"/>
<!-- Oleg Burgueño -->
<g id="node1" class="node"><title>Oleg Burgueño</title>
<ellipse fill="black" stroke="black" cx="252.778" cy="-115.882" rx="125.451" ry="22.7556"/>
<text text-anchor="middle" x="252.778" y="-108.682" font-family="sans-serif" font-size="24.00" fill="white">Oleg Burgueño</text>
</g>
<!-- Megan Shabram -->
<g id="node2" class="node"><title>Megan Shabram</title>
<ellipse fill="black" stroke="black" cx="136.778" cy="-22.6274" rx="136.557" ry="22.7556"/>
<text text-anchor="middle" x="136.778" y="-15.4274" font-family="sans-serif" font-size="24.00" fill="white">Megan Shabram</text>
</g>
<!-- Oleg Burgueño&#45;&gt;Megan Shabram -->
<g id="edge1" class="edge"><title>Oleg Burgueño&#45;&gt;Megan Shabram</title>
<path fill="none" stroke="black" stroke-dasharray="1,5" d="M225.874,-93.7172C209.884,-81.1384 189.418,-65.0379 172.134,-51.4411"/>
<polygon fill="black" stroke="black" points="173.962,-48.4259 163.938,-44.9938 169.634,-53.9276 173.962,-48.4259"/>
<text text-anchor="middle" x="229.467" y="-65.6548" font-family="sans-serif" font-size="12.00" fill="red">databases</text>
</g>
<!-- Dan F&#45;M -->
<g id="node3" class="node"><title>Dan F&#45;M</title>
<ellipse fill="black" stroke="black" cx="368.778" cy="-22.6274" rx="77.1303" ry="22.7556"/>
<text text-anchor="middle" x="368.778" y="-15.4274" font-family="sans-serif" font-size="24.00" fill="white">Dan F&#45;M</text>
</g>
<!-- Oleg Burgueño&#45;&gt;Dan F&#45;M -->
<g id="edge2" class="edge"><title>Oleg Burgueño&#45;&gt;Dan F&#45;M</title>
<path fill="none" stroke="black" stroke-dasharray="1,5" d="M279.683,-93.7172C296.017,-80.8669 317.024,-64.3413 334.537,-50.5643"/>
<polygon fill="black" stroke="black" points="337.122,-52.9837 342.818,-44.05 332.794,-47.4821 337.122,-52.9837"/>
<text text-anchor="middle" x="368.475" y="-65.6548" font-family="sans-serif" font-size="12.00" fill="red">packaging (Python)</text>
</g>
</g>
</svg>
