<?xml version="1.0" encoding="UTF-8" standalone="no"?>
<!DOCTYPE svg PUBLIC "-//W3C//DTD SVG 1.1//EN"
 "http://www.w3.org/Graphics/SVG/1.1/DTD/svg11.dtd">
<!-- Generated by graphviz version 2.38.0 (20140413.2041)
 -->
<!-- Title: G Pages: 1 -->
<svg width="1011pt" height="147pt"
 viewBox="0.00 0.00 1010.56 146.51" xmlns="http://www.w3.org/2000/svg" xmlns:xlink="http://www.w3.org/1999/xlink">
<g id="graph0" class="graph" transform="scale(1 1) rotate(0) translate(4 142.51)">
<title>G</title>
<polygon fill="white" stroke="none" points="-4,4 -4,-142.51 1006.56,-142.51 1006.56,4 -4,4"/>
<!-- Oleg Burgueño -->
<g id="node1" class="node"><title>Oleg Burgueño</title>
<ellipse fill="black" stroke="black" cx="517.778" cy="-115.882" rx="125.451" ry="22.7556"/>
<text text-anchor="middle" x="517.778" y="-108.682" font-family="sans-serif" font-size="24.00" fill="white">Oleg Burgueño</text>
</g>
<!-- Megan Shabram -->
<g id="node2" class="node"><title>Megan Shabram</title>
<ellipse fill="black" stroke="black" cx="136.778" cy="-22.6274" rx="136.557" ry="22.7556"/>
<text text-anchor="middle" x="136.778" y="-15.4274" font-family="sans-serif" font-size="24.00" fill="white">Megan Shabram</text>
</g>
<!-- Oleg Burgueño&#45;&gt;Megan Shabram -->
<g id="edge1" class="edge"><title>Oleg Burgueño&#45;&gt;Megan Shabram</title>
<path fill="none" stroke="black" stroke-dasharray="1,5" d="M436.532,-98.4805C403.877,-91.6535 365.929,-83.4232 331.718,-75.2548 292.809,-65.9651 249.8,-54.6835 214.101,-45.0386"/>
<polygon fill="black" stroke="black" points="214.802,-41.6026 204.235,-42.3647 212.971,-48.3588 214.802,-41.6026"/>
<text text-anchor="middle" x="384.808" y="-65.6548" font-family="sans-serif" font-size="12.00" fill="red">gaussian processes</text>
</g>
<!-- Phil Marshall -->
<g id="node3" class="node"><title>Phil Marshall</title>
<ellipse fill="black" stroke="black" cx="399.778" cy="-22.6274" rx="108.411" ry="22.7556"/>
<text text-anchor="middle" x="399.778" y="-15.4274" font-family="sans-serif" font-size="24.00" fill="white">Phil Marshall</text>
</g>
<!-- Oleg Burgueño&#45;&gt;Phil Marshall -->
<g id="edge2" class="edge"><title>Oleg Burgueño&#45;&gt;Phil Marshall</title>
<path fill="none" stroke="black" stroke-dasharray="1,5" d="M483.299,-94.0624C474.325,-88.261 464.81,-81.7587 456.366,-75.2548 447.09,-68.1099 437.5,-59.7728 428.911,-51.9086"/>
<polygon fill="black" stroke="black" points="431.047,-49.1155 421.341,-44.8672 426.279,-54.2409 431.047,-49.1155"/>
<text text-anchor="middle" x="535.484" y="-65.6548" font-family="sans-serif" font-size="12.00" fill="red">probabilistic graphical models</text>
</g>
<!-- Usman Khan -->
<g id="node4" class="node"><title>Usman Khan</title>
<ellipse fill="black" stroke="black" cx="635.778" cy="-22.6274" rx="109.333" ry="22.7556"/>
<text text-anchor="middle" x="635.778" y="-15.4274" font-family="sans-serif" font-size="24.00" fill="white">Usman Khan</text>
</g>
<!-- Oleg Burgueño&#45;&gt;Usman Khan -->
<g id="edge3" class="edge"><title>Oleg Burgueño&#45;&gt;Usman Khan</title>
<path fill="none" stroke="black" stroke-dasharray="1,5" d="M582.453,-96.3416C593.879,-90.9128 604.931,-84.0021 613.778,-75.2548 619.399,-69.6977 623.666,-62.4781 626.874,-55.2077"/>
<polygon fill="black" stroke="black" points="630.317,-56.004 630.619,-45.4134 623.778,-53.504 630.317,-56.004"/>
<text text-anchor="middle" x="651.467" y="-65.6548" font-family="sans-serif" font-size="12.00" fill="red">databases</text>
</g>
<!-- Brigitta Sipocz -->
<g id="node5" class="node"><title>Brigitta Sipocz</title>
<ellipse fill="black" stroke="black" cx="882.778" cy="-22.6274" rx="119.566" ry="22.7556"/>
<text text-anchor="middle" x="882.778" y="-15.4274" font-family="sans-serif" font-size="24.00" fill="white">Brigitta Sipocz</text>
</g>
<!-- Oleg Burgueño&#45;&gt;Brigitta Sipocz -->
<g id="edge4" class="edge"><title>Oleg Burgueño&#45;&gt;Brigitta Sipocz</title>
<path fill="none" stroke="black" stroke-dasharray="1,5" d="M591.356,-97.4928C619.927,-90.6667 652.905,-82.6972 682.778,-75.2548 723.345,-65.1483 768.441,-53.5399 805.528,-43.8934"/>
<polygon fill="black" stroke="black" points="806.475,-47.2638 815.27,-41.3569 804.711,-40.4897 806.475,-47.2638"/>
<text text-anchor="middle" x="778.475" y="-65.6548" font-family="sans-serif" font-size="12.00" fill="red">packaging (Python)</text>
</g>
</g>
</svg>
