<?xml version="1.0" encoding="UTF-8" standalone="no"?>
<!DOCTYPE svg PUBLIC "-//W3C//DTD SVG 1.1//EN"
 "http://www.w3.org/Graphics/SVG/1.1/DTD/svg11.dtd">
<!-- Generated by graphviz version 2.38.0 (20140413.2041)
 -->
<!-- Title: G Pages: 1 -->
<svg width="1111pt" height="147pt"
 viewBox="0.00 0.00 1111.39 146.51" xmlns="http://www.w3.org/2000/svg" xmlns:xlink="http://www.w3.org/1999/xlink">
<g id="graph0" class="graph" transform="scale(1 1) rotate(0) translate(4 142.51)">
<title>G</title>
<polygon fill="white" stroke="none" points="-4,4 -4,-142.51 1107.39,-142.51 1107.39,4 -4,4"/>
<!-- Brigitta Sipocz -->
<g id="node1" class="node"><title>Brigitta Sipocz</title>
<ellipse fill="black" stroke="black" cx="119.783" cy="-22.6274" rx="119.566" ry="22.7556"/>
<text text-anchor="middle" x="119.783" y="-15.4274" font-family="sans-serif" font-size="24.00" fill="white">Brigitta Sipocz</text>
</g>
<!-- Casey Law -->
<g id="node2" class="node"><title>Casey Law</title>
<ellipse fill="black" stroke="black" cx="567.783" cy="-115.882" rx="95.0272" ry="22.7556"/>
<text text-anchor="middle" x="567.783" y="-108.682" font-family="sans-serif" font-size="24.00" fill="white">Casey Law</text>
</g>
<!-- Casey Law&#45;&gt;Brigitta Sipocz -->
<g id="edge1" class="edge"><title>Casey Law&#45;&gt;Brigitta Sipocz</title>
<path fill="none" stroke="black" stroke-dasharray="1,5" d="M497.29,-100.523C419.308,-84.6389 293.5,-59.0126 208.782,-41.7561"/>
<polygon fill="black" stroke="black" points="209.416,-38.3133 198.918,-39.7468 208.018,-45.1724 209.416,-38.3133"/>
<text text-anchor="middle" x="394.894" y="-65.6548" font-family="sans-serif" font-size="12.00" fill="red">Travis&#45;CI</text>
</g>
<!-- Adam Becker -->
<g id="node3" class="node"><title>Adam Becker</title>
<ellipse fill="black" stroke="black" cx="370.783" cy="-22.6274" rx="113.357" ry="22.7556"/>
<text text-anchor="middle" x="370.783" y="-15.4274" font-family="sans-serif" font-size="24.00" fill="white">Adam Becker</text>
</g>
<!-- Casey Law&#45;&gt;Adam Becker -->
<g id="edge4" class="edge"><title>Casey Law&#45;&gt;Adam Becker</title>
<path fill="none" stroke="black" stroke-dasharray="1,5" d="M526.004,-95.5294C495.987,-81.625 455.31,-62.7823 423.127,-47.8744"/>
<polygon fill="black" stroke="black" points="424.408,-44.6106 413.863,-43.5832 421.466,-50.9622 424.408,-44.6106"/>
<text text-anchor="middle" x="501.459" y="-65.6548" font-family="sans-serif" font-size="12.00" fill="red">Jupyter</text>
</g>
<!-- Zaki Ali -->
<g id="node4" class="node"><title>Zaki Ali</title>
<ellipse fill="black" stroke="black" cx="567.783" cy="-22.6274" rx="66.0411" ry="22.7556"/>
<text text-anchor="middle" x="567.783" y="-15.4274" font-family="sans-serif" font-size="24.00" fill="white">Zaki Ali</text>
</g>
<!-- Casey Law&#45;&gt;Zaki Ali -->
<g id="edge5" class="edge"><title>Casey Law&#45;&gt;Zaki Ali</title>
<path fill="none" stroke="black" stroke-dasharray="1,5" d="M567.783,-92.792C567.783,-81.6951 567.783,-68.0403 567.783,-55.8032"/>
<polygon fill="black" stroke="black" points="571.283,-55.5142 567.783,-45.5142 564.283,-55.5143 571.283,-55.5142"/>
<text text-anchor="middle" x="619.48" y="-65.6548" font-family="sans-serif" font-size="12.00" fill="red">packaging (Python)</text>
</g>
<!-- breakout -->
<g id="node5" class="node"><title>breakout</title>
<ellipse fill="black" stroke="black" cx="728.783" cy="-22.6274" rx="77.213" ry="22.7556"/>
<text text-anchor="middle" x="728.783" y="-15.4274" font-family="sans-serif" font-size="24.00" fill="white">breakout</text>
</g>
<!-- Casey Law&#45;&gt;breakout -->
<g id="edge3" class="edge"><title>Casey Law&#45;&gt;breakout</title>
<path fill="none" stroke="black" stroke-dasharray="1,5" d="M626.448,-98.0241C642.74,-92.0678 660.002,-84.4971 674.783,-75.2548 684.99,-68.8725 694.893,-60.332 703.372,-52.0371"/>
<polygon fill="black" stroke="black" points="705.906,-54.4525 710.428,-44.8713 700.918,-49.541 705.906,-54.4525"/>
<text text-anchor="middle" x="709.127" y="-65.6548" font-family="sans-serif" font-size="12.00" fill="red">sphinx</text>
</g>
<!-- Madhura Killedar -->
<g id="node6" class="node"><title>Madhura Killedar</title>
<ellipse fill="black" stroke="black" cx="963.783" cy="-22.6274" rx="139.708" ry="22.7556"/>
<text text-anchor="middle" x="963.783" y="-15.4274" font-family="sans-serif" font-size="24.00" fill="white">Madhura Killedar</text>
</g>
<!-- Casey Law&#45;&gt;Madhura Killedar -->
<g id="edge2" class="edge"><title>Casey Law&#45;&gt;Madhura Killedar</title>
<path fill="none" stroke="black" stroke-dasharray="1,5" d="M634.064,-99.6082C700.41,-84.3194 802.867,-60.7092 875.949,-43.8679"/>
<polygon fill="black" stroke="black" points="877.101,-47.1942 886.06,-41.538 875.529,-40.373 877.101,-47.1942"/>
<text text-anchor="middle" x="835.477" y="-65.6548" font-family="sans-serif" font-size="12.00" fill="red">machine learning</text>
</g>
</g>
</svg>
