<?xml version="1.0" encoding="UTF-8" standalone="no"?>
<!DOCTYPE svg PUBLIC "-//W3C//DTD SVG 1.1//EN"
 "http://www.w3.org/Graphics/SVG/1.1/DTD/svg11.dtd">
<!-- Generated by graphviz version 2.38.0 (20140413.2041)
 -->
<!-- Title: G Pages: 1 -->
<svg width="627pt" height="147pt"
 viewBox="0.00 0.00 627.13 146.51" xmlns="http://www.w3.org/2000/svg" xmlns:xlink="http://www.w3.org/1999/xlink">
<g id="graph0" class="graph" transform="scale(1 1) rotate(0) translate(4 142.51)">
<title>G</title>
<polygon fill="white" stroke="none" points="-4,4 -4,-142.51 623.135,-142.51 623.135,4 -4,4"/>
<!-- Casey Law -->
<g id="node1" class="node"><title>Casey Law</title>
<ellipse fill="black" stroke="black" cx="368.778" cy="-115.882" rx="95.0272" ry="22.7556"/>
<text text-anchor="middle" x="368.778" y="-108.682" font-family="sans-serif" font-size="24.00" fill="white">Casey Law</text>
</g>
<!-- Casey Law&#45;&gt;Casey Law -->
<g id="edge1" class="edge"><title>Casey Law&#45;&gt;Casey Law</title>
<path fill="none" stroke="black" stroke-dasharray="1,5" d="M458.042,-123.825C472.29,-122.663 482.042,-120.015 482.042,-115.882 482.042,-112.815 476.67,-110.566 468.075,-109.135"/>
<polygon fill="black" stroke="black" points="468.386,-105.647 458.042,-107.94 467.558,-112.598 468.386,-105.647"/>
<text text-anchor="middle" x="537.386" y="-112.282" font-family="sans-serif" font-size="12.00" fill="red">astronomy cirriculum</text>
</g>
<!-- Megan Shabram -->
<g id="node2" class="node"><title>Megan Shabram</title>
<ellipse fill="black" stroke="black" cx="136.778" cy="-22.6274" rx="136.557" ry="22.7556"/>
<text text-anchor="middle" x="136.778" y="-15.4274" font-family="sans-serif" font-size="24.00" fill="white">Megan Shabram</text>
</g>
<!-- Casey Law&#45;&gt;Megan Shabram -->
<g id="edge2" class="edge"><title>Casey Law&#45;&gt;Megan Shabram</title>
<path fill="none" stroke="black" stroke-dasharray="1,5" d="M321.27,-96.1953C285.462,-82.1106 236.088,-62.6901 197.428,-47.4836"/>
<polygon fill="black" stroke="black" points="198.432,-44.1175 187.845,-43.7141 195.87,-50.6317 198.432,-44.1175"/>
<text text-anchor="middle" x="312.473" y="-65.6548" font-family="sans-serif" font-size="12.00" fill="red">machine learning</text>
</g>
<!-- Dan F&#45;M -->
<g id="node3" class="node"><title>Dan F&#45;M</title>
<ellipse fill="black" stroke="black" cx="368.778" cy="-22.6274" rx="77.1303" ry="22.7556"/>
<text text-anchor="middle" x="368.778" y="-15.4274" font-family="sans-serif" font-size="24.00" fill="white">Dan F&#45;M</text>
</g>
<!-- Casey Law&#45;&gt;Dan F&#45;M -->
<g id="edge3" class="edge"><title>Casey Law&#45;&gt;Dan F&#45;M</title>
<path fill="none" stroke="black" stroke-dasharray="1,5" d="M368.778,-92.792C368.778,-81.6951 368.778,-68.0403 368.778,-55.8032"/>
<polygon fill="black" stroke="black" points="372.278,-55.5142 368.778,-45.5142 365.278,-55.5143 372.278,-55.5142"/>
<text text-anchor="middle" x="388.454" y="-65.6548" font-family="sans-serif" font-size="12.00" fill="red">Jupyter</text>
</g>
<!-- breakout -->
<g id="node4" class="node"><title>breakout</title>
<ellipse fill="black" stroke="black" cx="541.778" cy="-22.6274" rx="77.213" ry="22.7556"/>
<text text-anchor="middle" x="541.778" y="-15.4274" font-family="sans-serif" font-size="24.00" fill="white">breakout</text>
</g>
<!-- Casey Law&#45;&gt;breakout -->
<g id="edge4" class="edge"><title>Casey Law&#45;&gt;breakout</title>
<path fill="none" stroke="black" stroke-dasharray="1,5" d="M406.317,-95.0813C432.745,-81.141 468.264,-62.4049 496.301,-47.6158"/>
<polygon fill="black" stroke="black" points="498.287,-50.5257 505.499,-42.7644 495.021,-44.3343 498.287,-50.5257"/>
<text text-anchor="middle" x="483.122" y="-65.6548" font-family="sans-serif" font-size="12.00" fill="red">sphinx</text>
</g>
</g>
</svg>
