<?xml version="1.0" encoding="UTF-8" standalone="no"?>
<!DOCTYPE svg PUBLIC "-//W3C//DTD SVG 1.1//EN"
 "http://www.w3.org/Graphics/SVG/1.1/DTD/svg11.dtd">
<!-- Generated by graphviz version 2.38.0 (20140413.2041)
 -->
<!-- Title: G Pages: 1 -->
<svg width="770pt" height="147pt"
 viewBox="0.00 0.00 770.03 146.51" xmlns="http://www.w3.org/2000/svg" xmlns:xlink="http://www.w3.org/1999/xlink">
<g id="graph0" class="graph" transform="scale(1 1) rotate(0) translate(4 142.51)">
<title>G</title>
<polygon fill="white" stroke="none" points="-4,4 -4,-142.51 766.028,-142.51 766.028,4 -4,4"/>
<!-- Casey Law -->
<g id="node1" class="node"><title>Casey Law</title>
<ellipse fill="black" stroke="black" cx="394.591" cy="-115.882" rx="95.0272" ry="22.7556"/>
<text text-anchor="middle" x="394.591" y="-108.682" font-family="sans-serif" font-size="24.00" fill="white">Casey Law</text>
</g>
<!-- Kate Follette -->
<g id="node2" class="node"><title>Kate Follette</title>
<ellipse fill="black" stroke="black" cx="106.591" cy="-22.6274" rx="106.682" ry="22.7556"/>
<text text-anchor="middle" x="106.591" y="-15.4274" font-family="sans-serif" font-size="24.00" fill="white">Kate Follette</text>
</g>
<!-- Casey Law&#45;&gt;Kate Follette -->
<g id="edge1" class="edge"><title>Casey Law&#45;&gt;Kate Follette</title>
<path fill="none" stroke="black" stroke-dasharray="1,5" d="M325.07,-100.396C295.997,-93.7085 262.03,-85.0679 231.901,-75.2548 207.529,-67.3168 181.208,-56.7859 159.01,-47.3062"/>
<polygon fill="black" stroke="black" points="160.335,-44.0661 149.767,-43.3184 157.562,-50.4935 160.335,-44.0661"/>
<text text-anchor="middle" x="287.936" y="-65.6548" font-family="sans-serif" font-size="12.00" fill="red">astronomy cirriculum</text>
</g>
<!-- Dan F&#45;M -->
<g id="node3" class="node"><title>Dan F&#45;M</title>
<ellipse fill="black" stroke="black" cx="308.591" cy="-22.6274" rx="77.1303" ry="22.7556"/>
<text text-anchor="middle" x="308.591" y="-15.4274" font-family="sans-serif" font-size="24.00" fill="white">Dan F&#45;M</text>
</g>
<!-- Casey Law&#45;&gt;Dan F&#45;M -->
<g id="edge2" class="edge"><title>Casey Law&#45;&gt;Dan F&#45;M</title>
<path fill="none" stroke="black" stroke-dasharray="1,5" d="M374.645,-93.7172C363.03,-81.3934 348.231,-65.6894 335.585,-52.2712"/>
<polygon fill="black" stroke="black" points="337.835,-49.5548 328.429,-44.6777 332.74,-54.3557 337.835,-49.5548"/>
<text text-anchor="middle" x="381.702" y="-65.6548" font-family="sans-serif" font-size="12.00" fill="red">Travis&#45;CI</text>
</g>
<!-- breakout -->
<g id="node4" class="node"><title>breakout</title>
<ellipse fill="black" stroke="black" cx="481.591" cy="-22.6274" rx="77.213" ry="22.7556"/>
<text text-anchor="middle" x="481.591" y="-15.4274" font-family="sans-serif" font-size="24.00" fill="white">breakout</text>
</g>
<!-- Casey Law&#45;&gt;breakout -->
<g id="edge3" class="edge"><title>Casey Law&#45;&gt;breakout</title>
<path fill="none" stroke="black" stroke-dasharray="1,5" d="M414.769,-93.7172C426.518,-81.3934 441.49,-65.6894 454.283,-52.2712"/>
<polygon fill="black" stroke="black" points="457.155,-54.3306 461.522,-44.6777 452.088,-49.5004 457.155,-54.3306"/>
<text text-anchor="middle" x="495.288" y="-65.6548" font-family="sans-serif" font-size="12.00" fill="red">packaging (Python)</text>
</g>
<!-- Zach Pace -->
<g id="node5" class="node"><title>Zach Pace</title>
<ellipse fill="black" stroke="black" cx="669.591" cy="-22.6274" rx="92.3753" ry="22.7556"/>
<text text-anchor="middle" x="669.591" y="-15.4274" font-family="sans-serif" font-size="24.00" fill="white">Zach Pace</text>
</g>
<!-- Casey Law&#45;&gt;Zach Pace -->
<g id="edge4" class="edge"><title>Casey Law&#45;&gt;Zach Pace</title>
<path fill="none" stroke="black" stroke-dasharray="1,5" d="M462.858,-100.055C490.4,-93.4246 522.295,-84.9167 550.591,-75.2548 573.785,-67.3348 598.766,-56.8181 619.821,-47.344"/>
<polygon fill="black" stroke="black" points="621.546,-50.4045 629.199,-43.0774 618.647,-44.0329 621.546,-50.4045"/>
<text text-anchor="middle" x="600.267" y="-65.6548" font-family="sans-serif" font-size="12.00" fill="red">Jupyter</text>
</g>
</g>
</svg>
