<?xml version="1.0" encoding="UTF-8" standalone="no"?>
<!DOCTYPE svg PUBLIC "-//W3C//DTD SVG 1.1//EN"
 "http://www.w3.org/Graphics/SVG/1.1/DTD/svg11.dtd">
<!-- Generated by graphviz version 2.38.0 (20140413.2041)
 -->
<!-- Title: G Pages: 1 -->
<svg width="398pt" height="147pt"
 viewBox="0.00 0.00 397.81 146.51" xmlns="http://www.w3.org/2000/svg" xmlns:xlink="http://www.w3.org/1999/xlink">
<g id="graph0" class="graph" transform="scale(1 1) rotate(0) translate(4 142.51)">
<title>G</title>
<polygon fill="white" stroke="none" points="-4,4 -4,-142.51 393.812,-142.51 393.812,4 -4,4"/>
<!-- Brigitta Sipocz -->
<g id="node1" class="node"><title>Brigitta Sipocz</title>
<ellipse fill="black" stroke="black" cx="210.455" cy="-115.882" rx="119.566" ry="22.7556"/>
<text text-anchor="middle" x="210.455" y="-108.682" font-family="sans-serif" font-size="24.00" fill="white">Brigitta Sipocz</text>
</g>
<!-- Phil Marshall -->
<g id="node2" class="node"><title>Phil Marshall</title>
<ellipse fill="black" stroke="black" cx="108.455" cy="-22.6274" rx="108.411" ry="22.7556"/>
<text text-anchor="middle" x="108.455" y="-15.4274" font-family="sans-serif" font-size="24.00" fill="white">Phil Marshall</text>
</g>
<!-- Brigitta Sipocz&#45;&gt;Phil Marshall -->
<g id="edge1" class="edge"><title>Brigitta Sipocz&#45;&gt;Phil Marshall</title>
<path fill="none" stroke="black" stroke-dasharray="1,5" d="M186.541,-93.487C172.601,-81.0159 154.858,-65.1422 139.81,-51.6787"/>
<polygon fill="black" stroke="black" points="142.006,-48.9478 132.22,-44.8886 137.339,-54.1647 142.006,-48.9478"/>
<text text-anchor="middle" x="212.15" y="-65.6548" font-family="sans-serif" font-size="12.00" fill="red">machine learning</text>
</g>
<!-- breakout -->
<g id="node3" class="node"><title>breakout</title>
<ellipse fill="black" stroke="black" cx="312.455" cy="-22.6274" rx="77.213" ry="22.7556"/>
<text text-anchor="middle" x="312.455" y="-15.4274" font-family="sans-serif" font-size="24.00" fill="white">breakout</text>
</g>
<!-- Brigitta Sipocz&#45;&gt;breakout -->
<g id="edge2" class="edge"><title>Brigitta Sipocz&#45;&gt;breakout</title>
<path fill="none" stroke="black" stroke-dasharray="1,5" d="M239.047,-93.7229C246.5,-87.9241 254.412,-81.5081 261.455,-75.2548 269.581,-68.0404 278.021,-59.8269 285.64,-52.1066"/>
<polygon fill="black" stroke="black" points="288.475,-54.2121 292.944,-44.6059 283.46,-49.3285 288.475,-54.2121"/>
<text text-anchor="middle" x="295.031" y="-65.6548" font-family="sans-serif" font-size="12.00" fill="red">autodiff</text>
</g>
</g>
</svg>
