<?xml version="1.0" encoding="UTF-8" standalone="no"?>
<!DOCTYPE svg PUBLIC "-//W3C//DTD SVG 1.1//EN"
 "http://www.w3.org/Graphics/SVG/1.1/DTD/svg11.dtd">
<!-- Generated by graphviz version 2.38.0 (20140413.2041)
 -->
<!-- Title: G Pages: 1 -->
<svg width="796pt" height="147pt"
 viewBox="0.00 0.00 796.26 146.51" xmlns="http://www.w3.org/2000/svg" xmlns:xlink="http://www.w3.org/1999/xlink">
<g id="graph0" class="graph" transform="scale(1 1) rotate(0) translate(4 142.51)">
<title>G</title>
<polygon fill="white" stroke="none" points="-4,4 -4,-142.51 792.256,-142.51 792.256,4 -4,4"/>
<!-- Brigitta Sipocz -->
<g id="node1" class="node"><title>Brigitta Sipocz</title>
<ellipse fill="black" stroke="black" cx="304.315" cy="-115.882" rx="119.566" ry="22.7556"/>
<text text-anchor="middle" x="304.315" y="-108.682" font-family="sans-serif" font-size="24.00" fill="white">Brigitta Sipocz</text>
</g>
<!-- Dan F&#45;M -->
<g id="node2" class="node"><title>Dan F&#45;M</title>
<ellipse fill="black" stroke="black" cx="77.3149" cy="-22.6274" rx="77.1303" ry="22.7556"/>
<text text-anchor="middle" x="77.3149" y="-15.4274" font-family="sans-serif" font-size="24.00" fill="white">Dan F&#45;M</text>
</g>
<!-- Brigitta Sipocz&#45;&gt;Dan F&#45;M -->
<g id="edge1" class="edge"><title>Brigitta Sipocz&#45;&gt;Dan F&#45;M</title>
<path fill="none" stroke="black" stroke-dasharray="1,5" d="M255.339,-95.1937C218.572,-80.4133 168.278,-60.195 130.524,-45.0178"/>
<polygon fill="black" stroke="black" points="131.796,-41.7568 121.212,-41.2742 129.185,-48.2516 131.796,-41.7568"/>
<text text-anchor="middle" x="224.891" y="-65.6548" font-family="sans-serif" font-size="12.00" fill="red">autodiff</text>
</g>
<!-- Grigor Aslanyan -->
<g id="node3" class="node"><title>Grigor Aslanyan</title>
<ellipse fill="black" stroke="black" cx="304.315" cy="-22.6274" rx="132.127" ry="22.7556"/>
<text text-anchor="middle" x="304.315" y="-15.4274" font-family="sans-serif" font-size="24.00" fill="white">Grigor Aslanyan</text>
</g>
<!-- Brigitta Sipocz&#45;&gt;Grigor Aslanyan -->
<g id="edge2" class="edge"><title>Brigitta Sipocz&#45;&gt;Grigor Aslanyan</title>
<path fill="none" stroke="black" stroke-dasharray="1,5" d="M304.315,-92.792C304.315,-81.6951 304.315,-68.0403 304.315,-55.8032"/>
<polygon fill="black" stroke="black" points="307.815,-55.5142 304.315,-45.5142 300.815,-55.5143 307.815,-55.5142"/>
<text text-anchor="middle" x="357.345" y="-65.6548" font-family="sans-serif" font-size="12.00" fill="red">gaussian processes</text>
</g>
<!-- Adrian Price&#45;Whelan -->
<g id="node4" class="node"><title>Adrian Price&#45;Whelan</title>
<ellipse fill="black" stroke="black" cx="621.315" cy="-22.6274" rx="166.881" ry="22.7556"/>
<text text-anchor="middle" x="621.315" y="-15.4274" font-family="sans-serif" font-size="24.00" fill="white">Adrian Price&#45;Whelan</text>
</g>
<!-- Brigitta Sipocz&#45;&gt;Adrian Price&#45;Whelan -->
<g id="edge3" class="edge"><title>Brigitta Sipocz&#45;&gt;Adrian Price&#45;Whelan</title>
<path fill="none" stroke="black" stroke-dasharray="1,5" d="M367.703,-96.6348C418.136,-82.1167 488.956,-61.7297 542.945,-46.1878"/>
<polygon fill="black" stroke="black" points="544.18,-49.4746 552.821,-43.3447 542.243,-42.7478 544.18,-49.4746"/>
<text text-anchor="middle" x="527.009" y="-65.6548" font-family="sans-serif" font-size="12.00" fill="red">machine learning</text>
</g>
</g>
</svg>
