<?xml version="1.0" encoding="UTF-8" standalone="no"?>
<!DOCTYPE svg PUBLIC "-//W3C//DTD SVG 1.1//EN"
 "http://www.w3.org/Graphics/SVG/1.1/DTD/svg11.dtd">
<!-- Generated by graphviz version 2.38.0 (20140413.2041)
 -->
<!-- Title: G Pages: 1 -->
<svg width="798pt" height="147pt"
 viewBox="0.00 0.00 797.95 146.51" xmlns="http://www.w3.org/2000/svg" xmlns:xlink="http://www.w3.org/1999/xlink">
<g id="graph0" class="graph" transform="scale(1 1) rotate(0) translate(4 142.51)">
<title>G</title>
<polygon fill="white" stroke="none" points="-4,4 -4,-142.51 793.949,-142.51 793.949,4 -4,4"/>
<!-- Jennifer Sobeck -->
<g id="node1" class="node"><title>Jennifer Sobeck</title>
<ellipse fill="black" stroke="black" cx="133.008" cy="-22.6274" rx="133.016" ry="22.7556"/>
<text text-anchor="middle" x="133.008" y="-15.4274" font-family="sans-serif" font-size="24.00" fill="white">Jennifer Sobeck</text>
</g>
<!-- breakout -->
<g id="node2" class="node"><title>breakout</title>
<ellipse fill="black" stroke="black" cx="361.008" cy="-22.6274" rx="77.213" ry="22.7556"/>
<text text-anchor="middle" x="361.008" y="-15.4274" font-family="sans-serif" font-size="24.00" fill="white">breakout</text>
</g>
<!-- Felipe Ardila -->
<g id="node3" class="node"><title>Felipe Ardila</title>
<ellipse fill="black" stroke="black" cx="361.008" cy="-115.882" rx="104.92" ry="22.7556"/>
<text text-anchor="middle" x="361.008" y="-108.682" font-family="sans-serif" font-size="24.00" fill="white">Felipe Ardila</text>
</g>
<!-- Felipe Ardila&#45;&gt;Jennifer Sobeck -->
<g id="edge1" class="edge"><title>Felipe Ardila&#45;&gt;Jennifer Sobeck</title>
<path fill="none" stroke="black" stroke-dasharray="1,5" d="M312.934,-95.641C277.764,-81.5648 229.841,-62.3839 192.296,-47.3569"/>
<polygon fill="black" stroke="black" points="193.573,-44.0981 182.988,-43.6316 190.972,-50.5969 193.573,-44.0981"/>
<text text-anchor="middle" x="288.696" y="-65.6548" font-family="sans-serif" font-size="12.00" fill="red">databases</text>
</g>
<!-- Felipe Ardila&#45;&gt;breakout -->
<g id="edge2" class="edge"><title>Felipe Ardila&#45;&gt;breakout</title>
<path fill="none" stroke="black" stroke-dasharray="1,5" d="M361.008,-92.792C361.008,-81.6951 361.008,-68.0403 361.008,-55.8032"/>
<polygon fill="black" stroke="black" points="364.508,-55.5142 361.008,-45.5142 357.508,-55.5143 364.508,-55.5142"/>
<text text-anchor="middle" x="412.705" y="-65.6548" font-family="sans-serif" font-size="12.00" fill="red">packaging (Python)</text>
</g>
<!-- Adrian Price&#45;Whelan -->
<g id="node4" class="node"><title>Adrian Price&#45;Whelan</title>
<ellipse fill="black" stroke="black" cx="623.008" cy="-22.6274" rx="166.881" ry="22.7556"/>
<text text-anchor="middle" x="623.008" y="-15.4274" font-family="sans-serif" font-size="24.00" fill="white">Adrian Price&#45;Whelan</text>
</g>
<!-- Felipe Ardila&#45;&gt;Adrian Price&#45;Whelan -->
<g id="edge3" class="edge"><title>Felipe Ardila&#45;&gt;Adrian Price&#45;Whelan</title>
<path fill="none" stroke="black" stroke-dasharray="1,5" d="M414.343,-96.3055C455.046,-82.1289 511.403,-62.4995 555.289,-47.2139"/>
<polygon fill="black" stroke="black" points="556.445,-50.5177 564.737,-43.9232 554.142,-43.9072 556.445,-50.5177"/>
<text text-anchor="middle" x="552.702" y="-65.6548" font-family="sans-serif" font-size="12.00" fill="red">machine learning</text>
</g>
</g>
</svg>
