<?xml version="1.0" encoding="UTF-8" standalone="no"?>
<!DOCTYPE svg PUBLIC "-//W3C//DTD SVG 1.1//EN"
 "http://www.w3.org/Graphics/SVG/1.1/DTD/svg11.dtd">
<!-- Generated by graphviz version 2.38.0 (20140413.2041)
 -->
<!-- Title: G Pages: 1 -->
<svg width="810pt" height="147pt"
 viewBox="0.00 0.00 810.03 146.51" xmlns="http://www.w3.org/2000/svg" xmlns:xlink="http://www.w3.org/1999/xlink">
<g id="graph0" class="graph" transform="scale(1 1) rotate(0) translate(4 142.51)">
<title>G</title>
<polygon fill="white" stroke="none" points="-4,4 -4,-142.51 806.028,-142.51 806.028,4 -4,4"/>
<!-- Jennifer Sobeck -->
<g id="node1" class="node"><title>Jennifer Sobeck</title>
<ellipse fill="black" stroke="black" cx="133.008" cy="-22.6274" rx="133.016" ry="22.7556"/>
<text text-anchor="middle" x="133.008" y="-15.4274" font-family="sans-serif" font-size="24.00" fill="white">Jennifer Sobeck</text>
</g>
<!-- Felipe Ardila -->
<g id="node2" class="node"><title>Felipe Ardila</title>
<ellipse fill="black" stroke="black" cx="468.008" cy="-115.882" rx="104.92" ry="22.7556"/>
<text text-anchor="middle" x="468.008" y="-108.682" font-family="sans-serif" font-size="24.00" fill="white">Felipe Ardila</text>
</g>
<!-- Felipe Ardila&#45;&gt;Jennifer Sobeck -->
<g id="edge1" class="edge"><title>Felipe Ardila&#45;&gt;Jennifer Sobeck</title>
<path fill="none" stroke="black" stroke-dasharray="1,5" d="M404.997,-97.7179C349.879,-82.7035 269.627,-60.8427 210.574,-44.7566"/>
<polygon fill="black" stroke="black" points="211.485,-41.3773 200.917,-42.126 209.645,-48.1313 211.485,-41.3773"/>
<text text-anchor="middle" x="348.696" y="-65.6548" font-family="sans-serif" font-size="12.00" fill="red">databases</text>
</g>
<!-- Daniela Huppenkothen -->
<g id="node3" class="node"><title>Daniela Huppenkothen</title>
<ellipse fill="black" stroke="black" cx="468.008" cy="-22.6274" rx="183.955" ry="22.7556"/>
<text text-anchor="middle" x="468.008" y="-15.4274" font-family="sans-serif" font-size="24.00" fill="white">Daniela Huppenkothen</text>
</g>
<!-- Felipe Ardila&#45;&gt;Daniela Huppenkothen -->
<g id="edge2" class="edge"><title>Felipe Ardila&#45;&gt;Daniela Huppenkothen</title>
<path fill="none" stroke="black" stroke-dasharray="1,5" d="M468.008,-92.792C468.008,-81.6951 468.008,-68.0403 468.008,-55.8032"/>
<polygon fill="black" stroke="black" points="471.508,-55.5142 468.008,-45.5142 464.508,-55.5143 471.508,-55.5142"/>
<text text-anchor="middle" x="513.702" y="-65.6548" font-family="sans-serif" font-size="12.00" fill="red">machine learning</text>
</g>
<!-- Zaki Ali -->
<g id="node4" class="node"><title>Zaki Ali</title>
<ellipse fill="black" stroke="black" cx="736.008" cy="-22.6274" rx="66.0411" ry="22.7556"/>
<text text-anchor="middle" x="736.008" y="-15.4274" font-family="sans-serif" font-size="24.00" fill="white">Zaki Ali</text>
</g>
<!-- Felipe Ardila&#45;&gt;Zaki Ali -->
<g id="edge3" class="edge"><title>Felipe Ardila&#45;&gt;Zaki Ali</title>
<path fill="none" stroke="black" stroke-dasharray="1,5" d="M522.242,-96.4155C568.364,-80.7107 634.309,-58.2563 680.728,-42.4505"/>
<polygon fill="black" stroke="black" points="681.984,-45.7201 690.322,-39.1835 679.728,-39.0937 681.984,-45.7201"/>
<text text-anchor="middle" x="670.705" y="-65.6548" font-family="sans-serif" font-size="12.00" fill="red">packaging (Python)</text>
</g>
</g>
</svg>
