<?xml version="1.0" encoding="UTF-8" standalone="no"?>
<!DOCTYPE svg PUBLIC "-//W3C//DTD SVG 1.1//EN"
 "http://www.w3.org/Graphics/SVG/1.1/DTD/svg11.dtd">
<!-- Generated by graphviz version 2.38.0 (20140413.2041)
 -->
<!-- Title: G Pages: 1 -->
<svg width="887pt" height="147pt"
 viewBox="0.00 0.00 886.51 146.51" xmlns="http://www.w3.org/2000/svg" xmlns:xlink="http://www.w3.org/1999/xlink">
<g id="graph0" class="graph" transform="scale(1 1) rotate(0) translate(4 142.51)">
<title>G</title>
<polygon fill="white" stroke="none" points="-4,4 -4,-142.51 882.514,-142.51 882.514,4 -4,4"/>
<!-- Ben Nelson -->
<g id="node1" class="node"><title>Ben Nelson</title>
<ellipse fill="black" stroke="black" cx="99.0502" cy="-22.6274" rx="99.1004" ry="22.7556"/>
<text text-anchor="middle" x="99.0502" y="-15.4274" font-family="sans-serif" font-size="24.00" fill="white">Ben Nelson</text>
</g>
<!-- Dan F&#45;M -->
<g id="node2" class="node"><title>Dan F&#45;M</title>
<ellipse fill="black" stroke="black" cx="293.05" cy="-22.6274" rx="77.1303" ry="22.7556"/>
<text text-anchor="middle" x="293.05" y="-15.4274" font-family="sans-serif" font-size="24.00" fill="white">Dan F&#45;M</text>
</g>
<!-- breakout -->
<g id="node3" class="node"><title>breakout</title>
<ellipse fill="black" stroke="black" cx="466.05" cy="-22.6274" rx="77.213" ry="22.7556"/>
<text text-anchor="middle" x="466.05" y="-15.4274" font-family="sans-serif" font-size="24.00" fill="white">breakout</text>
</g>
<!-- Jonathan Whitmore -->
<g id="node4" class="node"><title>Jonathan Whitmore</title>
<ellipse fill="black" stroke="black" cx="720.05" cy="-22.6274" rx="158.427" ry="22.7556"/>
<text text-anchor="middle" x="720.05" y="-15.4274" font-family="sans-serif" font-size="24.00" fill="white">Jonathan Whitmore</text>
</g>
<!-- Jessie Dotson -->
<g id="node5" class="node"><title>Jessie Dotson</title>
<ellipse fill="black" stroke="black" cx="379.05" cy="-115.882" rx="117.804" ry="22.7556"/>
<text text-anchor="middle" x="379.05" y="-108.682" font-family="sans-serif" font-size="24.00" fill="white">Jessie Dotson</text>
</g>
<!-- Jessie Dotson&#45;&gt;Ben Nelson -->
<g id="edge1" class="edge"><title>Jessie Dotson&#45;&gt;Ben Nelson</title>
<path fill="none" stroke="black" stroke-dasharray="1,5" d="M276.224,-104.72C241.39,-98.8732 202.905,-89.6841 169.638,-75.2548 155.74,-69.2264 141.952,-60.0541 130.3,-51.1046"/>
<polygon fill="black" stroke="black" points="132.226,-48.1642 122.222,-44.6754 127.867,-53.6413 132.226,-48.1642"/>
<text text-anchor="middle" x="248.756" y="-65.6548" font-family="sans-serif" font-size="12.00" fill="red">probabilistic graphical models</text>
</g>
<!-- Jessie Dotson&#45;&gt;Dan F&#45;M -->
<g id="edge2" class="edge"><title>Jessie Dotson&#45;&gt;Dan F&#45;M</title>
<path fill="none" stroke="black" stroke-dasharray="1,5" d="M358.669,-93.2561C347.126,-81.0078 332.543,-65.5337 320.058,-52.2855"/>
<polygon fill="black" stroke="black" points="322.394,-49.6606 312.988,-44.7835 317.299,-54.4615 322.394,-49.6606"/>
<text text-anchor="middle" x="387.745" y="-65.6548" font-family="sans-serif" font-size="12.00" fill="red">machine learning</text>
</g>
<!-- Jessie Dotson&#45;&gt;breakout -->
<g id="edge3" class="edge"><title>Jessie Dotson&#45;&gt;breakout</title>
<path fill="none" stroke="black" stroke-dasharray="1,5" d="M414.859,-94.2228C422.731,-88.6878 430.625,-82.2691 437.05,-75.2548 442.714,-69.0719 447.712,-61.5882 451.895,-54.2602"/>
<polygon fill="black" stroke="black" points="455.125,-55.6412 456.744,-45.1709 448.949,-52.346 455.125,-55.6412"/>
<text text-anchor="middle" x="472.06" y="-65.6548" font-family="sans-serif" font-size="12.00" fill="red">GAIA DRI</text>
</g>
<!-- Jessie Dotson&#45;&gt;Jonathan Whitmore -->
<g id="edge4" class="edge"><title>Jessie Dotson&#45;&gt;Jonathan Whitmore</title>
<path fill="none" stroke="black" stroke-dasharray="1,5" d="M445.608,-97.0708C500.872,-82.2816 579.696,-61.1876 638.7,-45.3975"/>
<polygon fill="black" stroke="black" points="639.607,-48.778 648.362,-42.8117 637.798,-42.0159 639.607,-48.778"/>
<text text-anchor="middle" x="589.726" y="-65.6548" font-family="sans-serif" font-size="12.00" fill="red">Jupyter</text>
</g>
</g>
</svg>
