<?xml version="1.0" encoding="UTF-8" standalone="no"?>
<!DOCTYPE svg PUBLIC "-//W3C//DTD SVG 1.1//EN"
 "http://www.w3.org/Graphics/SVG/1.1/DTD/svg11.dtd">
<!-- Generated by graphviz version 2.38.0 (20140413.2041)
 -->
<!-- Title: G Pages: 1 -->
<svg width="1009pt" height="147pt"
 viewBox="0.00 0.00 1008.72 146.51" xmlns="http://www.w3.org/2000/svg" xmlns:xlink="http://www.w3.org/1999/xlink">
<g id="graph0" class="graph" transform="scale(1 1) rotate(0) translate(4 142.51)">
<title>G</title>
<polygon fill="white" stroke="none" points="-4,4 -4,-142.51 1004.72,-142.51 1004.72,4 -4,4"/>
<!-- Megan Shabram -->
<g id="node1" class="node"><title>Megan Shabram</title>
<ellipse fill="black" stroke="black" cx="136.778" cy="-22.6274" rx="136.557" ry="22.7556"/>
<text text-anchor="middle" x="136.778" y="-15.4274" font-family="sans-serif" font-size="24.00" fill="white">Megan Shabram</text>
</g>
<!-- Jessie Dotson -->
<g id="node2" class="node"><title>Jessie Dotson</title>
<ellipse fill="black" stroke="black" cx="462.778" cy="-115.882" rx="117.804" ry="22.7556"/>
<text text-anchor="middle" x="462.778" y="-108.682" font-family="sans-serif" font-size="24.00" fill="white">Jessie Dotson</text>
</g>
<!-- Jessie Dotson&#45;&gt;Megan Shabram -->
<g id="edge1" class="edge"><title>Jessie Dotson&#45;&gt;Megan Shabram</title>
<path fill="none" stroke="black" stroke-dasharray="1,5" d="M395.938,-97.1951C370.672,-90.4345 341.678,-82.5875 315.39,-75.2548 281.155,-65.7058 243.327,-54.8201 211.33,-45.5142"/>
<polygon fill="black" stroke="black" points="212.178,-42.1156 201.598,-42.68 210.221,-48.8364 212.178,-42.1156"/>
<text text-anchor="middle" x="361.473" y="-65.6548" font-family="sans-serif" font-size="12.00" fill="red">machine learning</text>
</g>
<!-- breakout -->
<g id="node3" class="node"><title>breakout</title>
<ellipse fill="black" stroke="black" cx="368.778" cy="-22.6274" rx="77.213" ry="22.7556"/>
<text text-anchor="middle" x="368.778" y="-15.4274" font-family="sans-serif" font-size="24.00" fill="white">breakout</text>
</g>
<!-- Jessie Dotson&#45;&gt;breakout -->
<g id="edge2" class="edge"><title>Jessie Dotson&#45;&gt;breakout</title>
<path fill="none" stroke="black" stroke-dasharray="1,5" d="M440.502,-93.2561C427.675,-80.8044 411.415,-65.0189 397.62,-51.6273"/>
<polygon fill="black" stroke="black" points="399.861,-48.9244 390.248,-44.4702 394.985,-53.947 399.861,-48.9244"/>
<text text-anchor="middle" x="447.788" y="-65.6548" font-family="sans-serif" font-size="12.00" fill="red">GAIA DRI</text>
</g>
<!-- Zach Pace -->
<g id="node4" class="node"><title>Zach Pace</title>
<ellipse fill="black" stroke="black" cx="556.778" cy="-22.6274" rx="92.3753" ry="22.7556"/>
<text text-anchor="middle" x="556.778" y="-15.4274" font-family="sans-serif" font-size="24.00" fill="white">Zach Pace</text>
</g>
<!-- Jessie Dotson&#45;&gt;Zach Pace -->
<g id="edge3" class="edge"><title>Jessie Dotson&#45;&gt;Zach Pace</title>
<path fill="none" stroke="black" stroke-dasharray="1,5" d="M485.055,-93.2561C497.79,-80.8934 513.909,-65.2442 527.64,-51.9146"/>
<polygon fill="black" stroke="black" points="530.249,-54.2603 534.986,-44.7835 525.373,-49.2378 530.249,-54.2603"/>
<text text-anchor="middle" x="535.454" y="-65.6548" font-family="sans-serif" font-size="12.00" fill="red">Jupyter</text>
</g>
<!-- Adrian Price&#45;Whelan -->
<g id="node5" class="node"><title>Adrian Price&#45;Whelan</title>
<ellipse fill="black" stroke="black" cx="833.778" cy="-22.6274" rx="166.881" ry="22.7556"/>
<text text-anchor="middle" x="833.778" y="-15.4274" font-family="sans-serif" font-size="24.00" fill="white">Adrian Price&#45;Whelan</text>
</g>
<!-- Jessie Dotson&#45;&gt;Adrian Price&#45;Whelan -->
<g id="edge4" class="edge"><title>Jessie Dotson&#45;&gt;Adrian Price&#45;Whelan</title>
<path fill="none" stroke="black" stroke-dasharray="1,5" d="M532.997,-97.6106C593.54,-82.7187 681.229,-61.15 746.318,-45.1399"/>
<polygon fill="black" stroke="black" points="747.283,-48.5071 756.157,-42.7199 745.611,-41.7097 747.283,-48.5071"/>
<text text-anchor="middle" x="749.484" y="-65.6548" font-family="sans-serif" font-size="12.00" fill="red">probabilistic graphical models</text>
</g>
</g>
</svg>
