<?xml version="1.0" encoding="UTF-8" standalone="no"?>
<!DOCTYPE svg PUBLIC "-//W3C//DTD SVG 1.1//EN"
 "http://www.w3.org/Graphics/SVG/1.1/DTD/svg11.dtd">
<!-- Generated by graphviz version 2.38.0 (20140413.2041)
 -->
<!-- Title: G Pages: 1 -->
<svg width="408pt" height="147pt"
 viewBox="0.00 0.00 407.51 146.51" xmlns="http://www.w3.org/2000/svg" xmlns:xlink="http://www.w3.org/1999/xlink">
<g id="graph0" class="graph" transform="scale(1 1) rotate(0) translate(4 142.51)">
<title>G</title>
<polygon fill="white" stroke="none" points="-4,4 -4,-142.51 403.51,-142.51 403.51,4 -4,4"/>
<!-- Phil Marshall -->
<g id="node1" class="node"><title>Phil Marshall</title>
<ellipse fill="black" stroke="black" cx="108.455" cy="-22.6274" rx="108.411" ry="22.7556"/>
<text text-anchor="middle" x="108.455" y="-15.4274" font-family="sans-serif" font-size="24.00" fill="white">Phil Marshall</text>
</g>
<!-- breakout -->
<g id="node2" class="node"><title>breakout</title>
<ellipse fill="black" stroke="black" cx="312.455" cy="-22.6274" rx="77.213" ry="22.7556"/>
<text text-anchor="middle" x="312.455" y="-15.4274" font-family="sans-serif" font-size="24.00" fill="white">breakout</text>
</g>
<!-- Dalya Baron -->
<g id="node3" class="node"><title>Dalya Baron</title>
<ellipse fill="black" stroke="black" cx="210.455" cy="-115.882" rx="104.903" ry="22.7556"/>
<text text-anchor="middle" x="210.455" y="-108.682" font-family="sans-serif" font-size="24.00" fill="white">Dalya Baron</text>
</g>
<!-- Dalya Baron&#45;&gt;Phil Marshall -->
<g id="edge1" class="edge"><title>Dalya Baron&#45;&gt;Phil Marshall</title>
<path fill="none" stroke="black" stroke-dasharray="1,5" d="M161.321,-95.8639C151.111,-90.3196 141.04,-83.484 133.043,-75.2548 127.351,-69.3977 122.779,-61.9736 119.194,-54.5945"/>
<polygon fill="black" stroke="black" points="122.384,-53.1534 115.171,-45.3929 115.97,-55.9576 122.384,-53.1534"/>
<text text-anchor="middle" x="212.161" y="-65.6548" font-family="sans-serif" font-size="12.00" fill="red">probabilistic graphical models</text>
</g>
<!-- Dalya Baron&#45;&gt;breakout -->
<g id="edge2" class="edge"><title>Dalya Baron&#45;&gt;breakout</title>
<path fill="none" stroke="black" stroke-dasharray="1,5" d="M261.909,-96.1395C272.302,-90.6064 282.473,-83.7059 290.455,-75.2548 295.836,-69.5573 300.008,-62.3432 303.199,-55.1281"/>
<polygon fill="black" stroke="black" points="306.607,-56.0197 306.963,-45.4309 300.082,-53.4863 306.607,-56.0197"/>
<text text-anchor="middle" x="349.483" y="-65.6548" font-family="sans-serif" font-size="12.00" fill="red">stochastic gradient</text>
</g>
</g>
</svg>
