<?xml version="1.0" encoding="UTF-8" standalone="no"?>
<!DOCTYPE svg PUBLIC "-//W3C//DTD SVG 1.1//EN"
 "http://www.w3.org/Graphics/SVG/1.1/DTD/svg11.dtd">
<!-- Generated by graphviz version 2.38.0 (20140413.2041)
 -->
<!-- Title: G Pages: 1 -->
<svg width="853pt" height="147pt"
 viewBox="0.00 0.00 852.77 146.51" xmlns="http://www.w3.org/2000/svg" xmlns:xlink="http://www.w3.org/1999/xlink">
<g id="graph0" class="graph" transform="scale(1 1) rotate(0) translate(4 142.51)">
<title>G</title>
<polygon fill="white" stroke="none" points="-4,4 -4,-142.51 848.77,-142.51 848.77,4 -4,4"/>
<!-- Dan F&#45;M -->
<g id="node1" class="node"><title>Dan F&#45;M</title>
<ellipse fill="black" stroke="black" cx="77.3149" cy="-22.6274" rx="77.1303" ry="22.7556"/>
<text text-anchor="middle" x="77.3149" y="-15.4274" font-family="sans-serif" font-size="24.00" fill="white">Dan F&#45;M</text>
</g>
<!-- breakout -->
<g id="node2" class="node"><title>breakout</title>
<ellipse fill="black" stroke="black" cx="250.315" cy="-22.6274" rx="77.213" ry="22.7556"/>
<text text-anchor="middle" x="250.315" y="-15.4274" font-family="sans-serif" font-size="24.00" fill="white">breakout</text>
</g>
<!-- Grigor Aslanyan -->
<g id="node3" class="node"><title>Grigor Aslanyan</title>
<ellipse fill="black" stroke="black" cx="477.315" cy="-22.6274" rx="132.127" ry="22.7556"/>
<text text-anchor="middle" x="477.315" y="-15.4274" font-family="sans-serif" font-size="24.00" fill="white">Grigor Aslanyan</text>
</g>
<!-- Phil Marshall -->
<g id="node4" class="node"><title>Phil Marshall</title>
<ellipse fill="black" stroke="black" cx="736.315" cy="-22.6274" rx="108.411" ry="22.7556"/>
<text text-anchor="middle" x="736.315" y="-15.4274" font-family="sans-serif" font-size="24.00" fill="white">Phil Marshall</text>
</g>
<!-- Dalya Baron -->
<g id="node5" class="node"><title>Dalya Baron</title>
<ellipse fill="black" stroke="black" cx="363.315" cy="-115.882" rx="104.903" ry="22.7556"/>
<text text-anchor="middle" x="363.315" y="-108.682" font-family="sans-serif" font-size="24.00" fill="white">Dalya Baron</text>
</g>
<!-- Dalya Baron&#45;&gt;Dan F&#45;M -->
<g id="edge1" class="edge"><title>Dalya Baron&#45;&gt;Dan F&#45;M</title>
<path fill="none" stroke="black" stroke-dasharray="1,5" d="M306.469,-96.7441C257.75,-81.1995 187.763,-58.8683 137.975,-42.9823"/>
<polygon fill="black" stroke="black" points="138.889,-39.6003 128.299,-39.8949 136.761,-46.2691 138.889,-39.6003"/>
<text text-anchor="middle" x="257.891" y="-65.6548" font-family="sans-serif" font-size="12.00" fill="red">autodiff</text>
</g>
<!-- Dalya Baron&#45;&gt;breakout -->
<g id="edge2" class="edge"><title>Dalya Baron&#45;&gt;breakout</title>
<path fill="none" stroke="black" stroke-dasharray="1,5" d="M337.39,-93.9465C321.488,-81.1039 300.96,-64.5266 283.83,-50.6933"/>
<polygon fill="black" stroke="black" points="285.708,-47.711 275.729,-44.1512 281.31,-53.157 285.708,-47.711"/>
<text text-anchor="middle" x="364.342" y="-65.6548" font-family="sans-serif" font-size="12.00" fill="red">stochastic gradient</text>
</g>
<!-- Dalya Baron&#45;&gt;Grigor Aslanyan -->
<g id="edge3" class="edge"><title>Dalya Baron&#45;&gt;Grigor Aslanyan</title>
<path fill="none" stroke="black" stroke-dasharray="1,5" d="M393.382,-93.9981C401.585,-88.0913 410.392,-81.5527 418.315,-75.2548 427.627,-67.8528 437.458,-59.4875 446.367,-51.6794"/>
<polygon fill="black" stroke="black" points="448.75,-54.2449 453.924,-44.9994 444.113,-49.0004 448.75,-54.2449"/>
<text text-anchor="middle" x="485.345" y="-65.6548" font-family="sans-serif" font-size="12.00" fill="red">gaussian processes</text>
</g>
<!-- Dalya Baron&#45;&gt;Phil Marshall -->
<g id="edge4" class="edge"><title>Dalya Baron&#45;&gt;Phil Marshall</title>
<path fill="none" stroke="black" stroke-dasharray="1,5" d="M436.198,-99.477C468.744,-92.4101 507.525,-83.7309 542.315,-75.2548 582.398,-65.4891 626.891,-53.7165 663.146,-43.8807"/>
<polygon fill="black" stroke="black" points="664.412,-47.1636 673.142,-41.1612 662.574,-40.409 664.412,-47.1636"/>
<text text-anchor="middle" x="670.021" y="-65.6548" font-family="sans-serif" font-size="12.00" fill="red">probabilistic graphical models</text>
</g>
</g>
</svg>
