<?xml version="1.0" encoding="UTF-8" standalone="no"?>
<!DOCTYPE svg PUBLIC "-//W3C//DTD SVG 1.1//EN"
 "http://www.w3.org/Graphics/SVG/1.1/DTD/svg11.dtd">
<!-- Generated by graphviz version 2.38.0 (20140413.2041)
 -->
<!-- Title: G Pages: 1 -->
<svg width="454pt" height="147pt"
 viewBox="0.00 0.00 454.11 146.51" xmlns="http://www.w3.org/2000/svg" xmlns:xlink="http://www.w3.org/1999/xlink">
<g id="graph0" class="graph" transform="scale(1 1) rotate(0) translate(4 142.51)">
<title>G</title>
<polygon fill="white" stroke="none" points="-4,4 -4,-142.51 450.11,-142.51 450.11,4 -4,4"/>
<!-- Layne Price -->
<g id="node1" class="node"><title>Layne Price</title>
<ellipse fill="black" stroke="black" cx="100.931" cy="-22.6274" rx="100.862" ry="22.7556"/>
<text text-anchor="middle" x="100.931" y="-15.4274" font-family="sans-serif" font-size="24.00" fill="white">Layne Price</text>
</g>
<!-- Adam Becker -->
<g id="node2" class="node"><title>Adam Becker</title>
<ellipse fill="black" stroke="black" cx="332.931" cy="-22.6274" rx="113.357" ry="22.7556"/>
<text text-anchor="middle" x="332.931" y="-15.4274" font-family="sans-serif" font-size="24.00" fill="white">Adam Becker</text>
</g>
<!-- Lucas Secco -->
<g id="node3" class="node"><title>Lucas Secco</title>
<ellipse fill="black" stroke="black" cx="216.931" cy="-115.882" rx="108.46" ry="22.7556"/>
<text text-anchor="middle" x="216.931" y="-108.682" font-family="sans-serif" font-size="24.00" fill="white">Lucas Secco</text>
</g>
<!-- Lucas Secco&#45;&gt;Layne Price -->
<g id="edge1" class="edge"><title>Lucas Secco&#45;&gt;Layne Price</title>
<path fill="none" stroke="black" stroke-dasharray="1,5" d="M190.027,-93.7172C173.922,-81.0479 153.276,-64.8061 135.914,-51.148"/>
<polygon fill="black" stroke="black" points="137.713,-48.1098 127.69,-44.6777 133.385,-53.6115 137.713,-48.1098"/>
<text text-anchor="middle" x="211.626" y="-65.6548" font-family="sans-serif" font-size="12.00" fill="red">machine learning</text>
</g>
<!-- Lucas Secco&#45;&gt;Adam Becker -->
<g id="edge2" class="edge"><title>Lucas Secco&#45;&gt;Adam Becker</title>
<path fill="none" stroke="black" stroke-dasharray="1,5" d="M243.836,-93.7172C259.94,-81.0479 280.586,-64.8061 297.948,-51.148"/>
<polygon fill="black" stroke="black" points="300.477,-53.6115 306.173,-44.6777 296.149,-48.1098 300.477,-53.6115"/>
<text text-anchor="middle" x="300.607" y="-65.6548" font-family="sans-serif" font-size="12.00" fill="red">Jupyter</text>
</g>
</g>
</svg>
