<?xml version="1.0" encoding="UTF-8" standalone="no"?>
<!DOCTYPE svg PUBLIC "-//W3C//DTD SVG 1.1//EN"
 "http://www.w3.org/Graphics/SVG/1.1/DTD/svg11.dtd">
<!-- Generated by graphviz version 2.38.0 (20140413.2041)
 -->
<!-- Title: G Pages: 1 -->
<svg width="836pt" height="147pt"
 viewBox="0.00 0.00 835.71 146.51" xmlns="http://www.w3.org/2000/svg" xmlns:xlink="http://www.w3.org/1999/xlink">
<g id="graph0" class="graph" transform="scale(1 1) rotate(0) translate(4 142.51)">
<title>G</title>
<polygon fill="white" stroke="none" points="-4,4 -4,-142.51 831.709,-142.51 831.709,4 -4,4"/>
<!-- Megan Shabram -->
<g id="node1" class="node"><title>Megan Shabram</title>
<ellipse fill="black" stroke="black" cx="136.778" cy="-22.6274" rx="136.557" ry="22.7556"/>
<text text-anchor="middle" x="136.778" y="-15.4274" font-family="sans-serif" font-size="24.00" fill="white">Megan Shabram</text>
</g>
<!-- Jonathan Whitmore -->
<g id="node2" class="node"><title>Jonathan Whitmore</title>
<ellipse fill="black" stroke="black" cx="449.778" cy="-22.6274" rx="158.427" ry="22.7556"/>
<text text-anchor="middle" x="449.778" y="-15.4274" font-family="sans-serif" font-size="24.00" fill="white">Jonathan Whitmore</text>
</g>
<!-- Lucas Secco -->
<g id="node3" class="node"><title>Lucas Secco</title>
<ellipse fill="black" stroke="black" cx="449.778" cy="-115.882" rx="108.46" ry="22.7556"/>
<text text-anchor="middle" x="449.778" y="-108.682" font-family="sans-serif" font-size="24.00" fill="white">Lucas Secco</text>
</g>
<!-- Lucas Secco&#45;&gt;Megan Shabram -->
<g id="edge1" class="edge"><title>Lucas Secco&#45;&gt;Megan Shabram</title>
<path fill="none" stroke="black" stroke-dasharray="1,5" d="M388.686,-97.0708C338.022,-82.2998 265.786,-61.2396 211.649,-45.456"/>
<polygon fill="black" stroke="black" points="212.34,-42.0118 201.76,-42.5729 210.381,-48.732 212.34,-42.0118"/>
<text text-anchor="middle" x="329.126" y="-65.6548" font-family="sans-serif" font-size="12.00" fill="red">github</text>
</g>
<!-- Lucas Secco&#45;&gt;Jonathan Whitmore -->
<g id="edge2" class="edge"><title>Lucas Secco&#45;&gt;Jonathan Whitmore</title>
<path fill="none" stroke="black" stroke-dasharray="1,5" d="M449.778,-92.792C449.778,-81.6951 449.778,-68.0403 449.778,-55.8032"/>
<polygon fill="black" stroke="black" points="453.278,-55.5142 449.778,-45.5142 446.278,-55.5143 453.278,-55.5142"/>
<text text-anchor="middle" x="469.454" y="-65.6548" font-family="sans-serif" font-size="12.00" fill="red">Jupyter</text>
</g>
<!-- Layne Price -->
<g id="node4" class="node"><title>Layne Price</title>
<ellipse fill="black" stroke="black" cx="726.778" cy="-22.6274" rx="100.862" ry="22.7556"/>
<text text-anchor="middle" x="726.778" y="-15.4274" font-family="sans-serif" font-size="24.00" fill="white">Layne Price</text>
</g>
<!-- Lucas Secco&#45;&gt;Layne Price -->
<g id="edge3" class="edge"><title>Lucas Secco&#45;&gt;Layne Price</title>
<path fill="none" stroke="black" stroke-dasharray="1,5" d="M505.833,-96.4155C551.09,-81.5062 614.812,-60.5136 662.201,-44.9016"/>
<polygon fill="black" stroke="black" points="663.349,-48.2086 671.752,-41.7553 661.159,-41.5601 663.349,-48.2086"/>
<text text-anchor="middle" x="651.473" y="-65.6548" font-family="sans-serif" font-size="12.00" fill="red">machine learning</text>
</g>
</g>
</svg>
