<?xml version="1.0" encoding="UTF-8" standalone="no"?>
<!DOCTYPE svg PUBLIC "-//W3C//DTD SVG 1.1//EN"
 "http://www.w3.org/Graphics/SVG/1.1/DTD/svg11.dtd">
<!-- Generated by graphviz version 2.38.0 (20140413.2041)
 -->
<!-- Title: G Pages: 1 -->
<svg width="845pt" height="147pt"
 viewBox="0.00 0.00 844.96 146.51" xmlns="http://www.w3.org/2000/svg" xmlns:xlink="http://www.w3.org/1999/xlink">
<g id="graph0" class="graph" transform="scale(1 1) rotate(0) translate(4 142.51)">
<title>G</title>
<polygon fill="white" stroke="none" points="-4,4 -4,-142.51 840.961,-142.51 840.961,4 -4,4"/>
<!-- Brigitta Sipocz -->
<g id="node1" class="node"><title>Brigitta Sipocz</title>
<ellipse fill="black" stroke="black" cx="119.783" cy="-22.6274" rx="119.566" ry="22.7556"/>
<text text-anchor="middle" x="119.783" y="-15.4274" font-family="sans-serif" font-size="24.00" fill="white">Brigitta Sipocz</text>
</g>
<!-- Dan F&#45;M -->
<g id="node2" class="node"><title>Dan F&#45;M</title>
<ellipse fill="black" stroke="black" cx="334.783" cy="-22.6274" rx="77.1303" ry="22.7556"/>
<text text-anchor="middle" x="334.783" y="-15.4274" font-family="sans-serif" font-size="24.00" fill="white">Dan F&#45;M</text>
</g>
<!-- breakout -->
<g id="node3" class="node"><title>breakout</title>
<ellipse fill="black" stroke="black" cx="514.783" cy="-22.6274" rx="77.213" ry="22.7556"/>
<text text-anchor="middle" x="514.783" y="-15.4274" font-family="sans-serif" font-size="24.00" fill="white">breakout</text>
</g>
<!-- Adam Becker -->
<g id="node4" class="node"><title>Adam Becker</title>
<ellipse fill="black" stroke="black" cx="723.783" cy="-22.6274" rx="113.357" ry="22.7556"/>
<text text-anchor="middle" x="723.783" y="-15.4274" font-family="sans-serif" font-size="24.00" fill="white">Adam Becker</text>
</g>
<!-- Madhura Killedar -->
<g id="node5" class="node"><title>Madhura Killedar</title>
<ellipse fill="black" stroke="black" cx="424.783" cy="-115.882" rx="139.708" ry="22.7556"/>
<text text-anchor="middle" x="424.783" y="-108.682" font-family="sans-serif" font-size="24.00" fill="white">Madhura Killedar</text>
</g>
<!-- Madhura Killedar&#45;&gt;Brigitta Sipocz -->
<g id="edge1" class="edge"><title>Madhura Killedar&#45;&gt;Brigitta Sipocz</title>
<path fill="none" stroke="black" stroke-dasharray="1,5" d="M360.665,-95.7457C338.898,-89.246 314.437,-81.9381 292.095,-75.2548 259.023,-65.3619 222.386,-54.3869 191.427,-45.1086"/>
<polygon fill="black" stroke="black" points="192.171,-41.6778 181.587,-42.1594 190.161,-48.3831 192.171,-41.6778"/>
<text text-anchor="middle" x="310.127" y="-65.6548" font-family="sans-serif" font-size="12.00" fill="red">sphinx</text>
</g>
<!-- Madhura Killedar&#45;&gt;Dan F&#45;M -->
<g id="edge2" class="edge"><title>Madhura Killedar&#45;&gt;Dan F&#45;M</title>
<path fill="none" stroke="black" stroke-dasharray="1,5" d="M358.099,-95.9878C349.127,-90.6814 341.068,-83.9041 335.371,-75.2548 331.528,-69.4208 329.97,-62.354 329.662,-55.3456"/>
<polygon fill="black" stroke="black" points="333.163,-55.377 329.986,-45.2699 326.167,-55.1524 333.163,-55.377"/>
<text text-anchor="middle" x="414.489" y="-65.6548" font-family="sans-serif" font-size="12.00" fill="red">probabilistic graphical models</text>
</g>
<!-- Madhura Killedar&#45;&gt;breakout -->
<g id="edge3" class="edge"><title>Madhura Killedar&#45;&gt;breakout</title>
<path fill="none" stroke="black" stroke-dasharray="1,5" d="M469.584,-94.3281C478.047,-88.9936 486.274,-82.6317 492.783,-75.2548 497.968,-69.3784 502.067,-62.0978 505.25,-54.8756"/>
<polygon fill="black" stroke="black" points="508.651,-55.7884 509.039,-45.2007 502.133,-53.2357 508.651,-55.7884"/>
<text text-anchor="middle" x="550.81" y="-65.6548" font-family="sans-serif" font-size="12.00" fill="red">stochastic gradient</text>
</g>
<!-- Madhura Killedar&#45;&gt;Adam Becker -->
<g id="edge4" class="edge"><title>Madhura Killedar&#45;&gt;Adam Becker</title>
<path fill="none" stroke="black" stroke-dasharray="1,5" d="M514.959,-98.585C543.957,-92.4029 576.014,-84.5662 604.783,-75.2548 627.822,-67.7979 652.503,-57.4965 673.38,-48.0558"/>
<polygon fill="black" stroke="black" points="675.052,-51.1396 682.686,-43.7921 672.137,-44.7759 675.052,-51.1396"/>
<text text-anchor="middle" x="658.459" y="-65.6548" font-family="sans-serif" font-size="12.00" fill="red">Jupyter</text>
</g>
</g>
</svg>
