<?xml version="1.0" encoding="UTF-8" standalone="no"?>
<!DOCTYPE svg PUBLIC "-//W3C//DTD SVG 1.1//EN"
 "http://www.w3.org/Graphics/SVG/1.1/DTD/svg11.dtd">
<!-- Generated by graphviz version 2.38.0 (20140413.2041)
 -->
<!-- Title: G Pages: 1 -->
<svg width="1279pt" height="147pt"
 viewBox="0.00 0.00 1278.92 146.51" xmlns="http://www.w3.org/2000/svg" xmlns:xlink="http://www.w3.org/1999/xlink">
<g id="graph0" class="graph" transform="scale(1 1) rotate(0) translate(4 142.51)">
<title>G</title>
<polygon fill="white" stroke="none" points="-4,4 -4,-142.51 1274.92,-142.51 1274.92,4 -4,4"/>
<!-- Adrian Price&#45;Whelan -->
<g id="node1" class="node"><title>Adrian Price&#45;Whelan</title>
<ellipse fill="black" stroke="black" cx="166.941" cy="-22.6274" rx="166.881" ry="22.7556"/>
<text text-anchor="middle" x="166.941" y="-15.4274" font-family="sans-serif" font-size="24.00" fill="white">Adrian Price&#45;Whelan</text>
</g>
<!-- Zach Pace -->
<g id="node2" class="node"><title>Zach Pace</title>
<ellipse fill="black" stroke="black" cx="443.941" cy="-22.6274" rx="92.3753" ry="22.7556"/>
<text text-anchor="middle" x="443.941" y="-15.4274" font-family="sans-serif" font-size="24.00" fill="white">Zach Pace</text>
</g>
<!-- Dan F&#45;M -->
<g id="node3" class="node"><title>Dan F&#45;M</title>
<ellipse fill="black" stroke="black" cx="631.941" cy="-22.6274" rx="77.1303" ry="22.7556"/>
<text text-anchor="middle" x="631.941" y="-15.4274" font-family="sans-serif" font-size="24.00" fill="white">Dan F&#45;M</text>
</g>
<!-- breakout -->
<g id="node4" class="node"><title>breakout</title>
<ellipse fill="black" stroke="black" cx="807.941" cy="-22.6274" rx="77.213" ry="22.7556"/>
<text text-anchor="middle" x="807.941" y="-15.4274" font-family="sans-serif" font-size="24.00" fill="white">breakout</text>
</g>
<!-- Daniela Huppenkothen -->
<g id="node5" class="node"><title>Daniela Huppenkothen</title>
<ellipse fill="black" stroke="black" cx="1086.94" cy="-22.6274" rx="183.955" ry="22.7556"/>
<text text-anchor="middle" x="1086.94" y="-15.4274" font-family="sans-serif" font-size="24.00" fill="white">Daniela Huppenkothen</text>
</g>
<!-- Madhura Killedar -->
<g id="node6" class="node"><title>Madhura Killedar</title>
<ellipse fill="black" stroke="black" cx="627.941" cy="-115.882" rx="139.708" ry="22.7556"/>
<text text-anchor="middle" x="627.941" y="-108.682" font-family="sans-serif" font-size="24.00" fill="white">Madhura Killedar</text>
</g>
<!-- Madhura Killedar&#45;&gt;Adrian Price&#45;Whelan -->
<g id="edge5" class="edge"><title>Madhura Killedar&#45;&gt;Adrian Price&#45;Whelan</title>
<path fill="none" stroke="black" stroke-dasharray="1,5" d="M538.812,-98.4416C501.338,-91.4393 457.295,-83.0919 417.546,-75.2548 366.894,-65.2679 310.581,-53.7081 264.187,-44.0619"/>
<polygon fill="black" stroke="black" points="264.644,-40.5822 254.141,-41.9708 263.218,-47.4353 264.644,-40.5822"/>
<text text-anchor="middle" x="469.638" y="-65.6548" font-family="sans-serif" font-size="12.00" fill="red">packaging (Python)</text>
</g>
<!-- Madhura Killedar&#45;&gt;Zach Pace -->
<g id="edge4" class="edge"><title>Madhura Killedar&#45;&gt;Zach Pace</title>
<path fill="none" stroke="black" stroke-dasharray="1,5" d="M586.188,-94.1751C558.347,-80.367 521.648,-62.1665 492.501,-47.7108"/>
<polygon fill="black" stroke="black" points="493.837,-44.4668 483.323,-43.1592 490.727,-50.7379 493.837,-44.4668"/>
<text text-anchor="middle" x="567.617" y="-65.6548" font-family="sans-serif" font-size="12.00" fill="red">Jupyter</text>
</g>
<!-- Madhura Killedar&#45;&gt;Dan F&#45;M -->
<g id="edge1" class="edge"><title>Madhura Killedar&#45;&gt;Dan F&#45;M</title>
<path fill="none" stroke="black" stroke-dasharray="1,5" d="M627.83,-93.0164C627.876,-83.8218 628.054,-73.0137 628.529,-63.2548 628.652,-60.7202 628.81,-58.0966 628.991,-55.4619"/>
<polygon fill="black" stroke="black" points="632.487,-55.6503 629.772,-45.4093 625.508,-55.1083 632.487,-55.6503"/>
<text text-anchor="middle" x="707.647" y="-65.6548" font-family="sans-serif" font-size="12.00" fill="red">probabilistic graphical models</text>
</g>
<!-- Madhura Killedar&#45;&gt;breakout -->
<g id="edge2" class="edge"><title>Madhura Killedar&#45;&gt;breakout</title>
<path fill="none" stroke="black" stroke-dasharray="1,5" d="M736.804,-101.694C754.634,-95.753 771.855,-87.2848 785.941,-75.2548 792.192,-69.916 796.712,-62.4882 799.964,-54.9283"/>
<polygon fill="black" stroke="black" points="803.29,-56.023 803.438,-45.4292 796.716,-53.6183 803.29,-56.023"/>
<text text-anchor="middle" x="813.284" y="-65.6548" font-family="sans-serif" font-size="12.00" fill="red">sphinx</text>
</g>
<!-- Madhura Killedar&#45;&gt;Daniela Huppenkothen -->
<g id="edge3" class="edge"><title>Madhura Killedar&#45;&gt;Daniela Huppenkothen</title>
<path fill="none" stroke="black" stroke-dasharray="1,5" d="M716.125,-98.2608C752.881,-91.2651 795.998,-82.9712 834.941,-75.2548 885.038,-65.3283 940.664,-53.968 986.883,-44.4357"/>
<polygon fill="black" stroke="black" points="987.813,-47.8176 996.899,-42.3683 986.398,-40.9621 987.813,-47.8176"/>
<text text-anchor="middle" x="943.971" y="-65.6548" font-family="sans-serif" font-size="12.00" fill="red">gaussian processes</text>
</g>
</g>
</svg>
