<?xml version="1.0" encoding="UTF-8" standalone="no"?>
<!DOCTYPE svg PUBLIC "-//W3C//DTD SVG 1.1//EN"
 "http://www.w3.org/Graphics/SVG/1.1/DTD/svg11.dtd">
<!-- Generated by graphviz version 2.38.0 (20140413.2041)
 -->
<!-- Title: G Pages: 1 -->
<svg width="336pt" height="147pt"
 viewBox="0.00 0.00 335.67 146.51" xmlns="http://www.w3.org/2000/svg" xmlns:xlink="http://www.w3.org/1999/xlink">
<g id="graph0" class="graph" transform="scale(1 1) rotate(0) translate(4 142.51)">
<title>G</title>
<polygon fill="white" stroke="none" points="-4,4 -4,-142.51 331.671,-142.51 331.671,4 -4,4"/>
<!-- Layne Price -->
<g id="node1" class="node"><title>Layne Price</title>
<ellipse fill="black" stroke="black" cx="163.315" cy="-115.882" rx="100.862" ry="22.7556"/>
<text text-anchor="middle" x="163.315" y="-108.682" font-family="sans-serif" font-size="24.00" fill="white">Layne Price</text>
</g>
<!-- Dan F&#45;M -->
<g id="node2" class="node"><title>Dan F&#45;M</title>
<ellipse fill="black" stroke="black" cx="77.3149" cy="-22.6274" rx="77.1303" ry="22.7556"/>
<text text-anchor="middle" x="77.3149" y="-15.4274" font-family="sans-serif" font-size="24.00" fill="white">Dan F&#45;M</text>
</g>
<!-- Layne Price&#45;&gt;Dan F&#45;M -->
<g id="edge1" class="edge"><title>Layne Price&#45;&gt;Dan F&#45;M</title>
<path fill="none" stroke="black" stroke-dasharray="1,5" d="M142.934,-93.2561C131.391,-81.0078 116.808,-65.5337 104.323,-52.2855"/>
<polygon fill="black" stroke="black" points="106.658,-49.6606 97.2528,-44.7835 101.564,-54.4615 106.658,-49.6606"/>
<text text-anchor="middle" x="154.003" y="-65.6548" font-family="sans-serif" font-size="12.00" fill="red">databases</text>
</g>
<!-- breakout -->
<g id="node3" class="node"><title>breakout</title>
<ellipse fill="black" stroke="black" cx="250.315" cy="-22.6274" rx="77.213" ry="22.7556"/>
<text text-anchor="middle" x="250.315" y="-15.4274" font-family="sans-serif" font-size="24.00" fill="white">breakout</text>
</g>
<!-- Layne Price&#45;&gt;breakout -->
<g id="edge2" class="edge"><title>Layne Price&#45;&gt;breakout</title>
<path fill="none" stroke="black" stroke-dasharray="1,5" d="M183.933,-93.2561C195.61,-81.0078 210.363,-65.5337 222.993,-52.2855"/>
<polygon fill="black" stroke="black" points="225.778,-54.4364 230.145,-44.7835 220.712,-49.6062 225.778,-54.4364"/>
<text text-anchor="middle" x="262.342" y="-65.6548" font-family="sans-serif" font-size="12.00" fill="red">stochastic gradient</text>
</g>
</g>
</svg>
