<?xml version="1.0" encoding="UTF-8" standalone="no"?>
<!DOCTYPE svg PUBLIC "-//W3C//DTD SVG 1.1//EN"
 "http://www.w3.org/Graphics/SVG/1.1/DTD/svg11.dtd">
<!-- Generated by graphviz version 2.38.0 (20140413.2041)
 -->
<!-- Title: G Pages: 1 -->
<svg width="400pt" height="147pt"
 viewBox="0.00 0.00 399.77 146.51" xmlns="http://www.w3.org/2000/svg" xmlns:xlink="http://www.w3.org/1999/xlink">
<g id="graph0" class="graph" transform="scale(1 1) rotate(0) translate(4 142.51)">
<title>G</title>
<polygon fill="white" stroke="none" points="-4,4 -4,-142.51 395.773,-142.51 395.773,4 -4,4"/>
<!-- Layne Price -->
<g id="node1" class="node"><title>Layne Price</title>
<ellipse fill="black" stroke="black" cx="211.416" cy="-115.882" rx="100.862" ry="22.7556"/>
<text text-anchor="middle" x="211.416" y="-108.682" font-family="sans-serif" font-size="24.00" fill="white">Layne Price</text>
</g>
<!-- Usman Khan -->
<g id="node2" class="node"><title>Usman Khan</title>
<ellipse fill="black" stroke="black" cx="109.416" cy="-22.6274" rx="109.333" ry="22.7556"/>
<text text-anchor="middle" x="109.416" y="-15.4274" font-family="sans-serif" font-size="24.00" fill="white">Usman Khan</text>
</g>
<!-- Layne Price&#45;&gt;Usman Khan -->
<g id="edge1" class="edge"><title>Layne Price&#45;&gt;Usman Khan</title>
<path fill="none" stroke="black" stroke-dasharray="1,5" d="M187.759,-93.7172C173.827,-81.2528 156.03,-65.3304 140.92,-51.8125"/>
<polygon fill="black" stroke="black" points="143.085,-49.053 133.299,-44.9938 138.418,-54.2699 143.085,-49.053"/>
<text text-anchor="middle" x="195.105" y="-65.6548" font-family="sans-serif" font-size="12.00" fill="red">databases</text>
</g>
<!-- breakout -->
<g id="node3" class="node"><title>breakout</title>
<ellipse fill="black" stroke="black" cx="314.416" cy="-22.6274" rx="77.213" ry="22.7556"/>
<text text-anchor="middle" x="314.416" y="-15.4274" font-family="sans-serif" font-size="24.00" fill="white">breakout</text>
</g>
<!-- Layne Price&#45;&gt;breakout -->
<g id="edge2" class="edge"><title>Layne Price&#45;&gt;breakout</title>
<path fill="none" stroke="black" stroke-dasharray="1,5" d="M235.306,-93.7172C249.577,-81.0734 267.864,-64.8715 283.261,-51.2306"/>
<polygon fill="black" stroke="black" points="285.848,-53.6143 291.012,-44.3631 281.206,-48.3748 285.848,-53.6143"/>
<text text-anchor="middle" x="319.444" y="-65.6548" font-family="sans-serif" font-size="12.00" fill="red">stochastic gradient</text>
</g>
</g>
</svg>
