<?xml version="1.0" encoding="UTF-8" standalone="no"?>
<!DOCTYPE svg PUBLIC "-//W3C//DTD SVG 1.1//EN"
 "http://www.w3.org/Graphics/SVG/1.1/DTD/svg11.dtd">
<!-- Generated by graphviz version 2.38.0 (20140413.2041)
 -->
<!-- Title: G Pages: 1 -->
<svg width="1173pt" height="147pt"
 viewBox="0.00 0.00 1173.30 146.51" xmlns="http://www.w3.org/2000/svg" xmlns:xlink="http://www.w3.org/1999/xlink">
<g id="graph0" class="graph" transform="scale(1 1) rotate(0) translate(4 142.51)">
<title>G</title>
<polygon fill="white" stroke="none" points="-4,4 -4,-142.51 1169.3,-142.51 1169.3,4 -4,4"/>
<!-- Adrian Price&#45;Whelan -->
<g id="node1" class="node"><title>Adrian Price&#45;Whelan</title>
<ellipse fill="black" stroke="black" cx="166.941" cy="-22.6274" rx="166.881" ry="22.7556"/>
<text text-anchor="middle" x="166.941" y="-15.4274" font-family="sans-serif" font-size="24.00" fill="white">Adrian Price&#45;Whelan</text>
</g>
<!-- Grigor Aslanyan -->
<g id="node2" class="node"><title>Grigor Aslanyan</title>
<ellipse fill="black" stroke="black" cx="483.941" cy="-22.6274" rx="132.127" ry="22.7556"/>
<text text-anchor="middle" x="483.941" y="-15.4274" font-family="sans-serif" font-size="24.00" fill="white">Grigor Aslanyan</text>
</g>
<!-- Adam Becker -->
<g id="node3" class="node"><title>Adam Becker</title>
<ellipse fill="black" stroke="black" cx="726.941" cy="-115.882" rx="113.357" ry="22.7556"/>
<text text-anchor="middle" x="726.941" y="-108.682" font-family="sans-serif" font-size="24.00" fill="white">Adam Becker</text>
</g>
<!-- Adam Becker&#45;&gt;Adrian Price&#45;Whelan -->
<g id="edge5" class="edge"><title>Adam Becker&#45;&gt;Adrian Price&#45;Whelan</title>
<path fill="none" stroke="black" stroke-dasharray="1,5" d="M640.836,-101.114C593.519,-93.528 533.787,-83.9186 480.546,-75.2548 413.875,-64.4057 339.255,-52.1269 279.534,-42.2666"/>
<polygon fill="black" stroke="black" points="279.76,-38.7566 269.324,-40.5803 278.62,-45.663 279.76,-38.7566"/>
<text text-anchor="middle" x="532.638" y="-65.6548" font-family="sans-serif" font-size="12.00" fill="red">packaging (Python)</text>
</g>
<!-- Adam Becker&#45;&gt;Grigor Aslanyan -->
<g id="edge3" class="edge"><title>Adam Becker&#45;&gt;Grigor Aslanyan</title>
<path fill="none" stroke="black" stroke-dasharray="1,5" d="M673.382,-95.8996C655.391,-89.443 635.235,-82.1222 616.88,-75.2548 593.039,-66.3349 566.905,-56.2526 544.166,-47.3802"/>
<polygon fill="black" stroke="black" points="545.233,-44.0395 534.645,-43.6588 542.685,-50.5592 545.233,-44.0395"/>
<text text-anchor="middle" x="669.971" y="-65.6548" font-family="sans-serif" font-size="12.00" fill="red">gaussian processes</text>
</g>
<!-- Zach Pace -->
<g id="node4" class="node"><title>Zach Pace</title>
<ellipse fill="black" stroke="black" cx="726.941" cy="-22.6274" rx="92.3753" ry="22.7556"/>
<text text-anchor="middle" x="726.941" y="-15.4274" font-family="sans-serif" font-size="24.00" fill="white">Zach Pace</text>
</g>
<!-- Adam Becker&#45;&gt;Zach Pace -->
<g id="edge4" class="edge"><title>Adam Becker&#45;&gt;Zach Pace</title>
<path fill="none" stroke="black" stroke-dasharray="1,5" d="M726.941,-92.792C726.941,-81.6951 726.941,-68.0403 726.941,-55.8032"/>
<polygon fill="black" stroke="black" points="730.441,-55.5142 726.941,-45.5142 723.441,-55.5143 730.441,-55.5142"/>
<text text-anchor="middle" x="782.285" y="-65.6548" font-family="sans-serif" font-size="12.00" fill="red">astronomy cirriculum</text>
</g>
<!-- Dan F&#45;M -->
<g id="node5" class="node"><title>Dan F&#45;M</title>
<ellipse fill="black" stroke="black" cx="914.941" cy="-22.6274" rx="77.1303" ry="22.7556"/>
<text text-anchor="middle" x="914.941" y="-15.4274" font-family="sans-serif" font-size="24.00" fill="white">Dan F&#45;M</text>
</g>
<!-- Adam Becker&#45;&gt;Dan F&#45;M -->
<g id="edge1" class="edge"><title>Adam Becker&#45;&gt;Dan F&#45;M</title>
<path fill="none" stroke="black" stroke-dasharray="1,5" d="M789.449,-96.934C806.86,-90.9806 825.498,-83.684 841.941,-75.2548 855.502,-68.303 869.397,-59.0907 881.376,-50.374"/>
<polygon fill="black" stroke="black" points="883.799,-52.934 889.728,-44.1538 879.618,-47.3199 883.799,-52.934"/>
<text text-anchor="middle" x="907.635" y="-65.6548" font-family="sans-serif" font-size="12.00" fill="red">machine learning</text>
</g>
<!-- breakout -->
<g id="node6" class="node"><title>breakout</title>
<ellipse fill="black" stroke="black" cx="1087.94" cy="-22.6274" rx="77.213" ry="22.7556"/>
<text text-anchor="middle" x="1087.94" y="-15.4274" font-family="sans-serif" font-size="24.00" fill="white">breakout</text>
</g>
<!-- Adam Becker&#45;&gt;breakout -->
<g id="edge2" class="edge"><title>Adam Becker&#45;&gt;breakout</title>
<path fill="none" stroke="black" stroke-dasharray="1,5" d="M820.791,-103.158C862.87,-96.7682 912.85,-87.6005 956.941,-75.2548 984.476,-67.5447 1014.2,-56.1017 1038.36,-45.9468"/>
<polygon fill="black" stroke="black" points="1039.84,-49.1206 1047.67,-41.9827 1037.1,-42.6801 1039.84,-49.1206"/>
<text text-anchor="middle" x="1011.28" y="-65.6548" font-family="sans-serif" font-size="12.00" fill="red">sphinx</text>
</g>
</g>
</svg>
