<?xml version="1.0" encoding="UTF-8" standalone="no"?>
<!DOCTYPE svg PUBLIC "-//W3C//DTD SVG 1.1//EN"
 "http://www.w3.org/Graphics/SVG/1.1/DTD/svg11.dtd">
<!-- Generated by graphviz version 2.38.0 (20140413.2041)
 -->
<!-- Title: G Pages: 1 -->
<svg width="843pt" height="147pt"
 viewBox="0.00 0.00 843.41 146.51" xmlns="http://www.w3.org/2000/svg" xmlns:xlink="http://www.w3.org/1999/xlink">
<g id="graph0" class="graph" transform="scale(1 1) rotate(0) translate(4 142.51)">
<title>G</title>
<polygon fill="white" stroke="none" points="-4,4 -4,-142.51 839.407,-142.51 839.407,4 -4,4"/>
<!-- Ben Nelson -->
<g id="node1" class="node"><title>Ben Nelson</title>
<ellipse fill="black" stroke="black" cx="99.0502" cy="-22.6274" rx="99.1004" ry="22.7556"/>
<text text-anchor="middle" x="99.0502" y="-15.4274" font-family="sans-serif" font-size="24.00" fill="white">Ben Nelson</text>
</g>
<!-- Megan Shabram -->
<g id="node2" class="node"><title>Megan Shabram</title>
<ellipse fill="black" stroke="black" cx="353.05" cy="-22.6274" rx="136.557" ry="22.7556"/>
<text text-anchor="middle" x="353.05" y="-15.4274" font-family="sans-serif" font-size="24.00" fill="white">Megan Shabram</text>
</g>
<!-- Dan F&#45;M -->
<g id="node3" class="node"><title>Dan F&#45;M</title>
<ellipse fill="black" stroke="black" cx="585.05" cy="-22.6274" rx="77.1303" ry="22.7556"/>
<text text-anchor="middle" x="585.05" y="-15.4274" font-family="sans-serif" font-size="24.00" fill="white">Dan F&#45;M</text>
</g>
<!-- breakout -->
<g id="node4" class="node"><title>breakout</title>
<ellipse fill="black" stroke="black" cx="758.05" cy="-22.6274" rx="77.213" ry="22.7556"/>
<text text-anchor="middle" x="758.05" y="-15.4274" font-family="sans-serif" font-size="24.00" fill="white">breakout</text>
</g>
<!-- Adam Becker -->
<g id="node5" class="node"><title>Adam Becker</title>
<ellipse fill="black" stroke="black" cx="469.05" cy="-115.882" rx="113.357" ry="22.7556"/>
<text text-anchor="middle" x="469.05" y="-108.682" font-family="sans-serif" font-size="24.00" fill="white">Adam Becker</text>
</g>
<!-- Adam Becker&#45;&gt;Ben Nelson -->
<g id="edge1" class="edge"><title>Adam Becker&#45;&gt;Ben Nelson</title>
<path fill="none" stroke="black" stroke-dasharray="1,5" d="M393.668,-98.9589C361.727,-92.0063 324.151,-83.5564 290.361,-75.2548 250.204,-65.3892 205.581,-53.4063 169.539,-43.4694"/>
<polygon fill="black" stroke="black" points="170.183,-40.0161 159.611,-40.7244 168.317,-46.7629 170.183,-40.0161"/>
<text text-anchor="middle" x="346.395" y="-65.6548" font-family="sans-serif" font-size="12.00" fill="red">astronomy cirriculum</text>
</g>
<!-- Adam Becker&#45;&gt;Megan Shabram -->
<g id="edge2" class="edge"><title>Adam Becker&#45;&gt;Megan Shabram</title>
<path fill="none" stroke="black" stroke-dasharray="1,5" d="M442.146,-93.7172C426.156,-81.1384 405.69,-65.0379 388.406,-51.4411"/>
<polygon fill="black" stroke="black" points="390.234,-48.4259 380.21,-44.9938 385.906,-53.9276 390.234,-48.4259"/>
<text text-anchor="middle" x="471.08" y="-65.6548" font-family="sans-serif" font-size="12.00" fill="red">gaussian processes</text>
</g>
<!-- Adam Becker&#45;&gt;Dan F&#45;M -->
<g id="edge3" class="edge"><title>Adam Becker&#45;&gt;Dan F&#45;M</title>
<path fill="none" stroke="black" stroke-dasharray="1,5" d="M501.798,-94.1085C510.509,-88.2553 519.789,-81.716 528.05,-75.2548 537.486,-67.8753 547.309,-59.3272 556.089,-51.3359"/>
<polygon fill="black" stroke="black" points="558.523,-53.8528 563.5,-44.5 553.776,-48.7074 558.523,-53.8528"/>
<text text-anchor="middle" x="594.747" y="-65.6548" font-family="sans-serif" font-size="12.00" fill="red">packaging (Python)</text>
</g>
<!-- Adam Becker&#45;&gt;breakout -->
<g id="edge4" class="edge"><title>Adam Becker&#45;&gt;breakout</title>
<path fill="none" stroke="black" stroke-dasharray="1,5" d="M553.055,-100.682C583.979,-94.3649 619.017,-85.9097 650.05,-75.2548 671.672,-67.8314 694.652,-57.2554 713.832,-47.6067"/>
<polygon fill="black" stroke="black" points="715.608,-50.6298 722.92,-42.9625 712.423,-44.3966 715.608,-50.6298"/>
<text text-anchor="middle" x="698.394" y="-65.6548" font-family="sans-serif" font-size="12.00" fill="red">sphinx</text>
</g>
</g>
</svg>
