<?xml version="1.0" encoding="UTF-8" standalone="no"?>
<!DOCTYPE svg PUBLIC "-//W3C//DTD SVG 1.1//EN"
 "http://www.w3.org/Graphics/SVG/1.1/DTD/svg11.dtd">
<!-- Generated by graphviz version 2.38.0 (20140413.2041)
 -->
<!-- Title: G Pages: 1 -->
<svg width="948pt" height="147pt"
 viewBox="0.00 0.00 948.37 146.51" xmlns="http://www.w3.org/2000/svg" xmlns:xlink="http://www.w3.org/1999/xlink">
<g id="graph0" class="graph" transform="scale(1 1) rotate(0) translate(4 142.51)">
<title>G</title>
<polygon fill="white" stroke="none" points="-4,4 -4,-142.51 944.374,-142.51 944.374,4 -4,4"/>
<!-- Brigitta Sipocz -->
<g id="node1" class="node"><title>Brigitta Sipocz</title>
<ellipse fill="black" stroke="black" cx="119.783" cy="-22.6274" rx="119.566" ry="22.7556"/>
<text text-anchor="middle" x="119.783" y="-15.4274" font-family="sans-serif" font-size="24.00" fill="white">Brigitta Sipocz</text>
</g>
<!-- Madhura Killedar -->
<g id="node2" class="node"><title>Madhura Killedar</title>
<ellipse fill="black" stroke="black" cx="396.783" cy="-22.6274" rx="139.708" ry="22.7556"/>
<text text-anchor="middle" x="396.783" y="-15.4274" font-family="sans-serif" font-size="24.00" fill="white">Madhura Killedar</text>
</g>
<!-- breakout -->
<g id="node3" class="node"><title>breakout</title>
<ellipse fill="black" stroke="black" cx="631.783" cy="-22.6274" rx="77.213" ry="22.7556"/>
<text text-anchor="middle" x="631.783" y="-15.4274" font-family="sans-serif" font-size="24.00" fill="white">breakout</text>
</g>
<!-- Adam Becker -->
<g id="node4" class="node"><title>Adam Becker</title>
<ellipse fill="black" stroke="black" cx="513.783" cy="-115.882" rx="113.357" ry="22.7556"/>
<text text-anchor="middle" x="513.783" y="-108.682" font-family="sans-serif" font-size="24.00" fill="white">Adam Becker</text>
</g>
<!-- Adam Becker&#45;&gt;Brigitta Sipocz -->
<g id="edge1" class="edge"><title>Adam Becker&#45;&gt;Brigitta Sipocz</title>
<path fill="none" stroke="black" stroke-dasharray="1,5" d="M441.975,-98.2508C374.563,-82.6374 273.755,-59.2892 202.893,-42.8766"/>
<polygon fill="black" stroke="black" points="203.631,-39.455 193.099,-40.6083 202.052,-46.2745 203.631,-39.455"/>
<text text-anchor="middle" x="358.127" y="-65.6548" font-family="sans-serif" font-size="12.00" fill="red">sphinx</text>
</g>
<!-- Adam Becker&#45;&gt;Madhura Killedar -->
<g id="edge2" class="edge"><title>Adam Becker&#45;&gt;Madhura Killedar</title>
<path fill="none" stroke="black" stroke-dasharray="1,5" d="M486.647,-93.7172C470.519,-81.1384 449.876,-65.0379 432.443,-51.4411"/>
<polygon fill="black" stroke="black" points="434.215,-48.3841 424.177,-44.9938 429.91,-53.9038 434.215,-48.3841"/>
<text text-anchor="middle" x="508.477" y="-65.6548" font-family="sans-serif" font-size="12.00" fill="red">machine learning</text>
</g>
<!-- Adam Becker&#45;&gt;breakout -->
<g id="edge3" class="edge"><title>Adam Becker&#45;&gt;breakout</title>
<path fill="none" stroke="black" stroke-dasharray="1,5" d="M541.151,-93.7172C557.918,-80.7501 579.525,-64.0406 597.436,-50.1892"/>
<polygon fill="black" stroke="black" points="599.605,-52.9362 605.375,-44.05 595.323,-47.3989 599.605,-52.9362"/>
<text text-anchor="middle" x="633.813" y="-65.6548" font-family="sans-serif" font-size="12.00" fill="red">gaussian processes</text>
</g>
<!-- Kate Follette -->
<g id="node5" class="node"><title>Kate Follette</title>
<ellipse fill="black" stroke="black" cx="833.783" cy="-22.6274" rx="106.682" ry="22.7556"/>
<text text-anchor="middle" x="833.783" y="-15.4274" font-family="sans-serif" font-size="24.00" fill="white">Kate Follette</text>
</g>
<!-- Adam Becker&#45;&gt;Kate Follette -->
<g id="edge4" class="edge"><title>Adam Becker&#45;&gt;Kate Follette</title>
<path fill="none" stroke="black" stroke-dasharray="1,5" d="M592.305,-99.5285C623.218,-92.9059 658.886,-84.5431 690.783,-75.2548 719.097,-67.0099 749.934,-56.1281 775.699,-46.4814"/>
<polygon fill="black" stroke="black" points="777.191,-49.6595 785.31,-42.8528 774.718,-43.1108 777.191,-49.6595"/>
<text text-anchor="middle" x="782.128" y="-65.6548" font-family="sans-serif" font-size="12.00" fill="red">astronomy cirriculum</text>
</g>
</g>
</svg>
