<?xml version="1.0" encoding="UTF-8" standalone="no"?>
<!DOCTYPE svg PUBLIC "-//W3C//DTD SVG 1.1//EN"
 "http://www.w3.org/Graphics/SVG/1.1/DTD/svg11.dtd">
<!-- Generated by graphviz version 2.38.0 (20140413.2041)
 -->
<!-- Title: G Pages: 1 -->
<svg width="836pt" height="147pt"
 viewBox="0.00 0.00 835.62 146.51" xmlns="http://www.w3.org/2000/svg" xmlns:xlink="http://www.w3.org/1999/xlink">
<g id="graph0" class="graph" transform="scale(1 1) rotate(0) translate(4 142.51)">
<title>G</title>
<polygon fill="white" stroke="none" points="-4,4 -4,-142.51 831.62,-142.51 831.62,4 -4,4"/>
<!-- Casey Law -->
<g id="node1" class="node"><title>Casey Law</title>
<ellipse fill="black" stroke="black" cx="95.2633" cy="-22.6274" rx="95.0272" ry="22.7556"/>
<text text-anchor="middle" x="95.2633" y="-15.4274" font-family="sans-serif" font-size="24.00" fill="white">Casey Law</text>
</g>
<!-- Megan Shabram -->
<g id="node2" class="node"><title>Megan Shabram</title>
<ellipse fill="black" stroke="black" cx="345.263" cy="-22.6274" rx="136.557" ry="22.7556"/>
<text text-anchor="middle" x="345.263" y="-15.4274" font-family="sans-serif" font-size="24.00" fill="white">Megan Shabram</text>
</g>
<!-- Dan F&#45;M -->
<g id="node3" class="node"><title>Dan F&#45;M</title>
<ellipse fill="black" stroke="black" cx="577.263" cy="-22.6274" rx="77.1303" ry="22.7556"/>
<text text-anchor="middle" x="577.263" y="-15.4274" font-family="sans-serif" font-size="24.00" fill="white">Dan F&#45;M</text>
</g>
<!-- breakout -->
<g id="node4" class="node"><title>breakout</title>
<ellipse fill="black" stroke="black" cx="750.263" cy="-22.6274" rx="77.213" ry="22.7556"/>
<text text-anchor="middle" x="750.263" y="-15.4274" font-family="sans-serif" font-size="24.00" fill="white">breakout</text>
</g>
<!-- Arna Karick -->
<g id="node5" class="node"><title>Arna Karick</title>
<ellipse fill="black" stroke="black" cx="461.263" cy="-115.882" rx="99.0507" ry="22.7556"/>
<text text-anchor="middle" x="461.263" y="-108.682" font-family="sans-serif" font-size="24.00" fill="white">Arna Karick</text>
</g>
<!-- Arna Karick&#45;&gt;Casey Law -->
<g id="edge1" class="edge"><title>Arna Karick&#45;&gt;Casey Law</title>
<path fill="none" stroke="black" stroke-dasharray="1,5" d="M390.199,-99.9886C357.354,-92.883 317.883,-84.0302 282.574,-75.2548 242.926,-65.4014 198.869,-53.3158 163.448,-43.3157"/>
<polygon fill="black" stroke="black" points="164.273,-39.9117 153.698,-40.554 162.365,-46.6467 164.273,-39.9117"/>
<text text-anchor="middle" x="338.608" y="-65.6548" font-family="sans-serif" font-size="12.00" fill="red">astronomy cirriculum</text>
</g>
<!-- Arna Karick&#45;&gt;Megan Shabram -->
<g id="edge2" class="edge"><title>Arna Karick&#45;&gt;Megan Shabram</title>
<path fill="none" stroke="black" stroke-dasharray="1,5" d="M434.651,-93.9465C418.67,-81.3753 398.141,-65.2254 380.788,-51.5737"/>
<polygon fill="black" stroke="black" points="382.581,-48.5313 372.558,-45.0992 378.253,-54.033 382.581,-48.5313"/>
<text text-anchor="middle" x="437.952" y="-65.6548" font-family="sans-serif" font-size="12.00" fill="red">databases</text>
</g>
<!-- Arna Karick&#45;&gt;Dan F&#45;M -->
<g id="edge3" class="edge"><title>Arna Karick&#45;&gt;Dan F&#45;M</title>
<path fill="none" stroke="black" stroke-dasharray="1,5" d="M487.876,-93.9465C504.201,-81.1039 525.274,-64.5266 542.858,-50.6933"/>
<polygon fill="black" stroke="black" points="545.479,-53.085 551.174,-44.1512 541.151,-47.5833 545.479,-53.085"/>
<text text-anchor="middle" x="545.939" y="-65.6548" font-family="sans-serif" font-size="12.00" fill="red">Jupyter</text>
</g>
<!-- Arna Karick&#45;&gt;breakout -->
<g id="edge4" class="edge"><title>Arna Karick&#45;&gt;breakout</title>
<path fill="none" stroke="black" stroke-dasharray="1,5" d="M517.328,-97.1792C566.829,-81.5488 638.827,-58.8148 689.648,-42.7674"/>
<polygon fill="black" stroke="black" points="690.716,-46.1004 699.198,-39.7517 688.608,-39.4253 690.716,-46.1004"/>
<text text-anchor="middle" x="640.607" y="-65.6548" font-family="sans-serif" font-size="12.00" fill="red">sphinx</text>
</g>
</g>
</svg>
