<?xml version="1.0" encoding="UTF-8" standalone="no"?>
<!DOCTYPE svg PUBLIC "-//W3C//DTD SVG 1.1//EN"
 "http://www.w3.org/Graphics/SVG/1.1/DTD/svg11.dtd">
<!-- Generated by graphviz version 2.38.0 (20140413.2041)
 -->
<!-- Title: G Pages: 1 -->
<svg width="896pt" height="147pt"
 viewBox="0.00 0.00 896.20 146.51" xmlns="http://www.w3.org/2000/svg" xmlns:xlink="http://www.w3.org/1999/xlink">
<g id="graph0" class="graph" transform="scale(1 1) rotate(0) translate(4 142.51)">
<title>G</title>
<polygon fill="white" stroke="none" points="-4,4 -4,-142.51 892.204,-142.51 892.204,4 -4,4"/>
<!-- Casey Law -->
<g id="node1" class="node"><title>Casey Law</title>
<ellipse fill="black" stroke="black" cx="95.2633" cy="-22.6274" rx="95.0272" ry="22.7556"/>
<text text-anchor="middle" x="95.2633" y="-15.4274" font-family="sans-serif" font-size="24.00" fill="white">Casey Law</text>
</g>
<!-- Arna Karick -->
<g id="node2" class="node"><title>Arna Karick</title>
<ellipse fill="black" stroke="black" cx="372.263" cy="-115.882" rx="99.0507" ry="22.7556"/>
<text text-anchor="middle" x="372.263" y="-108.682" font-family="sans-serif" font-size="24.00" fill="white">Arna Karick</text>
</g>
<!-- Arna Karick&#45;&gt;Casey Law -->
<g id="edge1" class="edge"><title>Arna Karick&#45;&gt;Casey Law</title>
<path fill="none" stroke="black" stroke-dasharray="1,5" d="M300.163,-100.342C271.611,-93.8041 238.71,-85.2859 209.574,-75.2548 187.355,-67.6055 163.557,-57.2316 143.459,-47.7893"/>
<polygon fill="black" stroke="black" points="144.743,-44.5243 134.209,-43.3877 141.735,-50.8451 144.743,-44.5243"/>
<text text-anchor="middle" x="265.608" y="-65.6548" font-family="sans-serif" font-size="12.00" fill="red">astronomy cirriculum</text>
</g>
<!-- Dan F&#45;M -->
<g id="node3" class="node"><title>Dan F&#45;M</title>
<ellipse fill="black" stroke="black" cx="286.263" cy="-22.6274" rx="77.1303" ry="22.7556"/>
<text text-anchor="middle" x="286.263" y="-15.4274" font-family="sans-serif" font-size="24.00" fill="white">Dan F&#45;M</text>
</g>
<!-- Arna Karick&#45;&gt;Dan F&#45;M -->
<g id="edge2" class="edge"><title>Arna Karick&#45;&gt;Dan F&#45;M</title>
<path fill="none" stroke="black" stroke-dasharray="1,5" d="M352.317,-93.7172C340.703,-81.3934 325.903,-65.6894 313.258,-52.2712"/>
<polygon fill="black" stroke="black" points="315.507,-49.5548 306.101,-44.6777 310.413,-54.3557 315.507,-49.5548"/>
<text text-anchor="middle" x="362.952" y="-65.6548" font-family="sans-serif" font-size="12.00" fill="red">databases</text>
</g>
<!-- breakout -->
<g id="node4" class="node"><title>breakout</title>
<ellipse fill="black" stroke="black" cx="459.263" cy="-22.6274" rx="77.213" ry="22.7556"/>
<text text-anchor="middle" x="459.263" y="-15.4274" font-family="sans-serif" font-size="24.00" fill="white">breakout</text>
</g>
<!-- Arna Karick&#45;&gt;breakout -->
<g id="edge3" class="edge"><title>Arna Karick&#45;&gt;breakout</title>
<path fill="none" stroke="black" stroke-dasharray="1,5" d="M392.442,-93.7172C404.191,-81.3934 419.163,-65.6894 431.955,-52.2712"/>
<polygon fill="black" stroke="black" points="434.827,-54.3306 439.195,-44.6777 429.761,-49.5004 434.827,-54.3306"/>
<text text-anchor="middle" x="438.607" y="-65.6548" font-family="sans-serif" font-size="12.00" fill="red">sphinx</text>
</g>
<!-- Adrian Price&#45;Whelan -->
<g id="node5" class="node"><title>Adrian Price&#45;Whelan</title>
<ellipse fill="black" stroke="black" cx="721.263" cy="-22.6274" rx="166.881" ry="22.7556"/>
<text text-anchor="middle" x="721.263" y="-15.4274" font-family="sans-serif" font-size="24.00" fill="white">Adrian Price&#45;Whelan</text>
</g>
<!-- Arna Karick&#45;&gt;Adrian Price&#45;Whelan -->
<g id="edge4" class="edge"><title>Arna Karick&#45;&gt;Adrian Price&#45;Whelan</title>
<path fill="none" stroke="black" stroke-dasharray="1,5" d="M435.465,-98.3567C492.054,-83.56 575.444,-61.7555 637.56,-45.5139"/>
<polygon fill="black" stroke="black" points="638.549,-48.8728 647.339,-42.9569 636.778,-42.1005 638.549,-48.8728"/>
<text text-anchor="middle" x="587.939" y="-65.6548" font-family="sans-serif" font-size="12.00" fill="red">Jupyter</text>
</g>
</g>
</svg>
