<?xml version="1.0" encoding="UTF-8" standalone="no"?>
<!DOCTYPE svg PUBLIC "-//W3C//DTD SVG 1.1//EN"
 "http://www.w3.org/Graphics/SVG/1.1/DTD/svg11.dtd">
<!-- Generated by graphviz version 2.38.0 (20140413.2041)
 -->
<!-- Title: G Pages: 1 -->
<svg width="1328pt" height="147pt"
 viewBox="0.00 0.00 1328.40 146.51" xmlns="http://www.w3.org/2000/svg" xmlns:xlink="http://www.w3.org/1999/xlink">
<g id="graph0" class="graph" transform="scale(1 1) rotate(0) translate(4 142.51)">
<title>G</title>
<polygon fill="white" stroke="none" points="-4,4 -4,-142.51 1324.4,-142.51 1324.4,4 -4,4"/>
<!-- Adrian Price&#45;Whelan -->
<g id="node1" class="node"><title>Adrian Price&#45;Whelan</title>
<ellipse fill="black" stroke="black" cx="166.941" cy="-22.6274" rx="166.881" ry="22.7556"/>
<text text-anchor="middle" x="166.941" y="-15.4274" font-family="sans-serif" font-size="24.00" fill="white">Adrian Price&#45;Whelan</text>
</g>
<!-- Arna Karick -->
<g id="node2" class="node"><title>Arna Karick</title>
<ellipse fill="black" stroke="black" cx="720.941" cy="-115.882" rx="99.0507" ry="22.7556"/>
<text text-anchor="middle" x="720.941" y="-108.682" font-family="sans-serif" font-size="24.00" fill="white">Arna Karick</text>
</g>
<!-- Arna Karick&#45;&gt;Adrian Price&#45;Whelan -->
<g id="edge3" class="edge"><title>Arna Karick&#45;&gt;Adrian Price&#45;Whelan</title>
<path fill="none" stroke="black" stroke-dasharray="1,5" d="M642.448,-101.953C547.65,-86.3378 387.503,-59.9584 279.55,-42.1764"/>
<polygon fill="black" stroke="black" points="280.032,-38.7087 269.596,-40.5368 278.894,-45.6156 280.032,-38.7087"/>
<text text-anchor="middle" x="523.635" y="-65.6548" font-family="sans-serif" font-size="12.00" fill="red">machine learning</text>
</g>
<!-- Usman Khan -->
<g id="node3" class="node"><title>Usman Khan</title>
<ellipse fill="black" stroke="black" cx="460.941" cy="-22.6274" rx="109.333" ry="22.7556"/>
<text text-anchor="middle" x="460.941" y="-15.4274" font-family="sans-serif" font-size="24.00" fill="white">Usman Khan</text>
</g>
<!-- Arna Karick&#45;&gt;Usman Khan -->
<g id="edge2" class="edge"><title>Arna Karick&#45;&gt;Usman Khan</title>
<path fill="none" stroke="black" stroke-dasharray="1,5" d="M668.639,-96.5252C626.917,-81.8816 568.329,-61.3187 524.012,-45.764"/>
<polygon fill="black" stroke="black" points="525.094,-42.4346 514.499,-42.4253 522.775,-49.0396 525.094,-42.4346"/>
<text text-anchor="middle" x="634.629" y="-65.6548" font-family="sans-serif" font-size="12.00" fill="red">databases</text>
</g>
<!-- Jennifer Sobeck -->
<g id="node4" class="node"><title>Jennifer Sobeck</title>
<ellipse fill="black" stroke="black" cx="720.941" cy="-22.6274" rx="133.016" ry="22.7556"/>
<text text-anchor="middle" x="720.941" y="-15.4274" font-family="sans-serif" font-size="24.00" fill="white">Jennifer Sobeck</text>
</g>
<!-- Arna Karick&#45;&gt;Jennifer Sobeck -->
<g id="edge1" class="edge"><title>Arna Karick&#45;&gt;Jennifer Sobeck</title>
<path fill="none" stroke="black" stroke-dasharray="1,5" d="M720.941,-92.792C720.941,-81.6951 720.941,-68.0403 720.941,-55.8032"/>
<polygon fill="black" stroke="black" points="724.441,-55.5142 720.941,-45.5142 717.441,-55.5143 724.441,-55.5142"/>
<text text-anchor="middle" x="738.284" y="-65.6548" font-family="sans-serif" font-size="12.00" fill="red">sphinx</text>
</g>
<!-- Kate Follette -->
<g id="node5" class="node"><title>Kate Follette</title>
<ellipse fill="black" stroke="black" cx="978.941" cy="-22.6274" rx="106.682" ry="22.7556"/>
<text text-anchor="middle" x="978.941" y="-15.4274" font-family="sans-serif" font-size="24.00" fill="white">Kate Follette</text>
</g>
<!-- Arna Karick&#45;&gt;Kate Follette -->
<g id="edge5" class="edge"><title>Arna Karick&#45;&gt;Kate Follette</title>
<path fill="none" stroke="black" stroke-dasharray="1,5" d="M772.841,-96.5252C814.242,-81.8816 872.378,-61.3187 916.355,-45.764"/>
<polygon fill="black" stroke="black" points="917.534,-49.0596 925.795,-42.4253 915.2,-42.4602 917.534,-49.0596"/>
<text text-anchor="middle" x="921.285" y="-65.6548" font-family="sans-serif" font-size="12.00" fill="red">astronomy cirriculum</text>
</g>
<!-- Phil Marshall -->
<g id="node6" class="node"><title>Phil Marshall</title>
<ellipse fill="black" stroke="black" cx="1211.94" cy="-22.6274" rx="108.411" ry="22.7556"/>
<text text-anchor="middle" x="1211.94" y="-15.4274" font-family="sans-serif" font-size="24.00" fill="white">Phil Marshall</text>
</g>
<!-- Arna Karick&#45;&gt;Phil Marshall -->
<g id="edge4" class="edge"><title>Arna Karick&#45;&gt;Phil Marshall</title>
<path fill="none" stroke="black" stroke-dasharray="1,5" d="M804.323,-103.659C855.448,-96.4088 922.153,-86.2908 980.941,-75.2548 1032.01,-65.6685 1088.98,-52.9578 1133.57,-42.5474"/>
<polygon fill="black" stroke="black" points="1134.53,-45.9176 1143.46,-40.2272 1132.93,-39.1024 1134.53,-45.9176"/>
<text text-anchor="middle" x="1058.62" y="-65.6548" font-family="sans-serif" font-size="12.00" fill="red">Jupyter</text>
</g>
</g>
</svg>
