<?xml version="1.0" encoding="UTF-8" standalone="no"?>
<!DOCTYPE svg PUBLIC "-//W3C//DTD SVG 1.1//EN"
 "http://www.w3.org/Graphics/SVG/1.1/DTD/svg11.dtd">
<!-- Generated by graphviz version 2.38.0 (20140413.2041)
 -->
<!-- Title: G Pages: 1 -->
<svg width="391pt" height="147pt"
 viewBox="0.00 0.00 390.95 146.51" xmlns="http://www.w3.org/2000/svg" xmlns:xlink="http://www.w3.org/1999/xlink">
<g id="graph0" class="graph" transform="scale(1 1) rotate(0) translate(4 142.51)">
<title>G</title>
<polygon fill="white" stroke="none" points="-4,4 -4,-142.51 386.945,-142.51 386.945,4 -4,4"/>
<!-- Megan Shabram -->
<g id="node1" class="node"><title>Megan Shabram</title>
<ellipse fill="black" stroke="black" cx="136.778" cy="-115.882" rx="136.557" ry="22.7556"/>
<text text-anchor="middle" x="136.778" y="-108.682" font-family="sans-serif" font-size="24.00" fill="white">Megan Shabram</text>
</g>
<!-- Megan Shabram&#45;&gt;Megan Shabram -->
<g id="edge1" class="edge"><title>Megan Shabram&#45;&gt;Megan Shabram</title>
<path fill="none" stroke="black" stroke-dasharray="1,5" d="M266.05,-123.294C281.48,-121.947 291.556,-119.476 291.556,-115.882 291.556,-113.159 285.77,-111.08 276.251,-109.647"/>
<polygon fill="black" stroke="black" points="276.385,-106.139 266.05,-108.47 275.583,-113.093 276.385,-106.139"/>
<text text-anchor="middle" x="337.251" y="-112.282" font-family="sans-serif" font-size="12.00" fill="red">machine learning</text>
</g>
<!-- Dan F&#45;M -->
<g id="node2" class="node"><title>Dan F&#45;M</title>
<ellipse fill="black" stroke="black" cx="136.778" cy="-22.6274" rx="77.1303" ry="22.7556"/>
<text text-anchor="middle" x="136.778" y="-15.4274" font-family="sans-serif" font-size="24.00" fill="white">Dan F&#45;M</text>
</g>
<!-- Megan Shabram&#45;&gt;Dan F&#45;M -->
<g id="edge2" class="edge"><title>Megan Shabram&#45;&gt;Dan F&#45;M</title>
<path fill="none" stroke="black" stroke-dasharray="1,5" d="M136.778,-92.792C136.778,-81.6951 136.778,-68.0403 136.778,-55.8032"/>
<polygon fill="black" stroke="black" points="140.278,-55.5142 136.778,-45.5142 133.278,-55.5143 140.278,-55.5142"/>
<text text-anchor="middle" x="156.354" y="-65.6548" font-family="sans-serif" font-size="12.00" fill="red">autodiff</text>
</g>
</g>
</svg>
