<?xml version="1.0" encoding="UTF-8" standalone="no"?>
<!DOCTYPE svg PUBLIC "-//W3C//DTD SVG 1.1//EN"
 "http://www.w3.org/Graphics/SVG/1.1/DTD/svg11.dtd">
<!-- Generated by graphviz version 2.38.0 (20140413.2041)
 -->
<!-- Title: G Pages: 1 -->
<svg width="547pt" height="147pt"
 viewBox="0.00 0.00 547.34 146.51" xmlns="http://www.w3.org/2000/svg" xmlns:xlink="http://www.w3.org/1999/xlink">
<g id="graph0" class="graph" transform="scale(1 1) rotate(0) translate(4 142.51)">
<title>G</title>
<polygon fill="white" stroke="none" points="-4,4 -4,-142.51 543.336,-142.51 543.336,4 -4,4"/>
<!-- Megan Shabram -->
<g id="node1" class="node"><title>Megan Shabram</title>
<ellipse fill="black" stroke="black" cx="281.315" cy="-115.882" rx="136.557" ry="22.7556"/>
<text text-anchor="middle" x="281.315" y="-108.682" font-family="sans-serif" font-size="24.00" fill="white">Megan Shabram</text>
</g>
<!-- Dan F&#45;M -->
<g id="node2" class="node"><title>Dan F&#45;M</title>
<ellipse fill="black" stroke="black" cx="77.3149" cy="-22.6274" rx="77.1303" ry="22.7556"/>
<text text-anchor="middle" x="77.3149" y="-15.4274" font-family="sans-serif" font-size="24.00" fill="white">Dan F&#45;M</text>
</g>
<!-- Megan Shabram&#45;&gt;Dan F&#45;M -->
<g id="edge1" class="edge"><title>Megan Shabram&#45;&gt;Dan F&#45;M</title>
<path fill="none" stroke="black" stroke-dasharray="1,5" d="M235.787,-94.5165C203.724,-80.1736 160.789,-60.9676 127.697,-46.1646"/>
<polygon fill="black" stroke="black" points="128.762,-42.807 118.205,-41.9185 125.904,-49.1968 128.762,-42.807"/>
<text text-anchor="middle" x="211.891" y="-65.6548" font-family="sans-serif" font-size="12.00" fill="red">autodiff</text>
</g>
<!-- Phil Marshall -->
<g id="node3" class="node"><title>Phil Marshall</title>
<ellipse fill="black" stroke="black" cx="281.315" cy="-22.6274" rx="108.411" ry="22.7556"/>
<text text-anchor="middle" x="281.315" y="-15.4274" font-family="sans-serif" font-size="24.00" fill="white">Phil Marshall</text>
</g>
<!-- Megan Shabram&#45;&gt;Phil Marshall -->
<g id="edge2" class="edge"><title>Megan Shabram&#45;&gt;Phil Marshall</title>
<path fill="none" stroke="black" stroke-dasharray="1,5" d="M281.315,-92.792C281.315,-81.6951 281.315,-68.0403 281.315,-55.8032"/>
<polygon fill="black" stroke="black" points="284.815,-55.5142 281.315,-45.5142 277.815,-55.5143 284.815,-55.5142"/>
<text text-anchor="middle" x="327.009" y="-65.6548" font-family="sans-serif" font-size="12.00" fill="red">machine learning</text>
</g>
<!-- Zaki Ali -->
<g id="node4" class="node"><title>Zaki Ali</title>
<ellipse fill="black" stroke="black" cx="473.315" cy="-22.6274" rx="66.0411" ry="22.7556"/>
<text text-anchor="middle" x="473.315" y="-15.4274" font-family="sans-serif" font-size="24.00" fill="white">Zaki Ali</text>
</g>
<!-- Megan Shabram&#45;&gt;Zaki Ali -->
<g id="edge3" class="edge"><title>Megan Shabram&#45;&gt;Zaki Ali</title>
<path fill="none" stroke="black" stroke-dasharray="1,5" d="M331.992,-94.7768C346.434,-88.769 362.101,-81.9837 376.315,-75.2548 394.5,-66.6458 414.166,-56.3674 431.005,-47.2565"/>
<polygon fill="black" stroke="black" points="432.935,-50.1908 440.042,-42.333 429.586,-44.0439 432.935,-50.1908"/>
<text text-anchor="middle" x="417.663" y="-65.6548" font-family="sans-serif" font-size="12.00" fill="red">github</text>
</g>
</g>
</svg>
