<?xml version="1.0" encoding="UTF-8" standalone="no"?>
<!DOCTYPE svg PUBLIC "-//W3C//DTD SVG 1.1//EN"
 "http://www.w3.org/Graphics/SVG/1.1/DTD/svg11.dtd">
<!-- Generated by graphviz version 2.38.0 (20140413.2041)
 -->
<!-- Title: G Pages: 1 -->
<svg width="1881pt" height="147pt"
 viewBox="0.00 0.00 1881.40 146.51" xmlns="http://www.w3.org/2000/svg" xmlns:xlink="http://www.w3.org/1999/xlink">
<g id="graph0" class="graph" transform="scale(1 1) rotate(0) translate(4 142.51)">
<title>G</title>
<polygon fill="white" stroke="none" points="-4,4 -4,-142.51 1877.4,-142.51 1877.4,4 -4,4"/>
<!-- Adrian Price&#45;Whelan -->
<g id="node1" class="node"><title>Adrian Price&#45;Whelan</title>
<ellipse fill="black" stroke="black" cx="166.941" cy="-22.6274" rx="166.881" ry="22.7556"/>
<text text-anchor="middle" x="166.941" y="-15.4274" font-family="sans-serif" font-size="24.00" fill="white">Adrian Price&#45;Whelan</text>
</g>
<!-- Grigor Aslanyan -->
<g id="node2" class="node"><title>Grigor Aslanyan</title>
<ellipse fill="black" stroke="black" cx="483.941" cy="-22.6274" rx="132.127" ry="22.7556"/>
<text text-anchor="middle" x="483.941" y="-15.4274" font-family="sans-serif" font-size="24.00" fill="white">Grigor Aslanyan</text>
</g>
<!-- Dan F&#45;M -->
<g id="node3" class="node"><title>Dan F&#45;M</title>
<ellipse fill="black" stroke="black" cx="710.941" cy="-22.6274" rx="77.1303" ry="22.7556"/>
<text text-anchor="middle" x="710.941" y="-15.4274" font-family="sans-serif" font-size="24.00" fill="white">Dan F&#45;M</text>
</g>
<!-- breakout -->
<g id="node4" class="node"><title>breakout</title>
<ellipse fill="black" stroke="black" cx="883.941" cy="-22.6274" rx="77.213" ry="22.7556"/>
<text text-anchor="middle" x="883.941" y="-15.4274" font-family="sans-serif" font-size="24.00" fill="white">breakout</text>
</g>
<!-- Daniela Huppenkothen -->
<g id="node5" class="node"><title>Daniela Huppenkothen</title>
<ellipse fill="black" stroke="black" cx="1162.94" cy="-22.6274" rx="183.955" ry="22.7556"/>
<text text-anchor="middle" x="1162.94" y="-15.4274" font-family="sans-serif" font-size="24.00" fill="white">Daniela Huppenkothen</text>
</g>
<!-- Megan Shabram -->
<g id="node6" class="node"><title>Megan Shabram</title>
<ellipse fill="black" stroke="black" cx="1501.94" cy="-22.6274" rx="136.557" ry="22.7556"/>
<text text-anchor="middle" x="1501.94" y="-15.4274" font-family="sans-serif" font-size="24.00" fill="white">Megan Shabram</text>
</g>
<!-- Phil Marshall -->
<g id="node7" class="node"><title>Phil Marshall</title>
<ellipse fill="black" stroke="black" cx="1764.94" cy="-22.6274" rx="108.411" ry="22.7556"/>
<text text-anchor="middle" x="1764.94" y="-15.4274" font-family="sans-serif" font-size="24.00" fill="white">Phil Marshall</text>
</g>
<!-- Sophia Milanov -->
<g id="node8" class="node"><title>Sophia Milanov</title>
<ellipse fill="black" stroke="black" cx="883.941" cy="-115.882" rx="127.197" ry="22.7556"/>
<text text-anchor="middle" x="883.941" y="-108.682" font-family="sans-serif" font-size="24.00" fill="white">Sophia Milanov</text>
</g>
<!-- Sophia Milanov&#45;&gt;Adrian Price&#45;Whelan -->
<g id="edge1" class="edge"><title>Sophia Milanov&#45;&gt;Adrian Price&#45;Whelan</title>
<path fill="none" stroke="black" stroke-dasharray="1,5" d="M776.89,-103.541C707.461,-95.997 615.08,-85.6044 533.546,-75.2548 450.876,-64.7611 357.911,-51.6543 286.283,-41.2729"/>
<polygon fill="black" stroke="black" points="286.72,-37.7998 276.321,-39.8267 285.714,-44.7272 286.72,-37.7998"/>
<text text-anchor="middle" x="585.638" y="-65.6548" font-family="sans-serif" font-size="12.00" fill="red">packaging (Python)</text>
</g>
<!-- Sophia Milanov&#45;&gt;Grigor Aslanyan -->
<g id="edge2" class="edge"><title>Sophia Milanov&#45;&gt;Grigor Aslanyan</title>
<path fill="none" stroke="black" stroke-dasharray="1,5" d="M801.361,-98.5067C767.568,-91.6176 728.123,-83.3357 692.552,-75.2548 650.303,-65.6568 603.46,-54.1435 564.883,-44.4273"/>
<polygon fill="black" stroke="black" points="565.3,-40.923 554.748,-41.8682 563.587,-47.71 565.3,-40.923"/>
<text text-anchor="middle" x="738.635" y="-65.6548" font-family="sans-serif" font-size="12.00" fill="red">machine learning</text>
</g>
<!-- Sophia Milanov&#45;&gt;Dan F&#45;M -->
<g id="edge3" class="edge"><title>Sophia Milanov&#45;&gt;Dan F&#45;M</title>
<path fill="none" stroke="black" stroke-dasharray="1,5" d="M844.684,-94.1751C818.352,-80.285 783.593,-61.9503 756.11,-47.4538"/>
<polygon fill="black" stroke="black" points="757.57,-44.2665 747.092,-42.6966 754.304,-50.458 757.57,-44.2665"/>
<text text-anchor="middle" x="835.629" y="-65.6548" font-family="sans-serif" font-size="12.00" fill="red">databases</text>
</g>
<!-- Sophia Milanov&#45;&gt;breakout -->
<g id="edge4" class="edge"><title>Sophia Milanov&#45;&gt;breakout</title>
<path fill="none" stroke="black" stroke-dasharray="1,5" d="M883.941,-92.792C883.941,-81.6951 883.941,-68.0403 883.941,-55.8032"/>
<polygon fill="black" stroke="black" points="887.441,-55.5142 883.941,-45.5142 880.441,-55.5143 887.441,-55.5142"/>
<text text-anchor="middle" x="909.95" y="-65.6548" font-family="sans-serif" font-size="12.00" fill="red">GAIA DRI</text>
</g>
<!-- Sophia Milanov&#45;&gt;Daniela Huppenkothen -->
<g id="edge5" class="edge"><title>Sophia Milanov&#45;&gt;Daniela Huppenkothen</title>
<path fill="none" stroke="black" stroke-dasharray="1,5" d="M942.428,-95.7522C985.69,-81.6023 1044.86,-62.2495 1091.01,-47.1529"/>
<polygon fill="black" stroke="black" points="1092.24,-50.4348 1100.66,-43.9994 1090.06,-43.7816 1092.24,-50.4348"/>
<text text-anchor="middle" x="1093.97" y="-65.6548" font-family="sans-serif" font-size="12.00" fill="red">gaussian processes</text>
</g>
<!-- Sophia Milanov&#45;&gt;Megan Shabram -->
<g id="edge6" class="edge"><title>Sophia Milanov&#45;&gt;Megan Shabram</title>
<path fill="none" stroke="black" stroke-dasharray="1,5" d="M979.318,-100.83C1074.66,-86.779 1225.45,-64.5445 1355.94,-45.2548 1367.94,-43.4808 1380.5,-41.6233 1392.99,-39.7738"/>
<polygon fill="black" stroke="black" points="1393.61,-43.2208 1402.99,-38.294 1392.58,-36.2963 1393.61,-43.2208"/>
<text text-anchor="middle" x="1243.29" y="-65.6548" font-family="sans-serif" font-size="12.00" fill="red">github</text>
</g>
<!-- Sophia Milanov&#45;&gt;Phil Marshall -->
<g id="edge7" class="edge"><title>Sophia Milanov&#45;&gt;Phil Marshall</title>
<path fill="none" stroke="black" stroke-dasharray="1,5" d="M1002.44,-107.472C1152.96,-97.2832 1420.5,-76.5721 1647.94,-45.2548 1657.94,-43.8776 1668.39,-42.2378 1678.75,-40.4859"/>
<polygon fill="black" stroke="black" points="1679.38,-43.9291 1688.64,-38.7769 1678.19,-37.0314 1679.38,-43.9291"/>
<text text-anchor="middle" x="1581.65" y="-65.6548" font-family="sans-serif" font-size="12.00" fill="red">probabilistic graphical models</text>
</g>
</g>
</svg>
