<?xml version="1.0" encoding="UTF-8" standalone="no"?>
<!DOCTYPE svg PUBLIC "-//W3C//DTD SVG 1.1//EN"
 "http://www.w3.org/Graphics/SVG/1.1/DTD/svg11.dtd">
<!-- Generated by graphviz version 2.38.0 (20140413.2041)
 -->
<!-- Title: G Pages: 1 -->
<svg width="634pt" height="147pt"
 viewBox="0.00 0.00 634.13 146.51" xmlns="http://www.w3.org/2000/svg" xmlns:xlink="http://www.w3.org/1999/xlink">
<g id="graph0" class="graph" transform="scale(1 1) rotate(0) translate(4 142.51)">
<title>G</title>
<polygon fill="white" stroke="none" points="-4,4 -4,-142.51 630.135,-142.51 630.135,4 -4,4"/>
<!-- Megan Shabram -->
<g id="node1" class="node"><title>Megan Shabram</title>
<ellipse fill="black" stroke="black" cx="136.778" cy="-22.6274" rx="136.557" ry="22.7556"/>
<text text-anchor="middle" x="136.778" y="-15.4274" font-family="sans-serif" font-size="24.00" fill="white">Megan Shabram</text>
</g>
<!-- Dan F&#45;M -->
<g id="node2" class="node"><title>Dan F&#45;M</title>
<ellipse fill="black" stroke="black" cx="368.778" cy="-22.6274" rx="77.1303" ry="22.7556"/>
<text text-anchor="middle" x="368.778" y="-15.4274" font-family="sans-serif" font-size="24.00" fill="white">Dan F&#45;M</text>
</g>
<!-- breakout -->
<g id="node3" class="node"><title>breakout</title>
<ellipse fill="black" stroke="black" cx="548.778" cy="-22.6274" rx="77.213" ry="22.7556"/>
<text text-anchor="middle" x="548.778" y="-15.4274" font-family="sans-serif" font-size="24.00" fill="white">breakout</text>
</g>
<!-- Sophia Milanov -->
<g id="node4" class="node"><title>Sophia Milanov</title>
<ellipse fill="black" stroke="black" cx="368.778" cy="-115.882" rx="127.197" ry="22.7556"/>
<text text-anchor="middle" x="368.778" y="-108.682" font-family="sans-serif" font-size="24.00" fill="white">Sophia Milanov</text>
</g>
<!-- Sophia Milanov&#45;&gt;Megan Shabram -->
<g id="edge1" class="edge"><title>Sophia Milanov&#45;&gt;Megan Shabram</title>
<path fill="none" stroke="black" stroke-dasharray="1,5" d="M318.438,-95.0813C282.809,-81.0673 234.859,-62.2066 197.169,-47.3816"/>
<polygon fill="black" stroke="black" points="198.409,-44.1082 187.822,-43.7048 195.846,-50.6224 198.409,-44.1082"/>
<text text-anchor="middle" x="294.467" y="-65.6548" font-family="sans-serif" font-size="12.00" fill="red">databases</text>
</g>
<!-- Sophia Milanov&#45;&gt;Dan F&#45;M -->
<g id="edge2" class="edge"><title>Sophia Milanov&#45;&gt;Dan F&#45;M</title>
<path fill="none" stroke="black" stroke-dasharray="1,5" d="M368.778,-92.792C368.778,-81.6951 368.778,-68.0403 368.778,-55.8032"/>
<polygon fill="black" stroke="black" points="372.278,-55.5142 368.778,-45.5142 365.278,-55.5143 372.278,-55.5142"/>
<text text-anchor="middle" x="447.484" y="-65.6548" font-family="sans-serif" font-size="12.00" fill="red">probabilistic graphical models</text>
</g>
<!-- Sophia Milanov&#45;&gt;breakout -->
<g id="edge3" class="edge"><title>Sophia Milanov&#45;&gt;breakout</title>
<path fill="none" stroke="black" stroke-dasharray="1,5" d="M473.549,-103.011C492.824,-97.0251 511.618,-88.2031 526.778,-75.2548 533.029,-69.916 537.55,-62.4882 540.801,-54.9283"/>
<polygon fill="black" stroke="black" points="544.127,-56.023 544.276,-45.4292 537.553,-53.6183 544.127,-56.023"/>
<text text-anchor="middle" x="562.788" y="-65.6548" font-family="sans-serif" font-size="12.00" fill="red">GAIA DRI</text>
</g>
</g>
</svg>
