<?xml version="1.0" encoding="UTF-8" standalone="no"?>
<!DOCTYPE svg PUBLIC "-//W3C//DTD SVG 1.1//EN"
 "http://www.w3.org/Graphics/SVG/1.1/DTD/svg11.dtd">
<!-- Generated by graphviz version 2.38.0 (20140413.2041)
 -->
<!-- Title: G Pages: 1 -->
<svg width="1453pt" height="147pt"
 viewBox="0.00 0.00 1453.48 146.51" xmlns="http://www.w3.org/2000/svg" xmlns:xlink="http://www.w3.org/1999/xlink">
<g id="graph0" class="graph" transform="scale(1 1) rotate(0) translate(4 142.51)">
<title>G</title>
<polygon fill="white" stroke="none" points="-4,4 -4,-142.51 1449.48,-142.51 1449.48,4 -4,4"/>
<!-- Arna Karick -->
<g id="node1" class="node"><title>Arna Karick</title>
<ellipse fill="black" stroke="black" cx="99.0253" cy="-22.6274" rx="99.0507" ry="22.7556"/>
<text text-anchor="middle" x="99.0253" y="-15.4274" font-family="sans-serif" font-size="24.00" fill="white">Arna Karick</text>
</g>
<!-- Grigor Aslanyan -->
<g id="node2" class="node"><title>Grigor Aslanyan</title>
<ellipse fill="black" stroke="black" cx="348.025" cy="-22.6274" rx="132.127" ry="22.7556"/>
<text text-anchor="middle" x="348.025" y="-15.4274" font-family="sans-serif" font-size="24.00" fill="white">Grigor Aslanyan</text>
</g>
<!-- Dan F&#45;M -->
<g id="node3" class="node"><title>Dan F&#45;M</title>
<ellipse fill="black" stroke="black" cx="575.025" cy="-22.6274" rx="77.1303" ry="22.7556"/>
<text text-anchor="middle" x="575.025" y="-15.4274" font-family="sans-serif" font-size="24.00" fill="white">Dan F&#45;M</text>
</g>
<!-- breakout -->
<g id="node4" class="node"><title>breakout</title>
<ellipse fill="black" stroke="black" cx="748.025" cy="-22.6274" rx="77.213" ry="22.7556"/>
<text text-anchor="middle" x="748.025" y="-15.4274" font-family="sans-serif" font-size="24.00" fill="white">breakout</text>
</g>
<!-- Daniela Huppenkothen -->
<g id="node5" class="node"><title>Daniela Huppenkothen</title>
<ellipse fill="black" stroke="black" cx="1027.03" cy="-22.6274" rx="183.955" ry="22.7556"/>
<text text-anchor="middle" x="1027.03" y="-15.4274" font-family="sans-serif" font-size="24.00" fill="white">Daniela Huppenkothen</text>
</g>
<!-- Phil Marshall -->
<g id="node6" class="node"><title>Phil Marshall</title>
<ellipse fill="black" stroke="black" cx="1337.03" cy="-22.6274" rx="108.411" ry="22.7556"/>
<text text-anchor="middle" x="1337.03" y="-15.4274" font-family="sans-serif" font-size="24.00" fill="white">Phil Marshall</text>
</g>
<!-- Sophia Milanov -->
<g id="node7" class="node"><title>Sophia Milanov</title>
<ellipse fill="black" stroke="black" cx="661.025" cy="-115.882" rx="127.197" ry="22.7556"/>
<text text-anchor="middle" x="661.025" y="-108.682" font-family="sans-serif" font-size="24.00" fill="white">Sophia Milanov</text>
</g>
<!-- Sophia Milanov&#45;&gt;Arna Karick -->
<g id="edge1" class="edge"><title>Sophia Milanov&#45;&gt;Arna Karick</title>
<path fill="none" stroke="black" stroke-dasharray="1,5" d="M563.397,-101.219C471.314,-88.022 329.523,-66.9021 207.025,-45.2548 198.406,-43.7317 189.416,-42.0618 180.464,-40.3463"/>
<polygon fill="black" stroke="black" points="180.877,-36.8614 170.394,-38.3955 179.546,-43.7336 180.877,-36.8614"/>
<text text-anchor="middle" x="398.373" y="-65.6548" font-family="sans-serif" font-size="12.00" fill="red">github</text>
</g>
<!-- Sophia Milanov&#45;&gt;Grigor Aslanyan -->
<g id="edge2" class="edge"><title>Sophia Milanov&#45;&gt;Grigor Aslanyan</title>
<path fill="none" stroke="black" stroke-dasharray="1,5" d="M596.93,-96.1953C546.25,-81.4195 475.427,-60.7713 422.281,-45.2766"/>
<polygon fill="black" stroke="black" points="423.152,-41.8849 412.572,-42.446 421.193,-48.6051 423.152,-41.8849"/>
<text text-anchor="middle" x="543.701" y="-65.6548" font-family="sans-serif" font-size="12.00" fill="red">Jupyter</text>
</g>
<!-- Sophia Milanov&#45;&gt;Dan F&#45;M -->
<g id="edge3" class="edge"><title>Sophia Milanov&#45;&gt;Dan F&#45;M</title>
<path fill="none" stroke="black" stroke-dasharray="1,5" d="M640.645,-93.2561C629.102,-81.0078 614.519,-65.5337 602.033,-52.2855"/>
<polygon fill="black" stroke="black" points="604.369,-49.6606 594.963,-44.7835 599.274,-54.4615 604.369,-49.6606"/>
<text text-anchor="middle" x="651.714" y="-65.6548" font-family="sans-serif" font-size="12.00" fill="red">databases</text>
</g>
<!-- Sophia Milanov&#45;&gt;breakout -->
<g id="edge4" class="edge"><title>Sophia Milanov&#45;&gt;breakout</title>
<path fill="none" stroke="black" stroke-dasharray="1,5" d="M681.643,-93.2561C693.32,-81.0078 708.073,-65.5337 720.703,-52.2855"/>
<polygon fill="black" stroke="black" points="723.489,-54.4364 727.856,-44.7835 718.422,-49.6062 723.489,-54.4364"/>
<text text-anchor="middle" x="763.056" y="-65.6548" font-family="sans-serif" font-size="12.00" fill="red">gaussian processes</text>
</g>
<!-- Sophia Milanov&#45;&gt;Daniela Huppenkothen -->
<g id="edge5" class="edge"><title>Sophia Milanov&#45;&gt;Daniela Huppenkothen</title>
<path fill="none" stroke="black" stroke-dasharray="1,5" d="M732.657,-97.0323C759.998,-90.2185 791.456,-82.3778 820.025,-75.2548 859.119,-65.5081 902.364,-54.7229 939.175,-45.5415"/>
<polygon fill="black" stroke="black" points="940.026,-48.9366 948.881,-43.1205 938.331,-42.1447 940.026,-48.9366"/>
<text text-anchor="middle" x="911.72" y="-65.6548" font-family="sans-serif" font-size="12.00" fill="red">machine learning</text>
</g>
<!-- Sophia Milanov&#45;&gt;Phil Marshall -->
<g id="edge6" class="edge"><title>Sophia Milanov&#45;&gt;Phil Marshall</title>
<path fill="none" stroke="black" stroke-dasharray="1,5" d="M767.668,-103.489C880.345,-91.0092 1063.09,-69.512 1220.03,-45.2548 1229.67,-43.7639 1239.74,-42.0866 1249.75,-40.3425"/>
<polygon fill="black" stroke="black" points="1250.49,-43.7671 1259.72,-38.5805 1249.27,-36.8739 1250.49,-43.7671"/>
<text text-anchor="middle" x="1161.73" y="-65.6548" font-family="sans-serif" font-size="12.00" fill="red">probabilistic graphical models</text>
</g>
</g>
</svg>
