<?xml version="1.0" encoding="UTF-8" standalone="no"?>
<!DOCTYPE svg PUBLIC "-//W3C//DTD SVG 1.1//EN"
 "http://www.w3.org/Graphics/SVG/1.1/DTD/svg11.dtd">
<!-- Generated by graphviz version 2.38.0 (20140413.2041)
 -->
<!-- Title: G Pages: 1 -->
<svg width="787pt" height="147pt"
 viewBox="0.00 0.00 786.51 146.51" xmlns="http://www.w3.org/2000/svg" xmlns:xlink="http://www.w3.org/1999/xlink">
<g id="graph0" class="graph" transform="scale(1 1) rotate(0) translate(4 142.51)">
<title>G</title>
<polygon fill="white" stroke="none" points="-4,4 -4,-142.51 782.505,-142.51 782.505,4 -4,4"/>
<!-- Ben Nelson -->
<g id="node1" class="node"><title>Ben Nelson</title>
<ellipse fill="black" stroke="black" cx="99.0502" cy="-22.6274" rx="99.1004" ry="22.7556"/>
<text text-anchor="middle" x="99.0502" y="-15.4274" font-family="sans-serif" font-size="24.00" fill="white">Ben Nelson</text>
</g>
<!-- Dan F&#45;M -->
<g id="node2" class="node"><title>Dan F&#45;M</title>
<ellipse fill="black" stroke="black" cx="293.05" cy="-22.6274" rx="77.1303" ry="22.7556"/>
<text text-anchor="middle" x="293.05" y="-15.4274" font-family="sans-serif" font-size="24.00" fill="white">Dan F&#45;M</text>
</g>
<!-- breakout -->
<g id="node3" class="node"><title>breakout</title>
<ellipse fill="black" stroke="black" cx="466.05" cy="-22.6274" rx="77.213" ry="22.7556"/>
<text text-anchor="middle" x="466.05" y="-15.4274" font-family="sans-serif" font-size="24.00" fill="white">breakout</text>
</g>
<!-- Phil Marshall -->
<g id="node4" class="node"><title>Phil Marshall</title>
<ellipse fill="black" stroke="black" cx="670.05" cy="-22.6274" rx="108.411" ry="22.7556"/>
<text text-anchor="middle" x="670.05" y="-15.4274" font-family="sans-serif" font-size="24.00" fill="white">Phil Marshall</text>
</g>
<!-- Daniela Huppenkothen -->
<g id="node5" class="node"><title>Daniela Huppenkothen</title>
<ellipse fill="black" stroke="black" cx="379.05" cy="-115.882" rx="183.955" ry="22.7556"/>
<text text-anchor="middle" x="379.05" y="-108.682" font-family="sans-serif" font-size="24.00" fill="white">Daniela Huppenkothen</text>
</g>
<!-- Daniela Huppenkothen&#45;&gt;Ben Nelson -->
<g id="edge1" class="edge"><title>Daniela Huppenkothen&#45;&gt;Ben Nelson</title>
<path fill="none" stroke="black" stroke-dasharray="1,5" d="M289.583,-96.0761C265.561,-90.2191 239.763,-83.186 216.361,-75.2548 193.517,-67.5129 168.985,-57.0709 148.291,-47.6034"/>
<polygon fill="black" stroke="black" points="149.618,-44.3609 139.073,-43.3352 146.677,-50.713 149.618,-44.3609"/>
<text text-anchor="middle" x="272.395" y="-65.6548" font-family="sans-serif" font-size="12.00" fill="red">astronomy cirriculum</text>
</g>
<!-- Daniela Huppenkothen&#45;&gt;Dan F&#45;M -->
<g id="edge2" class="edge"><title>Daniela Huppenkothen&#45;&gt;Dan F&#45;M</title>
<path fill="none" stroke="black" stroke-dasharray="1,5" d="M358.669,-93.2561C347.126,-81.0078 332.543,-65.5337 320.058,-52.2855"/>
<polygon fill="black" stroke="black" points="322.394,-49.6606 312.988,-44.7835 317.299,-54.4615 322.394,-49.6606"/>
<text text-anchor="middle" x="387.745" y="-65.6548" font-family="sans-serif" font-size="12.00" fill="red">machine learning</text>
</g>
<!-- Daniela Huppenkothen&#45;&gt;breakout -->
<g id="edge3" class="edge"><title>Daniela Huppenkothen&#45;&gt;breakout</title>
<path fill="none" stroke="black" stroke-dasharray="1,5" d="M415.767,-93.5802C423.336,-88.1932 430.872,-81.9993 437.05,-75.2548 442.714,-69.0719 447.712,-61.5882 451.895,-54.2602"/>
<polygon fill="black" stroke="black" points="455.125,-55.6412 456.744,-45.1709 448.949,-52.346 455.125,-55.6412"/>
<text text-anchor="middle" x="465.626" y="-65.6548" font-family="sans-serif" font-size="12.00" fill="red">autodiff</text>
</g>
<!-- Daniela Huppenkothen&#45;&gt;Phil Marshall -->
<g id="edge4" class="edge"><title>Daniela Huppenkothen&#45;&gt;Phil Marshall</title>
<path fill="none" stroke="black" stroke-dasharray="1,5" d="M443.633,-94.6298C490.784,-79.8434 554.561,-59.8439 602.411,-44.8385"/>
<polygon fill="black" stroke="black" points="603.569,-48.1436 612.063,-41.8116 601.474,-41.4643 603.569,-48.1436"/>
<text text-anchor="middle" x="620.756" y="-65.6548" font-family="sans-serif" font-size="12.00" fill="red">probabilistic graphical models</text>
</g>
</g>
</svg>
