<?xml version="1.0" encoding="UTF-8" standalone="no"?>
<!DOCTYPE svg PUBLIC "-//W3C//DTD SVG 1.1//EN"
 "http://www.w3.org/Graphics/SVG/1.1/DTD/svg11.dtd">
<!-- Generated by graphviz version 2.38.0 (20140413.2041)
 -->
<!-- Title: G Pages: 1 -->
<svg width="1189pt" height="147pt"
 viewBox="0.00 0.00 1188.89 146.51" xmlns="http://www.w3.org/2000/svg" xmlns:xlink="http://www.w3.org/1999/xlink">
<g id="graph0" class="graph" transform="scale(1 1) rotate(0) translate(4 142.51)">
<title>G</title>
<polygon fill="white" stroke="none" points="-4,4 -4,-142.51 1184.89,-142.51 1184.89,4 -4,4"/>
<!-- Zach Pace -->
<g id="node1" class="node"><title>Zach Pace</title>
<ellipse fill="black" stroke="black" cx="92.4376" cy="-22.6274" rx="92.3753" ry="22.7556"/>
<text text-anchor="middle" x="92.4376" y="-15.4274" font-family="sans-serif" font-size="24.00" fill="white">Zach Pace</text>
</g>
<!-- Dan F&#45;M -->
<g id="node2" class="node"><title>Dan F&#45;M</title>
<ellipse fill="black" stroke="black" cx="280.438" cy="-22.6274" rx="77.1303" ry="22.7556"/>
<text text-anchor="middle" x="280.438" y="-15.4274" font-family="sans-serif" font-size="24.00" fill="white">Dan F&#45;M</text>
</g>
<!-- Daniela Huppenkothen -->
<g id="node3" class="node"><title>Daniela Huppenkothen</title>
<ellipse fill="black" stroke="black" cx="512.438" cy="-115.882" rx="183.955" ry="22.7556"/>
<text text-anchor="middle" x="512.438" y="-108.682" font-family="sans-serif" font-size="24.00" fill="white">Daniela Huppenkothen</text>
</g>
<!-- Daniela Huppenkothen&#45;&gt;Zach Pace -->
<g id="edge5" class="edge"><title>Daniela Huppenkothen&#45;&gt;Zach Pace</title>
<path fill="none" stroke="black" stroke-dasharray="1,5" d="M393.499,-98.5566C353.64,-92.286 309.086,-84.4037 268.748,-75.2548 230.812,-66.6509 189.006,-54.5273 155.627,-44.1904"/>
<polygon fill="black" stroke="black" points="156.589,-40.8242 146.001,-41.1866 154.504,-47.5065 156.589,-40.8242"/>
<text text-anchor="middle" x="324.782" y="-65.6548" font-family="sans-serif" font-size="12.00" fill="red">astronomy cirriculum</text>
</g>
<!-- Daniela Huppenkothen&#45;&gt;Dan F&#45;M -->
<g id="edge3" class="edge"><title>Daniela Huppenkothen&#45;&gt;Dan F&#45;M</title>
<path fill="none" stroke="black" stroke-dasharray="1,5" d="M459.793,-94.1751C422.326,-79.4379 372.139,-59.6974 334.383,-44.8461"/>
<polygon fill="black" stroke="black" points="335.654,-41.5851 325.067,-41.1817 333.091,-48.0993 335.654,-41.5851"/>
<text text-anchor="middle" x="430.014" y="-65.6548" font-family="sans-serif" font-size="12.00" fill="red">autodiff</text>
</g>
<!-- Megan Shabram -->
<g id="node4" class="node"><title>Megan Shabram</title>
<ellipse fill="black" stroke="black" cx="512.438" cy="-22.6274" rx="136.557" ry="22.7556"/>
<text text-anchor="middle" x="512.438" y="-15.4274" font-family="sans-serif" font-size="24.00" fill="white">Megan Shabram</text>
</g>
<!-- Daniela Huppenkothen&#45;&gt;Megan Shabram -->
<g id="edge1" class="edge"><title>Daniela Huppenkothen&#45;&gt;Megan Shabram</title>
<path fill="none" stroke="black" stroke-dasharray="1,5" d="M512.438,-92.792C512.438,-81.6951 512.438,-68.0403 512.438,-55.8032"/>
<polygon fill="black" stroke="black" points="515.938,-55.5142 512.438,-45.5142 508.938,-55.5143 515.938,-55.5142"/>
<text text-anchor="middle" x="565.468" y="-65.6548" font-family="sans-serif" font-size="12.00" fill="red">gaussian processes</text>
</g>
<!-- Madhura Killedar -->
<g id="node5" class="node"><title>Madhura Killedar</title>
<ellipse fill="black" stroke="black" cx="806.438" cy="-22.6274" rx="139.708" ry="22.7556"/>
<text text-anchor="middle" x="806.438" y="-15.4274" font-family="sans-serif" font-size="24.00" fill="white">Madhura Killedar</text>
</g>
<!-- Daniela Huppenkothen&#45;&gt;Madhura Killedar -->
<g id="edge2" class="edge"><title>Daniela Huppenkothen&#45;&gt;Madhura Killedar</title>
<path fill="none" stroke="black" stroke-dasharray="1,5" d="M577.686,-94.6298C624.058,-80.2364 686.344,-60.9033 734.213,-46.0453"/>
<polygon fill="black" stroke="black" points="735.378,-49.3484 743.891,-43.0413 733.303,-42.6631 735.378,-49.3484"/>
<text text-anchor="middle" x="723.132" y="-65.6548" font-family="sans-serif" font-size="12.00" fill="red">machine learning</text>
</g>
<!-- Phil Marshall -->
<g id="node6" class="node"><title>Phil Marshall</title>
<ellipse fill="black" stroke="black" cx="1072.44" cy="-22.6274" rx="108.411" ry="22.7556"/>
<text text-anchor="middle" x="1072.44" y="-15.4274" font-family="sans-serif" font-size="24.00" fill="white">Phil Marshall</text>
</g>
<!-- Daniela Huppenkothen&#45;&gt;Phil Marshall -->
<g id="edge4" class="edge"><title>Daniela Huppenkothen&#45;&gt;Phil Marshall</title>
<path fill="none" stroke="black" stroke-dasharray="1,5" d="M626.422,-98.04C715.998,-84.5453 843.844,-64.7138 955.438,-45.2548 964.726,-43.6352 974.422,-41.9055 984.084,-40.1566"/>
<polygon fill="black" stroke="black" points="984.911,-43.5638 994.123,-38.3309 983.658,-36.6768 984.911,-43.5638"/>
<text text-anchor="middle" x="925.144" y="-65.6548" font-family="sans-serif" font-size="12.00" fill="red">probabilistic graphical models</text>
</g>
</g>
</svg>
