<?xml version="1.0" encoding="UTF-8" standalone="no"?>
<!DOCTYPE svg PUBLIC "-//W3C//DTD SVG 1.1//EN"
 "http://www.w3.org/Graphics/SVG/1.1/DTD/svg11.dtd">
<!-- Generated by graphviz version 2.38.0 (20140413.2041)
 -->
<!-- Title: G Pages: 1 -->
<svg width="663pt" height="147pt"
 viewBox="0.00 0.00 662.58 146.51" xmlns="http://www.w3.org/2000/svg" xmlns:xlink="http://www.w3.org/1999/xlink">
<g id="graph0" class="graph" transform="scale(1 1) rotate(0) translate(4 142.51)">
<title>G</title>
<polygon fill="white" stroke="none" points="-4,4 -4,-142.51 658.578,-142.51 658.578,4 -4,4"/>
<!-- Casey Law -->
<g id="node1" class="node"><title>Casey Law</title>
<ellipse fill="black" stroke="black" cx="95.2633" cy="-22.6274" rx="95.0272" ry="22.7556"/>
<text text-anchor="middle" x="95.2633" y="-15.4274" font-family="sans-serif" font-size="24.00" fill="white">Casey Law</text>
</g>
<!-- Megan Shabram -->
<g id="node2" class="node"><title>Megan Shabram</title>
<ellipse fill="black" stroke="black" cx="345.263" cy="-22.6274" rx="136.557" ry="22.7556"/>
<text text-anchor="middle" x="345.263" y="-15.4274" font-family="sans-serif" font-size="24.00" fill="white">Megan Shabram</text>
</g>
<!-- Dan F&#45;M -->
<g id="node3" class="node"><title>Dan F&#45;M</title>
<ellipse fill="black" stroke="black" cx="577.263" cy="-22.6274" rx="77.1303" ry="22.7556"/>
<text text-anchor="middle" x="577.263" y="-15.4274" font-family="sans-serif" font-size="24.00" fill="white">Dan F&#45;M</text>
</g>
<!-- Daniela Huppenkothen -->
<g id="node4" class="node"><title>Daniela Huppenkothen</title>
<ellipse fill="black" stroke="black" cx="345.263" cy="-115.882" rx="183.955" ry="22.7556"/>
<text text-anchor="middle" x="345.263" y="-108.682" font-family="sans-serif" font-size="24.00" fill="white">Daniela Huppenkothen</text>
</g>
<!-- Daniela Huppenkothen&#45;&gt;Casey Law -->
<g id="edge1" class="edge"><title>Daniela Huppenkothen&#45;&gt;Casey Law</title>
<path fill="none" stroke="black" stroke-dasharray="1,5" d="M285.018,-94.4692C267.426,-88.3998 248.195,-81.659 230.574,-75.2548 204.81,-65.8913 176.448,-55.1392 152.375,-45.8796"/>
<polygon fill="black" stroke="black" points="153.62,-42.6089 143.031,-42.2778 151.102,-49.1404 153.62,-42.6089"/>
<text text-anchor="middle" x="286.608" y="-65.6548" font-family="sans-serif" font-size="12.00" fill="red">astronomy cirriculum</text>
</g>
<!-- Daniela Huppenkothen&#45;&gt;Megan Shabram -->
<g id="edge2" class="edge"><title>Daniela Huppenkothen&#45;&gt;Megan Shabram</title>
<path fill="none" stroke="black" stroke-dasharray="1,5" d="M345.263,-92.792C345.263,-81.6951 345.263,-68.0403 345.263,-55.8032"/>
<polygon fill="black" stroke="black" points="348.763,-55.5142 345.263,-45.5142 341.763,-55.5143 348.763,-55.5142"/>
<text text-anchor="middle" x="390.958" y="-65.6548" font-family="sans-serif" font-size="12.00" fill="red">machine learning</text>
</g>
<!-- Daniela Huppenkothen&#45;&gt;Dan F&#45;M -->
<g id="edge3" class="edge"><title>Daniela Huppenkothen&#45;&gt;Dan F&#45;M</title>
<path fill="none" stroke="black" stroke-dasharray="1,5" d="M397.908,-94.1751C435.375,-79.4379 485.562,-59.6974 523.318,-44.8461"/>
<polygon fill="black" stroke="black" points="524.61,-48.0993 532.634,-41.1817 522.047,-41.5851 524.61,-48.0993"/>
<text text-anchor="middle" x="553.969" y="-65.6548" font-family="sans-serif" font-size="12.00" fill="red">probabilistic graphical models</text>
</g>
</g>
</svg>
