<?xml version="1.0" encoding="UTF-8" standalone="no"?>
<!DOCTYPE svg PUBLIC "-//W3C//DTD SVG 1.1//EN"
 "http://www.w3.org/Graphics/SVG/1.1/DTD/svg11.dtd">
<!-- Generated by graphviz version 2.38.0 (20140413.2041)
 -->
<!-- Title: G Pages: 1 -->
<svg width="603pt" height="147pt"
 viewBox="0.00 0.00 602.85 146.51" xmlns="http://www.w3.org/2000/svg" xmlns:xlink="http://www.w3.org/1999/xlink">
<g id="graph0" class="graph" transform="scale(1 1) rotate(0) translate(4 142.51)">
<title>G</title>
<polygon fill="white" stroke="none" points="-4,4 -4,-142.51 598.854,-142.51 598.854,4 -4,4"/>
<!-- Kate Follette -->
<g id="node1" class="node"><title>Kate Follette</title>
<ellipse fill="black" stroke="black" cx="314.416" cy="-115.882" rx="106.682" ry="22.7556"/>
<text text-anchor="middle" x="314.416" y="-108.682" font-family="sans-serif" font-size="24.00" fill="white">Kate Follette</text>
</g>
<!-- Usman Khan -->
<g id="node2" class="node"><title>Usman Khan</title>
<ellipse fill="black" stroke="black" cx="109.416" cy="-22.6274" rx="109.333" ry="22.7556"/>
<text text-anchor="middle" x="109.416" y="-15.4274" font-family="sans-serif" font-size="24.00" fill="white">Usman Khan</text>
</g>
<!-- Kate Follette&#45;&gt;Usman Khan -->
<g id="edge1" class="edge"><title>Kate Follette&#45;&gt;Usman Khan</title>
<path fill="none" stroke="black" stroke-dasharray="1,5" d="M270.187,-95.1937C238.771,-81.209 196.419,-62.3563 163.071,-47.5114"/>
<polygon fill="black" stroke="black" points="164.479,-44.3073 153.92,-43.438 161.633,-50.7023 164.479,-44.3073"/>
<text text-anchor="middle" x="244.092" y="-65.6548" font-family="sans-serif" font-size="12.00" fill="red">Jupyter</text>
</g>
<!-- breakout -->
<g id="node3" class="node"><title>breakout</title>
<ellipse fill="black" stroke="black" cx="314.416" cy="-22.6274" rx="77.213" ry="22.7556"/>
<text text-anchor="middle" x="314.416" y="-15.4274" font-family="sans-serif" font-size="24.00" fill="white">breakout</text>
</g>
<!-- Kate Follette&#45;&gt;breakout -->
<g id="edge2" class="edge"><title>Kate Follette&#45;&gt;breakout</title>
<path fill="none" stroke="black" stroke-dasharray="1,5" d="M314.416,-92.792C314.416,-81.6951 314.416,-68.0403 314.416,-55.8032"/>
<polygon fill="black" stroke="black" points="317.917,-55.5142 314.416,-45.5142 310.917,-55.5143 317.917,-55.5142"/>
<text text-anchor="middle" x="367.447" y="-65.6548" font-family="sans-serif" font-size="12.00" fill="red">gaussian processes</text>
</g>
<!-- Zach Pace -->
<g id="node4" class="node"><title>Zach Pace</title>
<ellipse fill="black" stroke="black" cx="502.416" cy="-22.6274" rx="92.3753" ry="22.7556"/>
<text text-anchor="middle" x="502.416" y="-15.4274" font-family="sans-serif" font-size="24.00" fill="white">Zach Pace</text>
</g>
<!-- Kate Follette&#45;&gt;Zach Pace -->
<g id="edge3" class="edge"><title>Kate Follette&#45;&gt;Zach Pace</title>
<path fill="none" stroke="black" stroke-dasharray="1,5" d="M372.594,-96.8429C389.647,-90.7817 408.089,-83.4508 424.416,-75.2548 438.567,-68.1515 453.253,-58.9702 466.014,-50.3241"/>
<polygon fill="black" stroke="black" points="468.271,-53.0187 474.511,-44.4559 464.293,-47.2588 468.271,-53.0187"/>
<text text-anchor="middle" x="500.761" y="-65.6548" font-family="sans-serif" font-size="12.00" fill="red">astronomy cirriculum</text>
</g>
</g>
</svg>
