<?xml version="1.0" encoding="UTF-8" standalone="no"?>
<!DOCTYPE svg PUBLIC "-//W3C//DTD SVG 1.1//EN"
 "http://www.w3.org/Graphics/SVG/1.1/DTD/svg11.dtd">
<!-- Generated by graphviz version 2.38.0 (20140413.2041)
 -->
<!-- Title: G Pages: 1 -->
<svg width="610pt" height="147pt"
 viewBox="0.00 0.00 610.42 146.51" xmlns="http://www.w3.org/2000/svg" xmlns:xlink="http://www.w3.org/1999/xlink">
<g id="graph0" class="graph" transform="scale(1 1) rotate(0) translate(4 142.51)">
<title>G</title>
<polygon fill="white" stroke="none" points="-4,4 -4,-142.51 606.416,-142.51 606.416,4 -4,4"/>
<!-- Oleg Burgueño -->
<g id="node1" class="node"><title>Oleg Burgueño</title>
<ellipse fill="black" stroke="black" cx="125.476" cy="-22.6274" rx="125.451" ry="22.7556"/>
<text text-anchor="middle" x="125.476" y="-15.4274" font-family="sans-serif" font-size="24.00" fill="white">Oleg Burgueño</text>
</g>
<!-- Kate Follette -->
<g id="node2" class="node"><title>Kate Follette</title>
<ellipse fill="black" stroke="black" cx="280.476" cy="-115.882" rx="106.682" ry="22.7556"/>
<text text-anchor="middle" x="280.476" y="-108.682" font-family="sans-serif" font-size="24.00" fill="white">Kate Follette</text>
</g>
<!-- Kate Follette&#45;&gt;Oleg Burgueño -->
<g id="edge1" class="edge"><title>Kate Follette&#45;&gt;Oleg Burgueño</title>
<path fill="none" stroke="black" stroke-dasharray="1,5" d="M245.691,-94.4029C223.114,-81.1113 193.505,-63.6793 169.322,-49.4415"/>
<polygon fill="black" stroke="black" points="171.074,-46.4115 160.681,-44.3542 167.522,-52.4438 171.074,-46.4115"/>
<text text-anchor="middle" x="265.506" y="-65.6548" font-family="sans-serif" font-size="12.00" fill="red">gaussian processes</text>
</g>
<!-- Kate Follette&#45;&gt;Kate Follette -->
<g id="edge2" class="edge"><title>Kate Follette&#45;&gt;Kate Follette</title>
<path fill="none" stroke="black" stroke-dasharray="1,5" d="M380.683,-123.665C395.252,-122.43 405.066,-119.835 405.066,-115.882 405.066,-112.917 399.546,-110.717 390.639,-109.281"/>
<polygon fill="black" stroke="black" points="391.026,-105.802 380.683,-108.1 390.201,-112.753 391.026,-105.802"/>
<text text-anchor="middle" x="460.411" y="-112.282" font-family="sans-serif" font-size="12.00" fill="red">astronomy cirriculum</text>
</g>
<!-- Adrian Price&#45;Whelan -->
<g id="node3" class="node"><title>Adrian Price&#45;Whelan</title>
<ellipse fill="black" stroke="black" cx="435.476" cy="-22.6274" rx="166.881" ry="22.7556"/>
<text text-anchor="middle" x="435.476" y="-15.4274" font-family="sans-serif" font-size="24.00" fill="white">Adrian Price&#45;Whelan</text>
</g>
<!-- Kate Follette&#45;&gt;Adrian Price&#45;Whelan -->
<g id="edge3" class="edge"><title>Kate Follette&#45;&gt;Adrian Price&#45;Whelan</title>
<path fill="none" stroke="black" stroke-dasharray="1,5" d="M315.261,-94.4029C337.5,-81.3094 366.565,-64.1979 390.544,-50.0802"/>
<polygon fill="black" stroke="black" points="392.619,-52.9202 399.461,-44.8306 389.068,-46.888 392.619,-52.9202"/>
<text text-anchor="middle" x="386.151" y="-65.6548" font-family="sans-serif" font-size="12.00" fill="red">Jupyter</text>
</g>
</g>
</svg>
