<?xml version="1.0" encoding="UTF-8" standalone="no"?>
<!DOCTYPE svg PUBLIC "-//W3C//DTD SVG 1.1//EN"
 "http://www.w3.org/Graphics/SVG/1.1/DTD/svg11.dtd">
<!-- Generated by graphviz version 2.38.0 (20140413.2041)
 -->
<!-- Title: G Pages: 1 -->
<svg width="979pt" height="147pt"
 viewBox="0.00 0.00 978.76 146.51" xmlns="http://www.w3.org/2000/svg" xmlns:xlink="http://www.w3.org/1999/xlink">
<g id="graph0" class="graph" transform="scale(1 1) rotate(0) translate(4 142.51)">
<title>G</title>
<polygon fill="white" stroke="none" points="-4,4 -4,-142.51 974.76,-142.51 974.76,4 -4,4"/>
<!-- Brigitta Sipocz -->
<g id="node1" class="node"><title>Brigitta Sipocz</title>
<ellipse fill="black" stroke="black" cx="119.783" cy="-22.6274" rx="119.566" ry="22.7556"/>
<text text-anchor="middle" x="119.783" y="-15.4274" font-family="sans-serif" font-size="24.00" fill="white">Brigitta Sipocz</text>
</g>
<!-- Dan F&#45;M -->
<g id="node2" class="node"><title>Dan F&#45;M</title>
<ellipse fill="black" stroke="black" cx="334.783" cy="-22.6274" rx="77.1303" ry="22.7556"/>
<text text-anchor="middle" x="334.783" y="-15.4274" font-family="sans-serif" font-size="24.00" fill="white">Dan F&#45;M</text>
</g>
<!-- breakout -->
<g id="node3" class="node"><title>breakout</title>
<ellipse fill="black" stroke="black" cx="507.783" cy="-22.6274" rx="77.213" ry="22.7556"/>
<text text-anchor="middle" x="507.783" y="-15.4274" font-family="sans-serif" font-size="24.00" fill="white">breakout</text>
</g>
<!-- Phil Marshall -->
<g id="node4" class="node"><title>Phil Marshall</title>
<ellipse fill="black" stroke="black" cx="420.783" cy="-115.882" rx="108.411" ry="22.7556"/>
<text text-anchor="middle" x="420.783" y="-108.682" font-family="sans-serif" font-size="24.00" fill="white">Phil Marshall</text>
</g>
<!-- Phil Marshall&#45;&gt;Brigitta Sipocz -->
<g id="edge1" class="edge"><title>Phil Marshall&#45;&gt;Brigitta Sipocz</title>
<path fill="none" stroke="black" stroke-dasharray="1,5" d="M350.788,-98.4711C323.931,-91.7989 293.091,-83.6793 265.388,-75.2548 237.401,-66.744 206.833,-56.1141 180.962,-46.7157"/>
<polygon fill="black" stroke="black" points="181.886,-43.3269 171.292,-43.1809 179.482,-49.9014 181.886,-43.3269"/>
<text text-anchor="middle" x="317.48" y="-65.6548" font-family="sans-serif" font-size="12.00" fill="red">packaging (Python)</text>
</g>
<!-- Phil Marshall&#45;&gt;Dan F&#45;M -->
<g id="edge2" class="edge"><title>Phil Marshall&#45;&gt;Dan F&#45;M</title>
<path fill="none" stroke="black" stroke-dasharray="1,5" d="M400.402,-93.2561C388.859,-81.0078 374.276,-65.5337 361.791,-52.2855"/>
<polygon fill="black" stroke="black" points="364.126,-49.6606 354.721,-44.7835 359.032,-54.4615 364.126,-49.6606"/>
<text text-anchor="middle" x="411.471" y="-65.6548" font-family="sans-serif" font-size="12.00" fill="red">databases</text>
</g>
<!-- Phil Marshall&#45;&gt;breakout -->
<g id="edge3" class="edge"><title>Phil Marshall&#45;&gt;breakout</title>
<path fill="none" stroke="black" stroke-dasharray="1,5" d="M441.401,-93.2561C453.078,-81.0078 467.83,-65.5337 480.461,-52.2855"/>
<polygon fill="black" stroke="black" points="483.246,-54.4364 487.613,-44.7835 478.18,-49.6062 483.246,-54.4364"/>
<text text-anchor="middle" x="487.127" y="-65.6548" font-family="sans-serif" font-size="12.00" fill="red">sphinx</text>
</g>
<!-- Daniela Huppenkothen -->
<g id="node5" class="node"><title>Daniela Huppenkothen</title>
<ellipse fill="black" stroke="black" cx="786.783" cy="-22.6274" rx="183.955" ry="22.7556"/>
<text text-anchor="middle" x="786.783" y="-15.4274" font-family="sans-serif" font-size="24.00" fill="white">Daniela Huppenkothen</text>
</g>
<!-- Phil Marshall&#45;&gt;Daniela Huppenkothen -->
<g id="edge4" class="edge"><title>Phil Marshall&#45;&gt;Daniela Huppenkothen</title>
<path fill="none" stroke="black" stroke-dasharray="1,5" d="M488.339,-98.0384C547.573,-83.2695 634.082,-61.7004 698.728,-45.5822"/>
<polygon fill="black" stroke="black" points="699.648,-48.9601 708.504,-43.1447 697.954,-42.168 699.648,-48.9601"/>
<text text-anchor="middle" x="678.813" y="-65.6548" font-family="sans-serif" font-size="12.00" fill="red">gaussian processes</text>
</g>
</g>
</svg>
