<?xml version="1.0" encoding="UTF-8" standalone="no"?>
<!DOCTYPE svg PUBLIC "-//W3C//DTD SVG 1.1//EN"
 "http://www.w3.org/Graphics/SVG/1.1/DTD/svg11.dtd">
<!-- Generated by graphviz version 2.38.0 (20140413.2041)
 -->
<!-- Title: G Pages: 1 -->
<svg width="683pt" height="147pt"
 viewBox="0.00 0.00 683.36 146.51" xmlns="http://www.w3.org/2000/svg" xmlns:xlink="http://www.w3.org/1999/xlink">
<g id="graph0" class="graph" transform="scale(1 1) rotate(0) translate(4 142.51)">
<title>G</title>
<polygon fill="white" stroke="none" points="-4,4 -4,-142.51 679.364,-142.51 679.364,4 -4,4"/>
<!-- Jennifer Sobeck -->
<g id="node1" class="node"><title>Jennifer Sobeck</title>
<ellipse fill="black" stroke="black" cx="133.008" cy="-22.6274" rx="133.016" ry="22.7556"/>
<text text-anchor="middle" x="133.008" y="-15.4274" font-family="sans-serif" font-size="24.00" fill="white">Jennifer Sobeck</text>
</g>
<!-- Usman Khan -->
<g id="node2" class="node"><title>Usman Khan</title>
<ellipse fill="black" stroke="black" cx="393.008" cy="-22.6274" rx="109.333" ry="22.7556"/>
<text text-anchor="middle" x="393.008" y="-15.4274" font-family="sans-serif" font-size="24.00" fill="white">Usman Khan</text>
</g>
<!-- breakout -->
<g id="node3" class="node"><title>breakout</title>
<ellipse fill="black" stroke="black" cx="598.008" cy="-22.6274" rx="77.213" ry="22.7556"/>
<text text-anchor="middle" x="598.008" y="-15.4274" font-family="sans-serif" font-size="24.00" fill="white">breakout</text>
</g>
<!-- Phil Marshall -->
<g id="node4" class="node"><title>Phil Marshall</title>
<ellipse fill="black" stroke="black" cx="393.008" cy="-115.882" rx="108.411" ry="22.7556"/>
<text text-anchor="middle" x="393.008" y="-108.682" font-family="sans-serif" font-size="24.00" fill="white">Phil Marshall</text>
</g>
<!-- Phil Marshall&#45;&gt;Jennifer Sobeck -->
<g id="edge1" class="edge"><title>Phil Marshall&#45;&gt;Jennifer Sobeck</title>
<path fill="none" stroke="black" stroke-dasharray="1,5" d="M339.451,-96.0848C298.543,-81.7269 241.972,-61.8715 198.392,-46.576"/>
<polygon fill="black" stroke="black" points="199.334,-43.1974 188.74,-43.1881 197.016,-49.8024 199.334,-43.1974"/>
<text text-anchor="middle" x="296.352" y="-65.6548" font-family="sans-serif" font-size="12.00" fill="red">sphinx</text>
</g>
<!-- Phil Marshall&#45;&gt;Usman Khan -->
<g id="edge2" class="edge"><title>Phil Marshall&#45;&gt;Usman Khan</title>
<path fill="none" stroke="black" stroke-dasharray="1,5" d="M393.008,-92.792C393.008,-81.6951 393.008,-68.0403 393.008,-55.8032"/>
<polygon fill="black" stroke="black" points="396.508,-55.5142 393.008,-45.5142 389.508,-55.5143 396.508,-55.5142"/>
<text text-anchor="middle" x="420.696" y="-65.6548" font-family="sans-serif" font-size="12.00" fill="red">databases</text>
</g>
<!-- Phil Marshall&#45;&gt;breakout -->
<g id="edge3" class="edge"><title>Phil Marshall&#45;&gt;breakout</title>
<path fill="none" stroke="black" stroke-dasharray="1,5" d="M437.237,-95.1937C469.729,-80.7301 513.919,-61.0593 547.747,-46.0007"/>
<polygon fill="black" stroke="black" points="549.283,-49.1482 556.996,-41.8838 546.436,-42.7531 549.283,-49.1482"/>
<text text-anchor="middle" x="559.705" y="-65.6548" font-family="sans-serif" font-size="12.00" fill="red">packaging (Python)</text>
</g>
</g>
</svg>
