<?xml version="1.0" encoding="UTF-8" standalone="no"?>
<!DOCTYPE svg PUBLIC "-//W3C//DTD SVG 1.1//EN"
 "http://www.w3.org/Graphics/SVG/1.1/DTD/svg11.dtd">
<!-- Generated by graphviz version 2.38.0 (20140413.2041)
 -->
<!-- Title: G Pages: 1 -->
<svg width="454pt" height="147pt"
 viewBox="0.00 0.00 454.09 146.51" xmlns="http://www.w3.org/2000/svg" xmlns:xlink="http://www.w3.org/1999/xlink">
<g id="graph0" class="graph" transform="scale(1 1) rotate(0) translate(4 142.51)">
<title>G</title>
<polygon fill="white" stroke="none" points="-4,4 -4,-142.51 450.093,-142.51 450.093,4 -4,4"/>
<!-- Ben Nelson -->
<g id="node1" class="node"><title>Ben Nelson</title>
<ellipse fill="black" stroke="black" cx="252.778" cy="-115.882" rx="99.1004" ry="22.7556"/>
<text text-anchor="middle" x="252.778" y="-108.682" font-family="sans-serif" font-size="24.00" fill="white">Ben Nelson</text>
</g>
<!-- Megan Shabram -->
<g id="node2" class="node"><title>Megan Shabram</title>
<ellipse fill="black" stroke="black" cx="136.778" cy="-22.6274" rx="136.557" ry="22.7556"/>
<text text-anchor="middle" x="136.778" y="-15.4274" font-family="sans-serif" font-size="24.00" fill="white">Megan Shabram</text>
</g>
<!-- Ben Nelson&#45;&gt;Megan Shabram -->
<g id="edge1" class="edge"><title>Ben Nelson&#45;&gt;Megan Shabram</title>
<path fill="none" stroke="black" stroke-dasharray="1,5" d="M226.165,-93.9465C210.185,-81.3753 189.656,-65.2254 172.302,-51.5737"/>
<polygon fill="black" stroke="black" points="174.096,-48.5313 164.072,-45.0992 169.768,-54.033 174.096,-48.5313"/>
<text text-anchor="middle" x="247.473" y="-65.6548" font-family="sans-serif" font-size="12.00" fill="red">machine learning</text>
</g>
<!-- Dan F&#45;M -->
<g id="node3" class="node"><title>Dan F&#45;M</title>
<ellipse fill="black" stroke="black" cx="368.778" cy="-22.6274" rx="77.1303" ry="22.7556"/>
<text text-anchor="middle" x="368.778" y="-15.4274" font-family="sans-serif" font-size="24.00" fill="white">Dan F&#45;M</text>
</g>
<!-- Ben Nelson&#45;&gt;Dan F&#45;M -->
<g id="edge2" class="edge"><title>Ben Nelson&#45;&gt;Dan F&#45;M</title>
<path fill="none" stroke="black" stroke-dasharray="1,5" d="M279.391,-93.9465C295.716,-81.1039 316.789,-64.5266 334.373,-50.6933"/>
<polygon fill="black" stroke="black" points="336.994,-53.085 342.689,-44.1512 332.666,-47.5833 336.994,-53.085"/>
<text text-anchor="middle" x="368.475" y="-65.6548" font-family="sans-serif" font-size="12.00" fill="red">packaging (Python)</text>
</g>
</g>
</svg>
