<?xml version="1.0" encoding="UTF-8" standalone="no"?>
<!DOCTYPE svg PUBLIC "-//W3C//DTD SVG 1.1//EN"
 "http://www.w3.org/Graphics/SVG/1.1/DTD/svg11.dtd">
<!-- Generated by graphviz version 2.38.0 (20140413.2041)
 -->
<!-- Title: G Pages: 1 -->
<svg width="768pt" height="147pt"
 viewBox="0.00 0.00 767.91 146.51" xmlns="http://www.w3.org/2000/svg" xmlns:xlink="http://www.w3.org/1999/xlink">
<g id="graph0" class="graph" transform="scale(1 1) rotate(0) translate(4 142.51)">
<title>G</title>
<polygon fill="white" stroke="none" points="-4,4 -4,-142.51 763.909,-142.51 763.909,4 -4,4"/>
<!-- Ben Nelson -->
<g id="node1" class="node"><title>Ben Nelson</title>
<ellipse fill="black" stroke="black" cx="296.931" cy="-115.882" rx="99.1004" ry="22.7556"/>
<text text-anchor="middle" x="296.931" y="-108.682" font-family="sans-serif" font-size="24.00" fill="white">Ben Nelson</text>
</g>
<!-- Layne Price -->
<g id="node2" class="node"><title>Layne Price</title>
<ellipse fill="black" stroke="black" cx="100.931" cy="-22.6274" rx="100.862" ry="22.7556"/>
<text text-anchor="middle" x="100.931" y="-15.4274" font-family="sans-serif" font-size="24.00" fill="white">Layne Price</text>
</g>
<!-- Ben Nelson&#45;&gt;Layne Price -->
<g id="edge1" class="edge"><title>Ben Nelson&#45;&gt;Layne Price</title>
<path fill="none" stroke="black" stroke-dasharray="1,5" d="M249.055,-95.8738C233.761,-89.5673 216.837,-82.3419 201.543,-75.2548 183.657,-66.9671 164.324,-57.2386 147.431,-48.4745"/>
<polygon fill="black" stroke="black" points="148.806,-45.2441 138.321,-43.7199 145.567,-51.4498 148.806,-45.2441"/>
<text text-anchor="middle" x="247.626" y="-65.6548" font-family="sans-serif" font-size="12.00" fill="red">machine learning</text>
</g>
<!-- Dan F&#45;M -->
<g id="node3" class="node"><title>Dan F&#45;M</title>
<ellipse fill="black" stroke="black" cx="296.931" cy="-22.6274" rx="77.1303" ry="22.7556"/>
<text text-anchor="middle" x="296.931" y="-15.4274" font-family="sans-serif" font-size="24.00" fill="white">Dan F&#45;M</text>
</g>
<!-- Ben Nelson&#45;&gt;Dan F&#45;M -->
<g id="edge2" class="edge"><title>Ben Nelson&#45;&gt;Dan F&#45;M</title>
<path fill="none" stroke="black" stroke-dasharray="1,5" d="M296.931,-92.792C296.931,-81.6951 296.931,-68.0403 296.931,-55.8032"/>
<polygon fill="black" stroke="black" points="300.431,-55.5142 296.931,-45.5142 293.431,-55.5143 300.431,-55.5142"/>
<text text-anchor="middle" x="348.628" y="-65.6548" font-family="sans-serif" font-size="12.00" fill="red">packaging (Python)</text>
</g>
<!-- Daniela Huppenkothen -->
<g id="node4" class="node"><title>Daniela Huppenkothen</title>
<ellipse fill="black" stroke="black" cx="575.931" cy="-22.6274" rx="183.955" ry="22.7556"/>
<text text-anchor="middle" x="575.931" y="-15.4274" font-family="sans-serif" font-size="24.00" fill="white">Daniela Huppenkothen</text>
</g>
<!-- Ben Nelson&#45;&gt;Daniela Huppenkothen -->
<g id="edge3" class="edge"><title>Ben Nelson&#45;&gt;Daniela Huppenkothen</title>
<path fill="none" stroke="black" stroke-dasharray="1,5" d="M351.72,-96.9621C395.221,-82.7339 456.409,-62.7206 503.877,-47.1949"/>
<polygon fill="black" stroke="black" points="505.065,-50.4887 513.482,-44.0533 502.889,-43.8355 505.065,-50.4887"/>
<text text-anchor="middle" x="505.961" y="-65.6548" font-family="sans-serif" font-size="12.00" fill="red">gaussian processes</text>
</g>
</g>
</svg>
