<?xml version="1.0" encoding="UTF-8" standalone="no"?>
<!DOCTYPE svg PUBLIC "-//W3C//DTD SVG 1.1//EN"
 "http://www.w3.org/Graphics/SVG/1.1/DTD/svg11.dtd">
<!-- Generated by graphviz version 2.38.0 (20140413.2041)
 -->
<!-- Title: G Pages: 1 -->
<svg width="548pt" height="147pt"
 viewBox="0.00 0.00 548.33 146.51" xmlns="http://www.w3.org/2000/svg" xmlns:xlink="http://www.w3.org/1999/xlink">
<g id="graph0" class="graph" transform="scale(1 1) rotate(0) translate(4 142.51)">
<title>G</title>
<polygon fill="white" stroke="none" points="-4,4 -4,-142.51 544.334,-142.51 544.334,4 -4,4"/>
<!-- Ben Nelson -->
<g id="node1" class="node"><title>Ben Nelson</title>
<ellipse fill="black" stroke="black" cx="216.356" cy="-115.882" rx="99.1004" ry="22.7556"/>
<text text-anchor="middle" x="216.356" y="-108.682" font-family="sans-serif" font-size="24.00" fill="white">Ben Nelson</text>
</g>
<!-- breakout -->
<g id="node2" class="node"><title>breakout</title>
<ellipse fill="black" stroke="black" cx="77.3564" cy="-22.6274" rx="77.213" ry="22.7556"/>
<text text-anchor="middle" x="77.3564" y="-15.4274" font-family="sans-serif" font-size="24.00" fill="white">breakout</text>
</g>
<!-- Ben Nelson&#45;&gt;breakout -->
<g id="edge1" class="edge"><title>Ben Nelson&#45;&gt;breakout</title>
<path fill="none" stroke="black" stroke-dasharray="1,5" d="M185.162,-94.4029C164.811,-81.0424 138.088,-63.4982 116.339,-49.2202"/>
<polygon fill="black" stroke="black" points="118.248,-46.2866 107.968,-43.7243 114.407,-52.1382 118.248,-46.2866"/>
<text text-anchor="middle" x="207.054" y="-65.6548" font-family="sans-serif" font-size="12.00" fill="red">packaging (Python)</text>
</g>
<!-- Daniela Huppenkothen -->
<g id="node3" class="node"><title>Daniela Huppenkothen</title>
<ellipse fill="black" stroke="black" cx="356.356" cy="-22.6274" rx="183.955" ry="22.7556"/>
<text text-anchor="middle" x="356.356" y="-15.4274" font-family="sans-serif" font-size="24.00" fill="white">Daniela Huppenkothen</text>
</g>
<!-- Ben Nelson&#45;&gt;Daniela Huppenkothen -->
<g id="edge2" class="edge"><title>Ben Nelson&#45;&gt;Daniela Huppenkothen</title>
<path fill="none" stroke="black" stroke-dasharray="1,5" d="M247.775,-94.4029C267.615,-81.471 293.468,-64.6196 314.97,-50.6041"/>
<polygon fill="black" stroke="black" points="317.116,-53.383 323.582,-44.9902 313.294,-47.5187 317.116,-53.383"/>
<text text-anchor="middle" x="340.051" y="-65.6548" font-family="sans-serif" font-size="12.00" fill="red">machine learning</text>
</g>
</g>
</svg>
