<?xml version="1.0" encoding="UTF-8" standalone="no"?>
<!DOCTYPE svg PUBLIC "-//W3C//DTD SVG 1.1//EN"
 "http://www.w3.org/Graphics/SVG/1.1/DTD/svg11.dtd">
<!-- Generated by graphviz version 2.38.0 (20140413.2041)
 -->
<!-- Title: G Pages: 1 -->
<svg width="1161pt" height="147pt"
 viewBox="0.00 0.00 1161.14 146.51" xmlns="http://www.w3.org/2000/svg" xmlns:xlink="http://www.w3.org/1999/xlink">
<g id="graph0" class="graph" transform="scale(1 1) rotate(0) translate(4 142.51)">
<title>G</title>
<polygon fill="white" stroke="none" points="-4,4 -4,-142.51 1157.14,-142.51 1157.14,4 -4,4"/>
<!-- Brigitta Sipocz -->
<g id="node1" class="node"><title>Brigitta Sipocz</title>
<ellipse fill="black" stroke="black" cx="119.783" cy="-22.6274" rx="119.566" ry="22.7556"/>
<text text-anchor="middle" x="119.783" y="-15.4274" font-family="sans-serif" font-size="24.00" fill="white">Brigitta Sipocz</text>
</g>
<!-- Adrian Price&#45;Whelan -->
<g id="node2" class="node"><title>Adrian Price&#45;Whelan</title>
<ellipse fill="black" stroke="black" cx="424.783" cy="-22.6274" rx="166.881" ry="22.7556"/>
<text text-anchor="middle" x="424.783" y="-15.4274" font-family="sans-serif" font-size="24.00" fill="white">Adrian Price&#45;Whelan</text>
</g>
<!-- Ben Nelson -->
<g id="node3" class="node"><title>Ben Nelson</title>
<ellipse fill="black" stroke="black" cx="708.783" cy="-22.6274" rx="99.1004" ry="22.7556"/>
<text text-anchor="middle" x="708.783" y="-15.4274" font-family="sans-serif" font-size="24.00" fill="white">Ben Nelson</text>
</g>
<!-- Usman Khan -->
<g id="node4" class="node"><title>Usman Khan</title>
<ellipse fill="black" stroke="black" cx="708.783" cy="-115.882" rx="109.333" ry="22.7556"/>
<text text-anchor="middle" x="708.783" y="-108.682" font-family="sans-serif" font-size="24.00" fill="white">Usman Khan</text>
</g>
<!-- Usman Khan&#45;&gt;Brigitta Sipocz -->
<g id="edge2" class="edge"><title>Usman Khan&#45;&gt;Brigitta Sipocz</title>
<path fill="none" stroke="black" stroke-dasharray="1,5" d="M621.375,-102.167C528.782,-88.5769 378.361,-66.1555 248.783,-45.2548 238.313,-43.566 227.369,-41.7736 216.474,-39.9715"/>
<polygon fill="black" stroke="black" points="216.934,-36.5002 206.496,-38.3166 215.789,-43.4058 216.934,-36.5002"/>
<text text-anchor="middle" x="490.48" y="-65.6548" font-family="sans-serif" font-size="12.00" fill="red">packaging (Python)</text>
</g>
<!-- Usman Khan&#45;&gt;Adrian Price&#45;Whelan -->
<g id="edge5" class="edge"><title>Usman Khan&#45;&gt;Adrian Price&#45;Whelan</title>
<path fill="none" stroke="black" stroke-dasharray="1,5" d="M651.653,-96.5252C607.101,-82.2098 544.943,-62.2373 496.953,-46.8171"/>
<polygon fill="black" stroke="black" points="497.838,-43.4252 487.246,-43.6982 495.696,-50.0897 497.838,-43.4252"/>
<text text-anchor="middle" x="608.894" y="-65.6548" font-family="sans-serif" font-size="12.00" fill="red">Travis&#45;CI</text>
</g>
<!-- Usman Khan&#45;&gt;Ben Nelson -->
<g id="edge1" class="edge"><title>Usman Khan&#45;&gt;Ben Nelson</title>
<path fill="none" stroke="black" stroke-dasharray="1,5" d="M708.783,-92.792C708.783,-81.6951 708.783,-68.0403 708.783,-55.8032"/>
<polygon fill="black" stroke="black" points="712.283,-55.5142 708.783,-45.5142 705.283,-55.5143 712.283,-55.5142"/>
<text text-anchor="middle" x="787.489" y="-65.6548" font-family="sans-serif" font-size="12.00" fill="red">probabilistic graphical models</text>
</g>
<!-- Dan F&#45;M -->
<g id="node5" class="node"><title>Dan F&#45;M</title>
<ellipse fill="black" stroke="black" cx="902.783" cy="-22.6274" rx="77.1303" ry="22.7556"/>
<text text-anchor="middle" x="902.783" y="-15.4274" font-family="sans-serif" font-size="24.00" fill="white">Dan F&#45;M</text>
</g>
<!-- Usman Khan&#45;&gt;Dan F&#45;M -->
<g id="edge3" class="edge"><title>Usman Khan&#45;&gt;Dan F&#45;M</title>
<path fill="none" stroke="black" stroke-dasharray="1,5" d="M802.957,-104.221C826.323,-98.3364 850.244,-89.2537 869.783,-75.2548 877.385,-69.8081 883.658,-62.0137 888.617,-54.1265"/>
<polygon fill="black" stroke="black" points="891.737,-55.7212 893.66,-45.3023 885.659,-52.2481 891.737,-55.7212"/>
<text text-anchor="middle" x="901.359" y="-65.6548" font-family="sans-serif" font-size="12.00" fill="red">autodiff</text>
</g>
<!-- breakout -->
<g id="node6" class="node"><title>breakout</title>
<ellipse fill="black" stroke="black" cx="1075.78" cy="-22.6274" rx="77.213" ry="22.7556"/>
<text text-anchor="middle" x="1075.78" y="-15.4274" font-family="sans-serif" font-size="24.00" fill="white">breakout</text>
</g>
<!-- Usman Khan&#45;&gt;breakout -->
<g id="edge4" class="edge"><title>Usman Khan&#45;&gt;breakout</title>
<path fill="none" stroke="black" stroke-dasharray="1,5" d="M795.353,-102.012C835.089,-95.3361 882.637,-86.261 924.783,-75.2548 957.035,-66.8324 992.324,-54.9232 1020.67,-44.665"/>
<polygon fill="black" stroke="black" points="1022.2,-47.8327 1030.39,-41.1139 1019.8,-41.2577 1022.2,-47.8327"/>
<text text-anchor="middle" x="993.793" y="-65.6548" font-family="sans-serif" font-size="12.00" fill="red">GAIA DRI</text>
</g>
</g>
</svg>
