<?xml version="1.0" encoding="UTF-8" standalone="no"?>
<!DOCTYPE svg PUBLIC "-//W3C//DTD SVG 1.1//EN"
 "http://www.w3.org/Graphics/SVG/1.1/DTD/svg11.dtd">
<!-- Generated by graphviz version 2.38.0 (20140413.2041)
 -->
<!-- Title: G Pages: 1 -->
<svg width="601pt" height="147pt"
 viewBox="0.00 0.00 600.89 146.51" xmlns="http://www.w3.org/2000/svg" xmlns:xlink="http://www.w3.org/1999/xlink">
<g id="graph0" class="graph" transform="scale(1 1) rotate(0) translate(4 142.51)">
<title>G</title>
<polygon fill="white" stroke="none" points="-4,4 -4,-142.51 596.893,-142.51 596.893,4 -4,4"/>
<!-- Phil Marshall -->
<g id="node1" class="node"><title>Phil Marshall</title>
<ellipse fill="black" stroke="black" cx="108.455" cy="-22.6274" rx="108.411" ry="22.7556"/>
<text text-anchor="middle" x="108.455" y="-15.4274" font-family="sans-serif" font-size="24.00" fill="white">Phil Marshall</text>
</g>
<!-- breakout -->
<g id="node2" class="node"><title>breakout</title>
<ellipse fill="black" stroke="black" cx="312.455" cy="-22.6274" rx="77.213" ry="22.7556"/>
<text text-anchor="middle" x="312.455" y="-15.4274" font-family="sans-serif" font-size="24.00" fill="white">breakout</text>
</g>
<!-- Usman Khan -->
<g id="node3" class="node"><title>Usman Khan</title>
<ellipse fill="black" stroke="black" cx="312.455" cy="-115.882" rx="109.333" ry="22.7556"/>
<text text-anchor="middle" x="312.455" y="-108.682" font-family="sans-serif" font-size="24.00" fill="white">Usman Khan</text>
</g>
<!-- Usman Khan&#45;&gt;Phil Marshall -->
<g id="edge1" class="edge"><title>Usman Khan&#45;&gt;Phil Marshall</title>
<path fill="none" stroke="black" stroke-dasharray="1,5" d="M221.671,-103.232C197.459,-97.361 172.178,-88.532 151.043,-75.2548 142.114,-69.6458 134.164,-61.5257 127.621,-53.3798"/>
<polygon fill="black" stroke="black" points="130.368,-51.2091 121.562,-45.3172 124.772,-55.4143 130.368,-51.2091"/>
<text text-anchor="middle" x="230.161" y="-65.6548" font-family="sans-serif" font-size="12.00" fill="red">probabilistic graphical models</text>
</g>
<!-- Usman Khan&#45;&gt;breakout -->
<g id="edge2" class="edge"><title>Usman Khan&#45;&gt;breakout</title>
<path fill="none" stroke="black" stroke-dasharray="1,5" d="M312.455,-92.792C312.455,-81.6951 312.455,-68.0403 312.455,-55.8032"/>
<polygon fill="black" stroke="black" points="315.955,-55.5142 312.455,-45.5142 308.955,-55.5143 315.955,-55.5142"/>
<text text-anchor="middle" x="332.031" y="-65.6548" font-family="sans-serif" font-size="12.00" fill="red">autodiff</text>
</g>
<!-- Zach Pace -->
<g id="node4" class="node"><title>Zach Pace</title>
<ellipse fill="black" stroke="black" cx="500.455" cy="-22.6274" rx="92.3753" ry="22.7556"/>
<text text-anchor="middle" x="500.455" y="-15.4274" font-family="sans-serif" font-size="24.00" fill="white">Zach Pace</text>
</g>
<!-- Usman Khan&#45;&gt;Zach Pace -->
<g id="edge3" class="edge"><title>Usman Khan&#45;&gt;Zach Pace</title>
<path fill="none" stroke="black" stroke-dasharray="1,5" d="M353.713,-94.856C382.413,-80.9247 420.813,-62.2856 451.132,-47.5688"/>
<polygon fill="black" stroke="black" points="452.795,-50.6524 460.262,-43.1369 449.738,-44.3551 452.795,-50.6524"/>
<text text-anchor="middle" x="438.131" y="-65.6548" font-family="sans-serif" font-size="12.00" fill="red">Jupyter</text>
</g>
</g>
</svg>
