<?xml version="1.0" encoding="UTF-8" standalone="no"?>
<!DOCTYPE svg PUBLIC "-//W3C//DTD SVG 1.1//EN"
 "http://www.w3.org/Graphics/SVG/1.1/DTD/svg11.dtd">
<!-- Generated by graphviz version 2.38.0 (20140413.2041)
 -->
<!-- Title: G Pages: 1 -->
<svg width="343pt" height="147pt"
 viewBox="0.00 0.00 342.67 146.51" xmlns="http://www.w3.org/2000/svg" xmlns:xlink="http://www.w3.org/1999/xlink">
<g id="graph0" class="graph" transform="scale(1 1) rotate(0) translate(4 142.51)">
<title>G</title>
<polygon fill="white" stroke="none" points="-4,4 -4,-142.51 338.671,-142.51 338.671,4 -4,4"/>
<!-- Dan F&#45;M -->
<g id="node1" class="node"><title>Dan F&#45;M</title>
<ellipse fill="black" stroke="black" cx="77.3149" cy="-22.6274" rx="77.1303" ry="22.7556"/>
<text text-anchor="middle" x="77.3149" y="-15.4274" font-family="sans-serif" font-size="24.00" fill="white">Dan F&#45;M</text>
</g>
<!-- breakout -->
<g id="node2" class="node"><title>breakout</title>
<ellipse fill="black" stroke="black" cx="257.315" cy="-22.6274" rx="77.213" ry="22.7556"/>
<text text-anchor="middle" x="257.315" y="-15.4274" font-family="sans-serif" font-size="24.00" fill="white">breakout</text>
</g>
<!-- Usman Khan -->
<g id="node3" class="node"><title>Usman Khan</title>
<ellipse fill="black" stroke="black" cx="167.315" cy="-115.882" rx="109.333" ry="22.7556"/>
<text text-anchor="middle" x="167.315" y="-108.682" font-family="sans-serif" font-size="24.00" fill="white">Usman Khan</text>
</g>
<!-- Usman Khan&#45;&gt;Dan F&#45;M -->
<g id="edge1" class="edge"><title>Usman Khan&#45;&gt;Dan F&#45;M</title>
<path fill="none" stroke="black" stroke-dasharray="1,5" d="M103.304,-97.5113C93.2678,-91.9966 84.1609,-84.7549 77.9028,-75.2548 74.0597,-69.4208 72.5021,-62.354 72.1946,-55.3456"/>
<polygon fill="black" stroke="black" points="75.6953,-55.377 72.518,-45.2699 68.6989,-55.1524 75.6953,-55.377"/>
<text text-anchor="middle" x="157.021" y="-65.6548" font-family="sans-serif" font-size="12.00" fill="red">probabilistic graphical models</text>
</g>
<!-- Usman Khan&#45;&gt;breakout -->
<g id="edge2" class="edge"><title>Usman Khan&#45;&gt;breakout</title>
<path fill="none" stroke="black" stroke-dasharray="1,5" d="M211.057,-94.9895C219.891,-89.522 228.535,-82.939 235.315,-75.2548 240.5,-69.3784 244.599,-62.0978 247.782,-54.8756"/>
<polygon fill="black" stroke="black" points="251.183,-55.7884 251.571,-45.2007 244.665,-53.2357 251.183,-55.7884"/>
<text text-anchor="middle" x="269.325" y="-65.6548" font-family="sans-serif" font-size="12.00" fill="red">GAIA DRI</text>
</g>
</g>
</svg>
